<svg xmlns="http://www.w3.org/2000/svg" viewBox="0 0 651 182"><defs><style>.cls-1{fill:#fafafa;}.cls-2{fill:#fffcca;}.cls-3,.cls-5{fill:#ccc;}.cls-4{stroke:#000;stroke-miterlimit:10;stroke-width:0.25px;}.cls-5{font-size:9.92px;font-family:MicrosoftYaHei, Microsoft YaHei;}.cls-6{fill:#f9f38f;}</style></defs><title>资源 12dachaoka</title><g id="图层_2" data-name="图层 2"><g id="图层_1-2" data-name="图层 1"><rect class="cls-1" width="156" height="182"/><rect class="cls-2" width="156" height="97"/><path d="M7.82,108.22c.61.42,1.38,1,2.3,1.79-.32.37-.57.67-.77.89-.76-.7-1.5-1.34-2.22-1.9Zm1,4c.35.15.71.28,1.08.42q-.58,2.4-1.26,5.34l-1.15-.38A48,48,0,0,0,8.79,112.26Zm-.25-7.56c.8.63,1.56,1.27,2.28,1.93-.29.31-.55.59-.8.84-.89-.9-1.61-1.57-2.15-2Zm11.28,8.18.72.79c-.68.54-1.38,1.07-2.11,1.57a8.19,8.19,0,0,0,2.64,1.33c-.18.22-.44.56-.77,1a8.51,8.51,0,0,1-4.76-4.48,15,15,0,0,1-1.41,1.25v2.4l2.23-.78c0,.41,0,.77,0,1.1-.61.18-1.27.42-2,.7a10.34,10.34,0,0,0-1,.46l-.61-.85a1.19,1.19,0,0,0,.33-1v-1.32a15.86,15.86,0,0,1-2.52,1.32,7.33,7.33,0,0,0-.73-1,14.09,14.09,0,0,0,5.08-3l-1.62.09a7.27,7.27,0,0,0-1.24.21l-.47-1a3.44,3.44,0,0,0,1.09-.5,17.18,17.18,0,0,0,2.45-2.5l1,.5c-.93,1-1.75,1.73-2.47,2.33,1.42,0,2.8-.06,4.16-.1-.39-.35-.82-.73-1.3-1.13l.66-.6c1.33,1,2.29,1.84,2.89,2.4l-.77.71-.58-.56-2.47.09a7.22,7.22,0,0,0,1.49,2.22A25,25,0,0,0,19.82,112.88ZM14,107.19l.84.64a25,25,0,0,1-3.39,2.54,6.18,6.18,0,0,0-.7-.81A15.46,15.46,0,0,0,14,107.19ZM11.5,106h4c-.19-.42-.39-.83-.62-1.24l1-.4c.3.56.56,1.11.81,1.64h4v1H11.5Zm6,1.26c1.28.84,2.37,1.62,3.28,2.33l-.67.8c-.81-.69-1.89-1.5-3.23-2.44Z"/><path d="M22.11,108.22c.62.42,1.38,1,2.31,1.79l-.77.89c-.77-.7-1.5-1.34-2.22-1.9Zm1,4c.34.15.7.28,1.07.42q-.59,2.4-1.25,5.34l-1.16-.38A48,48,0,0,0,23.09,112.26Zm-.25-7.56c.8.63,1.56,1.27,2.27,1.93-.28.31-.55.59-.79.84-.9-.9-1.61-1.57-2.15-2Zm11.28,8.18.71.79c-.68.54-1.38,1.07-2.11,1.57a8.19,8.19,0,0,0,2.64,1.33c-.18.22-.43.56-.77,1a8.49,8.49,0,0,1-4.75-4.48,14,14,0,0,1-1.42,1.25v2.4l2.24-.78c0,.41,0,.77,0,1.1-.62.18-1.28.42-2,.7a9.19,9.19,0,0,0-1,.46l-.62-.85a1.16,1.16,0,0,0,.34-1v-1.32a15.54,15.54,0,0,1-2.53,1.32,7.21,7.21,0,0,0-.72-1,14.26,14.26,0,0,0,5.08-3l-1.62.09a7.11,7.11,0,0,0-1.24.21l-.48-1a3.34,3.34,0,0,0,1.09-.5,17.73,17.73,0,0,0,2.46-2.5l1,.5c-.93,1-1.76,1.73-2.47,2.33,1.41,0,2.8-.06,4.16-.1-.39-.35-.83-.73-1.3-1.13l.66-.6q2,1.56,2.88,2.4l-.76.71-.59-.56-2.47.09A7.4,7.4,0,0,0,32,114.63,23.69,23.69,0,0,0,34.12,112.88Zm-5.8-5.69.84.64a25,25,0,0,1-3.39,2.54,5.51,5.51,0,0,0-.7-.81A15.2,15.2,0,0,0,28.32,107.19ZM25.8,106h4c-.19-.42-.4-.83-.62-1.24l1-.4c.29.56.56,1.11.8,1.64h4v1H25.8Zm6,1.26c1.27.84,2.37,1.62,3.28,2.33l-.67.8c-.82-.69-1.9-1.5-3.24-2.44Z"/><path d="M35.9,110.13h2.46v-5.69h1.15v5.69h9.85v1.09H43.25a9.76,9.76,0,0,0,6.4,5.27l-.85,1.14a11,11,0,0,1-6.74-6.41H39.51v5.06c1.06-.43,2.18-.92,3.37-1.48,0,.43,0,.85.06,1.25q-1.66.69-3.18,1.44a7,7,0,0,0-1,.69l-.83-1.08a1.24,1.24,0,0,0,.47-1v-4.86H35.9Zm4.44-1.7A23.81,23.81,0,0,0,47,104.9l.73.91a26.64,26.64,0,0,1-6.84,3.65C40.74,109.15,40.56,108.8,40.34,108.43Z"/><path d="M50.7,108.24c.95.57,1.89,1.2,2.81,1.88l-.78,1c-.94-.76-1.83-1.43-2.7-2Zm1.73,4a9.46,9.46,0,0,0,1.15.66q-1,2.5-2,5.19l-1.19-.67A38.91,38.91,0,0,0,52.43,112.28Zm-1-7.6c.87.58,1.77,1.25,2.7,2l-.76,1c-.87-.78-1.75-1.49-2.62-2.13ZM53.8,116.1h4.47v-9.23H54.64v-1h8.67v1H59.44v9.23h4.48v1H53.8Z"/><path d="M67.73,112.94l.94.71q-1.59,1.88-3.63,3.85c-.24-.26-.51-.52-.8-.78A38,38,0,0,0,67.73,112.94Zm-2-.84V111l1.6-3.71H64.55v-1.06h3.2l.82-1.91,1.2.25L69,106.27H78v1.06h-9.4L67,111h4.21V108h1.17V111h5v1.06h-5v4.12A1.58,1.58,0,0,1,70.52,118l-2.09,0-.21-1.25a17.41,17.41,0,0,0,2,.12c.65,0,1-.32,1-1V112.1Zm8,1.78.78-.77c1.29,1.06,2.57,2.17,3.86,3.33l-.87.88Q75.56,115.45,73.69,113.88Z"/><path d="M84.55,116.77l3.9,0,4.07-.11c-.15.36-.3.73-.44,1.09l-4.64,0-3.15-.06a3.83,3.83,0,0,1-3.46-1.67,16.2,16.2,0,0,0-1.69,2l-.6-1.19c.63-.62,1.23-1.21,1.83-1.76v-4.69H78.7v-1h2.74v6A3.5,3.5,0,0,0,84.55,116.77ZM80.11,104.7c.59.74,1.14,1.52,1.67,2.34l-.94.65q-.78-1.32-1.56-2.43ZM82,111.11c.55-.15,1.16-.33,1.84-.54v-2.42H82.22v-1H83.8v-2.65h1v2.65h1.52v1H84.85v2.1l1.48-.48a10.18,10.18,0,0,0,0,1.11c-.47.13-1,.29-1.48.45v2.5c0,1.1-.48,1.65-1.43,1.65-.28,0-.68,0-1.2,0a10.63,10.63,0,0,0-.18-1.13,7.67,7.67,0,0,0,1.13.09c.42,0,.63-.25.63-.76v-2l-1.61.55Zm9.85-6.17.25,1c-1.32.16-2.66.3-4,.42v2.48h4.34v1H90.74v6.25h-1v-6.25H88a9.38,9.38,0,0,1-2,6.25,8,8,0,0,0-.87-.84A8.17,8.17,0,0,0,87,109.53v-4.07C88.55,105.37,90.16,105.19,91.81,104.94Z"/><path d="M93.28,109v-1.06h4.81v1a17.43,17.43,0,0,1-4.32,7.84,7.5,7.5,0,0,0-.85-.85A15.73,15.73,0,0,0,97,109Zm6-4.47h1.13v2.24a22.91,22.91,0,0,0,1.37,3,26.19,26.19,0,0,0,3.08-3.07l.94.83a37,37,0,0,1-3.45,3.19,15.87,15.87,0,0,0,4.51,4.74,11.54,11.54,0,0,0-.95,1,18,18,0,0,1-5.5-7.15v6.52c0,1.39-.67,2.08-2,2.08H96.56c0-.35-.12-.77-.23-1.26a17.37,17.37,0,0,0,1.82.11c.73,0,1.09-.35,1.09-1Z"/><path class="cls-3" d="M6.58,138.25a8.59,8.59,0,0,0,2.86-.91,6.28,6.28,0,0,1-1.5-1.5l.51-.39H7.7v-4.06h3.4c0-.27,0-.57,0-.89H6.93v-.68h8.9v.68h-4v.89h3.21v4.54h-.74v-.48H11.61a3.83,3.83,0,0,1-.8,1.77,16,16,0,0,0,5.41.7q-.24.44-.39.78a15.22,15.22,0,0,1-5.66-.95A9.28,9.28,0,0,1,7,138.94Q6.84,138.61,6.58,138.25Zm1.85-5.15h2.65c0-.31,0-.66,0-1H8.43Zm2.64.65H8.43v1H11C11,134.48,11.05,134.13,11.07,133.75Zm-1,3.15a2.73,2.73,0,0,0,.77-1.45H8.49A4.9,4.9,0,0,0,10.09,136.9Zm1.63-2.11h2.6v-1H11.81A8.22,8.22,0,0,1,11.72,134.79Zm2.6-2.74H11.84c0,.39,0,.74,0,1h2.49Z"/><path class="cls-3" d="M16.47,132.7H18c-.27-.43-.53-.81-.77-1.12l.52-.37c.22.26.49.62.83,1.09l-.55.4h1.28c.35-.51.67-1,1-1.5l.69.39q-.46.6-.9,1.11h1.47v.62h-5.1Zm1,2.87.66.31c-.35.73-.69,1.39-1,2a4.72,4.72,0,0,0-.64-.35A14.58,14.58,0,0,0,17.49,135.57Zm-.74-1.06h2v-.92h.7v.92h1.9v.62h-1.9v2.53c0,.69-.33,1-1,1h-.94c0-.21-.06-.46-.11-.74.38,0,.67.06.89.06s.45-.16.45-.49v-2.38h-2Zm0-4.06h2.1c-.14-.26-.3-.55-.48-.86l.62-.29c.2.33.39.66.56,1l-.32.15h2.06v.62H16.78Zm3.5,5.17c.36.49.68.94.95,1.35l-.62.43a14,14,0,0,0-.9-1.4Zm1.63-5.46a17.72,17.72,0,0,0,3.7-.39l.25.74c-1.28.17-2.36.28-3.26.33v2.26h3.53v.66H24.75v5.07H24v-5.07H22.6v.47a6.86,6.86,0,0,1-1.43,4.63c-.15-.2-.32-.4-.51-.62a5.8,5.8,0,0,0,1.25-4Z"/><path class="cls-3" d="M31.37,135.28a2.33,2.33,0,0,1-.73,1.78,2.78,2.78,0,0,1-2,.67,3.13,3.13,0,0,1-1.58-.31v-1a2.83,2.83,0,0,0,1.55.49,1.81,1.81,0,0,0,1.27-.43,1.49,1.49,0,0,0,.48-1.15,1.34,1.34,0,0,0-.5-1.12,2.2,2.2,0,0,0-1.42-.4,12.17,12.17,0,0,0-1.27.06l.28-3.8H31v.83h-2.7l-.16,2.13.68,0a2.75,2.75,0,0,1,1.88.59A2.1,2.1,0,0,1,31.37,135.28Z"/><path class="cls-3" d="M33.36,132.19h3.43c-.12-.22-.26-.45-.41-.69l.64-.3c.21.33.41.66.59,1h3.45v2.13h-.71v-.23H34.06a9.22,9.22,0,0,1-.23,1.91,7.48,7.48,0,0,1-1.11,2.47c-.15-.2-.32-.42-.53-.66a6,6,0,0,0,.94-2,9.18,9.18,0,0,0,.23-2.31Zm.78-2.88H35c-.15.29-.3.57-.46.83h2.73v.6H34.11a8.64,8.64,0,0,1-1.36,1.51,5,5,0,0,0-.52-.54A6.85,6.85,0,0,0,34.14,129.31Zm6.21,3.46H34.06v.74h6.29Zm-5.46,6.11h-.7V134.8h7v3a.9.9,0,0,1-1,1h-.81a6.1,6.1,0,0,0-.14-.72l.86,0c.28,0,.42-.16.42-.47V137H39.05v1.5h-.67V137H37v1.5h-.68V137h-1.4Zm.29-6.77a11.43,11.43,0,0,0-.76-1l.52-.36c.24.24.51.54.81.89Zm-.29,4.34h1.4v-1.06h-1.4Zm2.08,0h1.41v-1.06H37Zm1.37-7.14h.78a9.12,9.12,0,0,1-.4.83h3v.6H38.36a9.54,9.54,0,0,1-.59.79,5.75,5.75,0,0,0-.58-.44A5.73,5.73,0,0,0,38.34,129.31Zm1.1,2.81a10.8,10.8,0,0,0-.77-1l.5-.35c.34.35.62.66.83.91Zm1.09,3.27H39.05v1.06h1.48Z"/><path d="M33.86,166.11c.18,1.24-.12,1.94-.92,2.1a3.42,3.42,0,0,1-1,0,5.45,5.45,0,0,0-.22-.79v2.46H31V161h2.79v.68c-.45,1.41-.73,2.28-.85,2.63A4.32,4.32,0,0,1,33.86,166.11Zm-1.2,1.38c.43-.07.58-.53.44-1.39a4.08,4.08,0,0,0-.87-1.7c.35-1.16.61-2.08.79-2.76H31.76v5.77A2.44,2.44,0,0,0,32.66,167.49Zm1.57-6.41h6v.71h-.88v6.58c0,.92-.44,1.38-1.31,1.38h-1.5c0-.24-.09-.52-.15-.83.62.05,1.11.07,1.48.07s.72-.26.72-.78v-6.41H34.23Zm.31,2.08h3v4.07H35.24v.64h-.7Zm2.27.69H35.24v2.69h1.57Z"/><path d="M40.5,168.71h4.4v-1.27H41.08v-.68H44.9v-1.27H42.21v.35h-.76v-5h7.7v5h-.76v-.35h-2.7v1.27h3.82v.68H45.69v1.27h4.44v.7H40.5Zm1.71-5.86H44.9v-1.31H42.21Zm0,2H44.9v-1.31H42.21Zm6.18-3.29h-2.7v1.31h2.7Zm-2.7,3.29h2.7v-1.31h-2.7Z"/><path d="M56.74,165.68c1,1.06,1.91,2.2,2.85,3.39l-.73.54q-.34-.48-.69-.93-3.48.12-5.88.27a6.33,6.33,0,0,0-.78.16l-.39-.89a2.9,2.9,0,0,0,1-.75A20.81,20.81,0,0,0,54,164.74H50.52V164H60v.72H55.07c-1,1.44-1.81,2.58-2.51,3.42,2.2-.06,3.9-.11,5.09-.16-.52-.65-1-1.29-1.55-1.9Zm-5.32-4.63h7.67v.71H51.42Z"/><path d="M60.42,165.65h4.82q.15-2,.15-5.22h.84q0,2.83-.15,5.22h3.78v.7H66a2.91,2.91,0,0,1-.23.64q1.95,1,4,2.11l-.5.74q-2-1.25-3.87-2.23A9.3,9.3,0,0,1,60.89,170c-.12-.2-.29-.45-.52-.76,2.75-.76,4.32-1.71,4.69-2.86H60.42Zm1-2.85c.92.55,1.76,1.09,2.51,1.62l-.47.67c-.75-.56-1.57-1.12-2.47-1.7Zm1-2.08c1,.59,1.79,1.12,2.45,1.59l-.48.66c-.87-.66-1.66-1.22-2.38-1.68Z"/><path d="M70.69,163.41a12.83,12.83,0,0,0,2.69-3.07h.88c-.2.32-.41.63-.61.93h4.74V162a13.29,13.29,0,0,1-2.4,1.85,15.33,15.33,0,0,0,3.9.78,2.72,2.72,0,0,0-.43.85,17.71,17.71,0,0,1-4.28-1.19,21.64,21.64,0,0,1-4.6,1.41,5.71,5.71,0,0,0-.35-.7,20.81,20.81,0,0,0,4.17-1.12,7.46,7.46,0,0,1-1.66-1.41,14.81,14.81,0,0,1-1.47,1.49A6.35,6.35,0,0,0,70.69,163.41ZM73,166.92l.57.53a30.88,30.88,0,0,1-2.59,2c-.15-.2-.32-.39-.5-.59A15.91,15.91,0,0,0,73,166.92Zm-1.83-1h3.59v-1h.77v1H78.9v.69H75.54v2c0,.76-.4,1.14-1.19,1.14H73.13c0-.27-.09-.55-.15-.85a10.42,10.42,0,0,0,1.13.07c.44,0,.66-.23.66-.7v-1.68H71.18Zm6.22-4H73.17a7.83,7.83,0,0,0,2,1.54A12.31,12.31,0,0,0,77.4,161.92Zm-1,5.65.45-.55c1.06.58,2,1.13,2.81,1.66l-.46.68C78.47,168.8,77.54,168.21,76.45,167.57Z"/><path d="M83,167.4,82.2,170h-.68l.6-2.58Z"/><path d="M93.39,166.11c.18,1.24-.12,1.94-.92,2.1a3.42,3.42,0,0,1-1,0,7.1,7.1,0,0,0-.22-.79v2.46h-.72V161h2.79v.68c-.45,1.41-.73,2.28-.85,2.63A4.32,4.32,0,0,1,93.39,166.11Zm-1.21,1.38c.44-.07.59-.53.45-1.39a4.08,4.08,0,0,0-.87-1.7c.35-1.16.61-2.08.79-2.76H91.29v5.77A2.41,2.41,0,0,0,92.18,167.49Zm1.58-6.41h6v.71h-.88v6.58c0,.92-.44,1.38-1.31,1.38h-1.5c0-.24-.09-.52-.15-.83.62.05,1.11.07,1.48.07s.72-.26.72-.78v-6.41H93.76Zm.31,2.08h3v4.07H94.77v.64h-.7Zm2.27.69H94.77v2.69h1.57Z"/><path d="M100,168.71h4.4v-1.27h-3.82v-.68h3.82v-1.27h-2.69v.35H101v-5h7.7v5h-.76v-.35h-2.7v1.27H109v.68h-3.82v1.27h4.44v.7H100Zm1.71-5.86h2.69v-1.31h-2.69Zm0,2h2.69v-1.31h-2.69Zm6.18-3.29h-2.7v1.31h2.7Zm-2.7,3.29h2.7v-1.31h-2.7Z"/><path d="M116.27,165.68c1,1.06,1.91,2.2,2.85,3.39l-.73.54q-.35-.48-.69-.93-3.48.12-5.88.27a6,6,0,0,0-.78.16l-.39-.89a2.9,2.9,0,0,0,1-.75,21.81,21.81,0,0,0,1.92-2.73h-3.49V164h9.48v.72H114.6c-1,1.44-1.81,2.58-2.51,3.42,2.2-.06,3.9-.11,5.09-.16-.52-.65-1-1.29-1.55-1.9ZM111,161.05h7.67v.71H111Z"/><path d="M120,168.79h9.5v.66H120Zm.31-7.29h4c-.15-.28-.33-.57-.52-.87l.69-.35c.28.44.52.85.73,1.22h3.86v1.82h-.73v-1.18H121v1.18h-.74Zm1.13,2.86h6.54v3.93h-.72v-.39h-5.11v.39h-.71Zm.12-1.39h6.29v.63h-6.29Zm5.7,2h-5.11v.84h5.11Zm-5.11,2.3h5.11v-.86h-5.11Z"/><path d="M134.67,162.92h.78v1.49h3v3.35c0,.76-.33,1.15-1,1.15H136c0-.22-.09-.48-.16-.79l1.17.06c.43,0,.64-.19.64-.6v-2.46h-2.22v4.77h-.78v-4.77h-2.18v4h-.76v-3.82c-.44.57-.91,1.13-1.4,1.68a4.3,4.3,0,0,0-.55-.65,18.8,18.8,0,0,0,2.91-3.94h-2.75v-.69H133a15,15,0,0,0,.61-1.43l.77.31c-.16.38-.33.75-.5,1.12h5.4v.69h-5.75c-.37.68-.76,1.35-1.19,2h2.29Z"/><path d="M140.13,168.1a.6.6,0,0,1,.18-.44.65.65,0,0,1,.9,0,.6.6,0,0,1,.18.44.58.58,0,0,1-.18.43.59.59,0,0,1-.46.19.56.56,0,0,1-.44-.19A.58.58,0,0,1,140.13,168.1Z"/><path d="M142.52,168.1a.61.61,0,0,1,.62-.62.58.58,0,0,1,.45.18.6.6,0,0,1,.18.44.58.58,0,0,1-.18.43.57.57,0,0,1-.45.19.55.55,0,0,1-.44-.19A.58.58,0,0,1,142.52,168.1Z"/><path d="M144.91,168.1a.6.6,0,0,1,.18-.44.59.59,0,0,1,.44-.18.61.61,0,0,1,.45.18.6.6,0,0,1,.18.44.63.63,0,0,1-1.08.43A.61.61,0,0,1,144.91,168.1Z"/><line class="cls-4" y1="146.76" x2="156" y2="146.76"/><rect class="cls-1" x="165" width="156" height="182"/><rect class="cls-2" x="165" width="156" height="97"/><path d="M172.82,108.22c.61.42,1.38,1,2.3,1.79-.32.37-.57.67-.77.89-.76-.7-1.5-1.34-2.22-1.9Zm1,4c.35.15.71.28,1.08.42q-.59,2.4-1.26,5.34l-1.15-.38A48,48,0,0,0,173.79,112.26Zm-.25-7.56c.8.63,1.56,1.27,2.28,1.93-.29.31-.55.59-.8.84-.89-.9-1.61-1.57-2.15-2Zm11.28,8.18.72.79c-.68.54-1.38,1.07-2.11,1.57a8.19,8.19,0,0,0,2.64,1.33c-.18.22-.44.56-.77,1a8.51,8.51,0,0,1-4.76-4.48,15,15,0,0,1-1.41,1.25v2.4l2.23-.78c0,.41,0,.77,0,1.1-.61.18-1.27.42-2,.7a10.34,10.34,0,0,0-1,.46l-.61-.85a1.19,1.19,0,0,0,.33-1v-1.32a15.86,15.86,0,0,1-2.52,1.32,7.33,7.33,0,0,0-.73-1,14.09,14.09,0,0,0,5.08-3l-1.62.09a7.27,7.27,0,0,0-1.24.21l-.47-1a3.44,3.44,0,0,0,1.09-.5,17.18,17.18,0,0,0,2.45-2.5l1,.5c-.93,1-1.75,1.73-2.47,2.33,1.42,0,2.8-.06,4.16-.1-.39-.35-.82-.73-1.3-1.13l.66-.6c1.33,1,2.29,1.84,2.89,2.4l-.77.71-.58-.56-2.47.09a7.22,7.22,0,0,0,1.49,2.22A25,25,0,0,0,184.82,112.88ZM179,107.19l.84.64a25,25,0,0,1-3.39,2.54,6.18,6.18,0,0,0-.7-.81A15.46,15.46,0,0,0,179,107.19ZM176.5,106h4c-.19-.42-.39-.83-.62-1.24l1-.4c.3.56.56,1.11.81,1.64h4v1H176.5Zm6,1.26c1.28.84,2.37,1.62,3.28,2.33l-.67.8c-.81-.69-1.89-1.5-3.23-2.44Z"/><path d="M187.11,108.22c.62.42,1.38,1,2.31,1.79l-.77.89c-.77-.7-1.5-1.34-2.22-1.9Zm1,4c.34.15.7.28,1.07.42q-.58,2.4-1.25,5.34l-1.16-.38A48,48,0,0,0,188.09,112.26Zm-.25-7.56c.8.63,1.56,1.27,2.27,1.93-.28.31-.55.59-.79.84-.9-.9-1.61-1.57-2.15-2Zm11.28,8.18.71.79c-.68.54-1.38,1.07-2.11,1.57a8.19,8.19,0,0,0,2.64,1.33c-.18.22-.43.56-.77,1a8.49,8.49,0,0,1-4.75-4.48,14,14,0,0,1-1.42,1.25v2.4l2.24-.78c0,.41,0,.77,0,1.1-.62.18-1.28.42-2,.7a9.19,9.19,0,0,0-1,.46l-.62-.85a1.16,1.16,0,0,0,.34-1v-1.32a15.54,15.54,0,0,1-2.53,1.32,7.21,7.21,0,0,0-.72-1,14.26,14.26,0,0,0,5.08-3l-1.62.09a7.11,7.11,0,0,0-1.24.21l-.48-1a3.34,3.34,0,0,0,1.09-.5,17.73,17.73,0,0,0,2.46-2.5l1,.5c-.93,1-1.76,1.73-2.47,2.33,1.41,0,2.8-.06,4.16-.1-.39-.35-.83-.73-1.3-1.13l.66-.6q2,1.56,2.88,2.4l-.76.71-.59-.56-2.47.09a7.4,7.4,0,0,0,1.49,2.22A23.69,23.69,0,0,0,199.12,112.88Zm-5.8-5.69.84.64a25,25,0,0,1-3.39,2.54,5.51,5.51,0,0,0-.7-.81A15.2,15.2,0,0,0,193.32,107.19ZM190.8,106h4c-.19-.42-.4-.83-.62-1.24l1-.4c.29.56.56,1.11.8,1.64h4v1H190.8Zm6,1.26c1.27.84,2.37,1.62,3.28,2.33l-.67.8c-.82-.69-1.9-1.5-3.24-2.44Z"/><path d="M200.9,110.13h2.46v-5.69h1.15v5.69h9.85v1.09h-6.11a9.76,9.76,0,0,0,6.4,5.27l-.85,1.14a11,11,0,0,1-6.74-6.41h-2.55v5.06c1.06-.43,2.18-.92,3.37-1.48,0,.43,0,.85.06,1.25q-1.66.69-3.18,1.44a7,7,0,0,0-1,.69l-.83-1.08a1.24,1.24,0,0,0,.47-1v-4.86H200.9Zm4.44-1.7A23.81,23.81,0,0,0,212,104.9l.73.91a26.64,26.64,0,0,1-6.84,3.65C205.74,109.15,205.56,108.8,205.34,108.43Z"/><path d="M215.7,108.24c1,.57,1.89,1.2,2.81,1.88l-.78,1c-.94-.76-1.83-1.43-2.7-2Zm1.73,4a9.46,9.46,0,0,0,1.15.66q-1,2.5-2,5.19l-1.19-.67A38.91,38.91,0,0,0,217.43,112.28Zm-1-7.6c.87.58,1.77,1.25,2.7,2l-.76,1c-.87-.78-1.75-1.49-2.62-2.13Zm2.39,11.42h4.47v-9.23h-3.63v-1h8.67v1h-3.87v9.23h4.48v1H218.8Z"/><path d="M232.73,112.94l.94.71q-1.59,1.88-3.63,3.85c-.24-.26-.51-.52-.8-.78A38,38,0,0,0,232.73,112.94Zm-2-.84V111l1.6-3.71h-2.74v-1.06h3.2l.82-1.91,1.2.25-.73,1.66H243v1.06h-9.4L232,111h4.21V108h1.17V111h5v1.06h-5v4.12a1.58,1.58,0,0,1-1.82,1.75l-2.09,0-.21-1.25a17.41,17.41,0,0,0,2,.12c.65,0,1-.32,1-1V112.1Zm8,1.78.78-.77c1.29,1.06,2.57,2.17,3.86,3.33l-.87.88Q240.56,115.45,238.69,113.88Z"/><path d="M249.55,116.77l3.9,0,4.07-.11c-.15.36-.3.73-.44,1.09l-4.64,0-3.15-.06a3.83,3.83,0,0,1-3.46-1.67,16.2,16.2,0,0,0-1.69,2l-.6-1.19c.63-.62,1.23-1.21,1.83-1.76v-4.69H243.7v-1h2.74v6A3.5,3.5,0,0,0,249.55,116.77Zm-4.44-12.07c.59.74,1.14,1.52,1.67,2.34l-.94.65q-.78-1.32-1.56-2.43Zm1.85,6.41c.55-.15,1.16-.33,1.84-.54v-2.42h-1.58v-1h1.58v-2.65h1v2.65h1.52v1h-1.52v2.1l1.48-.48a10.18,10.18,0,0,0,0,1.11c-.47.13-1,.29-1.48.45v2.5c0,1.1-.48,1.65-1.43,1.65-.28,0-.68,0-1.2,0a10.63,10.63,0,0,0-.18-1.13,7.67,7.67,0,0,0,1.13.09c.42,0,.63-.25.63-.76v-2l-1.61.55Zm9.85-6.17.25,1c-1.32.16-2.66.3-4,.42v2.48h4.34v1h-1.63v6.25h-1.05v-6.25H253a9.38,9.38,0,0,1-2,6.25,8,8,0,0,0-.87-.84,8.17,8.17,0,0,0,1.83-5.74v-4.07C253.55,105.37,255.16,105.19,256.81,104.94Z"/><path d="M258.28,109v-1.06h4.81v1a17.43,17.43,0,0,1-4.32,7.84,7.5,7.5,0,0,0-.85-.85,15.73,15.73,0,0,0,4.06-7Zm6-4.47h1.13v2.24a22.91,22.91,0,0,0,1.37,3,26.19,26.19,0,0,0,3.08-3.07l.94.83a37,37,0,0,1-3.45,3.19,15.87,15.87,0,0,0,4.51,4.74,11.54,11.54,0,0,0-.95,1,18,18,0,0,1-5.5-7.15v6.52c0,1.39-.67,2.08-2,2.08h-1.81c-.05-.35-.12-.77-.23-1.26a17.37,17.37,0,0,0,1.82.11c.73,0,1.09-.35,1.09-1Z"/><text class="cls-5" transform="translate(294.42 137.6)">前往</text><path d="M198.86,166.11c.18,1.24-.12,1.94-.92,2.1a3.42,3.42,0,0,1-1,0,5.45,5.45,0,0,0-.22-.79v2.46H196V161h2.79v.68c-.45,1.41-.73,2.28-.85,2.63A4.32,4.32,0,0,1,198.86,166.11Zm-1.2,1.38c.43-.07.58-.53.44-1.39a4.08,4.08,0,0,0-.87-1.7c.35-1.16.61-2.08.79-2.76h-1.26v5.77A2.44,2.44,0,0,0,197.66,167.49Zm1.57-6.41h6v.71h-.88v6.58c0,.92-.44,1.38-1.31,1.38h-1.5c0-.24-.09-.52-.15-.83.62.05,1.11.07,1.48.07s.72-.26.72-.78v-6.41h-4.35Zm.31,2.08h3v4.07h-2.27v.64h-.7Zm2.27.69h-1.57v2.69h1.57Z"/><path d="M205.5,168.71h4.4v-1.27h-3.82v-.68h3.82v-1.27h-2.69v.35h-.76v-5h7.7v5h-.76v-.35h-2.7v1.27h3.82v.68h-3.82v1.27h4.44v.7H205.5Zm1.71-5.86h2.69v-1.31h-2.69Zm0,2h2.69v-1.31h-2.69Zm6.18-3.29h-2.7v1.31h2.7Zm-2.7,3.29h2.7v-1.31h-2.7Z"/><path d="M221.74,165.68c1,1.06,1.91,2.2,2.85,3.39l-.73.54q-.35-.48-.69-.93-3.48.12-5.88.27a6.33,6.33,0,0,0-.78.16l-.39-.89a2.9,2.9,0,0,0,1-.75,20.81,20.81,0,0,0,1.92-2.73h-3.49V164H225v.72h-4.93c-1,1.44-1.81,2.58-2.51,3.42,2.2-.06,3.9-.11,5.09-.16-.52-.65-1-1.29-1.55-1.9Zm-5.32-4.63h7.67v.71h-7.67Z"/><path d="M225.42,165.65h4.82q.15-2,.15-5.22h.84q0,2.83-.15,5.22h3.78v.7H231a2.91,2.91,0,0,1-.23.64q2,1,4,2.11l-.5.74q-2-1.25-3.87-2.23a9.3,9.3,0,0,1-4.42,2.36c-.12-.2-.29-.45-.52-.76,2.75-.76,4.32-1.71,4.69-2.86h-4.64Zm1-2.85c.92.55,1.76,1.09,2.51,1.62l-.47.67c-.75-.56-1.57-1.12-2.47-1.7Zm1-2.08c1,.59,1.79,1.12,2.45,1.59l-.48.66c-.87-.66-1.66-1.22-2.38-1.68Z"/><path d="M235.69,163.41a12.83,12.83,0,0,0,2.69-3.07h.88c-.2.32-.41.63-.61.93h4.74V162a13.29,13.29,0,0,1-2.4,1.85,15.33,15.33,0,0,0,3.9.78,2.72,2.72,0,0,0-.43.85,17.71,17.71,0,0,1-4.28-1.19,21.64,21.64,0,0,1-4.6,1.41,5.71,5.71,0,0,0-.35-.7,20.81,20.81,0,0,0,4.17-1.12,7.46,7.46,0,0,1-1.66-1.41,14.81,14.81,0,0,1-1.47,1.49A6.35,6.35,0,0,0,235.69,163.41Zm2.32,3.51.57.53a30.88,30.88,0,0,1-2.59,2c-.15-.2-.32-.39-.5-.59A15.91,15.91,0,0,0,238,166.92Zm-1.83-1h3.59v-1h.77v1h3.36v.69h-3.36v2c0,.76-.4,1.14-1.19,1.14h-1.22c0-.27-.09-.55-.15-.85a10.42,10.42,0,0,0,1.13.07c.44,0,.66-.23.66-.7v-1.68h-3.59Zm6.22-4h-4.23a7.83,7.83,0,0,0,2,1.54A12.31,12.31,0,0,0,242.4,161.92Zm-1,5.65.45-.55c1.06.58,2,1.13,2.81,1.66l-.46.68C243.47,168.8,242.54,168.21,241.45,167.57Z"/><path d="M248,167.4,247.2,170h-.68l.6-2.58Z"/><path d="M258.39,166.11c.18,1.24-.12,1.94-.92,2.1a3.42,3.42,0,0,1-1,0,7.1,7.1,0,0,0-.22-.79v2.46h-.72V161h2.79v.68c-.45,1.41-.73,2.28-.85,2.63A4.32,4.32,0,0,1,258.39,166.11Zm-1.21,1.38c.44-.07.59-.53.45-1.39a4.08,4.08,0,0,0-.87-1.7c.35-1.16.61-2.08.79-2.76h-1.26v5.77A2.41,2.41,0,0,0,257.18,167.49Zm1.58-6.41h6v.71h-.88v6.58c0,.92-.44,1.38-1.31,1.38h-1.5c0-.24-.09-.52-.15-.83.62.05,1.11.07,1.48.07s.72-.26.72-.78v-6.41h-4.35Zm.31,2.08h3v4.07h-2.27v.64h-.7Zm2.27.69h-1.57v2.69h1.57Z"/><path d="M265,168.71h4.4v-1.27h-3.82v-.68h3.82v-1.27h-2.69v.35H266v-5h7.7v5h-.76v-.35h-2.7v1.27H274v.68h-3.82v1.27h4.44v.7H265Zm1.71-5.86h2.69v-1.31h-2.69Zm0,2h2.69v-1.31h-2.69Zm6.18-3.29h-2.7v1.31h2.7Zm-2.7,3.29h2.7v-1.31h-2.7Z"/><path d="M281.27,165.68c1,1.06,1.91,2.2,2.85,3.39l-.73.54q-.34-.48-.69-.93-3.48.12-5.88.27a6,6,0,0,0-.78.16l-.39-.89a2.9,2.9,0,0,0,1-.75,21.81,21.81,0,0,0,1.92-2.73h-3.49V164h9.48v.72H279.6c-1,1.44-1.81,2.58-2.51,3.42,2.2-.06,3.9-.11,5.09-.16-.52-.65-1-1.29-1.55-1.9ZM276,161.05h7.67v.71H276Z"/><path d="M285,168.79h9.5v.66H285Zm.31-7.29h4c-.15-.28-.33-.57-.52-.87l.69-.35c.28.44.52.85.73,1.22h3.86v1.82h-.73v-1.18H286v1.18h-.74Zm1.13,2.86h6.54v3.93h-.72v-.39h-5.11v.39h-.71Zm.12-1.39h6.29v.63h-6.29Zm5.7,2h-5.11v.84h5.11Zm-5.11,2.3h5.11v-.86h-5.11Z"/><path d="M299.67,162.92h.78v1.49h3v3.35c0,.76-.33,1.15-1,1.15H301c0-.22-.09-.48-.16-.79l1.17.06c.43,0,.64-.19.64-.6v-2.46h-2.22v4.77h-.78v-4.77h-2.18v4h-.76v-3.82c-.44.57-.91,1.13-1.4,1.68a4.3,4.3,0,0,0-.55-.65,18.8,18.8,0,0,0,2.91-3.94h-2.75v-.69H298a15,15,0,0,0,.61-1.43l.77.31c-.16.38-.33.75-.5,1.12h5.4v.69h-5.75c-.37.68-.76,1.35-1.19,2h2.29Z"/><path d="M305.13,168.1a.6.6,0,0,1,.18-.44.65.65,0,0,1,.9,0,.6.6,0,0,1,.18.44.58.58,0,0,1-.18.43.59.59,0,0,1-.46.19.56.56,0,0,1-.44-.19A.58.58,0,0,1,305.13,168.1Z"/><path d="M307.52,168.1a.61.61,0,0,1,.62-.62.58.58,0,0,1,.45.18.6.6,0,0,1,.18.44.58.58,0,0,1-.18.43.57.57,0,0,1-.45.19.55.55,0,0,1-.44-.19A.58.58,0,0,1,307.52,168.1Z"/><path d="M309.91,168.1a.6.6,0,0,1,.18-.44.59.59,0,0,1,.44-.18.61.61,0,0,1,.45.18.6.6,0,0,1,.18.44.63.63,0,0,1-1.08.43A.61.61,0,0,1,309.91,168.1Z"/><line class="cls-4" x1="165" y1="146.76" x2="321" y2="146.76"/><rect class="cls-1" x="330" width="156" height="182"/><rect class="cls-2" x="330" width="156" height="97"/><path d="M337.82,108.22c.61.42,1.38,1,2.3,1.79-.32.37-.57.67-.77.89-.76-.7-1.5-1.34-2.22-1.9Zm1,4c.35.15.71.28,1.08.42q-.58,2.4-1.26,5.34l-1.15-.38A48,48,0,0,0,338.79,112.26Zm-.25-7.56c.8.63,1.56,1.27,2.28,1.93-.29.31-.55.59-.8.84-.89-.9-1.61-1.57-2.15-2Zm11.28,8.18.72.79c-.68.54-1.38,1.07-2.11,1.57a8.19,8.19,0,0,0,2.64,1.33c-.18.22-.44.56-.77,1a8.51,8.51,0,0,1-4.76-4.48,15,15,0,0,1-1.41,1.25v2.4l2.23-.78c0,.41,0,.77,0,1.1-.61.18-1.27.42-2,.7a10.34,10.34,0,0,0-1,.46l-.61-.85a1.19,1.19,0,0,0,.33-1v-1.32a15.86,15.86,0,0,1-2.52,1.32,7.33,7.33,0,0,0-.73-1,14.09,14.09,0,0,0,5.08-3l-1.62.09a7.27,7.27,0,0,0-1.24.21l-.47-1a3.44,3.44,0,0,0,1.09-.5,17.18,17.18,0,0,0,2.45-2.5l1,.5c-.93,1-1.75,1.73-2.47,2.33,1.42,0,2.8-.06,4.16-.1-.39-.35-.82-.73-1.3-1.13l.66-.6c1.33,1,2.29,1.84,2.89,2.4l-.77.71-.58-.56-2.47.09a7.22,7.22,0,0,0,1.49,2.22A25,25,0,0,0,349.82,112.88ZM344,107.19l.84.64a25,25,0,0,1-3.39,2.54,6.18,6.18,0,0,0-.7-.81A15.46,15.46,0,0,0,344,107.19ZM341.5,106h4c-.19-.42-.39-.83-.62-1.24l1-.4c.3.56.56,1.11.81,1.64h4v1H341.5Zm6,1.26c1.28.84,2.37,1.62,3.28,2.33l-.67.8c-.81-.69-1.89-1.5-3.23-2.44Z"/><path d="M352.11,108.22c.62.42,1.38,1,2.31,1.79l-.77.89c-.77-.7-1.5-1.34-2.22-1.9Zm1,4c.34.15.7.28,1.07.42q-.59,2.4-1.25,5.34l-1.16-.38A48,48,0,0,0,353.09,112.26Zm-.25-7.56c.8.63,1.56,1.27,2.27,1.93-.28.31-.55.59-.79.84-.9-.9-1.61-1.57-2.15-2Zm11.28,8.18.71.79c-.68.54-1.38,1.07-2.11,1.57a8.19,8.19,0,0,0,2.64,1.33c-.18.22-.43.56-.77,1a8.49,8.49,0,0,1-4.75-4.48,14,14,0,0,1-1.42,1.25v2.4l2.24-.78c0,.41,0,.77,0,1.1-.62.18-1.28.42-2,.7a9.19,9.19,0,0,0-1,.46l-.62-.85a1.16,1.16,0,0,0,.34-1v-1.32a15.54,15.54,0,0,1-2.53,1.32,7.21,7.21,0,0,0-.72-1,14.26,14.26,0,0,0,5.08-3l-1.62.09a7.11,7.11,0,0,0-1.24.21l-.48-1a3.34,3.34,0,0,0,1.09-.5,17.73,17.73,0,0,0,2.46-2.5l1,.5c-.93,1-1.76,1.73-2.47,2.33,1.41,0,2.8-.06,4.16-.1-.39-.35-.83-.73-1.3-1.13l.66-.6q2,1.56,2.88,2.4l-.76.71-.59-.56-2.47.09a7.4,7.4,0,0,0,1.49,2.22A23.69,23.69,0,0,0,364.12,112.88Zm-5.8-5.69.84.64a25,25,0,0,1-3.39,2.54,5.51,5.51,0,0,0-.7-.81A15.2,15.2,0,0,0,358.32,107.19ZM355.8,106h4c-.19-.42-.4-.83-.62-1.24l1-.4c.29.56.56,1.11.8,1.64h4v1H355.8Zm6,1.26c1.27.84,2.37,1.62,3.28,2.33l-.67.8c-.82-.69-1.9-1.5-3.24-2.44Z"/><path d="M365.9,110.13h2.46v-5.69h1.15v5.69h9.85v1.09h-6.11a9.76,9.76,0,0,0,6.4,5.27l-.85,1.14a11,11,0,0,1-6.74-6.41h-2.55v5.06c1.06-.43,2.18-.92,3.37-1.48,0,.43,0,.85.06,1.25q-1.67.69-3.18,1.44a7,7,0,0,0-1,.69l-.83-1.08a1.24,1.24,0,0,0,.47-1v-4.86H365.9Zm4.44-1.7A23.81,23.81,0,0,0,377,104.9l.73.91a26.64,26.64,0,0,1-6.84,3.65C370.74,109.15,370.56,108.8,370.34,108.43Z"/><path d="M380.7,108.24c.95.57,1.89,1.2,2.81,1.88l-.78,1c-.94-.76-1.83-1.43-2.7-2Zm1.73,4a9.46,9.46,0,0,0,1.15.66q-1,2.5-2,5.19l-1.19-.67A38.91,38.91,0,0,0,382.43,112.28Zm-1-7.6c.87.58,1.77,1.25,2.7,2l-.76,1c-.87-.78-1.75-1.49-2.62-2.13Zm2.39,11.42h4.47v-9.23h-3.63v-1h8.67v1h-3.87v9.23h4.48v1H383.8Z"/><path d="M397.73,112.94l.94.71q-1.59,1.88-3.63,3.85c-.24-.26-.51-.52-.8-.78A38,38,0,0,0,397.73,112.94Zm-2-.84V111l1.6-3.71h-2.74v-1.06h3.2l.82-1.91,1.2.25-.73,1.66H408v1.06h-9.4L397,111h4.21V108h1.17V111h5v1.06h-5v4.12a1.58,1.58,0,0,1-1.82,1.75l-2.09,0-.21-1.25a17.41,17.41,0,0,0,2,.12c.65,0,1-.32,1-1V112.1Zm8,1.78.78-.77c1.29,1.06,2.57,2.17,3.86,3.33l-.87.88Q405.56,115.45,403.69,113.88Z"/><path d="M414.55,116.77l3.9,0,4.07-.11c-.15.36-.3.73-.44,1.09l-4.64,0-3.15-.06a3.83,3.83,0,0,1-3.46-1.67,16.2,16.2,0,0,0-1.69,2l-.6-1.19c.63-.62,1.23-1.21,1.83-1.76v-4.69H408.7v-1h2.74v6A3.5,3.5,0,0,0,414.55,116.77Zm-4.44-12.07c.59.74,1.14,1.52,1.67,2.34l-.94.65q-.78-1.32-1.56-2.43Zm1.85,6.41c.55-.15,1.16-.33,1.84-.54v-2.42h-1.58v-1h1.58v-2.65h1.05v2.65h1.52v1h-1.52v2.1l1.48-.48a10.18,10.18,0,0,0,0,1.11c-.47.13-1,.29-1.48.45v2.5c0,1.1-.48,1.65-1.43,1.65-.28,0-.68,0-1.2,0a10.63,10.63,0,0,0-.18-1.13,7.67,7.67,0,0,0,1.13.09c.42,0,.63-.25.63-.76v-2l-1.61.55Zm9.85-6.17.25,1c-1.32.16-2.66.3-4,.42v2.48h4.34v1h-1.63v6.25h-1.05v-6.25H418a9.38,9.38,0,0,1-2,6.25,8,8,0,0,0-.87-.84,8.17,8.17,0,0,0,1.83-5.74v-4.07C418.55,105.37,420.16,105.19,421.81,104.94Z"/><path d="M423.28,109v-1.06h4.81v1a17.43,17.43,0,0,1-4.32,7.84,7.5,7.5,0,0,0-.85-.85,15.73,15.73,0,0,0,4.06-7Zm6-4.47h1.13v2.24a22.91,22.91,0,0,0,1.37,3,26.19,26.19,0,0,0,3.08-3.07l.94.83a37,37,0,0,1-3.45,3.19,15.87,15.87,0,0,0,4.51,4.74,11.54,11.54,0,0,0-.95,1,18,18,0,0,1-5.5-7.15v6.52c0,1.39-.67,2.08-2,2.08h-1.81c-.05-.35-.12-.77-.23-1.26a17.37,17.37,0,0,0,1.82.11c.73,0,1.09-.35,1.09-1Z"/><path class="cls-3" d="M336.58,138.25a8.59,8.59,0,0,0,2.86-.91,6.28,6.28,0,0,1-1.5-1.5l.51-.39h-.75v-4.06h3.4c0-.27,0-.57,0-.89h-4.18v-.68h8.9v.68h-4v.89h3.21v4.54h-.74v-.48h-2.71a3.83,3.83,0,0,1-.8,1.77,16,16,0,0,0,5.41.7q-.24.44-.39.78a15.22,15.22,0,0,1-5.66-.95,9.28,9.28,0,0,1-3.14,1.19Q336.84,138.61,336.58,138.25Zm1.85-5.15h2.65c0-.31,0-.66,0-1h-2.66Zm2.64.65h-2.64v1H341C341,134.48,341.05,134.13,341.07,133.75Zm-1,3.15a2.73,2.73,0,0,0,.77-1.45h-2.37A4.9,4.9,0,0,0,340.09,136.9Zm1.63-2.11h2.6v-1h-2.51A8.22,8.22,0,0,1,341.72,134.79Zm2.6-2.74h-2.48c0,.39,0,.74,0,1h2.49Z"/><path class="cls-3" d="M346.47,132.7H348c-.27-.43-.53-.81-.77-1.12l.52-.37c.22.26.49.62.83,1.09l-.55.4h1.28c.35-.51.67-1,1-1.5l.69.39q-.47.6-.9,1.11h1.47v.62h-5.1Zm1,2.87.66.31c-.35.73-.69,1.39-1,2a4.72,4.72,0,0,0-.64-.35A14.58,14.58,0,0,0,347.49,135.57Zm-.74-1.06h2v-.92h.7v.92h1.9v.62h-1.9v2.53c0,.69-.33,1-1,1h-.94c0-.21-.06-.46-.11-.74.38,0,.67.06.89.06s.45-.16.45-.49v-2.38h-2Zm0-4.06h2.1c-.14-.26-.3-.55-.48-.86l.62-.29c.2.33.39.66.56,1l-.32.15h2.06v.62h-4.54Zm3.5,5.17c.36.49.68.94,1,1.35l-.62.43a14,14,0,0,0-.9-1.4Zm1.63-5.46a17.72,17.72,0,0,0,3.7-.39l.25.74c-1.28.17-2.36.28-3.26.33v2.26h3.53v.66h-1.38v5.07H354v-5.07H352.6v.47a6.86,6.86,0,0,1-1.43,4.63c-.15-.2-.32-.4-.51-.62a5.8,5.8,0,0,0,1.25-4Z"/><path class="cls-3" d="M361.37,135.28a2.33,2.33,0,0,1-.73,1.78,2.78,2.78,0,0,1-2,.67,3.13,3.13,0,0,1-1.58-.31v-1a2.83,2.83,0,0,0,1.55.49,1.81,1.81,0,0,0,1.27-.43,1.49,1.49,0,0,0,.48-1.15,1.34,1.34,0,0,0-.5-1.12,2.2,2.2,0,0,0-1.42-.4,12.17,12.17,0,0,0-1.27.06l.28-3.8H361v.83h-2.7l-.16,2.13.68,0a2.75,2.75,0,0,1,1.88.59A2.1,2.1,0,0,1,361.37,135.28Z"/><path class="cls-3" d="M363.36,132.19h3.43c-.12-.22-.26-.45-.41-.69l.64-.3c.21.33.41.66.59,1h3.45v2.13h-.71v-.23h-6.29a9.22,9.22,0,0,1-.23,1.91,7.48,7.48,0,0,1-1.11,2.47c-.15-.2-.32-.42-.53-.66a6,6,0,0,0,.94-2,9.18,9.18,0,0,0,.23-2.31Zm.78-2.88H365c-.15.29-.3.57-.46.83h2.73v.6h-3.12a8.64,8.64,0,0,1-1.36,1.51,5,5,0,0,0-.52-.54A6.85,6.85,0,0,0,364.14,129.31Zm6.21,3.46h-6.29v.74h6.29Zm-5.46,6.11h-.7V134.8h7v3a.9.9,0,0,1-1,1h-.81a6.1,6.1,0,0,0-.14-.72l.86,0c.28,0,.42-.16.42-.47V137h-1.48v1.5h-.67V137H367v1.5h-.68V137h-1.4Zm.29-6.77a11.43,11.43,0,0,0-.76-1l.52-.36c.24.24.51.54.81.89Zm-.29,4.34h1.4v-1.06h-1.4Zm2.08,0h1.41v-1.06H367Zm1.37-7.14h.78a9.12,9.12,0,0,1-.4.83h3v.6h-3.37a9.54,9.54,0,0,1-.59.79,5.75,5.75,0,0,0-.58-.44A5.73,5.73,0,0,0,368.34,129.31Zm1.1,2.81a10.8,10.8,0,0,0-.77-1l.5-.35c.34.35.62.66.83.91Zm1.09,3.27h-1.48v1.06h1.48Z"/><path d="M363.86,166.11c.18,1.24-.12,1.94-.92,2.1a3.42,3.42,0,0,1-1,0,5.45,5.45,0,0,0-.22-.79v2.46H361V161h2.79v.68c-.45,1.41-.73,2.28-.85,2.63A4.32,4.32,0,0,1,363.86,166.11Zm-1.2,1.38c.43-.07.58-.53.44-1.39a4.08,4.08,0,0,0-.87-1.7c.35-1.16.61-2.08.79-2.76h-1.26v5.77A2.44,2.44,0,0,0,362.66,167.49Zm1.57-6.41h6v.71h-.88v6.58c0,.92-.44,1.38-1.31,1.38h-1.5c0-.24-.09-.52-.15-.83.62.05,1.11.07,1.48.07s.72-.26.72-.78v-6.41h-4.35Zm.31,2.08h3v4.07h-2.27v.64h-.7Zm2.27.69h-1.57v2.69h1.57Z"/><path d="M370.5,168.71h4.4v-1.27h-3.82v-.68h3.82v-1.27h-2.69v.35h-.76v-5h7.7v5h-.76v-.35h-2.7v1.27h3.82v.68h-3.82v1.27h4.44v.7H370.5Zm1.71-5.86h2.69v-1.31h-2.69Zm0,2h2.69v-1.31h-2.69Zm6.18-3.29h-2.7v1.31h2.7Zm-2.7,3.29h2.7v-1.31h-2.7Z"/><path d="M386.74,165.68c1,1.06,1.91,2.2,2.85,3.39l-.73.54-.69-.93q-3.48.12-5.88.27a6.33,6.33,0,0,0-.78.16l-.39-.89a2.9,2.9,0,0,0,1-.75,20.81,20.81,0,0,0,1.92-2.73h-3.49V164H390v.72h-4.93c-1,1.44-1.81,2.58-2.51,3.42,2.2-.06,3.9-.11,5.09-.16-.52-.65-1-1.29-1.55-1.9Zm-5.32-4.63h7.67v.71h-7.67Z"/><path d="M390.42,165.65h4.82q.15-2,.15-5.22h.84q0,2.83-.15,5.22h3.78v.7H396a2.91,2.91,0,0,1-.23.64q1.95,1,4,2.11l-.5.74q-2-1.25-3.87-2.23a9.3,9.3,0,0,1-4.42,2.36c-.12-.2-.29-.45-.52-.76,2.75-.76,4.32-1.71,4.69-2.86h-4.64Zm1-2.85c.92.55,1.76,1.09,2.51,1.62l-.47.67c-.75-.56-1.57-1.12-2.47-1.7Zm1-2.08c1,.59,1.79,1.12,2.45,1.59l-.48.66c-.87-.66-1.66-1.22-2.38-1.68Z"/><path d="M400.69,163.41a12.83,12.83,0,0,0,2.69-3.07h.88c-.2.32-.41.63-.61.93h4.74V162a13.29,13.29,0,0,1-2.4,1.85,15.33,15.33,0,0,0,3.9.78,2.72,2.72,0,0,0-.43.85,17.71,17.71,0,0,1-4.28-1.19,21.64,21.64,0,0,1-4.6,1.41,5.71,5.71,0,0,0-.35-.7,20.81,20.81,0,0,0,4.17-1.12,7.46,7.46,0,0,1-1.66-1.41,14.81,14.81,0,0,1-1.47,1.49A6.35,6.35,0,0,0,400.69,163.41Zm2.32,3.51.57.53a30.88,30.88,0,0,1-2.59,2c-.15-.2-.32-.39-.5-.59A15.91,15.91,0,0,0,403,166.92Zm-1.83-1h3.59v-1h.77v1h3.36v.69h-3.36v2c0,.76-.4,1.14-1.19,1.14h-1.22c0-.27-.09-.55-.15-.85a10.42,10.42,0,0,0,1.13.07c.44,0,.66-.23.66-.7v-1.68h-3.59Zm6.22-4h-4.23a7.83,7.83,0,0,0,2,1.54A12.31,12.31,0,0,0,407.4,161.92Zm-.95,5.65.45-.55c1.06.58,2,1.13,2.81,1.66l-.46.68C408.47,168.8,407.54,168.21,406.45,167.57Z"/><path d="M413,167.4,412.2,170h-.68l.6-2.58Z"/><path d="M423.39,166.11c.18,1.24-.12,1.94-.92,2.1a3.42,3.42,0,0,1-1,0,7.1,7.1,0,0,0-.22-.79v2.46h-.72V161h2.79v.68c-.45,1.41-.73,2.28-.85,2.63A4.32,4.32,0,0,1,423.39,166.11Zm-1.21,1.38c.44-.07.59-.53.45-1.39a4.08,4.08,0,0,0-.87-1.7c.35-1.16.61-2.08.79-2.76h-1.26v5.77A2.41,2.41,0,0,0,422.18,167.49Zm1.58-6.41h6v.71h-.88v6.58c0,.92-.44,1.38-1.31,1.38h-1.5c0-.24-.09-.52-.15-.83.62.05,1.11.07,1.48.07s.72-.26.72-.78v-6.41h-4.35Zm.31,2.08h3v4.07h-2.27v.64h-.7Zm2.27.69h-1.57v2.69h1.57Z"/><path d="M430,168.71h4.4v-1.27h-3.82v-.68h3.82v-1.27h-2.69v.35H431v-5h7.7v5h-.76v-.35h-2.7v1.27H439v.68h-3.82v1.27h4.44v.7H430Zm1.71-5.86h2.69v-1.31h-2.69Zm0,2h2.69v-1.31h-2.69Zm6.18-3.29h-2.7v1.31h2.7Zm-2.7,3.29h2.7v-1.31h-2.7Z"/><path d="M446.27,165.68c1,1.06,1.91,2.2,2.85,3.39l-.73.54q-.34-.48-.69-.93-3.48.12-5.88.27a6,6,0,0,0-.78.16l-.39-.89a2.9,2.9,0,0,0,1-.75,21.81,21.81,0,0,0,1.92-2.73h-3.49V164h9.48v.72H444.6c-1,1.44-1.81,2.58-2.51,3.42,2.2-.06,3.9-.11,5.09-.16-.52-.65-1-1.29-1.55-1.9ZM441,161.05h7.67v.71H441Z"/><path d="M450,168.79h9.5v.66H450Zm.31-7.29h4c-.15-.28-.33-.57-.52-.87l.69-.35c.28.44.52.85.73,1.22h3.86v1.82h-.73v-1.18H451v1.18h-.74Zm1.13,2.86h6.54v3.93h-.72v-.39h-5.11v.39h-.71Zm.12-1.39h6.29v.63h-6.29Zm5.7,2h-5.11v.84h5.11Zm-5.11,2.3h5.11v-.86h-5.11Z"/><path d="M464.67,162.92h.78v1.49h3v3.35c0,.76-.33,1.15-1,1.15H466c0-.22-.09-.48-.16-.79l1.17.06c.43,0,.64-.19.64-.6v-2.46h-2.22v4.77h-.78v-4.77h-2.18v4h-.76v-3.82c-.44.57-.91,1.13-1.4,1.68a4.3,4.3,0,0,0-.55-.65,18.8,18.8,0,0,0,2.91-3.94h-2.75v-.69H463a15,15,0,0,0,.61-1.43l.77.31c-.16.38-.33.75-.5,1.12h5.4v.69h-5.75c-.37.68-.76,1.35-1.19,2h2.29Z"/><path d="M470.13,168.1a.6.6,0,0,1,.18-.44.65.65,0,0,1,.9,0,.6.6,0,0,1,.18.44.58.58,0,0,1-.18.43.59.59,0,0,1-.46.19.56.56,0,0,1-.44-.19A.58.58,0,0,1,470.13,168.1Z"/><path d="M472.52,168.1a.61.61,0,0,1,.62-.62.58.58,0,0,1,.45.18.6.6,0,0,1,.18.44.58.58,0,0,1-.18.43.57.57,0,0,1-.45.19.55.55,0,0,1-.44-.19A.58.58,0,0,1,472.52,168.1Z"/><path d="M474.91,168.1a.6.6,0,0,1,.18-.44.59.59,0,0,1,.44-.18.61.61,0,0,1,.45.18.6.6,0,0,1,.18.44.63.63,0,0,1-1.08.43A.61.61,0,0,1,474.91,168.1Z"/><line class="cls-4" x1="330" y1="146.76" x2="486" y2="146.76"/><rect class="cls-1" x="495" width="156" height="182"/><rect class="cls-2" x="495" width="156" height="97"/><path d="M502.82,108.22c.61.42,1.38,1,2.3,1.79-.32.37-.57.67-.77.89-.76-.7-1.5-1.34-2.22-1.9Zm1,4c.35.15.71.28,1.08.42q-.58,2.4-1.26,5.34l-1.15-.38A48,48,0,0,0,503.79,112.26Zm-.25-7.56c.8.63,1.56,1.27,2.28,1.93-.29.31-.55.59-.8.84-.89-.9-1.61-1.57-2.15-2Zm11.28,8.18.72.79c-.68.54-1.38,1.07-2.11,1.57a8.19,8.19,0,0,0,2.64,1.33c-.18.22-.44.56-.77,1a8.51,8.51,0,0,1-4.76-4.48,15,15,0,0,1-1.41,1.25v2.4l2.23-.78c0,.41,0,.77,0,1.1-.61.18-1.27.42-2,.7a10.34,10.34,0,0,0-1,.46l-.61-.85a1.19,1.19,0,0,0,.33-1v-1.32a15.86,15.86,0,0,1-2.52,1.32,7.33,7.33,0,0,0-.73-1,14.09,14.09,0,0,0,5.08-3l-1.62.09a7.27,7.27,0,0,0-1.24.21l-.47-1a3.44,3.44,0,0,0,1.09-.5,17.18,17.18,0,0,0,2.45-2.5l1,.5c-.93,1-1.75,1.73-2.47,2.33,1.42,0,2.8-.06,4.16-.1-.39-.35-.82-.73-1.3-1.13l.66-.6c1.33,1,2.29,1.84,2.89,2.4l-.77.71-.58-.56-2.47.09a7.22,7.22,0,0,0,1.49,2.22A25,25,0,0,0,514.82,112.88ZM509,107.19l.84.64a25,25,0,0,1-3.39,2.54,6.18,6.18,0,0,0-.7-.81A15.46,15.46,0,0,0,509,107.19ZM506.5,106h4c-.19-.42-.39-.83-.62-1.24l1-.4c.3.56.56,1.11.81,1.64h4v1H506.5Zm6,1.26c1.28.84,2.37,1.62,3.28,2.33l-.67.8c-.81-.69-1.89-1.5-3.23-2.44Z"/><path d="M517.11,108.22c.62.42,1.38,1,2.31,1.79l-.77.89c-.77-.7-1.51-1.34-2.22-1.9Zm1,4c.34.15.7.28,1.07.42-.39,1.6-.8,3.38-1.25,5.34l-1.16-.38A48,48,0,0,0,518.09,112.26Zm-.25-7.56c.8.63,1.56,1.27,2.27,1.93-.28.31-.55.59-.79.84-.9-.9-1.61-1.57-2.15-2Zm11.28,8.18.71.79c-.68.54-1.38,1.07-2.11,1.57a8.19,8.19,0,0,0,2.64,1.33c-.18.22-.43.56-.77,1a8.49,8.49,0,0,1-4.75-4.48,14,14,0,0,1-1.42,1.25v2.4l2.24-.78c0,.41,0,.77,0,1.1-.62.18-1.28.42-2,.7a9.19,9.19,0,0,0-1,.46l-.62-.85a1.16,1.16,0,0,0,.34-1v-1.32a15.54,15.54,0,0,1-2.53,1.32,7.21,7.21,0,0,0-.72-1,14.26,14.26,0,0,0,5.08-3l-1.62.09a7.11,7.11,0,0,0-1.24.21l-.48-1a3.34,3.34,0,0,0,1.09-.5,17.73,17.73,0,0,0,2.46-2.5l1,.5c-.93,1-1.76,1.73-2.47,2.33,1.41,0,2.8-.06,4.16-.1-.39-.35-.83-.73-1.3-1.13l.65-.6c1.34,1,2.3,1.84,2.9,2.4l-.77.71-.59-.56-2.47.09a7.4,7.4,0,0,0,1.49,2.22A23.69,23.69,0,0,0,529.12,112.88Zm-5.8-5.69.84.64a25,25,0,0,1-3.39,2.54,5.51,5.51,0,0,0-.7-.81A15.2,15.2,0,0,0,523.32,107.19ZM520.8,106h4c-.19-.42-.4-.83-.62-1.24l1-.4c.29.56.56,1.11.8,1.64h4v1H520.8Zm6,1.26c1.27.84,2.37,1.62,3.28,2.33l-.67.8c-.82-.69-1.9-1.5-3.24-2.44Z"/><path d="M530.9,110.13h2.46v-5.69h1.15v5.69h9.85v1.09h-6.11a9.76,9.76,0,0,0,6.4,5.27l-.85,1.14a11,11,0,0,1-6.74-6.41h-2.55v5.06c1.06-.43,2.18-.92,3.37-1.48,0,.43,0,.85.06,1.25q-1.66.69-3.18,1.44a7,7,0,0,0-1,.69l-.83-1.08a1.24,1.24,0,0,0,.47-1v-4.86H530.9Zm4.44-1.7A23.81,23.81,0,0,0,542,104.9l.73.91a26.64,26.64,0,0,1-6.84,3.65C535.74,109.15,535.56,108.8,535.34,108.43Z"/><path d="M545.7,108.24c.95.57,1.89,1.2,2.81,1.88l-.78,1c-.94-.76-1.83-1.43-2.7-2Zm1.73,4a9.46,9.46,0,0,0,1.15.66q-1,2.5-2,5.19l-1.19-.67A38.91,38.91,0,0,0,547.43,112.28Zm-1-7.6c.87.58,1.77,1.25,2.7,2l-.76,1c-.87-.78-1.75-1.49-2.62-2.13Zm2.39,11.42h4.47v-9.23h-3.63v-1h8.67v1h-3.87v9.23h4.48v1H548.8Z"/><path d="M562.73,112.94l.94.71q-1.59,1.88-3.63,3.85c-.24-.26-.51-.52-.8-.78A38,38,0,0,0,562.73,112.94Zm-2-.84V111l1.6-3.71h-2.74v-1.06h3.2l.82-1.91,1.2.25-.73,1.66H573v1.06h-9.4L562,111h4.21V108h1.17V111h5v1.06h-5v4.12a1.58,1.58,0,0,1-1.82,1.75l-2.09,0c0-.36-.13-.78-.21-1.25a17.41,17.41,0,0,0,2,.12c.65,0,1-.32,1-1V112.1Zm8,1.78.78-.77c1.29,1.06,2.57,2.17,3.86,3.33l-.87.88Q570.56,115.45,568.69,113.88Z"/><path d="M579.55,116.77l3.9,0,4.07-.11c-.15.36-.3.73-.44,1.09l-4.64,0-3.15-.06a3.83,3.83,0,0,1-3.46-1.67,16.2,16.2,0,0,0-1.69,2l-.6-1.19c.63-.62,1.23-1.21,1.83-1.76v-4.69H573.7v-1h2.74v6A3.5,3.5,0,0,0,579.55,116.77Zm-4.44-12.07c.59.74,1.14,1.52,1.67,2.34l-.94.65q-.78-1.32-1.56-2.43Zm1.85,6.41c.55-.15,1.16-.33,1.84-.54v-2.42h-1.58v-1h1.58v-2.65h1.05v2.65h1.52v1h-1.52v2.1l1.48-.48a10.18,10.18,0,0,0,0,1.11c-.47.13-1,.29-1.48.45v2.5c0,1.1-.48,1.65-1.43,1.65-.28,0-.68,0-1.2,0a8.58,8.58,0,0,0-.18-1.13,7.67,7.67,0,0,0,1.13.09c.42,0,.63-.25.63-.76v-2l-1.61.55Zm9.85-6.17.25,1c-1.32.16-2.66.3-4,.42v2.48h4.34v1h-1.63v6.25h-1v-6.25H583a9.38,9.38,0,0,1-2,6.25,8,8,0,0,0-.87-.84,8.17,8.17,0,0,0,1.83-5.74v-4.07C583.55,105.37,585.16,105.19,586.81,104.94Z"/><path d="M588.28,109v-1.06h4.81v1a17.43,17.43,0,0,1-4.32,7.84,7.5,7.5,0,0,0-.85-.85,15.73,15.73,0,0,0,4.06-7Zm6-4.47h1.13v2.24a22.91,22.91,0,0,0,1.37,3,26.19,26.19,0,0,0,3.08-3.07l.94.83a37,37,0,0,1-3.45,3.19,15.87,15.87,0,0,0,4.51,4.74,11.54,11.54,0,0,0-1,1,18,18,0,0,1-5.5-7.15v6.52c0,1.39-.67,2.08-2,2.08h-1.81c0-.35-.12-.77-.23-1.26a17.37,17.37,0,0,0,1.82.11c.73,0,1.09-.35,1.09-1Z"/><path class="cls-3" d="M624.65,130.82h3.13a10.33,10.33,0,0,0-.82-1.09l.62-.42a12.54,12.54,0,0,1,1,1.19l-.48.32h2.65l-.38-.21a8.73,8.73,0,0,0,.89-1.32l.74.43c-.3.4-.6.77-.9,1.1h3.07v.68h-9.48ZM626,138.9h-.74v-6.45h4.24v5.42c0,.63-.32.94-1,.93l-1.11,0q-.06-.37-.15-.72c.4,0,.76.05,1.1.05a.36.36,0,0,0,.41-.4v-1.23H626Zm2.77-5.79H626v1h2.77ZM626,135.83h2.77v-1H626Zm4.66-3.23h.73V137h-.73Zm2-.46h.76v5.42c0,.79-.38,1.19-1.13,1.2H631c0-.27-.08-.54-.14-.82a9.37,9.37,0,0,0,1.16.08.55.55,0,0,0,.62-.63Z"/><path class="cls-3" d="M634.48,135.11a10.74,10.74,0,0,0,2.65-3.21l.72.35c-.35.57-.7,1.11-1.06,1.59v5H636v-4a11,11,0,0,1-1.16,1.12A8.34,8.34,0,0,0,634.48,135.11Zm0-3a9.1,9.1,0,0,0,2.34-2.7l.69.42a11.88,11.88,0,0,1-2.64,3Q634.74,132.46,634.53,132.08Zm2.91,5.56h3v-2.81h-2.31v-.69h2.31v-2.29h-2.62v-.7h6v.7h-2.62v2.29h2.31v.69h-2.31v2.81h2.88v.7h-6.67Zm2.36-7.94.64-.4a12.52,12.52,0,0,1,.93,1.24l-.68.45A9.47,9.47,0,0,0,639.8,129.7Z"/><path d="M528.86,166.11c.18,1.24-.12,1.94-.92,2.1a3.42,3.42,0,0,1-1,0,5.45,5.45,0,0,0-.22-.79v2.46H526V161h2.79v.68c-.45,1.41-.73,2.28-.85,2.63A4.32,4.32,0,0,1,528.86,166.11Zm-1.2,1.38c.43-.07.58-.53.44-1.39a4.08,4.08,0,0,0-.87-1.7c.35-1.16.61-2.08.79-2.76h-1.26v5.77A2.44,2.44,0,0,0,527.66,167.49Zm1.57-6.41h6v.71h-.88v6.58c0,.92-.44,1.38-1.31,1.38h-1.5c0-.24-.09-.52-.15-.83.62.05,1.11.07,1.48.07s.72-.26.72-.78v-6.41h-4.35Zm.31,2.08h3v4.07h-2.27v.64h-.7Zm2.27.69h-1.57v2.69h1.57Z"/><path d="M535.5,168.71h4.4v-1.27h-3.82v-.68h3.82v-1.27h-2.69v.35h-.76v-5h7.7v5h-.76v-.35h-2.7v1.27h3.82v.68h-3.82v1.27h4.44v.7H535.5Zm1.71-5.86h2.69v-1.31h-2.69Zm0,2h2.69v-1.31h-2.69Zm6.18-3.29h-2.7v1.31h2.7Zm-2.7,3.29h2.7v-1.31h-2.7Z"/><path d="M551.74,165.68c1,1.06,1.91,2.2,2.85,3.39l-.73.54q-.35-.48-.69-.93-3.48.12-5.88.27a6.33,6.33,0,0,0-.78.16l-.39-.89a2.9,2.9,0,0,0,1-.75,20.81,20.81,0,0,0,1.92-2.73h-3.49V164H555v.72h-4.93c-1,1.44-1.81,2.58-2.51,3.42,2.2-.06,3.9-.11,5.09-.16-.52-.65-1-1.29-1.55-1.9Zm-5.32-4.63h7.67v.71h-7.67Z"/><path d="M555.42,165.65h4.82q.15-2,.15-5.22h.84q0,2.83-.15,5.22h3.78v.7H561a2.91,2.91,0,0,1-.23.64q1.95,1,4,2.11l-.5.74q-2-1.25-3.87-2.23a9.3,9.3,0,0,1-4.42,2.36c-.12-.2-.29-.45-.52-.76,2.75-.76,4.32-1.71,4.69-2.86h-4.64Zm1-2.85c.92.55,1.76,1.09,2.51,1.62l-.47.67c-.75-.56-1.57-1.12-2.47-1.7Zm1-2.08c1,.59,1.79,1.12,2.45,1.59l-.48.66c-.87-.66-1.66-1.22-2.38-1.68Z"/><path d="M565.69,163.41a12.83,12.83,0,0,0,2.69-3.07h.88c-.2.32-.4.63-.62.93h4.75V162a13.29,13.29,0,0,1-2.4,1.85,15.33,15.33,0,0,0,3.9.78,2.72,2.72,0,0,0-.43.85,17.71,17.71,0,0,1-4.28-1.19,21.64,21.64,0,0,1-4.6,1.41,5.71,5.71,0,0,0-.35-.7,20.81,20.81,0,0,0,4.17-1.12,7.46,7.46,0,0,1-1.66-1.41,14.81,14.81,0,0,1-1.47,1.49A6.35,6.35,0,0,0,565.69,163.41Zm2.32,3.51.57.53a30.88,30.88,0,0,1-2.59,2c-.15-.2-.32-.39-.5-.59A15.91,15.91,0,0,0,568,166.92Zm-1.83-1h3.59v-1h.77v1h3.36v.69h-3.36v2c0,.76-.4,1.14-1.19,1.14h-1.22c0-.27-.09-.55-.15-.85a10.44,10.44,0,0,0,1.14.07c.43,0,.65-.23.65-.7v-1.68h-3.59Zm6.22-4h-4.23a7.71,7.71,0,0,0,2,1.54A12.61,12.61,0,0,0,572.4,161.92Zm-.95,5.65.45-.55c1.06.58,2,1.13,2.81,1.66l-.46.68C573.47,168.8,572.54,168.21,571.45,167.57Z"/><path d="M578,167.4,577.2,170h-.68l.6-2.58Z"/><path d="M588.39,166.11c.18,1.24-.12,1.94-.93,2.1a3.34,3.34,0,0,1-1,0,5.45,5.45,0,0,0-.22-.79v2.46h-.72V161h2.79v.68c-.45,1.41-.73,2.28-.85,2.63A4.32,4.32,0,0,1,588.39,166.11Zm-1.21,1.38c.44-.07.59-.53.45-1.39a4.08,4.08,0,0,0-.87-1.7c.35-1.16.61-2.08.79-2.76h-1.26v5.77A2.39,2.39,0,0,0,587.18,167.49Zm1.58-6.41h6v.71h-.88v6.58c0,.92-.44,1.38-1.31,1.38h-1.5c0-.24-.09-.52-.15-.83.62.05,1.11.07,1.48.07s.72-.26.72-.78v-6.41h-4.35Zm.31,2.08h3v4.07h-2.27v.64h-.7Zm2.27.69h-1.57v2.69h1.57Z"/><path d="M595,168.71h4.4v-1.27h-3.82v-.68h3.82v-1.27h-2.69v.35H596v-5h7.7v5h-.76v-.35h-2.7v1.27H604v.68h-3.82v1.27h4.44v.7H595Zm1.71-5.86h2.69v-1.31h-2.69Zm0,2h2.69v-1.31h-2.69Zm6.18-3.29h-2.7v1.31h2.7Zm-2.7,3.29h2.7v-1.31h-2.7Z"/><path d="M611.27,165.68c1,1.06,1.91,2.2,2.85,3.39l-.73.54-.69-.93q-3.48.12-5.88.27a6.33,6.33,0,0,0-.78.16l-.39-.89a2.9,2.9,0,0,0,1-.75,21.81,21.81,0,0,0,1.92-2.73h-3.49V164h9.48v.72H609.6c-1,1.44-1.81,2.58-2.51,3.42,2.2-.06,3.9-.11,5.09-.16-.52-.65-1-1.29-1.55-1.9ZM606,161.05h7.67v.71H606Z"/><path d="M615,168.79h9.5v.66H615Zm.31-7.29h4c-.15-.28-.33-.57-.52-.87l.69-.35c.28.44.52.85.73,1.22h3.86v1.82h-.73v-1.18H616v1.18h-.74Zm1.13,2.86h6.54v3.93h-.72v-.39h-5.11v.39h-.71Zm.12-1.39h6.29v.63h-6.29Zm5.7,2h-5.11v.84h5.11Zm-5.11,2.3h5.11v-.86h-5.11Z"/><path d="M629.67,162.92h.78v1.49h3v3.35c0,.76-.33,1.15-1,1.15H631c0-.22-.09-.48-.16-.79l1.17.06c.43,0,.64-.19.64-.6v-2.46h-2.22v4.77h-.78v-4.77h-2.18v4h-.76v-3.82c-.44.57-.91,1.13-1.4,1.68a4.3,4.3,0,0,0-.55-.65,18.8,18.8,0,0,0,2.91-3.94h-2.75v-.69H628a15,15,0,0,0,.61-1.43l.77.31c-.16.38-.33.75-.5,1.12h5.4v.69h-5.75a22.25,22.25,0,0,1-1.19,2h2.29Z"/><path d="M635.13,168.1a.6.6,0,0,1,.18-.44.65.65,0,0,1,.9,0,.6.6,0,0,1,.17.44.57.57,0,0,1-.17.43.59.59,0,0,1-.46.19.56.56,0,0,1-.44-.19A.58.58,0,0,1,635.13,168.1Z"/><path d="M637.52,168.1a.61.61,0,0,1,.62-.62.6.6,0,0,1,.45.18.6.6,0,0,1,.18.44.63.63,0,0,1-.63.62.55.55,0,0,1-.44-.19A.58.58,0,0,1,637.52,168.1Z"/><path d="M639.91,168.1a.61.61,0,0,1,.62-.62.61.61,0,0,1,.45.18.6.6,0,0,1,.18.44.63.63,0,0,1-1.08.43A.61.61,0,0,1,639.91,168.1Z"/><line class="cls-4" x1="495" y1="146.76" x2="651" y2="146.76"/><rect class="cls-6" x="7" y="156" width="20" height="20"/><rect class="cls-6" x="172" y="156" width="20" height="20"/><rect class="cls-6" x="337" y="156" width="20" height="20"/><rect class="cls-6" x="502" y="156" width="20" height="20"/><path class="cls-3" d="M171.58,138.25a8.59,8.59,0,0,0,2.86-.91,6.28,6.28,0,0,1-1.5-1.5l.51-.39h-.75v-4.06h3.4c0-.27,0-.57,0-.89h-4.18v-.68h8.9v.68h-4v.89h3.21v4.54h-.74v-.48h-2.71a3.83,3.83,0,0,1-.8,1.77,16,16,0,0,0,5.41.7q-.24.44-.39.78a15.22,15.22,0,0,1-5.66-.95,9.28,9.28,0,0,1-3.14,1.19Q171.84,138.61,171.58,138.25Zm1.85-5.15h2.65c0-.31,0-.66,0-1h-2.66Zm2.64.65h-2.64v1H176C176,134.48,176.05,134.13,176.07,133.75Zm-1,3.15a2.73,2.73,0,0,0,.77-1.45h-2.37A4.9,4.9,0,0,0,175.09,136.9Zm1.63-2.11h2.6v-1h-2.51A8.22,8.22,0,0,1,176.72,134.79Zm2.6-2.74h-2.48c0,.39,0,.74,0,1h2.49Z"/><path class="cls-3" d="M181.47,132.7H183c-.27-.43-.53-.81-.77-1.12l.52-.37c.22.26.49.62.83,1.09l-.55.4h1.28c.35-.51.67-1,1-1.5l.69.39q-.47.6-.9,1.11h1.47v.62h-5.1Zm1,2.87.66.31c-.35.73-.69,1.39-1,2a4.72,4.72,0,0,0-.64-.35A14.58,14.58,0,0,0,182.49,135.57Zm-.74-1.06h2v-.92h.7v.92h1.9v.62h-1.9v2.53c0,.69-.33,1-1,1h-.94c0-.21-.06-.46-.11-.74.38,0,.67.06.89.06s.45-.16.45-.49v-2.38h-2Zm0-4.06h2.1c-.14-.26-.3-.55-.48-.86l.62-.29c.2.33.39.66.56,1l-.32.15h2.06v.62h-4.54Zm3.5,5.17c.36.49.68.94.95,1.35l-.62.43a14,14,0,0,0-.9-1.4Zm1.63-5.46a17.72,17.72,0,0,0,3.7-.39l.25.74c-1.28.17-2.36.28-3.26.33v2.26h3.53v.66h-1.38v5.07H189v-5.07H187.6v.47a6.86,6.86,0,0,1-1.43,4.63c-.15-.2-.32-.4-.51-.62a5.8,5.8,0,0,0,1.25-4Z"/><path class="cls-3" d="M196.37,135.28a2.33,2.33,0,0,1-.73,1.78,2.78,2.78,0,0,1-2,.67,3.13,3.13,0,0,1-1.58-.31v-1a2.83,2.83,0,0,0,1.55.49,1.81,1.81,0,0,0,1.27-.43,1.49,1.49,0,0,0,.48-1.15,1.34,1.34,0,0,0-.5-1.12,2.2,2.2,0,0,0-1.42-.4,12.17,12.17,0,0,0-1.27.06l.28-3.8H196v.83h-2.7l-.16,2.13.68,0a2.75,2.75,0,0,1,1.88.59A2.1,2.1,0,0,1,196.37,135.28Z"/><path class="cls-3" d="M198.36,132.19h3.43c-.12-.22-.26-.45-.41-.69l.64-.3c.21.33.41.66.59,1h3.45v2.13h-.71v-.23h-6.29a9.22,9.22,0,0,1-.23,1.91,7.48,7.48,0,0,1-1.11,2.47c-.15-.2-.32-.42-.53-.66a6,6,0,0,0,.94-2,9.18,9.18,0,0,0,.23-2.31Zm.78-2.88H200c-.15.29-.3.57-.46.83h2.73v.6h-3.12a8.64,8.64,0,0,1-1.36,1.51,5,5,0,0,0-.52-.54A6.85,6.85,0,0,0,199.14,129.31Zm6.21,3.46h-6.29v.74h6.29Zm-5.46,6.11h-.7V134.8h7v3a.9.9,0,0,1-1,1h-.81a6.1,6.1,0,0,0-.14-.72l.86,0c.28,0,.42-.16.42-.47V137h-1.48v1.5h-.67V137H202v1.5h-.68V137h-1.4Zm.29-6.77a11.43,11.43,0,0,0-.76-1l.52-.36c.24.24.51.54.81.89Zm-.29,4.34h1.4v-1.06h-1.4Zm2.08,0h1.41v-1.06H202Zm1.37-7.14h.78a9.12,9.12,0,0,1-.4.83h3v.6h-3.37a9.54,9.54,0,0,1-.59.79,5.75,5.75,0,0,0-.58-.44A5.73,5.73,0,0,0,203.34,129.31Zm1.1,2.81a10.8,10.8,0,0,0-.77-1l.5-.35c.34.35.62.66.83.91Zm1.09,3.27h-1.48v1.06h1.48Z"/><text class="cls-5" transform="translate(459.42 137.6)">前往</text><path class="cls-3" d="M501.58,138.25a8.59,8.59,0,0,0,2.86-.91,6.28,6.28,0,0,1-1.5-1.5l.51-.39h-.75v-4.06h3.4c0-.27,0-.57,0-.89h-4.18v-.68h8.9v.68h-4v.89h3.21v4.54h-.74v-.48h-2.71a3.83,3.83,0,0,1-.8,1.77,16,16,0,0,0,5.41.7q-.24.44-.39.78a15.22,15.22,0,0,1-5.66-.95,9.28,9.28,0,0,1-3.14,1.19Q501.84,138.61,501.58,138.25Zm1.85-5.15h2.65c0-.31,0-.66,0-1h-2.66Zm2.64.65h-2.64v1H506C506,134.48,506.05,134.13,506.07,133.75Zm-1,3.15a2.73,2.73,0,0,0,.77-1.45h-2.37A4.9,4.9,0,0,0,505.09,136.9Zm1.63-2.11h2.6v-1h-2.51A8.22,8.22,0,0,1,506.72,134.79Zm2.6-2.74h-2.48c0,.39,0,.74,0,1h2.49Z"/><path class="cls-3" d="M511.47,132.7H513c-.27-.43-.53-.81-.77-1.12l.52-.37c.22.26.49.62.83,1.09l-.55.4h1.28c.35-.51.67-1,1-1.5l.69.39q-.46.6-.9,1.11h1.47v.62h-5.1Zm1,2.87.66.31c-.35.73-.69,1.39-1,2a4.72,4.72,0,0,0-.64-.35A14.58,14.58,0,0,0,512.49,135.57Zm-.74-1.06h2v-.92h.7v.92h1.9v.62h-1.9v2.53c0,.69-.33,1-1,1h-.94c0-.21-.06-.46-.11-.74.38,0,.67.06.89.06s.45-.16.45-.49v-2.38h-2Zm0-4.06h2.1c-.14-.26-.3-.55-.48-.86l.62-.29c.2.33.39.66.56,1l-.32.15h2.06v.62h-4.54Zm3.5,5.17c.36.49.68.94,1,1.35l-.62.43a14,14,0,0,0-.9-1.4Zm1.63-5.46a17.72,17.72,0,0,0,3.7-.39l.25.74c-1.28.17-2.36.28-3.26.33v2.26h3.53v.66h-1.38v5.07H519v-5.07H517.6v.47a6.86,6.86,0,0,1-1.43,4.63c-.15-.2-.32-.4-.51-.62a5.8,5.8,0,0,0,1.25-4Z"/><path class="cls-3" d="M526.37,135.28a2.33,2.33,0,0,1-.73,1.78,2.78,2.78,0,0,1-2,.67,3.13,3.13,0,0,1-1.58-.31v-1a2.83,2.83,0,0,0,1.55.49,1.81,1.81,0,0,0,1.27-.43,1.49,1.49,0,0,0,.48-1.15,1.34,1.34,0,0,0-.5-1.12,2.2,2.2,0,0,0-1.42-.4,12.17,12.17,0,0,0-1.27.06l.28-3.8H526v.83h-2.7l-.16,2.13.68,0a2.75,2.75,0,0,1,1.88.59A2.1,2.1,0,0,1,526.37,135.28Z"/><path class="cls-3" d="M528.36,132.19h3.43c-.12-.22-.26-.45-.41-.69l.64-.3c.21.33.41.66.59,1h3.45v2.13h-.71v-.23h-6.3a8.65,8.65,0,0,1-.22,1.91,7.48,7.48,0,0,1-1.11,2.47l-.52-.66a6.15,6.15,0,0,0,.93-2,9.18,9.18,0,0,0,.23-2.31Zm.78-2.88H530c-.15.29-.3.57-.46.83h2.73v.6h-3.12a8.64,8.64,0,0,1-1.36,1.51,5,5,0,0,0-.52-.54A6.85,6.85,0,0,0,529.14,129.31Zm6.21,3.46h-6.29v.74h6.29Zm-5.46,6.11h-.7V134.8h7v3a.9.9,0,0,1-1,1h-.81a6.1,6.1,0,0,0-.14-.72l.86,0c.28,0,.42-.16.42-.47V137h-1.48v1.5h-.67V137H532v1.5h-.68V137h-1.4Zm.29-6.77a11.43,11.43,0,0,0-.76-1l.52-.36c.24.24.51.54.81.89Zm-.29,4.34h1.4v-1.06h-1.4Zm2.08,0h1.41v-1.06H532Zm1.37-7.14h.78a9.12,9.12,0,0,1-.4.83h3v.6h-3.37a9.54,9.54,0,0,1-.59.79,5.75,5.75,0,0,0-.58-.44A5.73,5.73,0,0,0,533.34,129.31Zm1.1,2.81a10.8,10.8,0,0,0-.77-1l.5-.35c.34.35.62.66.83.91Zm1.09,3.27h-1.48v1.06h1.48Z"/><text class="cls-5" transform="translate(129.42 137.6)">前往</text></g></g></svg>