<svg xmlns="http://www.w3.org/2000/svg" viewBox="0 0 395 124"><defs><style>.cls-1{fill:#fafafa;}.cls-2{fill:#fffcca;}.cls-3,.cls-4{fill:#ccc;}.cls-4{isolation:isolate;font-size:9.92px;}.cls-4,.cls-5,.cls-6{font-family:MicrosoftYaHei, Microsoft YaHei;}.cls-5{font-size:9px;}.cls-6{font-size:18px;}</style></defs><title>11资源 1bg9003</title><g id="图层_2" data-name="图层 2"><g id="图层_1-2" data-name="图层 1"><rect class="cls-1" width="323" height="123"/><rect class="cls-2" x="174" width="221" height="124"/><path class="cls-3" d="M12.58,114.25a8.47,8.47,0,0,0,2.86-.91,6.28,6.28,0,0,1-1.5-1.5l.51.16H14v-6h3v1l-4-1h5v1h3v5H17.61c-.11.1-.39.71-.8,1.22a16,16,0,0,0,5.41.7q-.24.43-.39.78a15.18,15.18,0,0,1-5.66-1A9.22,9.22,0,0,1,13,114.94,5.32,5.32,0,0,0,12.58,114.25ZM14,109h3v-1H14Zm2.64,1H14v1h2.57C16.57,110.73,16.62,110.38,16.64,110Zm-.57,3c.4-.49.67-1,.77-1H14.49a4.94,4.94,0,0,1,1.6,1Zm1.33-2H20v-1H17.51a8.44,8.44,0,0,1-.09,1Zm3.06-3H18v1h2.49Z"/><path class="cls-3" d="M23,109h1a4.88,4.88,0,0,0-.77-1.42l.52-.37c.22.26.49.62.83,1.09L24,109h1.28a10.54,10.54,0,0,1,1-1.8l.69.39a6.37,6.37,0,0,0-.9,1.41H28v1H23Zm.47,3,.66.31c-.35.73-.69,1.39-1,2a4.94,4.94,0,0,0-.64-.35,14.46,14.46,0,0,0,1-2ZM23,111h2v-1h2v1H25v2.66c.43.69.1,1-.57,1.34h-.94a4.94,4.94,0,0,0-.11-1.08c.38,0,.67.06.89.06a17.85,17.85,0,0,0,1.73-.49V110H23Zm-.27-5h2.1c-.14.19-.3-.1-.48-.41l.62-.29c.2.33.39.66.56,1l-.32-.3H27v1H22.78Zm3.5,5.62c.36.49.68.94.95,1.35l-.62.43a13.86,13.86,0,0,0-.9-1.4ZM28,106.16a17.45,17.45,0,0,0,3.56-.39l.25.74c-1.28.17-3.81.33-3.81.33V109h4v1H31v5H30v-5H29v.23a10.5,10.5,0,0,1-1.83,4.63c-.15-.2-.32-.4-.51-.62.9-1.13,1.34-4,1.34-4Z"/><path class="cls-3" d="M37.38,111.11a2.11,2.11,0,0,1-.75,1.67,2.94,2.94,0,0,1-2,.63,3.26,3.26,0,0,1-1.6-.29v-.77a2.91,2.91,0,0,0,1.57.49,1.88,1.88,0,0,0,1.29-.43,1.44,1.44,0,0,0,.49-1.15,1.33,1.33,0,0,0-.51-1.12,2.3,2.3,0,0,0-1.44-.4q-.65,0-1.29.06l.29-3.8H37v1H34.26l-.16,2h.69a3,3,0,0,1,1.91.55A2,2,0,0,1,37.38,111.11Z"/><path class="cls-3" d="M39,108h3.79a3.45,3.45,0,0,1-.41-.5l.64-.3a12.1,12.1,0,0,1,.59,1.8H47v1H39.7a10.39,10.39,0,0,1-.23,2,8.06,8.06,0,0,1-1.11,2.59c-.15-.21-.32-.44-.53-.69a6.73,6.73,0,0,0,.94-2.1,10.3,10.3,0,0,0,.23-2.42Zm1.14-2H41s-.3-.12-.46,0H43v1H40.11c-.39.3-.85.8-1.36,1.25a5.29,5.29,0,0,0-.52-.54C39,107.06,40.14,106,40.14,106ZM46,109H40v1h6Zm-5,6H40v-4h7v2.8s-.1.94-.6,1c-.07,0-.14,0-.21.2h-.81a9.71,9.71,0,0,0-.14-1h1.37c.26,0,.39-.15.39-.44V113H45v2H44v-2H43v2H42v-2H41Zm.18-6.89a10.53,10.53,0,0,0-.76-1l.52-.36c.24.24.51.54.81.89ZM41,112h1v-1H41Zm1.67,0H44v-1H42.7Zm1.67-6h.78s-.25-.13-.4,0H48v1H44.36c-.18,0-.38.28-.59.53a4.92,4.92,0,0,0-.58-.44C43.68,106.57,44.34,106,44.34,106Zm1.1,2.12a10.63,10.63,0,0,0-.77-1l.5-.35c.34.35.62.66.83.91ZM46,111H45v1h1Z"/><text class="cls-4" transform="translate(135.42 113.6)">前往</text><text/><text class="cls-5" transform="translate(12.33 58.67)">滚滚长江东逝水滚滚长江<tspan x="0" y="10.8">东逝水滚滚长江东逝水</tspan></text><text class="cls-6" transform="translate(11.67 29.67)">滚滚长江东逝水</text></g></g></svg>