<svg xmlns="http://www.w3.org/2000/svg" viewBox="0 0 124.26 56.67"><defs><style>.a{fill:#f0f0f0;}.b{fill:#fff;}.c{fill:#231815;}.d{fill:#999899;}</style></defs><title>资源 14</title><rect class="a" width="124.26" height="56.67"/><rect class="b" x="6.59" y="7.17" width="111.67" height="42.33"/><path class="c" d="M13.42,12.35h.45l1.44,2.39,1.44-2.39h.45v3.56h-.42V13l-1.29,2.16h-.36L13.84,13v3h-.42Z"/><path class="c" d="M20.52,14.79H18.29c0,.53.42.85,1.06.85a2.84,2.84,0,0,0,.91-.15l.1.3a2.77,2.77,0,0,1-1,.19,1.28,1.28,0,0,1-1.45-1.28,1.26,1.26,0,0,1,1.33-1.29,1.21,1.21,0,0,1,1.31,1.19Zm-.39-.3a.93.93,0,0,0-1.83,0Z"/><path class="c" d="M21.21,14.24a6.62,6.62,0,0,0-.06-.78h.4a3,3,0,0,1,.07.4,1.17,1.17,0,0,1,1-.46,1,1,0,0,1,1.1,1.09v1.42h-.41v-1.4a.74.74,0,0,0-.84-.77.79.79,0,0,0-.83.76v1.41h-.42Z"/><path class="c" d="M24.68,13.47h.41v1.35a.74.74,0,0,0,.83.82.76.76,0,0,0,.83-.82V13.47h.41v1.66a6.12,6.12,0,0,0,.06.79h-.4c0-.11,0-.23,0-.39a1.13,1.13,0,0,1-1,.46,1,1,0,0,1-1.1-1.14Z"/><path class="d" d="M13.42,21.78h.45l1.44,2.39,1.44-2.39h.45v3.56h-.42v-3l-1.29,2.16h-.36l-1.29-2.16v3h-.42Z"/><path class="d" d="M20.52,24.23H18.29c0,.53.42.85,1.06.85a2.84,2.84,0,0,0,.91-.15l.1.3a2.77,2.77,0,0,1-1,.19,1.28,1.28,0,0,1-1.45-1.28,1.26,1.26,0,0,1,1.33-1.29A1.21,1.21,0,0,1,20.52,24Zm-.39-.3a.93.93,0,0,0-1.83,0Z"/><path class="d" d="M21.21,23.68a6.62,6.62,0,0,0-.06-.78h.4a3,3,0,0,1,.07.4,1.17,1.17,0,0,1,1-.46,1,1,0,0,1,1.1,1.09v1.42h-.41v-1.4a.74.74,0,0,0-.84-.77.79.79,0,0,0-.83.76v1.41h-.42Z"/><path class="d" d="M24.68,22.9h.41v1.35a.74.74,0,0,0,.83.82.76.76,0,0,0,.83-.82V22.9h.41v1.66a6.12,6.12,0,0,0,.06.79h-.4c0-.11,0-.23,0-.39a1.13,1.13,0,0,1-1,.46,1,1,0,0,1-1.1-1.14Z"/><path class="d" d="M13.42,31.22h.45l1.44,2.39,1.44-2.39h.45v3.56h-.42v-3L15.48,34h-.36l-1.29-2.16v3h-.42Z"/><path class="d" d="M20.52,33.66H18.29c0,.53.42.85,1.06.85a2.84,2.84,0,0,0,.91-.15l.1.3a2.77,2.77,0,0,1-1,.19,1.28,1.28,0,0,1-1.45-1.28,1.26,1.26,0,0,1,1.33-1.29,1.21,1.21,0,0,1,1.31,1.19Zm-.39-.3a.93.93,0,0,0-1.83,0Z"/><path class="d" d="M21.21,33.12a6.62,6.62,0,0,0-.06-.78h.4a3,3,0,0,1,.07.4,1.17,1.17,0,0,1,1-.46,1,1,0,0,1,1.1,1.09v1.42h-.41v-1.4a.74.74,0,0,0-.84-.77.79.79,0,0,0-.83.76v1.41h-.42Z"/><path class="d" d="M24.68,32.34h.41v1.35a.74.74,0,0,0,.83.82.76.76,0,0,0,.83-.82V32.34h.41V34a6.12,6.12,0,0,0,.06.79h-.4c0-.11,0-.23,0-.39a1.13,1.13,0,0,1-1,.46,1,1,0,0,1-1.1-1.14Z"/><path class="d" d="M13.42,40.66h.45L15.3,43l1.44-2.39h.45v3.56h-.42v-3l-1.29,2.16h-.36l-1.29-2.16v3h-.42Z"/><path class="d" d="M20.52,43.1H18.29c0,.53.42.85,1.06.85a2.84,2.84,0,0,0,.91-.15l.1.3a2.77,2.77,0,0,1-1,.19A1.28,1.28,0,0,1,17.88,43a1.26,1.26,0,0,1,1.33-1.29,1.21,1.21,0,0,1,1.31,1.19Zm-.39-.3a.93.93,0,0,0-1.83,0Z"/><path class="d" d="M21.21,42.56a6.62,6.62,0,0,0-.06-.78h.4a3,3,0,0,1,.07.4,1.17,1.17,0,0,1,1-.46,1,1,0,0,1,1.1,1.09v1.42h-.41v-1.4a.74.74,0,0,0-.84-.77.79.79,0,0,0-.83.76v1.41h-.42Z"/><path class="d" d="M24.68,41.78h.41v1.35a.74.74,0,0,0,.83.82.76.76,0,0,0,.83-.82V41.78h.41v1.66a6.12,6.12,0,0,0,.06.79h-.4c0-.11,0-.23,0-.39a1.13,1.13,0,0,1-1,.46,1,1,0,0,1-1.1-1.14Z"/><path class="c" d="M40.92,12.35h.45l1.44,2.39,1.44-2.39h.45v3.56h-.42V13L43,15.11h-.36L41.34,13v3h-.42Z"/><path class="c" d="M48,14.79H45.79c0,.53.42.85,1.06.85a2.84,2.84,0,0,0,.91-.15l.1.3a2.77,2.77,0,0,1-1,.19,1.28,1.28,0,0,1-1.45-1.28,1.26,1.26,0,0,1,1.33-1.29A1.21,1.21,0,0,1,48,14.59Zm-.39-.3a.93.93,0,0,0-1.83,0Z"/><path class="c" d="M48.71,14.24a6.62,6.62,0,0,0-.06-.78h.4a3,3,0,0,1,.07.4,1.17,1.17,0,0,1,1-.46,1,1,0,0,1,1.1,1.09v1.42h-.41v-1.4a.74.74,0,0,0-.84-.77.79.79,0,0,0-.83.76v1.41h-.42Z"/><path class="c" d="M52.18,13.47h.41v1.35a.74.74,0,0,0,.83.82.76.76,0,0,0,.83-.82V13.47h.41v1.66a6.12,6.12,0,0,0,.06.79h-.4c0-.11,0-.23,0-.39a1.13,1.13,0,0,1-1,.46,1,1,0,0,1-1.1-1.14Z"/><path class="d" d="M40.92,21.78h.45l1.44,2.39,1.44-2.39h.45v3.56h-.42v-3L43,24.55h-.36l-1.29-2.16v3h-.42Z"/><path class="d" d="M48,24.23H45.79c0,.53.42.85,1.06.85a2.84,2.84,0,0,0,.91-.15l.1.3a2.77,2.77,0,0,1-1,.19,1.28,1.28,0,0,1-1.45-1.28,1.26,1.26,0,0,1,1.33-1.29A1.21,1.21,0,0,1,48,24Zm-.39-.3a.93.93,0,0,0-1.83,0Z"/><path class="d" d="M48.71,23.68a6.62,6.62,0,0,0-.06-.78h.4a3,3,0,0,1,.07.4,1.17,1.17,0,0,1,1-.46,1,1,0,0,1,1.1,1.09v1.42h-.41v-1.4a.74.74,0,0,0-.84-.77.79.79,0,0,0-.83.76v1.41h-.42Z"/><path class="d" d="M52.18,22.9h.41v1.35a.74.74,0,0,0,.83.82.76.76,0,0,0,.83-.82V22.9h.41v1.66a6.12,6.12,0,0,0,.06.79h-.4c0-.11,0-.23,0-.39a1.13,1.13,0,0,1-1,.46,1,1,0,0,1-1.1-1.14Z"/><path class="d" d="M40.92,31.22h.45l1.44,2.39,1.44-2.39h.45v3.56h-.42v-3L43,34h-.36l-1.29-2.16v3h-.42Z"/><path class="d" d="M48,33.66H45.79c0,.53.42.85,1.06.85a2.84,2.84,0,0,0,.91-.15l.1.3a2.77,2.77,0,0,1-1,.19,1.28,1.28,0,0,1-1.45-1.28,1.26,1.26,0,0,1,1.33-1.29A1.21,1.21,0,0,1,48,33.46Zm-.39-.3a.93.93,0,0,0-1.83,0Z"/><path class="d" d="M48.71,33.12a6.62,6.62,0,0,0-.06-.78h.4a3,3,0,0,1,.07.4,1.17,1.17,0,0,1,1-.46,1,1,0,0,1,1.1,1.09v1.42h-.41v-1.4a.74.74,0,0,0-.84-.77.79.79,0,0,0-.83.76v1.41h-.42Z"/><path class="d" d="M52.18,32.34h.41v1.35a.74.74,0,0,0,.83.82.76.76,0,0,0,.83-.82V32.34h.41V34a6.12,6.12,0,0,0,.06.79h-.4c0-.11,0-.23,0-.39a1.13,1.13,0,0,1-1,.46,1,1,0,0,1-1.1-1.14Z"/><path class="d" d="M40.92,40.66h.45L42.8,43l1.44-2.39h.45v3.56h-.42v-3L43,43.42h-.36l-1.29-2.16v3h-.42Z"/><path class="d" d="M48,43.1H45.79c0,.53.42.85,1.06.85a2.84,2.84,0,0,0,.91-.15l.1.3a2.77,2.77,0,0,1-1,.19A1.28,1.28,0,0,1,45.38,43a1.26,1.26,0,0,1,1.33-1.29A1.21,1.21,0,0,1,48,42.9Zm-.39-.3a.93.93,0,0,0-1.83,0Z"/><path class="d" d="M48.71,42.55a6.62,6.62,0,0,0-.06-.78h.4a3,3,0,0,1,.07.4,1.17,1.17,0,0,1,1-.46,1,1,0,0,1,1.1,1.09v1.42h-.41v-1.4A.74.74,0,0,0,50,42a.79.79,0,0,0-.83.76v1.41h-.42Z"/><path class="d" d="M52.18,41.78h.41v1.35a.74.74,0,0,0,.83.82.76.76,0,0,0,.83-.82V41.78h.41v1.66a6.12,6.12,0,0,0,.06.79h-.4c0-.11,0-.23,0-.39a1.13,1.13,0,0,1-1,.46,1,1,0,0,1-1.1-1.14Z"/><path class="c" d="M67.92,12.35h.45l1.44,2.39,1.44-2.39h.45v3.56h-.42V13L70,15.11h-.36L68.34,13v3h-.42Z"/><path class="c" d="M75,14.79H72.79c0,.53.42.85,1.06.85a2.84,2.84,0,0,0,.91-.15l.1.3a2.77,2.77,0,0,1-1,.19,1.28,1.28,0,0,1-1.45-1.28,1.26,1.26,0,0,1,1.33-1.29A1.21,1.21,0,0,1,75,14.59Zm-.39-.3a.93.93,0,0,0-1.83,0Z"/><path class="c" d="M75.71,14.24a6.62,6.62,0,0,0-.06-.78h.4a3,3,0,0,1,.07.4,1.17,1.17,0,0,1,1-.46,1,1,0,0,1,1.1,1.09v1.42h-.41v-1.4a.74.74,0,0,0-.84-.77.79.79,0,0,0-.83.76v1.41h-.42Z"/><path class="c" d="M79.18,13.47h.41v1.35a.74.74,0,0,0,.83.82.76.76,0,0,0,.83-.82V13.47h.41v1.66a6.12,6.12,0,0,0,.06.79h-.4c0-.11,0-.23,0-.39a1.13,1.13,0,0,1-1,.46,1,1,0,0,1-1.1-1.14Z"/><path class="d" d="M67.92,21.78h.45l1.44,2.39,1.44-2.39h.45v3.56h-.42v-3L70,24.55h-.36l-1.29-2.16v3h-.42Z"/><path class="d" d="M75,24.23H72.79c0,.53.42.85,1.06.85a2.84,2.84,0,0,0,.91-.15l.1.3a2.77,2.77,0,0,1-1,.19,1.28,1.28,0,0,1-1.45-1.28,1.26,1.26,0,0,1,1.33-1.29A1.21,1.21,0,0,1,75,24Zm-.39-.3a.93.93,0,0,0-1.83,0Z"/><path class="d" d="M75.71,23.68a6.62,6.62,0,0,0-.06-.78h.4a3,3,0,0,1,.07.4,1.17,1.17,0,0,1,1-.46,1,1,0,0,1,1.1,1.09v1.42h-.41v-1.4a.74.74,0,0,0-.84-.77.79.79,0,0,0-.83.76v1.41h-.42Z"/><path class="d" d="M79.18,22.9h.41v1.35a.74.74,0,0,0,.83.82.76.76,0,0,0,.83-.82V22.9h.41v1.66a6.12,6.12,0,0,0,.06.79h-.4c0-.11,0-.23,0-.39a1.13,1.13,0,0,1-1,.46,1,1,0,0,1-1.1-1.14Z"/><path class="d" d="M67.92,31.22h.45l1.44,2.39,1.44-2.39h.45v3.56h-.42v-3L70,34h-.36l-1.29-2.16v3h-.42Z"/><path class="d" d="M75,33.66H72.79c0,.53.42.85,1.06.85a2.84,2.84,0,0,0,.91-.15l.1.3a2.77,2.77,0,0,1-1,.19,1.28,1.28,0,0,1-1.45-1.28,1.26,1.26,0,0,1,1.33-1.29A1.21,1.21,0,0,1,75,33.46Zm-.39-.3a.93.93,0,0,0-1.83,0Z"/><path class="d" d="M75.71,33.12a6.62,6.62,0,0,0-.06-.78h.4a3,3,0,0,1,.07.4,1.17,1.17,0,0,1,1-.46,1,1,0,0,1,1.1,1.09v1.42h-.41v-1.4a.74.74,0,0,0-.84-.77.79.79,0,0,0-.83.76v1.41h-.42Z"/><path class="d" d="M79.18,32.34h.41v1.35a.74.74,0,0,0,.83.82.76.76,0,0,0,.83-.82V32.34h.41V34a6.12,6.12,0,0,0,.06.79h-.4c0-.11,0-.23,0-.39a1.13,1.13,0,0,1-1,.46,1,1,0,0,1-1.1-1.14Z"/><path class="d" d="M67.92,40.66h.45L69.8,43l1.44-2.39h.45v3.56h-.42v-3L70,43.42h-.36l-1.29-2.16v3h-.42Z"/><path class="d" d="M75,43.1H72.79c0,.53.42.85,1.06.85a2.84,2.84,0,0,0,.91-.15l.1.3a2.77,2.77,0,0,1-1,.19A1.28,1.28,0,0,1,72.38,43a1.26,1.26,0,0,1,1.33-1.29A1.21,1.21,0,0,1,75,42.9Zm-.39-.3a.93.93,0,0,0-1.83,0Z"/><path class="d" d="M75.71,42.56a6.62,6.62,0,0,0-.06-.78h.4a3,3,0,0,1,.07.4,1.17,1.17,0,0,1,1-.46,1,1,0,0,1,1.1,1.09v1.42h-.41v-1.4A.74.74,0,0,0,77,42a.79.79,0,0,0-.83.76v1.41h-.42Z"/><path class="d" d="M79.18,41.78h.41v1.35a.74.74,0,0,0,.83.82.76.76,0,0,0,.83-.82V41.78h.41v1.66a6.12,6.12,0,0,0,.06.79h-.4c0-.11,0-.23,0-.39a1.13,1.13,0,0,1-1,.46,1,1,0,0,1-1.1-1.14Z"/><path class="c" d="M96.92,12.35h.45l1.44,2.39,1.44-2.39h.45v3.56h-.42V13L99,15.11h-.36L97.34,13v3h-.42Z"/><path class="c" d="M104,14.79h-2.23c0,.53.42.85,1.06.85a2.84,2.84,0,0,0,.91-.15l.1.3a2.77,2.77,0,0,1-1,.19,1.28,1.28,0,0,1-1.45-1.28,1.26,1.26,0,0,1,1.33-1.29A1.21,1.21,0,0,1,104,14.59Zm-.39-.3a.93.93,0,0,0-1.83,0Z"/><path class="c" d="M104.71,14.24a6.62,6.62,0,0,0-.06-.78h.4a3,3,0,0,1,.07.4,1.17,1.17,0,0,1,1-.46,1,1,0,0,1,1.1,1.09v1.42h-.41v-1.4a.74.74,0,0,0-.84-.77.79.79,0,0,0-.83.76v1.41h-.42Z"/><path class="c" d="M108.18,13.47h.41v1.35a.74.74,0,0,0,.83.82.76.76,0,0,0,.83-.82V13.47h.41v1.66a6.12,6.12,0,0,0,.06.79h-.4c0-.11,0-.23,0-.39a1.13,1.13,0,0,1-1,.46,1,1,0,0,1-1.1-1.14Z"/><path class="d" d="M96.92,21.78h.45l1.44,2.39,1.44-2.39h.45v3.56h-.42v-3L99,24.55h-.36l-1.29-2.16v3h-.42Z"/><path class="d" d="M104,24.23h-2.23c0,.53.42.85,1.06.85a2.84,2.84,0,0,0,.91-.15l.1.3a2.77,2.77,0,0,1-1,.19,1.28,1.28,0,0,1-1.45-1.28,1.26,1.26,0,0,1,1.33-1.29A1.21,1.21,0,0,1,104,24Zm-.39-.3a.93.93,0,0,0-1.83,0Z"/><path class="d" d="M104.71,23.68a6.62,6.62,0,0,0-.06-.78h.4a3,3,0,0,1,.07.4,1.17,1.17,0,0,1,1-.46,1,1,0,0,1,1.1,1.09v1.42h-.41v-1.4a.74.74,0,0,0-.84-.77.79.79,0,0,0-.83.76v1.41h-.42Z"/><path class="d" d="M108.18,22.9h.41v1.35a.74.74,0,0,0,.83.82.76.76,0,0,0,.83-.82V22.9h.41v1.66a6.12,6.12,0,0,0,.06.79h-.4c0-.11,0-.23,0-.39a1.13,1.13,0,0,1-1,.46,1,1,0,0,1-1.1-1.14Z"/><path class="d" d="M96.92,31.22h.45l1.44,2.39,1.44-2.39h.45v3.56h-.42v-3L99,34h-.36l-1.29-2.16v3h-.42Z"/><path class="d" d="M104,33.66h-2.23c0,.53.42.85,1.06.85a2.84,2.84,0,0,0,.91-.15l.1.3a2.77,2.77,0,0,1-1,.19,1.28,1.28,0,0,1-1.45-1.28,1.26,1.26,0,0,1,1.33-1.29A1.21,1.21,0,0,1,104,33.46Zm-.39-.3a.93.93,0,0,0-1.83,0Z"/><path class="d" d="M104.71,33.12a6.62,6.62,0,0,0-.06-.78h.4a3,3,0,0,1,.07.4,1.17,1.17,0,0,1,1-.46,1,1,0,0,1,1.1,1.09v1.42h-.41v-1.4a.74.74,0,0,0-.84-.77.79.79,0,0,0-.83.76v1.41h-.42Z"/><path class="d" d="M108.18,32.34h.41v1.35a.74.74,0,0,0,.83.82.76.76,0,0,0,.83-.82V32.34h.41V34a6.12,6.12,0,0,0,.06.79h-.4c0-.11,0-.23,0-.39a1.13,1.13,0,0,1-1,.46,1,1,0,0,1-1.1-1.14Z"/><path class="d" d="M96.92,40.66h.45L98.8,43l1.44-2.39h.45v3.56h-.42v-3L99,43.42h-.36l-1.29-2.16v3h-.42Z"/><path class="d" d="M104,43.1h-2.23c0,.53.42.85,1.06.85a2.84,2.84,0,0,0,.91-.15l.1.3a2.77,2.77,0,0,1-1,.19A1.28,1.28,0,0,1,101.38,43a1.26,1.26,0,0,1,1.33-1.29A1.21,1.21,0,0,1,104,42.9Zm-.39-.3a.93.93,0,0,0-1.83,0Z"/><path class="d" d="M104.71,42.56a6.62,6.62,0,0,0-.06-.78h.4a3,3,0,0,1,.07.4,1.17,1.17,0,0,1,1-.46,1,1,0,0,1,1.1,1.09v1.42h-.41v-1.4A.74.74,0,0,0,106,42a.79.79,0,0,0-.83.76v1.41h-.42Z"/><path class="d" d="M108.18,41.78h.41v1.35a.74.74,0,0,0,.83.82.76.76,0,0,0,.83-.82V41.78h.41v1.66a6.12,6.12,0,0,0,.06.79h-.4c0-.11,0-.23,0-.39a1.13,1.13,0,0,1-1,.46,1,1,0,0,1-1.1-1.14Z"/></svg>