<svg xmlns="http://www.w3.org/2000/svg" viewBox="0 0 124.26 56.67"><defs><style>.a{fill:#f0f0f0;}.b{fill:#fff;}.c{fill:#f5f5f5;}.d{fill:#231815;}</style></defs><title>资源 15</title><rect class="a" width="124.26" height="56.67"/><rect class="b" x="41.84" y="7.17" width="37.42" height="42.33"/><rect class="c" x="41.84" y="19" width="37.42" height="7"/><path class="d" d="M49,11.45h.45l1.44,2.39,1.44-2.39h.45V15h-.42v-3l-1.29,2.16h-.36l-1.29-2.16v3H49Z"/><path class="d" d="M56.12,13.89H53.89c0,.53.42.85,1.06.85a2.84,2.84,0,0,0,.91-.15l.1.3a2.77,2.77,0,0,1-1,.19,1.28,1.28,0,0,1-1.45-1.28,1.26,1.26,0,0,1,1.33-1.29,1.21,1.21,0,0,1,1.31,1.19Zm-.39-.3a.93.93,0,0,0-1.83,0Z"/><path class="d" d="M56.81,13.35a6.62,6.62,0,0,0-.06-.78h.4a3,3,0,0,1,.07.4,1.17,1.17,0,0,1,1-.46,1,1,0,0,1,1.1,1.09V15H58.9v-1.4a.74.74,0,0,0-.84-.77.79.79,0,0,0-.83.76V15h-.42Z"/><path class="d" d="M60.29,12.57h.41v1.35a.74.74,0,0,0,.83.82.76.76,0,0,0,.83-.82V12.57h.41v1.66a6.12,6.12,0,0,0,.06.79h-.4c0-.11,0-.23,0-.39a1.13,1.13,0,0,1-1,.46,1,1,0,0,1-1.1-1.14Z"/><path class="d" d="M49,20.88h.45l1.44,2.39,1.44-2.39h.45v3.56h-.42v-3l-1.29,2.16h-.36l-1.29-2.16v3H49Z"/><path class="d" d="M56.12,23.33H53.89c0,.53.42.85,1.06.85a2.84,2.84,0,0,0,.91-.15l.1.3a2.77,2.77,0,0,1-1,.19,1.28,1.28,0,0,1-1.45-1.28,1.26,1.26,0,0,1,1.33-1.29,1.21,1.21,0,0,1,1.31,1.19Zm-.39-.3a.93.93,0,0,0-1.83,0Z"/><path class="d" d="M56.81,22.78a6.62,6.62,0,0,0-.06-.78h.4a3,3,0,0,1,.07.4,1.17,1.17,0,0,1,1-.46A1,1,0,0,1,59.31,23v1.42H58.9V23a.74.74,0,0,0-.84-.77.79.79,0,0,0-.83.76v1.41h-.42Z"/><path class="d" d="M60.29,22h.41v1.35a.74.74,0,0,0,.83.82.76.76,0,0,0,.83-.82V22h.41v1.66a6.12,6.12,0,0,0,.06.79h-.4c0-.11,0-.23,0-.39a1.13,1.13,0,0,1-1,.46,1,1,0,0,1-1.1-1.14Z"/><path class="d" d="M49,30.32h.45l1.44,2.39,1.44-2.39h.45v3.56h-.42v-3l-1.29,2.16h-.36l-1.29-2.16v3H49Z"/><path class="d" d="M56.12,32.76H53.89c0,.53.42.85,1.06.85a2.84,2.84,0,0,0,.91-.15l.1.3a2.77,2.77,0,0,1-1,.19,1.28,1.28,0,0,1-1.45-1.28,1.26,1.26,0,0,1,1.33-1.29,1.21,1.21,0,0,1,1.31,1.19Zm-.39-.3a.93.93,0,0,0-1.83,0Z"/><path class="d" d="M56.81,32.22a6.62,6.62,0,0,0-.06-.78h.4a3,3,0,0,1,.07.4,1.17,1.17,0,0,1,1-.46,1,1,0,0,1,1.1,1.09v1.42H58.9v-1.4a.74.74,0,0,0-.84-.77.79.79,0,0,0-.83.76v1.41h-.42Z"/><path class="d" d="M60.29,31.44h.41v1.35a.74.74,0,0,0,.83.82.76.76,0,0,0,.83-.82V31.44h.41V33.1a6.12,6.12,0,0,0,.06.79h-.4c0-.11,0-.23,0-.39a1.13,1.13,0,0,1-1,.46,1,1,0,0,1-1.1-1.14Z"/><path class="d" d="M49,39.76h.45l1.44,2.39,1.44-2.39h.45v3.56h-.42v-3l-1.29,2.16h-.36l-1.29-2.16v3H49Z"/><path class="d" d="M56.12,42.2H53.89c0,.53.42.85,1.06.85a2.84,2.84,0,0,0,.91-.15l.1.3a2.77,2.77,0,0,1-1,.19,1.28,1.28,0,0,1-1.45-1.28,1.26,1.26,0,0,1,1.33-1.29A1.21,1.21,0,0,1,56.12,42Zm-.39-.3a.93.93,0,0,0-1.83,0Z"/><path class="d" d="M56.81,41.66a6.62,6.62,0,0,0-.06-.78h.4a3,3,0,0,1,.07.4,1.17,1.17,0,0,1,1-.46,1,1,0,0,1,1.1,1.09v1.42H58.9v-1.4a.74.74,0,0,0-.84-.77.79.79,0,0,0-.83.76v1.41h-.42Z"/><path class="d" d="M60.29,40.88h.41v1.35a.74.74,0,0,0,.83.82.76.76,0,0,0,.83-.82V40.88h.41v1.66a6.12,6.12,0,0,0,.06.79h-.4c0-.11,0-.23,0-.39a1.13,1.13,0,0,1-1,.46,1,1,0,0,1-1.1-1.14Z"/></svg>