<svg xmlns="http://www.w3.org/2000/svg" viewBox="0 0 124.26 56.67"><defs><style>.a{fill:#f0f0f0;}.b{fill:#fff;}.c{fill:#f5f5f5;}.d{fill:#231815;}</style></defs><title>menu资源 12</title><rect class="a" width="124.26" height="56.67"/><rect class="b" x="6.59" y="7.17" width="111.67" height="42.33"/><rect class="c" x="83.09" y="10.89" width="31.58" height="22.16"/><path class="d" d="M94.14,35.36h.35l1.13,1.87,1.13-1.87h.35v2.79h-.33V35.84l-1,1.69h-.28l-1-1.69v2.32h-.33Z"/><path class="d" d="M99.71,37.28H98c0,.41.33.67.83.67a2.21,2.21,0,0,0,.72-.12l.08.23a2.18,2.18,0,0,1-.81.15,1,1,0,0,1-1.14-1,1,1,0,0,1,1-1,1,1,0,0,1,1,.93ZM99.4,37A.73.73,0,0,0,98,37Z"/><path class="d" d="M100.25,36.85a5.13,5.13,0,0,0,0-.61h.31a2.38,2.38,0,0,1,.05.31.92.92,0,0,1,.77-.36.8.8,0,0,1,.86.85v1.11h-.32v-1.1a.58.58,0,0,0-.66-.61.62.62,0,0,0-.65.6v1.11h-.33Z"/><path class="d" d="M103,36.24h.32V37.3a.58.58,0,0,0,.65.64.6.6,0,0,0,.65-.64V36.24h.32v1.3a4.82,4.82,0,0,0,0,.62h-.31c0-.09,0-.18,0-.31a.89.89,0,0,1-.78.36.8.8,0,0,1-.86-.9Z"/><rect class="c" x="46.63" y="11.31" width="31.58" height="22.16"/><path class="d" d="M57.69,35.79H58l1.13,1.87,1.13-1.87h.35v2.79h-.33V36.26L59.3,38H59l-1-1.69v2.32h-.33Z"/><path class="d" d="M63.25,37.7H61.5c0,.41.33.67.83.67a2.21,2.21,0,0,0,.72-.12l.08.23a2.18,2.18,0,0,1-.81.15,1,1,0,0,1-1.14-1,1,1,0,0,1,1-1,1,1,0,0,1,1,.93Zm-.31-.24a.73.73,0,0,0-1.44,0Z"/><path class="d" d="M63.79,37.27a5.13,5.13,0,0,0,0-.61h.31a2.38,2.38,0,0,1,.05.31.92.92,0,0,1,.77-.36.8.8,0,0,1,.86.85v1.11h-.32v-1.1a.58.58,0,0,0-.66-.61.62.62,0,0,0-.65.6v1.11h-.33Z"/><path class="d" d="M66.52,36.66h.32v1.06a.58.58,0,0,0,.65.64.6.6,0,0,0,.65-.64V36.66h.32V38a4.82,4.82,0,0,0,0,.62h-.31c0-.09,0-.18,0-.31a.89.89,0,0,1-.78.36.8.8,0,0,1-.86-.9Z"/><rect class="c" x="10.07" y="11.74" width="31.58" height="22.16"/><path class="d" d="M21.12,36.21h.35l1.13,1.87,1.13-1.87h.35V39h-.33V36.69l-1,1.69h-.28l-1-1.69V39h-.33Z"/><path class="d" d="M26.69,38.12H24.94c0,.41.33.67.83.67a2.21,2.21,0,0,0,.72-.12l.08.23a2.18,2.18,0,0,1-.81.15,1,1,0,0,1-1.14-1,1,1,0,0,1,1-1,1,1,0,0,1,1,.93Zm-.31-.24a.73.73,0,0,0-1.44,0Z"/><path class="d" d="M27.23,37.7a5.13,5.13,0,0,0,0-.61h.31a2.38,2.38,0,0,1,.05.31.92.92,0,0,1,.77-.36.8.8,0,0,1,.86.85V39h-.32V37.9a.58.58,0,0,0-.66-.61.62.62,0,0,0-.65.6V39h-.33Z"/><path class="d" d="M29.95,37.09h.32v1.06a.58.58,0,0,0,.65.64.6.6,0,0,0,.65-.64V37.09h.32v1.3a4.82,4.82,0,0,0,0,.62h-.31c0-.09,0-.18,0-.31a.89.89,0,0,1-.78.36.8.8,0,0,1-.86-.9Z"/></svg>