<svg xmlns="http://www.w3.org/2000/svg" viewBox="0 0 166.56 226.44"><defs><style>.a{fill:#f0f0f0;}.b{fill:#ebc9c9;}.c{fill:#231815;}.d{fill:#c9c7e4;}</style></defs><title>资源 22</title><rect class="a" y="62.22" width="120.84" height="164.22"/><rect class="b" width="166.56" height="57.47"/><path class="c" d="M69.53,35V21.54H82.41V35h-2v-.56h-9V35Zm4.62-11.76H71.49v2.47a9.15,9.15,0,0,0,2.65-2.45Zm-1.71,3.58a12.71,12.71,0,0,0-.94-.91v1.7A24.1,24.1,0,0,0,74.39,27a7.3,7.3,0,0,1-1-.85,7.19,7.19,0,0,1-1,.69Zm.06,3.29q3.76.5,7.08,1.06l-.4,1.54h1.27v-5L79.69,29A15.63,15.63,0,0,1,76,28a17.38,17.38,0,0,1-1.7.58q2.37.3,4.63.68l-.29,1.35q-2.35-.41-5.27-.81l.22-1q-.69.17-1.45.31a10.24,10.24,0,0,0-.67-1.25v5h7.6q-2.9-.59-7-1.1ZM76,26.36a5.46,5.46,0,0,0,1.58-1h-3A5.37,5.37,0,0,0,76,26.36ZM79.8,24v1.2a7.28,7.28,0,0,1-2,1.8,18.6,18.6,0,0,0,2.62.49V23.26H76.11q-.26.39-.56.77Z"/><path class="c" d="M92,21h2.1v3.66h3.42v1.88H87.8a18.74,18.74,0,0,1,0,1.88h7.13V35H92.75V30.3H87.49a9.47,9.47,0,0,1-2.4,4.83,18.15,18.15,0,0,0-1.64-1.68q2.28-2,2.28-6.81V21.25H87.8v3.41H92Z"/><rect class="d" x="125.84" y="62.22" width="40.72" height="68.61"/><rect class="d" x="125.84" y="135.57" width="40.72" height="68.61"/></svg>