<svg xmlns="http://www.w3.org/2000/svg" viewBox="0 0 411.41 197"><defs><style>.a{fill:#f0efef;}.b{fill:#d6d4d4;}</style></defs><title>资源 12</title><rect class="a" x="1" width="96" height="95.38"/><path class="b" d="M5.4,108.25H5.16l-.91-3.09a1.86,1.86,0,0,1-.08-.39h0a1.92,1.92,0,0,1-.09.38l-1,3.09H2.87l-1.22-4.1H2l.94,3.29a1.34,1.34,0,0,0,.09.36H3a2.64,2.64,0,0,1,.1-.36l1-3.29h.14l.93,3.29a1.34,1.34,0,0,0,.09.36h0a1.54,1.54,0,0,1,0-.18l1-3.47H6.6Z"/><path class="b" d="M8.18,108.32a1.28,1.28,0,0,1-1-.42,1.83,1.83,0,0,1,0-2.24,1.35,1.35,0,0,1,1-.41,1.26,1.26,0,0,1,1,.41,1.65,1.65,0,0,1,.36,1.13,1.62,1.62,0,0,1-.37,1.11A1.28,1.28,0,0,1,8.18,108.32Zm0-2.83a1,1,0,0,0-.83.35,1.42,1.42,0,0,0-.31,1,1.36,1.36,0,0,0,.3.92,1,1,0,0,0,.82.35,1,1,0,0,0,.82-.34,1.75,1.75,0,0,0,0-1.91,1,1,0,0,0-.78-.38Z"/><path class="b" d="M11.68,105.59a.52.52,0,0,0-.31-.1.68.68,0,0,0-.58.36,1.86,1.86,0,0,0-.23,1v1.38H10.3v-2.92h.26V106h0a1.06,1.06,0,0,1,.32-.52.75.75,0,0,1,.5-.19.77.77,0,0,1,.29.05Z"/><path class="b" d="M14.2,108.25v-.57h0a1.07,1.07,0,0,1-.42.44,1.23,1.23,0,0,1-.63.16,1.12,1.12,0,0,1-.88-.39,1.62,1.62,0,0,1-.34-1.09,1.71,1.71,0,0,1,.35-1.12,1.21,1.21,0,0,1,1-.44,1,1,0,0,1,.94.54h0v-1.87h.28v4.34Zm0-1.78a1,1,0,0,0-.26-.69.89.89,0,0,0-.7-.29,1,1,0,0,0-.76.35,1.74,1.74,0,0,0,0,1.91.86.86,0,0,0,.7.33,1,1,0,0,0,.78-.31,1.11,1.11,0,0,0,.27-.76Z"/><path class="b" d="M15.67,107.68h0v1.87H15.4v-4.24h.26v.6h0a1.14,1.14,0,0,1,.45-.5,1.23,1.23,0,0,1,.64-.18,1.07,1.07,0,0,1,.87.39,1.61,1.61,0,0,1,.31,1,1.85,1.85,0,0,1-.36,1.19,1.15,1.15,0,0,1-1,.45A1,1,0,0,1,15.67,107.68Zm0-1.09V107a1.11,1.11,0,0,0,.28.76.93.93,0,0,0,.73.32.86.86,0,0,0,.72-.36,1.68,1.68,0,0,0,.28-1,1.36,1.36,0,0,0-.26-.87.83.83,0,0,0-.69-.32,1,1,0,0,0-.79.34,1.23,1.23,0,0,0-.28.85Z"/><path class="b" d="M20.07,105.59a.52.52,0,0,0-.31-.1.68.68,0,0,0-.58.36,1.86,1.86,0,0,0-.23,1v1.38h-.26v-2.92H19V106h0a1.06,1.06,0,0,1,.32-.52.75.75,0,0,1,.5-.19.77.77,0,0,1,.29.05Z"/><path class="b" d="M20.57,106.79a1.45,1.45,0,0,0,.28.95.94.94,0,0,0,.77.34,1.56,1.56,0,0,0,1-.36V108a1.71,1.71,0,0,1-1,.32,1.15,1.15,0,0,1-.92-.41,1.71,1.71,0,0,1-.35-1.15,1.63,1.63,0,0,1,.31-1.08,1.17,1.17,0,0,1,1-.44,1,1,0,0,1,.84.38,1.69,1.69,0,0,1,.29,1v.12Zm1.9-.24a1.31,1.31,0,0,0-.24-.79.76.76,0,0,0-.62-.28.92.92,0,0,0-.68.28,1.34,1.34,0,0,0-.33.79Z"/><path class="b" d="M23.31,108.12v-.32a1.09,1.09,0,0,0,.36.2,1.12,1.12,0,0,0,.37.07q.69,0,.69-.56a.44.44,0,0,0-.15-.33,1.78,1.78,0,0,0-.49-.28,1.69,1.69,0,0,1-.59-.38.7.7,0,0,1-.17-.48.71.71,0,0,1,.27-.58,1,1,0,0,1,.68-.22,1.28,1.28,0,0,1,.65.15v.29a1.22,1.22,0,0,0-.68-.21.7.7,0,0,0-.47.15.49.49,0,0,0-.18.39.5.5,0,0,0,.11.34,1.5,1.5,0,0,0,.49.3,2.15,2.15,0,0,1,.63.38.64.64,0,0,1,.17.47.73.73,0,0,1-.26.58,1.06,1.06,0,0,1-.72.23A1.19,1.19,0,0,1,23.31,108.12Z"/><path class="b" d="M25.59,108.12v-.32a1.09,1.09,0,0,0,.36.2,1.12,1.12,0,0,0,.37.07q.69,0,.69-.56a.44.44,0,0,0-.15-.33,1.78,1.78,0,0,0-.49-.28,1.69,1.69,0,0,1-.59-.38.7.7,0,0,1-.17-.48.71.71,0,0,1,.27-.58,1,1,0,0,1,.68-.22,1.28,1.28,0,0,1,.65.15v.29a1.22,1.22,0,0,0-.71-.2.7.7,0,0,0-.47.15.49.49,0,0,0-.18.39.5.5,0,0,0,.11.34,1.5,1.5,0,0,0,.54.32,2.15,2.15,0,0,1,.63.38.64.64,0,0,1,.17.47.73.73,0,0,1-.26.58,1.06,1.06,0,0,1-.72.23A1.19,1.19,0,0,1,25.59,108.12Z"/><path class="b" d="M31.63,103.87l.28-.09.23.64h2.28v.26H29.33v-.25h2.49A5.07,5.07,0,0,0,31.63,103.87Zm-1.06,1,.24-.14c.19.24.35.46.48.64l-.25.15h1.28q.27-.37.54-.8l.26.14c-.14.21-.3.43-.48.67H34v2.73a.5.5,0,0,1-.58.57h-.64a1.53,1.53,0,0,0-.07-.29h.63a.42.42,0,0,0,.3-.07.34.34,0,0,0,.08-.27v-2.46H30v3.16h-.28v-3.41H31a7.06,7.06,0,0,0-.45-.66Zm.75,1.06.21.19q-.61.47-1.16.82a1.28,1.28,0,0,0-.19-.22,7.84,7.84,0,0,0,1.14-.83Zm1.55,2.23h-2v-1.41h2ZM31.13,107v.87H32.6V107Zm1.07-.91.17-.19q.53.32,1.16.75l-.18.22a10.38,10.38,0,0,0-1.16-.82Z"/><path class="b" d="M37.56,108.83h-.29v-1.69H35.6a3.5,3.5,0,0,1-.62,1.78l-.27-.2a3.18,3.18,0,0,0,.52-1.11,7.12,7.12,0,0,0,.12-1.62v-1.88H39.5v4.07a.59.59,0,0,1-.67.66H38.2a2.64,2.64,0,0,0,0-.31h.63c.3,0,.44-.12.43-.39v-1H37.56ZM35.64,106v.88h1.65v-1.12H35.64Zm0-1.62v1.12h1.63v-1.12Zm3.62,0h-1.7v1.12h1.69Zm-1.69,1.38v1.12h1.69v-1.12Z"/><path class="b" d="M40.41,104.76H45V105H42.87v1.41h2v.23h-2v1.59h2.38v.28H40.19v-.28h2.38v-1.59h-2v-.28h2V105H40.41Zm2-.86.27-.1q.25.48.38.78l-.29.11a6.92,6.92,0,0,0-.37-.79Z"/><path class="b" d="M45.6,106.31h2.33v.24H47v.68h.83v.23H47v.86a3.18,3.18,0,0,0,.89.13h2.79a2.21,2.21,0,0,0-.11.29H47.92a1.77,1.77,0,0,1-1.75-.83,3,3,0,0,1-.39,1,1.4,1.4,0,0,0-.28-.23,3.15,3.15,0,0,0,.43-1.77h.26v.57a1.67,1.67,0,0,0,.58.72v-1.65H45.6Zm.34-2.28h1.74v1.8H45.94Zm.27.23v.55h1.2v-.55Zm0,.78v.55h1.2V105Zm4.12,3.14q-.48-.43-1.06-.91a2,2,0,0,1-1.19,1l-.16-.23a2.19,2.19,0,0,0,1-.68,1.86,1.86,0,0,0,.25-1.11v-.67h.27v.68a3.2,3.2,0,0,1-.08.76l1.17.94Zm-2.26-4.12h2.52v.24H49.4l-.13.71h1.06v2.13h-.27v-1.9H48.5v1.9h-.26V105H49l.13-.71h-1Z"/><path class="b" d="M53,108.25v-4.11h1.08a1.1,1.1,0,0,1,.77.26.89.89,0,0,1,.29.69,1,1,0,0,1-.72,1h0a.94.94,0,0,1,.92,1,1.13,1.13,0,0,1-.33.85,1.23,1.23,0,0,1-.89.33Zm.28-3.84V106h.57a1.07,1.07,0,0,0,.71-.23.78.78,0,0,0,.27-.62q0-.74-.87-.74Zm0,1.84V108H54a1.07,1.07,0,0,0,.74-.23.84.84,0,0,0,.26-.66q0-.85-1.15-.85Z"/><path class="b" d="M55.93,108.25v-.19a1.85,1.85,0,0,1,0-.35,1.12,1.12,0,0,1,.1-.28,1.26,1.26,0,0,1,.16-.24,2.13,2.13,0,0,1,.22-.23l.29-.23.35-.26.35-.26a1.89,1.89,0,0,0,.28-.28,1.24,1.24,0,0,0,.19-.33,1.15,1.15,0,0,0,.07-.42.78.78,0,0,0-.69-.86h-.17a1.23,1.23,0,0,0-.53.12,2.19,2.19,0,0,0-.5.33v-.31a2,2,0,0,1,.51-.28,1.58,1.58,0,0,1,.57-.1,1.25,1.25,0,0,1,.45.08,1,1,0,0,1,.34.21.92.92,0,0,1,.22.33,1.17,1.17,0,0,1,.08.44,1.42,1.42,0,0,1-.08.5,1.45,1.45,0,0,1-.22.4,2.08,2.08,0,0,1-.33.33l-.4.3-.47.35a2.1,2.1,0,0,0-.31.3,1,1,0,0,0-.17.3,1.1,1.1,0,0,0,0,.36h2v.24Z"/><path class="b" d="M61.5,106.93l.28.06q-.05.24-.11.45a1.58,1.58,0,0,0,1.31.94v-1.7H60.5v-.25h5v.25H63.24v.68h1.9v.32h-1.9v.75h2.32a1.39,1.39,0,0,0-.06.25H63.34a1.87,1.87,0,0,1-1.84-1,2.65,2.65,0,0,1-.93,1.19l-.17-.19A2.49,2.49,0,0,0,61.5,106.93Zm-.2-2.88h3.48v1.86H61.26Zm.29.24v.56H64.5v-.56Zm0,.8v.59H64.5v-.57Z"/><path class="b" d="M67.35,70.36H72.5v.32H67.35Z"/><path class="b" d="M71.5,108.34a1.12,1.12,0,0,0-.22-.13,9.88,9.88,0,0,0,.56-.93l.22.11A10.72,10.72,0,0,1,71.5,108.34Zm1-4.56h.28v.57h1.14v.25H72.75v.6h.9v.24H71.5v-.24h1v-.6H71.3v-.25h1.2Zm-1.15,3h2.58V107H72.76v1.21q0,.55-.51.55h-.46a2.28,2.28,0,0,0,0-.29h.41a.36.36,0,0,0,.26-.06.29.29,0,0,0,.07-.23V107H71.31Zm.28-.79h2v.24h-2Zm1.51,1.42.21-.12c.16.23.31.47.46.71l-.23.13c-.2-.29-.35-.53-.48-.71Zm1.77-2.18h.28V106a3.76,3.76,0,0,0,1.29,2.6l-.21.23a3.51,3.51,0,0,1-1.2-2.27,3.58,3.58,0,0,1-1.36,2.33,1.76,1.76,0,0,0-.21-.22,3.45,3.45,0,0,0,1.4-2.53q0-.41,0-.91Zm-.76.64-.26-.12a9,9,0,0,0,.69-2h.28q-.12.45-.22.78h1.67v.3l-.31.92-.26-.09.32-.87H74.5a8.26,8.26,0,0,1-.38,1.09Z"/><path class="b" d="M76.8,107.39l-.12-.31a7.28,7.28,0,0,0,.77-1.93h-.67v-.27h.67v-1.06h.28v1.06h.58v.25h-.58V106l.14-.12q.33.31.61.61l-.21.19-.54-.6v2.83h-.28v-3.13A6,6,0,0,1,76.8,107.39Zm1.41.09h1.57a2.54,2.54,0,0,0,.07-.54H78.63v-1.73h2.76v1.73H80.13a3.44,3.44,0,0,1-.06.54h1.68v.2H80.19a2.08,2.08,0,0,0,1.63.85,1.8,1.8,0,0,0-.14.28,2.29,2.29,0,0,1-1.72-1q-.3.75-1.7,1.11a1.56,1.56,0,0,0-.17-.27q1.41-.29,1.61-1H78.21Zm.08-3.17h.92v-.51h.29v.51h1v-.51h.27v.51h1v.24h-1V105H80.5v-.43h-1V105h-.27v-.43H78.3Zm.62,1.13v.51h2.2v-.51Zm0,.74v.5h2.2v-.51Z"/><path class="b" d="M82.22,108l-.08-.34.77-.19V105.4H82.2v-.26h.71v-1.31h.28v1.31h.68v.26h-.68v2l.42-.12.32-.09a2.12,2.12,0,0,0,0,.29Zm1.58-1.58H85a12.33,12.33,0,0,0,.06-1.42h-1v-.26h1v-.93h.29v.93H86.7v1.68h.52v.24H85.5a3.14,3.14,0,0,0,1.77,1.85,2.93,2.93,0,0,0-.2.28,3.36,3.36,0,0,1-1.79-2,3.42,3.42,0,0,1-1.57,2.12,2.4,2.4,0,0,0-.23-.24,3.1,3.1,0,0,0,1.56-2H83.8ZM86.42,105h-1a13.41,13.41,0,0,1-.06,1.42h1.09Z"/><path class="b" d="M87.75,106.74a2.62,2.62,0,0,0-.2-.29,8.61,8.61,0,0,0,1.5-2.59l.3.09q-.28.66-.65,1.34v3.61h-.29v-3.11A10.21,10.21,0,0,1,87.75,106.74Zm1.47.59a2.39,2.39,0,0,0-.19-.27,10.17,10.17,0,0,0,1.3-.74V103.9h.3v2.2a7.75,7.75,0,0,0,1.55-1.57l.27.16a9.39,9.39,0,0,1-1.82,1.76v1.48a.48.48,0,0,0,.11.38.56.56,0,0,0,.4.11h.59q.49,0,.56-.36a8.31,8.31,0,0,0,.13-.93l.29.1q-.06.56-.12.92-.1.58-.84.57h-.69a.64.64,0,0,1-.73-.75v-1.29a10.92,10.92,0,0,1-1.12.64Z"/><path class="b" d="M2.63,110.29l.28.06a4.18,4.18,0,0,1-.24.43H4.26V111H2.5a4,4,0,0,1-.65.68l-.21-.2A3.31,3.31,0,0,0,2.63,110.29ZM4,111.5l.25-.1v.06l.19.41H6.56v.73H6.28v-.49H2.14v.49H1.86v-.74h2.3ZM2.5,112.59H5.92v1H2.75v.47H6v1.31H5.77v-.21h-3v.22H2.5Zm.28.24v.56H5.64v-.56Zm3,1.51h-3V115h3Zm-2.5-2.66-.45-.48L3,111a6.22,6.22,0,0,1,.46.46ZM5,110.28l.28.05a4.27,4.27,0,0,1-.22.44H6.78V111H4.92a4.18,4.18,0,0,1-.37.48l-.23-.17a3,3,0,0,0,.68-1Zm.88,1.24-.2.16q-.21-.24-.45-.48l.18-.15.47.48Z"/><path class="b" d="M7.15,112.57h.67V111H7.09v-.25H8.8V111H8.09v1.53h.67v.25H8.09v1.59l.71-.17a2.32,2.32,0,0,0,0,.29q-.88.18-1.69.38L7,114.62l.76-.16v-1.64H7.15ZM9,113.83h1.35v-.74H9.13V110.6h2.75v2.49H10.65v.74H12v.25H10.65V115h1.57v.25H8.71V115h1.65v-.88H9Zm.39-3v.85h1v-.87Zm0,1.12v.87h1V112Zm2.19-1.12h-1v.85h1Zm-1,1.12v.87h1V112Z"/><path class="b" d="M12.72,111.19h.55q.16-.49.25-.87l.29.06-.11.33-.15.47h1.08v4.12h-.28v-.43H13v.47h-.28Zm.28.26v1.44h1.35v-1.43Zm0,1.69v1.47h1.35v-1.46Zm2.1-.8-.25-.16a7.83,7.83,0,0,0,.81-1.87l.29.07q-.14.42-.29.78h1.75q0,1.86-.1,3.23a.79.79,0,0,1-.91.89h-.85a2.73,2.73,0,0,0-.07-.3h.87a.57.57,0,0,0,.67-.64q0-.86.09-2.93H15.55a6.76,6.76,0,0,1-.44.94Zm.23.24.22-.15q.37.45.86,1.11l-.24.18q-.44-.62-.84-1.13Z"/><path class="b" d="M18.18,111.27h4.61v.28H20.64V113h2v.28h-2v1.59H23v.28H18v-.28h2.38v-1.59h-2V113h2v-1.41H18.18Zm2-.86.27-.1q.25.48.38.78l-.29.11A6.92,6.92,0,0,0,20.18,110.41Z"/><path class="b" d="M23.38,112.82h2.33v.24h-.89v.68h.83V114h-.83v.86a3.18,3.18,0,0,0,.89.13H28.5a2.21,2.21,0,0,0-.11.29H25.7a1.77,1.77,0,0,1-1.75-.83,3,3,0,0,1-.39,1,1.4,1.4,0,0,0-.21-.19,3.15,3.15,0,0,0,.43-1.77H24V114a1.67,1.67,0,0,0,.58.72v-1.69H23.38Zm.34-2.28H25.5v1.8H23.71Zm.27.23v.55h1.2v-.55Zm0,.78v.55h1.2v-.55Zm4.11,3.13q-.48-.43-1.06-.91a2,2,0,0,1-1.19,1l-.16-.23a2.19,2.19,0,0,0,1-.68,1.86,1.86,0,0,0,.25-1.11v-.67h.27v.68a3.2,3.2,0,0,1-.08.76l1.17.94Zm-2.26-4.12h2.52v.24H27.17l-.13.71H28.1v2.17h-.27v-1.9H26.3v1.9H26v-2.16h.73l.13-.71H25.84Z"/><rect class="a" x="0.5" y="121.68" width="16" height="5"/><rect class="a" x="63.5" y="121.68" width="14" height="5"/><rect class="a" x="81.5" y="121.68" width="14" height="5"/><rect class="a" x="106" width="96" height="128.91"/><rect class="a" x="209" width="96" height="64"/><path class="b" d="M214.86,72.57h-.24l-.91-3.09a1.86,1.86,0,0,1-.08-.39h0a1.92,1.92,0,0,1-.09.38l-1,3.09h-.24l-1.22-4.11h.32l.94,3.29a1.34,1.34,0,0,0,.09.36h0a2.64,2.64,0,0,1,.1-.36l1-3.29h.14l.93,3.29a1.34,1.34,0,0,0,.09.36h0a1.54,1.54,0,0,1,0-.18l1-3.47H216Z"/><path class="b" d="M217.65,72.64a1.28,1.28,0,0,1-1-.42,1.83,1.83,0,0,1,0-2.24,1.35,1.35,0,0,1,1-.41,1.26,1.26,0,0,1,1,.41,1.65,1.65,0,0,1,.36,1.13,1.62,1.62,0,0,1-.37,1.11A1.28,1.28,0,0,1,217.65,72.64Zm0-2.83a1,1,0,0,0-.83.35,1.42,1.42,0,0,0-.31,1,1.36,1.36,0,0,0,.3.92,1.15,1.15,0,0,0,1.64,0,1.75,1.75,0,0,0,0-1.91,1,1,0,0,0-.78-.38Z"/><path class="b" d="M221.14,69.91a.52.52,0,0,0-.31-.1.68.68,0,0,0-.58.36,1.86,1.86,0,0,0-.23,1v1.38h-.26V69.63H220v.65h0a1.06,1.06,0,0,1,.32-.52.75.75,0,0,1,.5-.19.77.77,0,0,1,.29.05Z"/><path class="b" d="M223.66,72.57V72h0a1.07,1.07,0,0,1-.42.44,1.23,1.23,0,0,1-.63.16,1.12,1.12,0,0,1-.88-.39,1.62,1.62,0,0,1-.34-1.09,1.71,1.71,0,0,1,.37-1.15,1.21,1.21,0,0,1,1-.44,1,1,0,0,1,.94.54h0V68.23H224v4.34Zm0-1.78a1,1,0,0,0-.26-.69.89.89,0,0,0-.7-.29,1,1,0,0,0-.76.35,1.74,1.74,0,0,0,0,1.91.86.86,0,0,0,.7.33,1,1,0,0,0,.78-.31,1.11,1.11,0,0,0,.27-.76Z"/><path class="b" d="M225.14,72h0v1.87h-.26V69.63h.26v.6h0a1.14,1.14,0,0,1,.45-.5,1.23,1.23,0,0,1,.64-.18,1.07,1.07,0,0,1,.87.39,1.61,1.61,0,0,1,.31,1,1.85,1.85,0,0,1-.36,1.19,1.15,1.15,0,0,1-.95.45A1,1,0,0,1,225.14,72Zm0-1.09v.37a1.11,1.11,0,0,0,.28.76.93.93,0,0,0,.73.32.86.86,0,0,0,.73-.38,1.68,1.68,0,0,0,.28-1,1.36,1.36,0,0,0-.26-.87.83.83,0,0,0-.69-.32,1,1,0,0,0-.79.34,1.23,1.23,0,0,0-.29.87Z"/><path class="b" d="M229.53,69.91a.52.52,0,0,0-.31-.1.68.68,0,0,0-.58.36,1.86,1.86,0,0,0-.23,1v1.38h-.26V69.63h.26v.65h0a1.06,1.06,0,0,1,.32-.52.75.75,0,0,1,.5-.19.77.77,0,0,1,.29.05Z"/><path class="b" d="M230,71.11a1.45,1.45,0,0,0,.28.95.94.94,0,0,0,.77.34,1.56,1.56,0,0,0,1-.36v.28a1.71,1.71,0,0,1-1,.32,1.15,1.15,0,0,1-.92-.41,1.71,1.71,0,0,1-.35-1.15,1.63,1.63,0,0,1,.37-1.08,1.17,1.17,0,0,1,.95-.44,1,1,0,0,1,.84.38,1.69,1.69,0,0,1,.29,1v.12Zm1.9-.24a1.31,1.31,0,0,0-.24-.79.76.76,0,0,0-.62-.28.92.92,0,0,0-.68.28,1.34,1.34,0,0,0-.33.79Z"/><path class="b" d="M232.78,72.44v-.32a1.09,1.09,0,0,0,.36.2,1.12,1.12,0,0,0,.37.07q.69,0,.69-.56a.44.44,0,0,0-.15-.33,1.78,1.78,0,0,0-.49-.28,1.69,1.69,0,0,1-.59-.38.7.7,0,0,1-.17-.48.71.71,0,0,1,.27-.58,1,1,0,0,1,.68-.22,1.28,1.28,0,0,1,.65.15V70a1.22,1.22,0,0,0-.68-.21.7.7,0,0,0-.47.15.49.49,0,0,0-.18.39.5.5,0,0,0,.11.34,1.5,1.5,0,0,0,.49.3,2.15,2.15,0,0,1,.63.38.64.64,0,0,1,.17.47.73.73,0,0,1-.26.58,1.06,1.06,0,0,1-.72.23A1.19,1.19,0,0,1,232.78,72.44Z"/><path class="b" d="M235.05,72.44v-.32a1.09,1.09,0,0,0,.36.2,1.12,1.12,0,0,0,.37.07q.69,0,.69-.56a.44.44,0,0,0-.15-.33,1.78,1.78,0,0,0-.49-.28,1.69,1.69,0,0,1-.59-.38.7.7,0,0,1-.17-.48.71.71,0,0,1,.27-.58,1,1,0,0,1,.68-.22,1.28,1.28,0,0,1,.65.15V70a1.22,1.22,0,0,0-.68-.21.7.7,0,0,0-.47.15.49.49,0,0,0-.18.39.5.5,0,0,0,.11.34,1.5,1.5,0,0,0,.49.3,2.15,2.15,0,0,1,.63.38.64.64,0,0,1,.17.47.73.73,0,0,1-.26.58,1.06,1.06,0,0,1-.72.23A1.19,1.19,0,0,1,235.05,72.44Z"/><path class="b" d="M241.09,68.19l.28-.09.23.64h2.28V69h-5.09v-.25h2.49A5.07,5.07,0,0,0,241.09,68.19Zm-1.06,1,.24-.14c.19.24.35.46.48.64l-.25.15h1.28q.27-.37.54-.8l.26.14c-.14.21-.3.43-.48.67h1.34v2.73a.5.5,0,0,1-.58.57h-.64a1.53,1.53,0,0,0-.07-.29h.63a.42.42,0,0,0,.3-.07.34.34,0,0,0,.08-.27V70.06h-3.7v3.16h-.28V69.81h1.3a7.06,7.06,0,0,0-.48-.66Zm.75,1.06.21.19q-.61.47-1.16.82a1.28,1.28,0,0,0-.19-.22,7.84,7.84,0,0,0,1.14-.83Zm1.55,2.23h-2V71.07h2Zm-1.74-1.12v.87h1.47v-.87Zm1.07-.91.17-.19q.53.32,1.16.75l-.18.22a9.65,9.65,0,0,0-1.15-.82Z"/><path class="b" d="M247,73.15h-.29V71.46H245a3.5,3.5,0,0,1-.62,1.78l-.27-.2a3.18,3.18,0,0,0,.52-1.11,7.12,7.12,0,0,0,.12-1.62V68.43H249V72.5a.59.59,0,0,1-.67.66h-.63a2.64,2.64,0,0,0-.05-.31h.63c.3,0,.44-.12.43-.39v-1H247Zm-1.92-2.83v.88h1.65V70.08H245.1Zm0-1.62v1.12h1.63V68.7Zm3.62,0H247v1.12h1.69ZM247,70.08V71.2h1.69V70.08Z"/><path class="b" d="M249.87,69.08h4.61v.28h-2.15v1.41h2V71h-2v1.59h2.38v.28h-5.06v-.28H252V71h-2v-.28h2V69.36h-2.17Zm2-.86.27-.1q.25.48.38.78l-.29.11A6.92,6.92,0,0,0,251.87,68.22Z"/><path class="b" d="M255.07,70.63h2.33v.24h-.89v.68h.83v.23h-.83v.86a3.18,3.18,0,0,0,.89.13h2.79a2.21,2.21,0,0,0-.11.29h-2.69a1.77,1.77,0,0,1-1.75-.83,3,3,0,0,1-.39,1A1.4,1.4,0,0,0,255,73a3.15,3.15,0,0,0,.43-1.77h.26v.57a1.67,1.67,0,0,0,.58.72V70.87h-1.18Zm.34-2.28h1.74v1.8h-1.74Zm.27.23v.55h1.2v-.55Zm0,.78v.55h1.2v-.55Zm4.12,3.14q-.48-.43-1.06-.91a2,2,0,0,1-1.19,1l-.16-.23a2.19,2.19,0,0,0,1-.68,1.86,1.86,0,0,0,.25-1.11V69.9h.27v.68a3.2,3.2,0,0,1-.08.76l1.17.94Zm-2.26-4.12h2.52v.24h-1.19l-.13.71h1.06v2.13h-.27v-1.9H258v1.9h-.26V69.33h.73l.13-.71h-1Z"/><path class="b" d="M262.46,72.57V68.46h1.08a1.1,1.1,0,0,1,.77.26.89.89,0,0,1,.29.69,1,1,0,0,1-.72,1h0a.94.94,0,0,1,.92,1,1.13,1.13,0,0,1-.33.85,1.23,1.23,0,0,1-.89.33Zm.28-3.84v1.59h.57a1.07,1.07,0,0,0,.71-.23.78.78,0,0,0,.27-.62q0-.74-.87-.74Zm0,1.84v1.74h.76a1.07,1.07,0,0,0,.74-.23.84.84,0,0,0,.26-.66q0-.85-1.15-.85Z"/><path class="b" d="M265.4,72.57v-.19a1.85,1.85,0,0,1,0-.35,1.12,1.12,0,0,1,.1-.28,1.26,1.26,0,0,1,.16-.24,2.13,2.13,0,0,1,.22-.23l.29-.23.35-.26.35-.26a1.89,1.89,0,0,0,.28-.28,1.24,1.24,0,0,0,.19-.33,1.15,1.15,0,0,0,.07-.42.78.78,0,0,0-.69-.86h-.17a1.23,1.23,0,0,0-.53.12,2.19,2.19,0,0,0-.5.33v-.31a2,2,0,0,1,.51-.28,1.58,1.58,0,0,1,.57-.1,1.25,1.25,0,0,1,.45.08,1,1,0,0,1,.34.21.92.92,0,0,1,.22.33,1.17,1.17,0,0,1,.08.44,1.42,1.42,0,0,1-.08.5,1.45,1.45,0,0,1-.22.4,2.08,2.08,0,0,1-.33.33l-.4.3-.47.35a2.1,2.1,0,0,0-.31.3,1,1,0,0,0-.17.3,1.1,1.1,0,0,0,0,.36h2v.24Z"/><path class="b" d="M270.93,71.25l.28.06q0,.24-.11.45a1.58,1.58,0,0,0,1.31.94V71H270v-.25h5V71h-2.3v.68h1.9V72h-1.9v.75H275a1.39,1.39,0,0,0-.09.29h-2.16A1.87,1.87,0,0,1,271,72a2.65,2.65,0,0,1-.93,1.19l-.2-.21A2.49,2.49,0,0,0,270.93,71.25Zm-.2-2.88h3.48v1.86h-3.48Zm.29.24v.56h2.91v-.56Zm0,.8V70h2.91v-.57Z"/><path class="b" d="M275.32,70.36h5.15v.32h-5.15Z"/><path class="b" d="M281,72.66a1.12,1.12,0,0,0-.22-.13,9.88,9.88,0,0,0,.56-.93l.22.11Zm1-4.56h.28v.57h1.14v.25h-1.14v.6h.9v.24H281v-.24h1v-.6h-1.16v-.25H282Zm-1.15,3h2.58v.25H282.3v1.21q0,.55-.51.55h-.46a2.28,2.28,0,0,0,0-.29h.41a.36.36,0,0,0,.26-.06.29.29,0,0,0,.07-.23v-1.2h-1.16Zm.28-.79h2v.24h-2Zm1.51,1.42.21-.12c.16.23.31.47.46.71l-.23.13a7.51,7.51,0,0,1-.51-.71Zm1.77-2.18h.28v.78a3.76,3.76,0,0,0,1.29,2.6l-.21.23a3.51,3.51,0,0,1-1.2-2.27,3.58,3.58,0,0,1-1.36,2.33A1.76,1.76,0,0,0,283,73a3.45,3.45,0,0,0,1.4-2.53,7.55,7.55,0,0,1-.05-.91Zm-.76.64-.26-.12a9,9,0,0,0,.69-2h.28q-.12.45-.22.78h1.67v.3l-.31.92-.26-.09.32-.87H284a10.41,10.41,0,0,1-.42,1.09Z"/><path class="b" d="M286.27,71.71l-.12-.31a7.28,7.28,0,0,0,.77-1.93h-.67V69.2h.67V68.14h.28V69.2h.58v.25h-.58v.87l.14-.12q.33.31.61.61l-.21.19-.54-.6v2.83h-.28V70.1A6,6,0,0,1,286.27,71.71Zm1.41.09h1.57a2.54,2.54,0,0,0,.07-.54H288.1V69.53h2.76v1.73h-1.27a3.44,3.44,0,0,1-.06.54h1.68V72h-1.56a2.08,2.08,0,0,0,1.63.85,1.8,1.8,0,0,0-.14.28,2.29,2.29,0,0,1-1.72-1q-.3.75-1.7,1.11a1.56,1.56,0,0,0-.17-.27q1.38-.3,1.61-.93h-1.49Zm.08-3.17h.92v-.51H289v.51h1v-.51h.27v.51h1v.24h-1v.43H290v-.43h-1v.43h-.27v-.43h-.92Zm.62,1.13v.51h2.2v-.51Zm0,.74V71h2.2v-.51Z"/><path class="b" d="M291.68,72.34,291.6,72l.77-.19V69.72h-.71v-.26h.71V68.15h.28v1.31h.68v.26h-.68v2l.42-.12.32-.09a2.12,2.12,0,0,0,0,.29Zm1.58-1.58h1.23a12.33,12.33,0,0,0,.06-1.42h-1v-.26h1v-.93h.29v.93h1.32v1.68h.52V71h-1.77a3.14,3.14,0,0,0,1.77,1.85,2.93,2.93,0,0,0-.2.28,3.36,3.36,0,0,1-1.79-2,3.42,3.42,0,0,1-1.57,2.12,2.4,2.4,0,0,0-.23-.24,3.1,3.1,0,0,0,1.56-2h-1.19Zm2.62-1.42h-1a13.41,13.41,0,0,1-.06,1.42h1.09Z"/><path class="b" d="M297.21,71.06a2.62,2.62,0,0,0-.2-.29,8.61,8.61,0,0,0,1.5-2.59l.3.09q-.28.66-.65,1.34v3.61h-.29V70.11A10.21,10.21,0,0,1,297.21,71.06Zm1.47.59a2.39,2.39,0,0,0-.19-.27,10.17,10.17,0,0,0,1.3-.74V68.22h.3v2.2a7.75,7.75,0,0,0,1.55-1.57l.27.16a9.39,9.39,0,0,1-1.82,1.76v1.48a.48.48,0,0,0,.11.38.56.56,0,0,0,.4.11h.59q.49,0,.56-.36a8.31,8.31,0,0,0,.13-.93l.29.1q-.06.56-.12.92-.1.58-.84.57h-.69a.64.64,0,0,1-.73-.75V71a10.92,10.92,0,0,1-1.11.64Z"/><path class="b" d="M212.09,74.61l.28.06a4.18,4.18,0,0,1-.24.43h1.59v.24H212a4,4,0,0,1-.65.68l-.21-.2A3.31,3.31,0,0,0,212.09,74.61Zm1.35,1.21.25-.1v.06l.19.41H216v.73h-.28v-.49H211.6v.49h-.28v-.74h2.3Zm-1.51,1.09h3.45v1h-3.17v.47h3.29v1.31h-.28v-.21h-3v.22h-.28Zm.28.24v.56h2.89v-.56Zm3,1.51h-3v.63h3ZM212.74,76l-.45-.48.19-.15a6.22,6.22,0,0,1,.46.46Zm1.72-1.4.28.05a4.27,4.27,0,0,1-.22.44h1.72v.24h-1.86a4.18,4.18,0,0,1-.37.48l-.23-.17a3,3,0,0,0,.68-1Zm.88,1.24-.19.16q-.21-.24-.45-.48l.18-.15a4.19,4.19,0,0,0,.46.48Z"/><path class="b" d="M216.61,76.89h.67V75.36h-.72v-.25h1.71v.25h-.71v1.53h.67v.25h-.67v1.59l.71-.17a2.32,2.32,0,0,0,0,.29q-.88.18-1.69.38l-.07-.29.76-.16V77.14h-.67Zm1.87,1.26h1.35v-.74H218.6V74.92h2.75v2.49h-1.23v.74h1.35v.25h-1.35v.88h1.57v.25h-3.51v-.25h1.65V78.4h-1.35Zm.39-3V76h1v-.87Zm0,1.12v.87h1v-.87Zm2.19-1.12h-1V76h1Zm-1,1.12v.87h1v-.87Z"/><path class="b" d="M222.18,75.51h.55q.16-.49.25-.87l.29.06-.11.33-.15.47h1.08v4.12h-.28v-.43h-1.35v.47h-.28Zm.28.26v1.44h1.35V75.78Zm0,1.69v1.47h1.35V77.47Zm2.1-.8-.25-.16a7.83,7.83,0,0,0,.81-1.87l.29.07q-.14.42-.29.78h1.75q0,1.86-.1,3.23a.79.79,0,0,1-.91.89H225a2.73,2.73,0,0,0-.07-.3h.87a.57.57,0,0,0,.67-.64q0-.86.09-2.93H225a6.76,6.76,0,0,1-.43.94Zm.23.24.22-.15q.37.45.86,1.11l-.24.18q-.43-.62-.83-1.13Z"/><path class="b" d="M227.65,75.59h4.61v.28h-2.15v1.41h2v.28h-2v1.59h2.38v.28h-5.06v-.28h2.38V77.56h-2v-.28h2V75.87h-2.17Zm2-.86.27-.1q.25.48.38.78l-.29.11a6.92,6.92,0,0,0-.37-.79Z"/><path class="b" d="M232.84,77.14h2.33v.24h-.89v.68h.83v.23h-.83v.86a3.18,3.18,0,0,0,.89.13H238a2.21,2.21,0,0,0-.11.29h-2.69a1.77,1.77,0,0,1-1.75-.83,3,3,0,0,1-.39,1,1.4,1.4,0,0,0-.21-.19,3.15,3.15,0,0,0,.43-1.77h.26v.57a1.67,1.67,0,0,0,.5.65V77.38h-1.18Zm.34-2.28h1.74v1.8h-1.74Zm.27.23v.55h1.2v-.55Zm0,.78v.55h1.2v-.55ZM237.57,79q-.48-.43-1.06-.91a2,2,0,0,1-1.19,1l-.16-.23a2.19,2.19,0,0,0,1-.68,1.86,1.86,0,0,0,.25-1.11V76.4h.27v.68a3.2,3.2,0,0,1-.08.76l1.17.94Zm-2.26-4.12h2.52v.24h-1.19l-.13.71h1.06V78h-.27V76.1h-1.54V78h-.26V75.84h.73l.13-.71h-1.05Z"/><rect class="a" x="210" y="86" width="16" height="5"/><rect class="a" x="272" y="86" width="14" height="5"/><rect class="a" x="291" y="86" width="14" height="5"/><rect class="a" x="315" width="96" height="97.77"/><path class="b" d="M321.07,108.45h-.24l-.91-3.09a1.86,1.86,0,0,1-.08-.39h0a1.92,1.92,0,0,1-.09.38l-1,3.09h-.24l-1.22-4.11h.32l.94,3.29a1.34,1.34,0,0,0,.09.36h0a2.64,2.64,0,0,1,.1-.36l1-3.29h.14l.93,3.29a1.34,1.34,0,0,0,.09.36h0a1.54,1.54,0,0,1,0-.18l1-3.47h.31Z"/><path class="b" d="M323.87,108.52a1.28,1.28,0,0,1-1-.42,1.83,1.83,0,0,1,0-2.24,1.35,1.35,0,0,1,1-.41,1.26,1.26,0,0,1,1,.41,1.65,1.65,0,0,1,.36,1.13,1.62,1.62,0,0,1-.37,1.11A1.28,1.28,0,0,1,323.87,108.52Zm0-2.83a1,1,0,0,0-.83.35,1.42,1.42,0,0,0-.31,1,1.36,1.36,0,0,0,.3.92,1.15,1.15,0,0,0,1.64,0,1.75,1.75,0,0,0,0-1.91,1,1,0,0,0-.78-.38Z"/><path class="b" d="M327.35,105.8a.52.52,0,0,0-.31-.1.68.68,0,0,0-.58.36,1.86,1.86,0,0,0-.23,1v1.38H326v-2.92h.26v.65h0a1.06,1.06,0,0,1,.32-.52.75.75,0,0,1,.5-.19.77.77,0,0,1,.29.05Z"/><path class="b" d="M329.87,108.45v-.57h0a1.07,1.07,0,0,1-.42.44,1.23,1.23,0,0,1-.63.16,1.12,1.12,0,0,1-.88-.39,1.62,1.62,0,0,1-.34-1.09,1.71,1.71,0,0,1,.37-1.15,1.21,1.21,0,0,1,1-.44,1,1,0,0,1,.94.54h0v-1.84h.26v4.34Zm0-1.78a1,1,0,0,0-.26-.69.89.89,0,0,0-.7-.29,1,1,0,0,0-.76.35,1.74,1.74,0,0,0,0,1.91.86.86,0,0,0,.7.33,1,1,0,0,0,.78-.31,1.11,1.11,0,0,0,.27-.76Z"/><path class="b" d="M331.35,107.88h0v1.87h-.26v-4.24h.26v.6h0a1.14,1.14,0,0,1,.45-.5,1.23,1.23,0,0,1,.64-.18,1.07,1.07,0,0,1,.87.39,1.61,1.61,0,0,1,.31,1,1.85,1.85,0,0,1-.36,1.19,1.15,1.15,0,0,1-1,.45A1,1,0,0,1,331.35,107.88Zm0-1.09v.37a1.11,1.11,0,0,0,.28.76.93.93,0,0,0,.73.32.86.86,0,0,0,.73-.38,1.68,1.68,0,0,0,.28-1,1.36,1.36,0,0,0-.26-.87.83.83,0,0,0-.69-.32,1,1,0,0,0-.79.34,1.23,1.23,0,0,0-.29.87Z"/><path class="b" d="M335.74,105.8a.52.52,0,0,0-.31-.1.68.68,0,0,0-.58.36,1.86,1.86,0,0,0-.23,1v1.38h-.26v-2.92h.26v.65h0a1.06,1.06,0,0,1,.32-.52.75.75,0,0,1,.5-.19.77.77,0,0,1,.29.05Z"/><path class="b" d="M336.24,107a1.45,1.45,0,0,0,.28.95.94.94,0,0,0,.77.34,1.56,1.56,0,0,0,1-.36v.28a1.71,1.71,0,0,1-1,.32,1.15,1.15,0,0,1-.92-.41A1.71,1.71,0,0,1,336,107a1.63,1.63,0,0,1,.37-1.08,1.17,1.17,0,0,1,1-.44,1,1,0,0,1,.84.38,1.69,1.69,0,0,1,.29,1v.12Zm1.9-.24a1.31,1.31,0,0,0-.24-.79.76.76,0,0,0-.62-.28.92.92,0,0,0-.68.28,1.34,1.34,0,0,0-.33.79Z"/><path class="b" d="M339,108.33V108a1.09,1.09,0,0,0,.36.2,1.12,1.12,0,0,0,.37.07q.69,0,.69-.56a.44.44,0,0,0-.15-.33,1.78,1.78,0,0,0-.49-.28,1.69,1.69,0,0,1-.59-.38.7.7,0,0,1-.17-.48.71.71,0,0,1,.27-.58,1,1,0,0,1,.68-.22,1.28,1.28,0,0,1,.65.15v.29a1.22,1.22,0,0,0-.68-.21.7.7,0,0,0-.52.21.49.49,0,0,0-.18.39.5.5,0,0,0,.11.34,1.5,1.5,0,0,0,.49.3,2.15,2.15,0,0,1,.63.38.64.64,0,0,1,.17.47.73.73,0,0,1-.26.58,1.06,1.06,0,0,1-.72.23A1.19,1.19,0,0,1,339,108.33Z"/><path class="b" d="M341.26,108.33V108a1.09,1.09,0,0,0,.36.2,1.12,1.12,0,0,0,.37.07q.69,0,.69-.56a.44.44,0,0,0-.15-.33,1.78,1.78,0,0,0-.49-.28,1.69,1.69,0,0,1-.59-.38.7.7,0,0,1-.17-.48.71.71,0,0,1,.27-.58,1,1,0,0,1,.68-.22,1.28,1.28,0,0,1,.65.15v.29a1.22,1.22,0,0,0-.68-.21.7.7,0,0,0-.47.15.49.49,0,0,0-.18.39.5.5,0,0,0,.11.34,1.5,1.5,0,0,0,.49.3,2.15,2.15,0,0,1,.63.38.64.64,0,0,1,.17.47.73.73,0,0,1-.26.58,1.06,1.06,0,0,1-.72.23A1.19,1.19,0,0,1,341.26,108.33Z"/><path class="b" d="M347.31,104.08l.28-.09.23.64h2.28v.26H345v-.25h2.49A1.92,1.92,0,0,0,347.31,104.08Zm-1.06,1,.24-.14c.19.24.35.46.48.64l-.25.15H348q.27-.37.54-.8l.26.14c-.14.21-.3.43-.48.67h1.34v2.73a.5.5,0,0,1-.58.57h-.66a1.53,1.53,0,0,0-.07-.29H349a.42.42,0,0,0,.3-.07.34.34,0,0,0,.08-.27v-2.46h-3.7v3.16h-.24v-3.41h1.3a7.06,7.06,0,0,0-.46-.66Zm.75,1.06.21.19q-.61.47-1.16.82a1.28,1.28,0,0,0-.19-.22,7.84,7.84,0,0,0,1.14-.83Zm1.55,2.23h-2V107h2Zm-1.74-1.12v.87h1.47v-.87Zm1.07-.91.17-.19q.53.32,1.16.75l-.18.22a9.65,9.65,0,0,0-1.15-.82Z"/><path class="b" d="M353.24,109h-.29v-1.69h-1.67a3.5,3.5,0,0,1-.62,1.78l-.24-.24a3.18,3.18,0,0,0,.52-1.11,7.12,7.12,0,0,0,.12-1.62v-1.84h4.2v4.07a.59.59,0,0,1-.67.66H354a2.64,2.64,0,0,0,0-.31h.63c.3,0,.44-.12.43-.39v-1h-1.69Zm-1.92-2.83v.88H353V106h-1.65Zm0-1.62v1.12h1.63v-1.12Zm3.62,0h-1.69v1.12h1.69ZM353.24,106v1.12h1.69V106Z"/><path class="b" d="M356.09,105h4.61v.28h-2.15v1.41h2v.23h-2v1.59h2.38v.28h-5.06v-.28h2.38v-1.59h-2v-.28h2v-1.36h-2.17Zm2-.86.27-.1q.25.48.38.78l-.32.1A6.92,6.92,0,0,0,358.09,104.1Z"/><path class="b" d="M361.28,106.51h2.33v.24h-.89v.68h.83v.23h-.83v.86a3.18,3.18,0,0,0,.89.13h2.79a2.21,2.21,0,0,0-.11.29H363.6a1.77,1.77,0,0,1-1.75-.83,3,3,0,0,1-.39,1,1.4,1.4,0,0,0-.21-.19,3.15,3.15,0,0,0,.43-1.77h.26v.57a1.67,1.67,0,0,0,.58.72v-1.69h-1.18Zm.34-2.28h1.74V106h-1.74Zm.27.23V105h1.2v-.55Zm0,.78v.55h1.2v-.55Zm4.12,3.14q-.48-.43-1.06-.91a2,2,0,0,1-1.19,1l-.16-.23a2.19,2.19,0,0,0,1-.68,1.86,1.86,0,0,0,.25-1.11v-.67h.27v.68a3.2,3.2,0,0,1-.08.76l1.17.94Zm-2.26-4.12h2.52v.24h-1.19l-.13.71H366v2.13h-.27v-1.9H364.2v1.9h-.26v-2.13h.73l.13-.71h-1Z"/><path class="b" d="M368.68,108.45v-4.11h1.08a1.1,1.1,0,0,1,.77.26.89.89,0,0,1,.29.69,1,1,0,0,1-.72,1h0a.94.94,0,0,1,.92,1,1.13,1.13,0,0,1-.33.85,1.23,1.23,0,0,1-.89.33Zm.28-3.84v1.59h.57a1.07,1.07,0,0,0,.71-.23.78.78,0,0,0,.27-.62q0-.74-.87-.74Zm0,1.84v1.74h.76a1.07,1.07,0,0,0,.74-.23.84.84,0,0,0,.26-.66q0-.85-1.15-.85Z"/><path class="b" d="M371.62,108.45v-.19a1.85,1.85,0,0,1,0-.35,1.12,1.12,0,0,1,.1-.28,1.26,1.26,0,0,1,.16-.24,2.13,2.13,0,0,1,.22-.23l.32-.28.35-.26.35-.26a1.89,1.89,0,0,0,.28-.28,1.24,1.24,0,0,0,.19-.33,1.15,1.15,0,0,0,.07-.42.78.78,0,0,0-.69-.86h-.17a1.23,1.23,0,0,0-.53.12,2.19,2.19,0,0,0-.5.33v-.31a2,2,0,0,1,.51-.28,1.58,1.58,0,0,1,.57-.1,1.25,1.25,0,0,1,.45.08,1,1,0,0,1,.34.21.92.92,0,0,1,.22.33,1.17,1.17,0,0,1,.08.44,1.42,1.42,0,0,1-.08.5,1.45,1.45,0,0,1-.22.4,2.08,2.08,0,0,1-.33.33l-.4.3-.47.35a2.1,2.1,0,0,0-.31.3,1,1,0,0,0-.17.3,1.1,1.1,0,0,0,0,.36h2v.24Z"/><path class="b" d="M377.15,107.13l.28.06q0,.24-.11.45a1.58,1.58,0,0,0,1.31.94v-1.7H376.2v-.25h5v.25h-2.28v.68h1.9v.32h-1.9v.75h2.32a1.39,1.39,0,0,0-.09.29H379a1.87,1.87,0,0,1-1.77-1,2.65,2.65,0,0,1-.93,1.19l-.2-.21A2.49,2.49,0,0,0,377.15,107.13Zm-.2-2.88h3.47v1.86h-3.48Zm.29.24v.56h2.91v-.56Zm0,.8v.59h2.91v-.57Z"/><path class="b" d="M381.53,106.24h5.15v.32h-5.15Z"/><path class="b" d="M387.18,108.55a1.12,1.12,0,0,0-.22-.13,9.88,9.88,0,0,0,.56-.93l.22.11A10.72,10.72,0,0,1,387.18,108.55Zm1-4.56h.24v.57h1.14v.25h-1.14v.6h.9v.24h-2.17v-.24h1v-.6H387v-.25h1.16ZM387,107h2.58v.25h-1.19v1.21q0,.55-.51.55h-.46a2.28,2.28,0,0,0,0-.29h.41a.36.36,0,0,0,.26-.06.29.29,0,0,0,.07-.23v-1.2H387Zm.28-.79h2v.24h-2Zm1.51,1.42.21-.12c.16.23.31.47.46.71l-.23.13c-.2-.29-.35-.53-.47-.71Zm1.77-2.18h.28v.78a3.76,3.76,0,0,0,1.29,2.6l-.21.23a3.51,3.51,0,0,1-1.2-2.27,3.58,3.58,0,0,1-1.36,2.33,1.76,1.76,0,0,0-.22-.22,3.45,3.45,0,0,0,1.4-2.53q0-.41,0-.91Zm-.76.64-.26-.12a9,9,0,0,0,.69-2h.28q-.12.45-.22.78H392v.3l-.31.92-.26-.09.32-.87h-1.51q-.21.61-.43,1.09Z"/><path class="b" d="M392.49,107.59l-.12-.31a7.28,7.28,0,0,0,.77-1.93h-.72v-.27h.67V104h.33v1.06H394v.25h-.58v.87l.14-.12q.33.31.61.61l-.21.19-.54-.6v2.83h-.28V106A6,6,0,0,1,392.49,107.59Zm1.41.09h1.52a2.54,2.54,0,0,0,.07-.54h-1.22v-1.73H397v1.73h-1.27a3.44,3.44,0,0,1-.06.54h1.72v.2h-1.56a2.08,2.08,0,0,0,1.63.85,1.8,1.8,0,0,0-.14.28,2.29,2.29,0,0,1-1.72-1q-.3.75-1.7,1.11a1.56,1.56,0,0,0-.17-.27q1.38-.3,1.61-.93h-1.49Zm.08-3.17h.92V104h.27v.51h1V104h.25v.51h1v.24h-1v.43h-.27v-.43h-1v.43h-.27v-.43H394Zm.62,1.13v.51h2.2v-.51Zm0,.74v.5h2.2v-.51Z"/><path class="b" d="M397.9,108.22l-.08-.34.77-.19V105.6h-.71v-.26h.71V104h.28v1.31h.68v.26h-.68v2l.42-.12.32-.09a2.12,2.12,0,0,0,0,.29Zm1.58-1.58h1.23a12.33,12.33,0,0,0,.06-1.42h-1V105h1V104h.29V105h1.36v1.68h.52v.24h-1.77a3.14,3.14,0,0,0,1.77,1.85,2.93,2.93,0,0,0-.2.28,3.36,3.36,0,0,1-1.79-2,3.42,3.42,0,0,1-1.57,2.12,2.4,2.4,0,0,0-.23-.24,3.1,3.1,0,0,0,1.56-2h-1.19Zm2.62-1.42h-1a13.4,13.4,0,0,1-.06,1.42h1.09Z"/><path class="b" d="M403.41,106.94a2.62,2.62,0,0,0-.2-.29,8.61,8.61,0,0,0,1.5-2.59l.3.09q-.28.66-.65,1.34v3.61h-.29V106A10.21,10.21,0,0,1,403.41,106.94Zm1.47.59a2.39,2.39,0,0,0-.19-.27,10.17,10.17,0,0,0,1.3-.74V104.1h.3v2.2a7.75,7.75,0,0,0,1.55-1.57l.27.16a9.39,9.39,0,0,1-1.82,1.76v1.48a.48.48,0,0,0,.11.38.56.56,0,0,0,.4.11h.61q.49,0,.56-.36a8.31,8.31,0,0,0,.13-.93l.29.1q-.06.56-.12.92-.1.58-.84.57h-.69a.64.64,0,0,1-.73-.75v-1.29a10.92,10.92,0,0,1-1.12.64Z"/><path class="b" d="M318.31,110.49l.28.06a4.18,4.18,0,0,1-.24.43h1.59v.24h-1.75a4,4,0,0,1-.65.68l-.21-.2A3.31,3.31,0,0,0,318.31,110.49Zm1.35,1.21.25-.1v.06l.19.41h2.12v.73h-.28v-.49h-4.12v.49h-.28v-.74h2.3Zm-1.51,1.09h3.45v1h-3.18v.47h3.29v1.31h-.29v-.21h-3v.22h-.28Zm.28.24v.56h2.89V113Zm3,1.51h-3v.63h3ZM319,111.88l-.45-.48.19-.15a6.22,6.22,0,0,1,.46.46Zm1.72-1.4.28.05a4.27,4.27,0,0,1-.22.44h1.68v.24h-1.86a4.18,4.18,0,0,1-.37.48l-.23-.17a3,3,0,0,0,.72-1Zm.88,1.24-.19.16q-.21-.24-.45-.48l.18-.15.46.48Z"/><path class="b" d="M322.82,112.77h.67v-1.53h-.72V111h1.71v.25h-.71v1.53h.64V113h-.67v1.59l.71-.17a2.32,2.32,0,0,0,0,.29q-.88.18-1.69.38l-.07-.29.76-.16V113h-.67Zm1.87,1.26H326v-.74h-1.23V110.8h2.75v2.49h-1.23V114h1.35v.25h-1.35v.88h1.57v.25h-3.49v-.25h1.65v-.88h-1.35Zm.39-3v.85h1V111Zm0,1.12V113h1v-.87Zm2.19-1.12h-1v.85h1Zm-1,1.12V113h1v-.87Z"/><path class="b" d="M328.41,111.4H329q.16-.49.25-.87l.29.06-.09.3-.15.47h1.08v4.12h-.28V115h-1.35v.47h-.3Zm.28.26v1.44H330v-1.43Zm0,1.69v1.47H330v-1.46Zm2.1-.8-.25-.16a7.83,7.83,0,0,0,.81-1.87l.29.07q-.14.42-.29.78h1.75q0,1.86-.1,3.23a.79.79,0,0,1-.91.89h-.85a2.73,2.73,0,0,0-.07-.3H332a.57.57,0,0,0,.67-.64q0-.86.09-2.93h-1.57a6.76,6.76,0,0,1-.45.94Zm.23.24.22-.15q.37.45.86,1.11l-.24.18q-.45-.62-.85-1.13Z"/><path class="b" d="M333.87,111.47h4.61v.28h-2.15v1.41h2v.28h-2V115h2.38v.28h-5.06V115H336v-1.59h-2v-.28h2v-1.41h-2.17Zm2-.86.27-.1q.25.48.38.78l-.29.11a6.92,6.92,0,0,0-.37-.79Z"/><path class="b" d="M339.06,113h2.36v.24h-.89v.68h.83v.23h-.83V115a3.18,3.18,0,0,0,.89.13h2.79a2.21,2.21,0,0,0-.11.29h-2.68a1.77,1.77,0,0,1-1.75-.83,3,3,0,0,1-.39,1,1.4,1.4,0,0,0-.21-.19,3.15,3.15,0,0,0,.43-1.77h.26v.57a1.67,1.67,0,0,0,.58.72v-1.69h-1.18Zm.34-2.28h1.74v1.8h-1.72Zm.27.23v.55h1.2V111Zm0,.78v.55h1.2v-.55Zm4.12,3.13q-.48-.43-1.06-.91a2,2,0,0,1-1.19,1l-.16-.23a2.19,2.19,0,0,0,1-.68,1.86,1.86,0,0,0,.25-1.11v-.67h.27V113a3.2,3.2,0,0,1-.08.76l1.17.94Zm-2.26-4.12H344V111h-1.19l-.13.71h1.06v2.17h-.27V112H342v1.9h-.26v-2.16h.7l.13-.71h-1Z"/><rect class="a" x="315.41" y="121.88" width="16" height="5"/><rect class="a" x="378.41" y="121.88" width="14" height="5"/><rect class="a" x="397.41" y="121.88" width="14" height="5"/><rect class="a" y="133" width="96" height="64"/><rect class="a" x="208" y="106" width="96" height="64"/><path class="b" d="M213.86,178.57h-.24l-.91-3.09a1.86,1.86,0,0,1-.08-.39h0a1.92,1.92,0,0,1-.09.38l-1,3.09h-.24l-1.22-4.11h.32l.94,3.29a1.34,1.34,0,0,0,.09.36h0a2.64,2.64,0,0,1,.1-.36l1-3.29h.14l.93,3.29a1.34,1.34,0,0,0,.09.36h0a1.54,1.54,0,0,1,0-.18l1-3.47H215Z"/><path class="b" d="M216.65,178.65a1.28,1.28,0,0,1-1-.42,1.83,1.83,0,0,1,0-2.24,1.35,1.35,0,0,1,1-.41,1.26,1.26,0,0,1,1,.41,1.65,1.65,0,0,1,.36,1.13,1.62,1.62,0,0,1-.37,1.11A1.28,1.28,0,0,1,216.65,178.65Zm0-2.83a1,1,0,0,0-.83.35,1.42,1.42,0,0,0-.31,1,1.36,1.36,0,0,0,.3.92,1.15,1.15,0,0,0,1.64,0,1.75,1.75,0,0,0,0-1.91,1,1,0,0,0-.78-.38Z"/><path class="b" d="M220.14,175.92a.52.52,0,0,0-.31-.1.68.68,0,0,0-.58.36,1.86,1.86,0,0,0-.23,1v1.38h-.26v-2.93H219v.65h0a1.06,1.06,0,0,1,.32-.52.75.75,0,0,1,.5-.19.77.77,0,0,1,.29.05Z"/><path class="b" d="M222.66,178.57V178h0a1.07,1.07,0,0,1-.42.44,1.23,1.23,0,0,1-.63.16,1.12,1.12,0,0,1-.88-.39,1.62,1.62,0,0,1-.34-1.09,1.71,1.71,0,0,1,.37-1.15,1.21,1.21,0,0,1,1-.44,1,1,0,0,1,.94.54h0v-1.88H223v4.34Zm0-1.78a1,1,0,0,0-.26-.69.89.89,0,0,0-.7-.29,1,1,0,0,0-.76.35,1.74,1.74,0,0,0,0,1.91.86.86,0,0,0,.7.33,1,1,0,0,0,.78-.31,1.11,1.11,0,0,0,.27-.76Z"/><path class="b" d="M224.14,178.05h0v1.87h-.26v-4.28h.26v.6h0a1.14,1.14,0,0,1,.45-.5,1.23,1.23,0,0,1,.64-.18,1.07,1.07,0,0,1,.87.39,1.61,1.61,0,0,1,.31,1,1.85,1.85,0,0,1-.36,1.19,1.15,1.15,0,0,1-.95.45A1,1,0,0,1,224.14,178.05Zm0-1.09v.37a1.11,1.11,0,0,0,.28.76.93.93,0,0,0,.73.32.86.86,0,0,0,.73-.38,1.68,1.68,0,0,0,.28-1,1.36,1.36,0,0,0-.26-.87.83.83,0,0,0-.69-.32,1,1,0,0,0-.79.34,1.23,1.23,0,0,0-.29.82Z"/><path class="b" d="M228.53,175.92a.52.52,0,0,0-.31-.1.68.68,0,0,0-.58.36,1.86,1.86,0,0,0-.23,1v1.38h-.26v-2.93h.26v.65h0a1.06,1.06,0,0,1,.32-.52.75.75,0,0,1,.5-.19.77.77,0,0,1,.29.05Z"/><path class="b" d="M229,177.12a1.45,1.45,0,0,0,.28.95.94.94,0,0,0,.77.34,1.56,1.56,0,0,0,1-.36v.28a1.71,1.71,0,0,1-1,.32,1.15,1.15,0,0,1-.92-.41,1.71,1.71,0,0,1-.35-1.15,1.63,1.63,0,0,1,.37-1.08,1.17,1.17,0,0,1,.95-.44,1,1,0,0,1,.84.38,1.69,1.69,0,0,1,.29,1v.12Zm1.9-.24a1.31,1.31,0,0,0-.24-.79.76.76,0,0,0-.62-.28.92.92,0,0,0-.68.28,1.34,1.34,0,0,0-.33.79Z"/><path class="b" d="M231.78,178.44v-.32a1.09,1.09,0,0,0,.36.2,1.12,1.12,0,0,0,.37.07q.69,0,.69-.56a.44.44,0,0,0-.15-.33,1.78,1.78,0,0,0-.49-.28,1.69,1.69,0,0,1-.59-.38.7.7,0,0,1-.17-.48.71.71,0,0,1,.27-.58,1,1,0,0,1,.68-.22,1.28,1.28,0,0,1,.65.15v.3a1.22,1.22,0,0,0-.68-.21.7.7,0,0,0-.47.15.49.49,0,0,0-.18.39.5.5,0,0,0,.11.34,1.5,1.5,0,0,0,.49.3,2.15,2.15,0,0,1,.63.38.64.64,0,0,1,.17.47.73.73,0,0,1-.26.58,1.06,1.06,0,0,1-.72.23A1.19,1.19,0,0,1,231.78,178.44Z"/><path class="b" d="M234.05,178.44v-.32a1.09,1.09,0,0,0,.36.2,1.12,1.12,0,0,0,.37.07q.69,0,.69-.56a.44.44,0,0,0-.15-.33,1.78,1.78,0,0,0-.49-.28,1.69,1.69,0,0,1-.59-.38.7.7,0,0,1-.17-.48.71.71,0,0,1,.27-.58,1,1,0,0,1,.68-.22,1.28,1.28,0,0,1,.65.15v.3a1.22,1.22,0,0,0-.68-.21.7.7,0,0,0-.47.15.49.49,0,0,0-.18.39.5.5,0,0,0,.11.34,1.5,1.5,0,0,0,.49.3,2.15,2.15,0,0,1,.63.38.64.64,0,0,1,.17.47.73.73,0,0,1-.26.58,1.06,1.06,0,0,1-.72.23A1.19,1.19,0,0,1,234.05,178.44Z"/><path class="b" d="M240.09,174.19l.28-.09.23.64h2.28V175h-5.09v-.25h2.49C240.21,174.52,240.15,174.34,240.09,174.19Zm-1.06,1,.24-.14c.19.24.35.46.48.64l-.25.15h1.28q.27-.37.54-.8l.26.14c-.14.21-.3.43-.48.67h1.34v2.73a.5.5,0,0,1-.58.57h-.64a1.53,1.53,0,0,0-.07-.29h.63a.42.42,0,0,0,.3-.07.34.34,0,0,0,.08-.27v-2.44h-3.7v3.16h-.28v-3.42h1.3a7.06,7.06,0,0,0-.48-.66Zm.75,1.06.21.19q-.61.47-1.16.82a1.28,1.28,0,0,0-.19-.22,7.84,7.84,0,0,0,1.14-.82Zm1.55,2.23h-2v-1.37h2Zm-1.74-1.12v.87h1.47v-.87Zm1.07-.91.17-.19q.53.32,1.16.75l-.18.22a11.45,11.45,0,0,0-1.15-.82Z"/><path class="b" d="M246,179.16h-.29v-1.69H244a3.5,3.5,0,0,1-.62,1.78l-.27-.2a3.18,3.18,0,0,0,.52-1.11,7.12,7.12,0,0,0,.12-1.62v-1.88H248v4.07a.59.59,0,0,1-.67.66h-.63a2.64,2.64,0,0,0-.05-.31h.63c.3,0,.44-.12.43-.39v-1H246Zm-1.92-2.83v.88h1.65v-1.12H244.1Zm0-1.62v1.12h1.63v-1.12Zm3.62,0H246v1.12h1.69Zm-1.7,1.38v1.12h1.69v-1.12Z"/><path class="b" d="M248.87,175.09h4.61v.28h-2.15v1.41h2v.28h-2v1.59h2.38v.28h-5.06v-.28H251v-1.59h-2v-.28h2v-1.41h-2.17Zm2-.86.27-.1q.25.48.38.78l-.29.11A6.92,6.92,0,0,0,250.87,174.23Z"/><path class="b" d="M254.07,176.64h2.33v.24h-.89v.68h.83v.23h-.83v.86a3.18,3.18,0,0,0,.89.13h2.79a2.21,2.21,0,0,0-.11.29h-2.69a1.77,1.77,0,0,1-1.75-.83,3,3,0,0,1-.39,1A1.4,1.4,0,0,0,254,179a3.15,3.15,0,0,0,.43-1.77h.26v.57a1.67,1.67,0,0,0,.58.72v-1.66h-1.18Zm.34-2.28h1.74v1.8h-1.74Zm.27.23v.55h1.2v-.55Zm0,.78v.55h1.2v-.55Zm4.12,3.14q-.48-.43-1.06-.91a2,2,0,0,1-1.19,1l-.16-.23a2.19,2.19,0,0,0,1-.68,1.86,1.86,0,0,0,.25-1.11v-.67h.27v.68a3.2,3.2,0,0,1-.08.76l1.17.94Zm-2.26-4.12h2.52v.24h-1.19l-.13.71h1.06v2.13h-.27v-1.9H257v1.9h-.26v-2.13h.73l.13-.71h-1Z"/><path class="b" d="M261.46,178.57v-4.11h1.08a1.1,1.1,0,0,1,.77.26.89.89,0,0,1,.29.69,1,1,0,0,1-.72,1h0a.94.94,0,0,1,.92,1,1.13,1.13,0,0,1-.33.85,1.23,1.23,0,0,1-.89.33Zm.28-3.84v1.59h.57a1.07,1.07,0,0,0,.71-.23.78.78,0,0,0,.27-.62q0-.74-.87-.74Zm0,1.84v1.74h.76a1.07,1.07,0,0,0,.74-.23.84.84,0,0,0,.26-.66q0-.85-1.15-.85Z"/><path class="b" d="M264.4,178.57v-.19a1.85,1.85,0,0,1,0-.35,1.12,1.12,0,0,1,.1-.28,1.26,1.26,0,0,1,.16-.24,2.13,2.13,0,0,1,.22-.23l.29-.23.35-.26.35-.26a1.89,1.89,0,0,0,.28-.28,1.24,1.24,0,0,0,.19-.33,1.15,1.15,0,0,0,.07-.42.78.78,0,0,0-.69-.86h-.17a1.23,1.23,0,0,0-.53.12,2.19,2.19,0,0,0-.5.33v-.31a2,2,0,0,1,.51-.28,1.58,1.58,0,0,1,.57-.1,1.25,1.25,0,0,1,.45.08,1,1,0,0,1,.34.21.92.92,0,0,1,.22.33,1.17,1.17,0,0,1,.08.44,1.42,1.42,0,0,1-.08.5,1.45,1.45,0,0,1-.22.4,2.08,2.08,0,0,1-.33.33l-.4.3-.47.35a2.1,2.1,0,0,0-.31.3,1,1,0,0,0-.17.3,1.1,1.1,0,0,0,0,.36h2v.24Z"/><path class="b" d="M269.93,177.25l.28.06q0,.24-.11.45a1.58,1.58,0,0,0,1.31.94V177H269v-.25h5V177h-2.3v.68h1.9V178h-1.9v.75H274a1.39,1.39,0,0,0-.09.29h-2.16a1.87,1.87,0,0,1-1.79-.95,2.65,2.65,0,0,1-.93,1.19l-.2-.21A2.49,2.49,0,0,0,269.93,177.25Zm-.2-2.88h3.48v1.86h-3.48Zm.29.24v.56h2.91v-.56Zm0,.8V176h2.91v-.57Z"/><path class="b" d="M274.32,176.36h5.15v.32h-5.15Z"/><path class="b" d="M280,178.67a1.12,1.12,0,0,0-.22-.13,9.88,9.88,0,0,0,.56-.93l.22.11Zm1-4.56h.28v.57h1.14v.25h-1.14v.6h.9v.24H280v-.24h1v-.6h-1.16v-.25H281Zm-1.15,3h2.58v.25H281.3v1.21q0,.55-.51.55h-.46a2.28,2.28,0,0,0,0-.29h.41a.36.36,0,0,0,.26-.06.29.29,0,0,0,.07-.23v-1.2h-1.16Zm.28-.79h2v.24h-2Zm1.51,1.42.21-.12c.16.23.31.47.46.71l-.23.13a7.52,7.52,0,0,1-.51-.71Zm1.77-2.18h.28v.78a3.76,3.76,0,0,0,1.29,2.6l-.21.23a3.51,3.51,0,0,1-1.2-2.27,3.58,3.58,0,0,1-1.36,2.33A1.76,1.76,0,0,0,282,179a3.45,3.45,0,0,0,1.4-2.53,7.72,7.72,0,0,1-.05-.91Zm-.76.64-.26-.12a9,9,0,0,0,.69-2h.28q-.12.45-.22.78h1.67v.3l-.31.92-.26-.09.32-.87H283a10.42,10.42,0,0,1-.42,1.09Z"/><path class="b" d="M285.27,177.72l-.12-.31a7.28,7.28,0,0,0,.77-1.93h-.67v-.25h.67v-1.06h.28v1.06h.58v.25h-.58v.87l.14-.12q.33.31.61.61l-.21.19-.54-.6v2.83h-.28V176.1A6,6,0,0,1,285.27,177.72Zm1.41.09h1.57a2.54,2.54,0,0,0,.07-.54H287.1v-1.73h2.76v1.73h-1.27a3.44,3.44,0,0,1-.06.54h1.68v.25h-1.56a2.08,2.08,0,0,0,1.63.85,1.8,1.8,0,0,0-.14.28,2.29,2.29,0,0,1-1.72-1q-.3.75-1.7,1.11a1.56,1.56,0,0,0-.17-.27q1.38-.3,1.61-.93h-1.49Zm.08-3.17h.92v-.51H288v.51h1v-.51h.27v.51h1v.24h-1v.43H289v-.43h-1v.43h-.27v-.43h-.92Zm.62,1.13v.51h2.2v-.51Zm0,.74V177h2.2v-.51Z"/><path class="b" d="M290.68,178.35l-.08-.31.77-.19v-2.12h-.71v-.26h.71v-1.31h.28v1.31h.68v.26h-.68v2l.42-.12.32-.09a2.12,2.12,0,0,0,0,.29Zm1.58-1.58h1.23a12.33,12.33,0,0,0,.06-1.42h-1v-.26h1v-.93h.29v.93h1.32v1.68h.52V177h-1.77a3.14,3.14,0,0,0,1.77,1.85,2.93,2.93,0,0,0-.2.28,3.36,3.36,0,0,1-1.79-2,3.42,3.42,0,0,1-1.57,2.12,2.4,2.4,0,0,0-.23-.24,3.1,3.1,0,0,0,1.56-2h-1.19Zm2.62-1.42h-1a13.41,13.41,0,0,1-.06,1.42h1.09Z"/><path class="b" d="M296.21,177.07a2.62,2.62,0,0,0-.2-.29,8.61,8.61,0,0,0,1.5-2.59l.3.09q-.28.66-.65,1.34v3.61h-.29v-3.11A10.21,10.21,0,0,1,296.21,177.07Zm1.47.59a2.39,2.39,0,0,0-.19-.27,10.17,10.17,0,0,0,1.3-.74v-2.42h.3v2.2a7.75,7.75,0,0,0,1.55-1.57l.27.16a9.39,9.39,0,0,1-1.82,1.76v1.48a.48.48,0,0,0,.11.38.56.56,0,0,0,.4.11h.59q.49,0,.56-.36a8.31,8.31,0,0,0,.13-.93l.29.1q-.06.56-.12.92-.1.58-.84.57h-.69a.64.64,0,0,1-.73-.75V177a10.92,10.92,0,0,1-1.11.65Z"/><path class="b" d="M211.09,180.61l.28.06a4.18,4.18,0,0,1-.24.43h1.59v.24H211a4,4,0,0,1-.65.68l-.21-.2A3.31,3.31,0,0,0,211.09,180.61Zm1.35,1.21.25-.1v.06l.19.41H215v.73h-.28v-.49H210.6v.49h-.28v-.74h2.3Zm-1.51,1.09h3.45v1h-3.17v.47h3.29v1.31h-.28v-.21h-3v.22h-.28Zm.28.24v.56h2.89v-.56Zm3,1.51h-3v.63h3ZM211.74,182l-.45-.48.19-.15a6.22,6.22,0,0,1,.46.46Zm1.72-1.4.28.05a4.27,4.27,0,0,1-.22.44h1.72v.24h-1.86a4.18,4.18,0,0,1-.37.48l-.23-.17a3,3,0,0,0,.68-1Zm.88,1.24-.19.16q-.21-.24-.45-.48l.18-.15a4.29,4.29,0,0,0,.46.49Z"/><path class="b" d="M215.61,182.9h.67v-1.53h-.72v-.25h1.71v.25h-.71v1.53h.67v.25h-.67v1.59l.71-.17a2.32,2.32,0,0,0,0,.29q-.88.18-1.69.38l-.07-.29.76-.16v-1.65h-.67Zm1.87,1.26h1.35v-.74H217.6v-2.49h2.75v2.49h-1.23v.74h1.35v.25h-1.35v.88h1.57v.25h-3.51v-.25h1.65v-.88h-1.35Zm.39-3V182h1v-.87Zm0,1.12v.87h1v-.87Zm2.19-1.12h-1V182h1Zm-1,1.12v.87h1v-.87Z"/><path class="b" d="M221.18,181.52h.55q.16-.49.25-.87l.29.06-.11.33-.15.47h1.08v4.12h-.28v-.43h-1.35v.47h-.28Zm.28.26v1.44h1.35v-1.44Zm0,1.69v1.47h1.35v-1.47Zm2.1-.8-.25-.16a7.83,7.83,0,0,0,.81-1.87l.29.07q-.14.42-.29.78h1.75q0,1.86-.1,3.23a.79.79,0,0,1-.91.89H224a2.73,2.73,0,0,0-.07-.3h.87a.57.57,0,0,0,.67-.64q0-.86.09-2.93H224a6.76,6.76,0,0,1-.43.94Zm.23.24.22-.15q.37.45.86,1.11l-.24.18q-.43-.62-.83-1.13Z"/><path class="b" d="M226.65,181.6h4.61v.28h-2.15v1.41h2v.28h-2v1.59h2.38v.28h-5.06v-.28h2.38v-1.59h-2v-.28h2v-1.41h-2.17Zm2-.86.27-.1q.25.48.38.78l-.29.11a6.92,6.92,0,0,0-.37-.79Z"/><path class="b" d="M231.84,183.15h2.33v.24h-.89v.68h.83v.23h-.83v.86a3.18,3.18,0,0,0,.89.13H237a2.21,2.21,0,0,0-.11.29h-2.69a1.77,1.77,0,0,1-1.75-.83,3,3,0,0,1-.39,1,1.4,1.4,0,0,0-.21-.19,3.15,3.15,0,0,0,.43-1.77h.26v.57a1.67,1.67,0,0,0,.58.72v-1.66H231.9Zm.34-2.28h1.74v1.8h-1.74Zm.27.23v.55h1.2v-.55Zm0,.78v.55h1.2v-.55Zm4.12,3.14q-.48-.43-1.06-.91a2,2,0,0,1-1.19,1l-.16-.23a2.19,2.19,0,0,0,1-.68,1.86,1.86,0,0,0,.25-1.11v-.67h.27v.68a3.2,3.2,0,0,1-.08.76l1.17.94Zm-2.26-4.12h2.52v.24h-1.19l-.13.71h1.06V184h-.27v-1.9h-1.54V184h-.26v-2.13h.73l.13-.71h-1.05Z"/><rect class="a" x="209" y="192" width="16" height="5"/><rect class="a" x="271" y="192" width="14" height="5"/><rect class="a" x="290" y="192" width="14" height="5"/><rect class="a" x="315.41" y="133" width="96" height="64"/><rect class="a" x="107.63" y="162.22" width="96" height="34.78"/><path class="b" d="M111.36,137.49h-.24l-.91-3.09a1.86,1.86,0,0,1-.08-.39h0a1.92,1.92,0,0,1-.09.38l-1,3.09h-.24l-1.22-4.11h.32l.94,3.29a1.34,1.34,0,0,0,.09.36h0a2.64,2.64,0,0,1,.1-.36l1-3.29h.14l.93,3.29a1.34,1.34,0,0,0,.09.36h0a1.54,1.54,0,0,1,0-.18l1-3.47h.31Z"/><path class="b" d="M114.15,137.57a1.28,1.28,0,0,1-1-.42,1.83,1.83,0,0,1,0-2.24,1.35,1.35,0,0,1,1-.41,1.26,1.26,0,0,1,1,.41,1.65,1.65,0,0,1,.36,1.13,1.62,1.62,0,0,1-.37,1.11A1.28,1.28,0,0,1,114.15,137.57Zm0-2.83a1,1,0,0,0-.83.35,1.42,1.42,0,0,0-.31,1,1.36,1.36,0,0,0,.3.92,1.15,1.15,0,0,0,1.64,0,1.75,1.75,0,0,0,0-1.91,1,1,0,0,0-.78-.38Z"/><path class="b" d="M117.64,134.84a.52.52,0,0,0-.31-.1.68.68,0,0,0-.58.36,1.86,1.86,0,0,0-.23,1v1.38h-.26v-2.93h.24v.65h0a1.06,1.06,0,0,1,.32-.52.75.75,0,0,1,.5-.19.77.77,0,0,1,.29.05Z"/><path class="b" d="M120.16,137.49v-.57h0a1.07,1.07,0,0,1-.42.44,1.23,1.23,0,0,1-.63.16,1.12,1.12,0,0,1-.88-.39,1.62,1.62,0,0,1-.34-1.09,1.71,1.71,0,0,1,.37-1.15,1.21,1.21,0,0,1,1-.44,1,1,0,0,1,.94.54h0v-1.88h.26v4.34Zm0-1.78a1,1,0,0,0-.26-.69.89.89,0,0,0-.7-.29,1,1,0,0,0-.76.35,1.74,1.74,0,0,0,0,1.91.86.86,0,0,0,.7.33,1,1,0,0,0,.78-.31,1.11,1.11,0,0,0,.27-.76Z"/><path class="b" d="M121.64,137h0v1.87h-.26v-4.28h.26v.6h0a1.14,1.14,0,0,1,.45-.5,1.23,1.23,0,0,1,.64-.18,1.07,1.07,0,0,1,.87.39,1.61,1.61,0,0,1,.31,1,1.85,1.85,0,0,1-.36,1.19,1.15,1.15,0,0,1-.95.45A1,1,0,0,1,121.64,137Zm0-1.09v.37a1.11,1.11,0,0,0,.28.76.93.93,0,0,0,.73.32.86.86,0,0,0,.73-.38,1.68,1.68,0,0,0,.28-1,1.36,1.36,0,0,0-.26-.87.83.83,0,0,0-.69-.32,1,1,0,0,0-.79.34,1.23,1.23,0,0,0-.29.82Z"/><path class="b" d="M126,134.84a.52.52,0,0,0-.31-.1.68.68,0,0,0-.58.36,1.86,1.86,0,0,0-.23,1v1.38h-.26v-2.93h.26v.65h0a1.06,1.06,0,0,1,.32-.52.75.75,0,0,1,.5-.19.77.77,0,0,1,.29.05Z"/><path class="b" d="M126.5,136a1.45,1.45,0,0,0,.28.95.94.94,0,0,0,.77.34,1.56,1.56,0,0,0,1-.36v.28a1.71,1.71,0,0,1-1,.32,1.15,1.15,0,0,1-.92-.41,1.71,1.71,0,0,1-.35-1.15,1.63,1.63,0,0,1,.37-1.08,1.17,1.17,0,0,1,.95-.44,1,1,0,0,1,.84.38,1.69,1.69,0,0,1,.29,1V136Zm1.9-.24a1.31,1.31,0,0,0-.24-.79.76.76,0,0,0-.62-.28.92.92,0,0,0-.68.28,1.34,1.34,0,0,0-.33.79Z"/><path class="b" d="M129.28,137.36V137a1.09,1.09,0,0,0,.36.2,1.12,1.12,0,0,0,.37.07q.69,0,.69-.56a.44.44,0,0,0-.15-.33,1.78,1.78,0,0,0-.49-.28,1.69,1.69,0,0,1-.59-.38.7.7,0,0,1-.17-.48.71.71,0,0,1,.27-.58,1,1,0,0,1,.68-.22,1.28,1.28,0,0,1,.65.15v.3a1.22,1.22,0,0,0-.68-.21.7.7,0,0,0-.47.15.49.49,0,0,0-.18.39.5.5,0,0,0,.11.34,1.5,1.5,0,0,0,.49.3,2.15,2.15,0,0,1,.63.38.64.64,0,0,1,.17.47.73.73,0,0,1-.26.58,1.06,1.06,0,0,1-.72.23A1.19,1.19,0,0,1,129.28,137.36Z"/><path class="b" d="M131.55,137.36V137a1.09,1.09,0,0,0,.36.2,1.12,1.12,0,0,0,.37.07q.69,0,.69-.56a.44.44,0,0,0-.15-.33,1.78,1.78,0,0,0-.49-.28,1.69,1.69,0,0,1-.59-.38.7.7,0,0,1-.17-.48.71.71,0,0,1,.27-.58,1,1,0,0,1,.68-.22,1.28,1.28,0,0,1,.65.15v.3a1.22,1.22,0,0,0-.68-.21.7.7,0,0,0-.47.15.49.49,0,0,0-.18.39.5.5,0,0,0,.11.34,1.5,1.5,0,0,0,.49.3,2.15,2.15,0,0,1,.63.38.64.64,0,0,1,.17.47.73.73,0,0,1-.26.58,1.06,1.06,0,0,1-.72.23A1.19,1.19,0,0,1,131.55,137.36Z"/><path class="b" d="M137.59,133.11l.28-.09.23.64h2.28v.26h-5.09v-.25h2.49C137.71,133.44,137.65,133.26,137.59,133.11Zm-1.06,1,.24-.14c.19.24.35.46.48.64l-.25.15h1.28q.27-.37.54-.8l.26.14c-.14.21-.3.43-.48.67h1.34v2.73a.5.5,0,0,1-.58.57h-.64a1.53,1.53,0,0,0-.07-.29h.63a.42.42,0,0,0,.3-.07.34.34,0,0,0,.08-.27V135H136v3.16h-.28v-3.42H137a7.06,7.06,0,0,0-.48-.66Zm.75,1.06.21.19q-.61.47-1.16.82a1.28,1.28,0,0,0-.19-.22,7.84,7.84,0,0,0,1.14-.82Zm1.55,2.23h-2V136h2Zm-1.74-1.12v.87h1.47v-.87Zm1.07-.91.17-.19q.53.32,1.16.75l-.18.22a11.45,11.45,0,0,0-1.15-.82Z"/><path class="b" d="M143.5,138.08h-.29v-1.69h-1.67a3.5,3.5,0,0,1-.62,1.78l-.27-.2a3.18,3.18,0,0,0,.52-1.11,7.12,7.12,0,0,0,.12-1.62v-1.88h4.21v4.07a.59.59,0,0,1-.67.66h-.63a2.64,2.64,0,0,0-.05-.31h.63c.3,0,.44-.12.43-.39v-1H143.5Zm-1.92-2.83v.88h1.65V135H141.6Zm0-1.62v1.12h1.63v-1.12Zm3.62,0h-1.7v1.12h1.69ZM143.5,135v1.12h1.69V135Z"/><path class="b" d="M146.37,134H151v.28h-2.15v1.41h2V136h-2v1.59h2.38v.28h-5.06v-.28h2.35V136h-2v-.28h2v-1.41h-2.17Zm2-.86.27-.1q.25.48.38.78l-.29.11A6.92,6.92,0,0,0,148.37,133.15Z"/><path class="b" d="M151.57,135.56h2.33v.24H153v.68h.83v.23H153v.86a3.18,3.18,0,0,0,.89.13h2.79a2.21,2.21,0,0,0-.11.29h-2.69a1.77,1.77,0,0,1-1.75-.83,3,3,0,0,1-.39,1,1.4,1.4,0,0,0-.25-.24,3.15,3.15,0,0,0,.43-1.77h.26v.57a1.67,1.67,0,0,0,.58.72v-1.66h-1.18Zm.34-2.28h1.74v1.8h-1.74Zm.27.23v.55h1.2v-.55Zm0,.78v.55h1.2v-.55Zm4.12,3.14q-.48-.43-1.06-.91a2,2,0,0,1-1.19,1l-.16-.23a2.19,2.19,0,0,0,1-.68,1.86,1.86,0,0,0,.25-1.11v-.67h.27v.68a3.2,3.2,0,0,1-.08.76l1.17.94ZM154,133.31h2.52v.24h-1.19l-.13.71h1.06v2.13H156v-1.9H154.5v1.9h-.26v-2.13H155l.13-.71h-1Z"/><path class="b" d="M159,137.49v-4.11H160a1.1,1.1,0,0,1,.77.26.89.89,0,0,1,.29.69,1,1,0,0,1-.72,1h0a.94.94,0,0,1,.92,1,1.13,1.13,0,0,1-.33.85,1.23,1.23,0,0,1-.89.33Zm.28-3.84v1.59h.57a1.07,1.07,0,0,0,.71-.23.78.78,0,0,0,.27-.62q0-.74-.87-.74Zm0,1.84v1.74H160a1.07,1.07,0,0,0,.74-.23.84.84,0,0,0,.26-.66q0-.85-1.15-.85Z"/><path class="b" d="M161.9,137.49v-.19a1.85,1.85,0,0,1,0-.35,1.12,1.12,0,0,1,.1-.28,1.26,1.26,0,0,1,.16-.24,2.13,2.13,0,0,1,.22-.23l.29-.23.35-.26.35-.26a1.89,1.89,0,0,0,.28-.28,1.24,1.24,0,0,0,.19-.33,1.15,1.15,0,0,0,.07-.42.78.78,0,0,0-.69-.86h-.17a1.23,1.23,0,0,0-.53.12,2.19,2.19,0,0,0-.5.33v-.31a2,2,0,0,1,.51-.28,1.58,1.58,0,0,1,.57-.1,1.25,1.25,0,0,1,.45.08,1,1,0,0,1,.34.21.92.92,0,0,1,.22.33,1.17,1.17,0,0,1,.08.44,1.42,1.42,0,0,1-.08.5,1.45,1.45,0,0,1-.22.4,2.08,2.08,0,0,1-.33.33l-.4.3-.47.35a2.1,2.1,0,0,0-.31.3,1,1,0,0,0-.17.3,1.1,1.1,0,0,0,0,.36h2v.24Z"/><path class="b" d="M167.43,136.17l.28.06q0,.24-.11.45a1.58,1.58,0,0,0,1.31.94v-1.7H166.5v-.25h5v.25h-2.3v.68h1.9v.32h-1.9v.75h2.3a1.39,1.39,0,0,0-.09.29h-2.16a1.87,1.87,0,0,1-1.79-.95,2.65,2.65,0,0,1-.93,1.19l-.2-.21A2.49,2.49,0,0,0,167.43,136.17Zm-.2-2.88h3.48v1.86h-3.48Zm.29.24v.56h2.91v-.56Zm0,.8v.59h2.91v-.57Z"/><path class="b" d="M171.82,135.28H177v.32h-5.15Z"/><path class="b" d="M177.5,137.59a1.12,1.12,0,0,0-.22-.13,9.88,9.88,0,0,0,.56-.93l.22.11Zm1-4.56h.28v.57h1.14v.25h-1.14v.6h.9v.24h-2.17v-.24h1v-.6h-1.16v-.25h1.16Zm-1.15,3h2.58v.25H178.8v1.21q0,.55-.51.55h-.46a2.28,2.28,0,0,0,0-.29h.41a.36.36,0,0,0,.26-.06.29.29,0,0,0,.07-.23v-1.2h-1.16Zm.28-.79h2v.24h-2Zm1.51,1.42.21-.12c.16.23.31.47.46.71l-.23.13a7.52,7.52,0,0,1-.51-.71Zm1.77-2.18h.28v.78a3.76,3.76,0,0,0,1.29,2.6l-.21.23a3.51,3.51,0,0,1-1.2-2.27,3.58,3.58,0,0,1-1.36,2.33,1.76,1.76,0,0,0-.22-.22,3.45,3.45,0,0,0,1.4-2.53,7.72,7.72,0,0,1-.05-.91Zm-.76.64-.26-.12a9,9,0,0,0,.69-2h.28q-.12.45-.22.78h1.67v.3L182,135l-.26-.09.32-.87H180.5a10.42,10.42,0,0,1-.42,1.09Z"/><path class="b" d="M182.77,136.64l-.12-.31a7.28,7.28,0,0,0,.77-1.93h-.67v-.25h.67v-1.06h.28v1.06h.58v.25h-.58v.87l.14-.12q.33.31.61.61l-.21.19-.54-.6v2.83h-.28V135A6,6,0,0,1,182.77,136.64Zm1.41.09h1.57a2.54,2.54,0,0,0,.07-.54H184.6v-1.73h2.76v1.73h-1.27a3.44,3.44,0,0,1-.06.54h1.68V137h-1.56a2.08,2.08,0,0,0,1.63.85,1.8,1.8,0,0,0-.14.28,2.29,2.29,0,0,1-1.72-1q-.3.75-1.7,1.11a1.56,1.56,0,0,0-.17-.27q1.38-.3,1.61-.93h-1.49Zm.08-3.17h.92V133h.32v.51h1V133h.27v.51h1v.24h-1v.43h-.27v-.43h-1v.43h-.27v-.43h-.92Zm.62,1.13v.51h2.2v-.51Zm0,.74v.49h2.2v-.51Z"/><path class="b" d="M188.18,137.27l-.08-.31.77-.19v-2.12h-.71v-.26h.71v-1.31h.28v1.31h.68v.26h-.68v2l.42-.12.32-.09a2.12,2.12,0,0,0,0,.29Zm1.58-1.58H191a12.33,12.33,0,0,0,.06-1.42h-1V134h1v-.93h.29V134h1.32v1.68h.52v.23h-1.77a3.14,3.14,0,0,0,1.77,1.85,2.93,2.93,0,0,0-.2.28,3.36,3.36,0,0,1-1.79-2,3.42,3.42,0,0,1-1.57,2.12,2.4,2.4,0,0,0-.23-.24,3.1,3.1,0,0,0,1.56-2h-1.19Zm2.62-1.42h-1a13.41,13.41,0,0,1-.06,1.42h1.09Z"/><path class="b" d="M193.71,136a2.62,2.62,0,0,0-.2-.29,8.61,8.61,0,0,0,1.5-2.59l.3.09q-.28.66-.65,1.34v3.61h-.29V135A10.21,10.21,0,0,1,193.71,136Zm1.47.59a2.39,2.39,0,0,0-.19-.27,10.17,10.17,0,0,0,1.3-.74v-2.42h.3v2.2a7.75,7.75,0,0,0,1.55-1.57l.27.16a9.39,9.39,0,0,1-1.82,1.76v1.48a.48.48,0,0,0,.11.38.56.56,0,0,0,.4.11h.59q.49,0,.56-.36a8.31,8.31,0,0,0,.13-.93l.29.1q-.06.56-.12.92-.1.58-.84.57H197a.64.64,0,0,1-.73-.75v-1.3a10.92,10.92,0,0,1-1.11.65Z"/><path class="b" d="M108.59,139.53l.28.06a4.18,4.18,0,0,1-.24.43h1.59v.24H108.5a4,4,0,0,1-.65.68l-.21-.2A3.31,3.31,0,0,0,108.59,139.53Zm1.35,1.21.25-.1v.06l.19.41h2.12v.73h-.28v-.49H108.1v.49h-.28v-.74h2.3Zm-1.51,1.09h3.45v1h-3.17v.47H112v1.31h-.28v-.21h-3v.22h-.28Zm.28.24v.56h2.89v-.56Zm3,1.51h-3v.63h3Zm-2.47-2.66-.45-.48.19-.15a6.22,6.22,0,0,1,.46.46Zm1.72-1.4.28.05a4.27,4.27,0,0,1-.22.44h1.72v.24h-1.86a4.18,4.18,0,0,1-.37.48l-.23-.17a3,3,0,0,0,.68-1Zm.88,1.24-.19.16q-.21-.24-.45-.48l.18-.15a4.29,4.29,0,0,0,.46.49Z"/><path class="b" d="M113.11,141.82h.67v-1.53h-.72V140h1.71v.25h-.71v1.53h.67v.25h-.67v1.59l.71-.17a2.32,2.32,0,0,0,0,.29q-.88.18-1.69.38l-.07-.29.76-.16v-1.65h-.67Zm1.87,1.26h1.35v-.74H115.1v-2.49h2.75v2.49h-1.23v.74H118v.25h-1.35v.88h1.57v.25h-3.51v-.25h1.65v-.88H115Zm.39-3v.84h1V140Zm0,1.12v.87h1v-.87Zm2.19-1.12h-1v.84h1Zm-1,1.12v.87h1v-.87Z"/><path class="b" d="M118.68,140.44h.55q.16-.49.25-.87l.29.06-.11.33-.15.47h1.08v4.12h-.28v-.43H119v.47h-.28Zm.28.26v1.44h1.35V140.7Zm0,1.69v1.47h1.35v-1.47Zm2.1-.8-.25-.16a7.83,7.83,0,0,0,.81-1.87l.29.07q-.14.42-.29.78h1.75q0,1.86-.1,3.23a.79.79,0,0,1-.91.89h-.86a2.73,2.73,0,0,0-.07-.3h.87a.57.57,0,0,0,.67-.64q0-.86.09-2.93H121.5a6.76,6.76,0,0,1-.43.94Zm.23.24.22-.15q.37.45.86,1.11l-.24.18q-.43-.62-.83-1.13Z"/><path class="b" d="M124.15,140.52h4.61v.28h-2.15v1.41h2v.28h-2v1.59H129v.28h-5.06v-.28h2.38v-1.59h-2v-.28h2V140.8h-2.17Zm2-.86.27-.1q.25.48.38.78l-.29.11a6.92,6.92,0,0,0-.37-.79Z"/><path class="b" d="M129.34,142.07h2.33v.24h-.89V143h.83v.23h-.83v.86a3.18,3.18,0,0,0,.89.13h2.79a2.21,2.21,0,0,0-.11.29h-2.69a1.77,1.77,0,0,1-1.75-.83,3,3,0,0,1-.39,1,1.4,1.4,0,0,0-.21-.19,3.15,3.15,0,0,0,.43-1.77H130v.57a1.67,1.67,0,0,0,.58.72v-1.66H129.4Zm.34-2.28h1.74v1.8h-1.74Zm.27.23v.55h1.2V140Zm0,.78v.55h1.2v-.55Zm4.12,3.14q-.48-.43-1.06-.91a2,2,0,0,1-1.19,1l-.16-.23a2.19,2.19,0,0,0,1-.68,1.86,1.86,0,0,0,.25-1.11v-.67h.27V142a3.2,3.2,0,0,1-.08.76l1.17.94Zm-2.26-4.12h2.52v.24h-1.19l-.13.71h1.06v2.15h-.27V141h-1.54v1.9H132v-2.13h.73l.13-.71h-1.05Z"/><rect class="a" x="106.5" y="150.92" width="16" height="5"/><rect class="a" x="168.5" y="150.92" width="14" height="5"/><rect class="a" x="187.5" y="150.92" width="14" height="5"/></svg>