<svg xmlns="http://www.w3.org/2000/svg" viewBox="0 0 166.56 225.75"><defs><style>.a{fill:#f0f0f0;}.b{fill:#c9c7e4;}.c{fill:#ebc9c9;}.d{fill:#231815;}</style></defs><title>资源 142</title><rect class="a" y="61.53" width="120.84" height="164.22"/><rect class="b" x="125.84" width="40.72" height="68.61"/><rect class="c" y="1.06" width="120.84" height="57.47"/><path class="d" d="M46.66,36.09V22.6H59.55V36.07h-2v-.56h-9v.57Zm4.62-11.76H48.63V26.8A9.15,9.15,0,0,0,51.28,24.33ZM49.57,27.9a12.71,12.71,0,0,0-.94-.91v1.7A24.1,24.1,0,0,0,51.53,28a7.3,7.3,0,0,1-1-.85Q50.09,27.55,49.57,27.9Zm.06,3.29q3.76.5,7.08,1.06l-.4,1.54h1.27V28.72q-.31.52-.76,1.29a15.63,15.63,0,0,1-3.66-1,17.38,17.38,0,0,1-1.7.58q2.37.3,4.63.68L55.8,31.6q-2.35-.41-5.27-.81l.22-1q-.69.17-1.45.31a10.24,10.24,0,0,0-.67-1.25v5h7.61q-2.9-.59-7-1.1Zm3.56-3.78a5.46,5.46,0,0,0,1.58-1H51.7A5.37,5.37,0,0,0,53.19,27.42Zm3.76-2.32v1.17a7.28,7.28,0,0,1-2,1.8,18.6,18.6,0,0,0,2.62.49V24.33H53.25q-.26.39-.56.77Z"/><path class="d" d="M69.1,22.06h2.14v3.66h3.42V27.6H64.94a18.74,18.74,0,0,1,0,1.88H72V36H69.89V31.37H64.63a9.47,9.47,0,0,1-2.4,4.83,18.15,18.15,0,0,0-1.64-1.68q2.28-2,2.28-6.81V22.32h2.07v3.41H69.1Z"/><rect class="b" x="125.84" y="71.64" width="40.72" height="68.61"/><rect class="b" x="125.84" y="143.64" width="40.72" height="68.61"/></svg>