<svg id="图层_1" data-name="图层 1" xmlns="http://www.w3.org/2000/svg" viewBox="0 0 409 179.78"><defs><style>.cls-1{fill:#f0f0f0;}</style></defs><title>post-5</title><rect class="cls-1" x="19.11" width="144.89" height="15.43"/><rect class="cls-1" width="14.22" height="15.43"/><rect class="cls-1" x="168.89" width="14.22" height="15.43"/><rect class="cls-1" x="19.11" y="35.25" width="144.89" height="15.43"/><rect class="cls-1" y="35.25" width="14.22" height="15.43"/><rect class="cls-1" x="168.89" y="35.25" width="14.22" height="15.43"/><rect class="cls-1" x="19.11" y="68.67" width="144.89" height="15.43"/><rect class="cls-1" y="68.67" width="14.22" height="15.43"/><rect class="cls-1" x="168.89" y="68.67" width="14.22" height="15.43"/><rect class="cls-1" x="19.11" y="102.08" width="144.89" height="15.43"/><rect class="cls-1" y="102.08" width="14.22" height="15.43"/><rect class="cls-1" x="168.89" y="102.08" width="14.22" height="15.43"/><rect class="cls-1" x="19.11" y="133.21" width="144.89" height="15.43"/><rect class="cls-1" y="133.21" width="14.22" height="15.43"/><rect class="cls-1" x="168.89" y="133.21" width="14.22" height="15.43"/><rect class="cls-1" x="19.11" y="164.34" width="144.89" height="15.43"/><rect class="cls-1" y="164.34" width="14.22" height="15.43"/><rect class="cls-1" x="168.89" y="164.34" width="14.22" height="15.43"/><rect class="cls-1" x="245" width="144.89" height="15.43"/><rect class="cls-1" x="225.89" width="14.22" height="15.43"/><rect class="cls-1" x="394.78" width="14.22" height="15.43"/><rect class="cls-1" x="245" y="35.25" width="144.89" height="15.43"/><rect class="cls-1" x="225.89" y="35.25" width="14.22" height="15.43"/><rect class="cls-1" x="394.78" y="35.25" width="14.22" height="15.43"/><rect class="cls-1" x="245" y="68.67" width="144.89" height="15.43"/><rect class="cls-1" x="225.89" y="68.67" width="14.22" height="15.43"/><rect class="cls-1" x="394.78" y="68.67" width="14.22" height="15.43"/><rect class="cls-1" x="245" y="102.08" width="144.89" height="15.43"/><rect class="cls-1" x="225.89" y="102.08" width="14.22" height="15.43"/><rect class="cls-1" x="394.78" y="102.08" width="14.22" height="15.43"/><rect class="cls-1" x="245" y="133.21" width="144.89" height="15.43"/><rect class="cls-1" x="225.89" y="133.21" width="14.22" height="15.43"/><rect class="cls-1" x="394.78" y="133.21" width="14.22" height="15.43"/><rect class="cls-1" x="245" y="164.34" width="144.89" height="15.43"/><rect class="cls-1" x="225.89" y="164.34" width="14.22" height="15.43"/><rect class="cls-1" x="394.78" y="164.34" width="14.22" height="15.43"/></svg>