<svg xmlns="http://www.w3.org/2000/svg" viewBox="0 0 166.56 226.44"><defs><style>.a{fill:#ebc9c9;}.b{fill:#231815;}.c{fill:#f0f0f0;}</style></defs><title>资源 32</title><rect class="a" width="166.56" height="57.47"/><path class="b" d="M67.37,30.37V16.89H80.25V30.36h-2V29.8h-9v.57ZM72,18.6H69.33v2.47A9.15,9.15,0,0,0,72,18.6Zm-1.71,3.58a12.71,12.71,0,0,0-.94-.91V23a24.1,24.1,0,0,0,2.89-.66,7.3,7.3,0,0,1-1-.85,5.14,5.14,0,0,1-.95.73Zm.06,3.29q3.76.5,7.08,1.06L77,28.07h1.27V23l-.76,1.29a15.63,15.63,0,0,1-3.66-1,17.38,17.38,0,0,1-1.7.58q2.37.3,4.63.68l-.29,1.35q-2.35-.41-5.27-.81l.22-1q-.69.17-1.45.31a10.24,10.24,0,0,0-.67-1.25v5h7.61q-2.9-.59-7-1.1Zm3.51-3.76a5.46,5.46,0,0,0,1.58-1h-3A5.37,5.37,0,0,0,73.84,21.71Zm3.76-2.32V20.6a7.28,7.28,0,0,1-2,1.8,18.6,18.6,0,0,0,2.62.49V18.6H74q-.26.39-.56.77Z"/><path class="b" d="M89.84,16.35h2.1V20h3.42v1.88H85.64a18.74,18.74,0,0,1,0,1.88h7.13v6.56H90.59V25.65H85.33a9.47,9.47,0,0,1-2.4,4.83,18.15,18.15,0,0,0-1.64-1.68q2.28-2,2.28-6.81V16.6h2.07V20h4.2Z"/><rect class="c" x="22.86" y="44.61" width="120.84" height="181.83"/></svg>