<svg xmlns="http://www.w3.org/2000/svg" viewBox="0 0 411 197"><defs><style>.a{fill:#efefef;}.b{fill:#d6d4d4;}</style></defs><title>资源 162</title><rect class="a" x="1" width="96" height="64"/><path class="b" d="M6.9,72.57H6.66l-.91-3.09a1.86,1.86,0,0,1-.08-.39h0a1.92,1.92,0,0,1-.09.38l-1,3.09H4.37L3.15,68.46h.32l.94,3.29c0,.15.07.27.09.36h0a2.64,2.64,0,0,1,.1-.36l1-3.29h.14l.93,3.29c0,.15.07.27.09.36h0a1.54,1.54,0,0,1,0-.18l1-3.47H8.1Z"/><path class="b" d="M9.68,72.64a1.28,1.28,0,0,1-1-.42,1.83,1.83,0,0,1,0-2.24,1.35,1.35,0,0,1,1-.41,1.26,1.26,0,0,1,1,.41,1.65,1.65,0,0,1,.36,1.13,1.62,1.62,0,0,1-.37,1.11A1.28,1.28,0,0,1,9.68,72.64Zm0-2.83a1,1,0,0,0-.83.35,1.42,1.42,0,0,0-.31,1,1.36,1.36,0,0,0,.3.92,1,1,0,0,0,.82.35,1,1,0,0,0,.82-.34,1.75,1.75,0,0,0,0-1.91A1,1,0,0,0,9.7,69.8Z"/><path class="b" d="M13.18,69.91a.52.52,0,0,0-.31-.1.68.68,0,0,0-.58.36,1.86,1.86,0,0,0-.23,1v1.38h-.26V69.63h.26v.65h0a1.06,1.06,0,0,1,.32-.52.75.75,0,0,1,.5-.19.77.77,0,0,1,.29.05Z"/><path class="b" d="M15.7,72.57V72h0a1.07,1.07,0,0,1-.42.44,1.23,1.23,0,0,1-.63.16,1.12,1.12,0,0,1-.88-.39,1.62,1.62,0,0,1-.34-1.09A1.71,1.71,0,0,1,13.78,70a1.21,1.21,0,0,1,1-.44,1,1,0,0,1,.94.54h0V68.23H16v4.34Zm0-1.78a1,1,0,0,0-.26-.69.89.89,0,0,0-.7-.29,1,1,0,0,0-.76.35,1.74,1.74,0,0,0,0,1.91.86.86,0,0,0,.7.33,1,1,0,0,0,.78-.31,1.11,1.11,0,0,0,.27-.76Z"/><path class="b" d="M17.17,72h0v1.87H16.9V69.63h.26v.6h0a1.14,1.14,0,0,1,.45-.5,1.23,1.23,0,0,1,.64-.18,1.07,1.07,0,0,1,.87.39,1.61,1.61,0,0,1,.31,1,1.85,1.85,0,0,1-.36,1.19,1.15,1.15,0,0,1-.95.45A1,1,0,0,1,17.17,72Zm0-1.09v.37a1.11,1.11,0,0,0,.28.76.93.93,0,0,0,.73.32A.86.86,0,0,0,18.9,72a1.68,1.68,0,0,0,.28-1,1.36,1.36,0,0,0-.26-.87.83.83,0,0,0-.69-.32,1,1,0,0,0-.79.34A1.23,1.23,0,0,0,17.16,71Z"/><path class="b" d="M21.57,69.91a.52.52,0,0,0-.31-.1.68.68,0,0,0-.58.36,1.86,1.86,0,0,0-.23,1v1.38h-.26V69.63h.26v.65h0a1.06,1.06,0,0,1,.32-.52.75.75,0,0,1,.5-.19.77.77,0,0,1,.29.05Z"/><path class="b" d="M22.07,71.11a1.45,1.45,0,0,0,.28.95.94.94,0,0,0,.77.34,1.56,1.56,0,0,0,1-.36v.28a1.71,1.71,0,0,1-1,.32,1.15,1.15,0,0,1-.92-.41,1.71,1.71,0,0,1-.35-1.15A1.63,1.63,0,0,1,22.16,70a1.17,1.17,0,0,1,.95-.44,1,1,0,0,1,.84.38,1.69,1.69,0,0,1,.29,1v.12Zm1.9-.24a1.31,1.31,0,0,0-.24-.79.76.76,0,0,0-.62-.28.92.92,0,0,0-.68.28,1.34,1.34,0,0,0-.33.79Z"/><path class="b" d="M24.81,72.44v-.32a1.09,1.09,0,0,0,.36.2,1.12,1.12,0,0,0,.37.07q.69,0,.69-.56a.44.44,0,0,0-.15-.33,1.78,1.78,0,0,0-.49-.28,1.69,1.69,0,0,1-.59-.38.7.7,0,0,1-.17-.48.71.71,0,0,1,.27-.58,1,1,0,0,1,.68-.22,1.28,1.28,0,0,1,.65.15V70a1.22,1.22,0,0,0-.68-.21.7.7,0,0,0-.47.15.49.49,0,0,0-.18.39.5.5,0,0,0,.11.34,1.5,1.5,0,0,0,.49.3,2.15,2.15,0,0,1,.63.38.64.64,0,0,1,.17.47.73.73,0,0,1-.26.58,1.06,1.06,0,0,1-.72.23A1.19,1.19,0,0,1,24.81,72.44Z"/><path class="b" d="M27.09,72.44v-.32a1.09,1.09,0,0,0,.36.2,1.12,1.12,0,0,0,.37.07q.69,0,.69-.56a.44.44,0,0,0-.15-.33,1.78,1.78,0,0,0-.49-.28,1.69,1.69,0,0,1-.59-.38.7.7,0,0,1-.17-.48.71.71,0,0,1,.27-.58,1,1,0,0,1,.68-.22,1.28,1.28,0,0,1,.65.15V70A1.22,1.22,0,0,0,28,69.8a.7.7,0,0,0-.47.15.49.49,0,0,0-.18.39.5.5,0,0,0,.11.34A1.5,1.5,0,0,0,28,71a2.15,2.15,0,0,1,.63.38.64.64,0,0,1,.17.47.73.73,0,0,1-.26.58,1.06,1.06,0,0,1-.72.23A1.19,1.19,0,0,1,27.09,72.44Z"/><path class="b" d="M33.13,68.19l.28-.09q.13.35.23.64h2.28V69H30.83v-.25h2.49C33.25,68.51,33.19,68.33,33.13,68.19Zm-1.06,1,.24-.14c.19.24.35.46.48.64l-.25.15h1.28q.27-.37.54-.8l.26.14c-.14.21-.3.43-.48.67h1.34v2.73q0,.58-.58.57h-.64a1.53,1.53,0,0,0-.07-.29l.32,0h.31a.42.42,0,0,0,.3-.07.34.34,0,0,0,.08-.27V70.06H31.5v3.16h-.28V69.81h1.3A7.06,7.06,0,0,0,32.07,69.15Zm.75,1.06.21.19q-.61.47-1.16.82a1.28,1.28,0,0,0-.19-.22A7.84,7.84,0,0,0,32.82,70.21Zm1.55,2.23h-2V71.07h2Zm-1.74-1.12v.87H34.1v-.87Zm1.07-.91.17-.19q.53.32,1.16.75l-.18.22Q34.34,70.81,33.69,70.41Z"/><path class="b" d="M39.06,73.15h-.29V71.46H37.1a3.5,3.5,0,0,1-.62,1.78l-.27-.2a3.18,3.18,0,0,0,.52-1.11,7.12,7.12,0,0,0,.12-1.62V68.43H41V72.5q0,.65-.67.66h-.63a2.64,2.64,0,0,0-.05-.31l.63,0c.3,0,.44-.12.43-.39v-1H39.06Zm-1.92-2.83q0,.38,0,.88h1.65V70.08H37.14Zm0-1.62v1.12h1.63V68.7Zm3.62,0H39.06v1.12h1.69Zm-1.69,1.38V71.2h1.69V70.08Z"/><path class="b" d="M41.91,69.08h4.61v.28H44.37v1.41h2V71h-2v1.59h2.38v.28H41.69v-.28h2.38V71h-2v-.28h2V69.36H41.91Zm2-.86.27-.1q.25.48.38.78l-.29.11A6.92,6.92,0,0,0,43.9,68.22Z"/><path class="b" d="M47.1,70.63h2.33v.24h-.89v.68h.83v.23h-.83v.86a3.18,3.18,0,0,0,.89.13l1.31,0,1.48,0a2.21,2.21,0,0,0-.11.29h-.69q-1.46,0-2,0a1.77,1.77,0,0,1-1.75-.83,3,3,0,0,1-.39,1A1.4,1.4,0,0,0,47,73a3.15,3.15,0,0,0,.43-1.77h.26c0,.21,0,.4,0,.57a1.67,1.67,0,0,0,.58.72V70.87H47.1Zm.34-2.28h1.74v1.8H47.44Zm.27.23v.55h1.2v-.55Zm0,.78v.55h1.2v-.55Zm4.12,3.14q-.48-.43-1.06-.91a2,2,0,0,1-1.19,1l-.16-.23a2.19,2.19,0,0,0,1-.68,1.86,1.86,0,0,0,.25-1.11V69.9h.27v.68a3.2,3.2,0,0,1-.08.76l1.17.94Zm-2.26-4.12h2.52v.24H50.9l-.13.71h1.06v2.13h-.27v-1.9H50v1.9h-.26V69.33h.73l.13-.71H49.57Z"/><path class="b" d="M54.5,72.57V68.46h1.08a1.1,1.1,0,0,1,.77.26.89.89,0,0,1,.29.69,1,1,0,0,1-.72,1h0a1,1,0,0,1,.67.3,1,1,0,0,1,.25.67,1.13,1.13,0,0,1-.33.85,1.23,1.23,0,0,1-.89.33Zm.28-3.84v1.59h.57a1.07,1.07,0,0,0,.71-.23.78.78,0,0,0,.27-.62q0-.74-.87-.74Zm0,1.84v1.74h.76a1.07,1.07,0,0,0,.74-.23.84.84,0,0,0,.26-.66q0-.85-1.15-.85Z"/><path class="b" d="M57.43,72.57v-.19a1.85,1.85,0,0,1,0-.35,1.12,1.12,0,0,1,.1-.28,1.26,1.26,0,0,1,.16-.24,2.13,2.13,0,0,1,.22-.23l.29-.23.35-.26.35-.26a1.89,1.89,0,0,0,.28-.28,1.24,1.24,0,0,0,.19-.33,1.15,1.15,0,0,0,.07-.42.78.78,0,0,0-.86-.86,1.23,1.23,0,0,0-.53.12,2.19,2.19,0,0,0-.5.33v-.31a2,2,0,0,1,.51-.28,1.58,1.58,0,0,1,.57-.1,1.25,1.25,0,0,1,.45.08,1,1,0,0,1,.34.21.92.92,0,0,1,.22.33,1.17,1.17,0,0,1,.08.44,1.42,1.42,0,0,1-.08.5,1.45,1.45,0,0,1-.22.4,2.08,2.08,0,0,1-.33.33l-.4.3-.47.35a2.1,2.1,0,0,0-.31.3,1,1,0,0,0-.17.3,1.1,1.1,0,0,0-.05.36v0h2v.24Z"/><path class="b" d="M63,71.25l.28.06q-.05.24-.11.45a1.58,1.58,0,0,0,1.31.94V71H62v-.25h5V71H64.74v.68h1.9V72h-1.9v.75h.08l.93,0h1.31A1.39,1.39,0,0,0,67,73l-2.16,0A1.87,1.87,0,0,1,63,72a2.65,2.65,0,0,1-.93,1.19L61.9,73A2.49,2.49,0,0,0,63,71.25Zm-.2-2.88h3.48v1.86H62.76Zm.29.24v.56h2.91v-.56Zm0,.8V70h2.91v-.57Z"/><path class="b" d="M67.35,70.36H72.5v.32H67.35Z"/><path class="b" d="M73,72.66a1.12,1.12,0,0,0-.22-.13,9.88,9.88,0,0,0,.56-.93l.22.11Q73.31,72.19,73,72.66Zm1-4.56h.28v.57h1.14v.25H74.25v.6h.9v.24H73v-.24h1v-.6H72.8v-.25H74Zm-1.15,3h2.58v.25H74.26v1.21q0,.55-.51.55h-.46a2.28,2.28,0,0,0,0-.29l.41,0a.36.36,0,0,0,.26-.06.29.29,0,0,0,.07-.23v-1.2H72.81Zm.28-.79h2v.24h-2Zm1.51,1.42.21-.12c.16.23.31.47.46.71l-.23.13C74.88,72.16,74.73,71.92,74.6,71.74Zm1.77-2.18h.28c0,.26,0,.52,0,.78a3.76,3.76,0,0,0,1.29,2.6l-.21.23a3.51,3.51,0,0,1-1.2-2.27,3.58,3.58,0,0,1-1.36,2.33A1.76,1.76,0,0,0,75,73a3.45,3.45,0,0,0,1.4-2.53Q76.37,70.06,76.37,69.56Zm-.76.64-.26-.12a9,9,0,0,0,.69-2l.28,0q-.12.45-.22.78h1.67v.3l-.31.92-.26-.09.32-.87H76Q75.83,69.72,75.62,70.2Z"/><path class="b" d="M78.3,71.71l-.12-.31a7.28,7.28,0,0,0,.77-1.93v0h-.67V69.2h.67V68.14h.28V69.2h.58v.25h-.58v.87l.14-.12q.33.31.61.61l-.21.19-.54-.6v2.83h-.28V70.1A6,6,0,0,1,78.3,71.71Zm1.41.09h1.57a2.54,2.54,0,0,0,.07-.54H80.13V69.53h2.76v1.73H81.63a3.44,3.44,0,0,1-.06.54h1.68V72H81.69a2.08,2.08,0,0,0,1.63.85,1.8,1.8,0,0,0-.14.28,2.29,2.29,0,0,1-1.72-1q-.3.75-1.7,1.11a1.56,1.56,0,0,0-.17-.27Q81,72.68,81.2,72H79.71Zm.08-3.17h.92v-.51H81v.51h1v-.51h.27v.51h1v.24h-1v.43H82v-.43H81v.43h-.27v-.43H79.8Zm.62,1.13v.51h2.2v-.51Zm0,.74V71h2.2v-.51Z"/><path class="b" d="M83.72,72.34,83.64,72l.77-.19V69.72h-.71v-.26h.71V68.15h.28v1.31h.68v.26h-.68v2l.42-.12.32-.09a2.12,2.12,0,0,0,0,.29Q84.5,72.1,83.72,72.34Zm1.58-1.58h1.23a12.33,12.33,0,0,0,.06-1.42h-1v-.26h1c0-.1,0-.23,0-.37v-.56h.29v.56c0,.14,0,.26,0,.37H88.2v1.68h.52V71H87a3.14,3.14,0,0,0,1.77,1.85,2.93,2.93,0,0,0-.2.28,3.36,3.36,0,0,1-1.79-2,3.42,3.42,0,0,1-1.57,2.12,2.4,2.4,0,0,0-.23-.24,3.1,3.1,0,0,0,1.56-2H85.3Zm2.62-1.42h-1q0,.88-.06,1.42h1.09Z"/><path class="b" d="M89.25,71.06a2.62,2.62,0,0,0-.2-.29,8.61,8.61,0,0,0,1.5-2.59l.3.09q-.28.66-.65,1.34v3.61h-.29V70.11A10.21,10.21,0,0,1,89.25,71.06Zm1.47.59a2.39,2.39,0,0,0-.19-.27,10.17,10.17,0,0,0,1.3-.74V68.22h.3v2.2a7.75,7.75,0,0,0,1.55-1.57l.27.16a9.39,9.39,0,0,1-1.82,1.76v1.48a.48.48,0,0,0,.11.38.56.56,0,0,0,.4.11h.59q.49,0,.56-.36a8.31,8.31,0,0,0,.13-.93l.29.1q-.06.56-.12.92-.1.58-.84.57h-.69q-.76,0-.73-.75V71A10.92,10.92,0,0,1,90.71,71.64Z"/><path class="b" d="M4.13,74.61l.28.06a4.18,4.18,0,0,1-.24.43H5.76v.24H4a4,4,0,0,1-.65.68l-.21-.2A3.31,3.31,0,0,0,4.13,74.61Zm1.35,1.21.25-.1,0,.06.19.41H8.06v.73H7.78v-.49H3.64v.49H3.36v-.74h2.3ZM4,76.91H7.42v1H4.25v.47H7.54v1.31H7.27v-.21h-3v.22H4Zm.28.24v.56H7.14v-.56Zm3,1.51h-3v.63h3ZM4.78,76c-.16-.18-.31-.34-.45-.48l.19-.15a6.22,6.22,0,0,1,.46.46Zm1.72-1.4.28.05a4.27,4.27,0,0,1-.22.44H8.28v.24H6.42a4.18,4.18,0,0,1-.37.48l-.23-.17A3,3,0,0,0,6.5,74.61Zm.88,1.24L7.18,76c-.14-.16-.29-.32-.45-.48l.18-.15C7.08,75.55,7.24,75.7,7.38,75.85Z"/><path class="b" d="M8.65,76.89h.67V75.36H8.59v-.25H10.3v.25H9.59v1.53h.67v.25H9.59v1.59l.71-.17a2.32,2.32,0,0,0,0,.29q-.88.18-1.69.38l-.07-.29.76-.16V77.14H8.65Zm1.87,1.26h1.35v-.74H10.63V74.92h2.75v2.49H12.15v.74h1.35v.25H12.15v.88h1.57v.25H10.21v-.25h1.65V78.4H10.52Zm.39-3V76h1v-.87Zm0,1.12v.87h1v-.87Zm2.19-1.12h-1V76h1Zm-1,1.12v.87h1v-.87Z"/><path class="b" d="M14.22,75.51h.55q.16-.49.25-.87l.29.06-.11.33-.15.47h1.08v4.12h-.28v-.43H14.5v.47h-.28Zm.28.26v1.44h1.35V75.78Zm0,1.69v1.47h1.35V77.47Zm2.1-.8-.25-.16a7.83,7.83,0,0,0,.81-1.87l.29.07q-.14.42-.29.78h1.75q0,1.86-.1,3.23a.79.79,0,0,1-.91.89h-.85a2.73,2.73,0,0,0-.07-.3l.87,0a.57.57,0,0,0,.67-.64q0-.86.09-2.93H17.05A6.76,6.76,0,0,1,16.61,76.67Zm.23.24.22-.15q.37.45.86,1.11l-.24.18Q17.23,77.42,16.83,76.91Z"/><path class="b" d="M19.68,75.59h4.61v.28H22.14v1.41h2v.28h-2v1.59h2.38v.28H19.46v-.28h2.38V77.56h-2v-.28h2V75.87H19.68Zm2-.86.27-.1q.25.48.38.78l-.29.11A6.92,6.92,0,0,0,21.68,74.73Z"/><path class="b" d="M24.88,77.14h2.33v.24h-.89v.68h.83v.23h-.83v.86a3.18,3.18,0,0,0,.89.13l1.31,0,1.48,0a2.21,2.21,0,0,0-.11.29h-.69q-1.46,0-2,0a1.77,1.77,0,0,1-1.75-.83,3,3,0,0,1-.39,1,1.4,1.4,0,0,0-.21-.19,3.15,3.15,0,0,0,.43-1.77h.26c0,.21,0,.4,0,.57a1.67,1.67,0,0,0,.58.72V77.38H24.88Zm.34-2.28H27v1.8H25.21Zm.27.23v.55h1.2v-.55Zm0,.78v.55h1.2v-.55ZM29.6,79q-.48-.43-1.06-.91a2,2,0,0,1-1.19,1l-.16-.23a2.19,2.19,0,0,0,1-.68,1.86,1.86,0,0,0,.25-1.11v-.67h.27v.68a3.2,3.2,0,0,1-.08.76l1.17.94Zm-2.26-4.12h2.52v.24H28.67l-.13.71h1.06V78h-.27v-1.9H27.8V78h-.26V75.84h.73l.13-.71H27.34Z"/><rect class="a" x="2" y="86" width="16" height="5"/><rect class="a" x="65" y="86" width="14" height="5"/><rect class="a" x="83" y="86" width="14" height="5"/><rect class="a" x="106" width="96" height="64"/><path class="b" d="M111.15,72.57h-.24L110,69.48a1.86,1.86,0,0,1-.08-.39h0a1.92,1.92,0,0,1-.09.38l-1,3.09h-.24l-1.22-4.11h.32l.94,3.29c0,.15.07.27.09.36h0a2.64,2.64,0,0,1,.1-.36l1-3.29H110l.93,3.29c0,.15.07.27.09.36h0a1.54,1.54,0,0,1,0-.18l1-3.47h.31Z"/><path class="b" d="M113.93,72.64a1.28,1.28,0,0,1-1-.42,1.83,1.83,0,0,1,0-2.24,1.35,1.35,0,0,1,1-.41,1.26,1.26,0,0,1,1,.41,1.65,1.65,0,0,1,.36,1.13,1.62,1.62,0,0,1-.37,1.11A1.28,1.28,0,0,1,113.93,72.64Zm0-2.83a1,1,0,0,0-.83.35,1.42,1.42,0,0,0-.31,1,1.36,1.36,0,0,0,.3.92,1,1,0,0,0,.82.35,1,1,0,0,0,.82-.34,1.75,1.75,0,0,0,0-1.91A1,1,0,0,0,114,69.8Z"/><path class="b" d="M117.43,69.91a.52.52,0,0,0-.31-.1.68.68,0,0,0-.58.36,1.86,1.86,0,0,0-.23,1v1.38H116V69.63h.26v.65h0a1.06,1.06,0,0,1,.32-.52.75.75,0,0,1,.5-.19.77.77,0,0,1,.29.05Z"/><path class="b" d="M119.95,72.57V72h0a1.07,1.07,0,0,1-.42.44,1.23,1.23,0,0,1-.63.16,1.12,1.12,0,0,1-.88-.39,1.62,1.62,0,0,1-.34-1.09A1.71,1.71,0,0,1,118,70a1.21,1.21,0,0,1,1-.44,1,1,0,0,1,.94.54h0V68.23h.26v4.34Zm0-1.78a1,1,0,0,0-.26-.69.89.89,0,0,0-.7-.29,1,1,0,0,0-.76.35,1.74,1.74,0,0,0,0,1.91.86.86,0,0,0,.7.33,1,1,0,0,0,.78-.31,1.11,1.11,0,0,0,.27-.76Z"/><path class="b" d="M121.43,72h0v1.87h-.26V69.63h.26v.6h0a1.14,1.14,0,0,1,.45-.5,1.23,1.23,0,0,1,.64-.18,1.07,1.07,0,0,1,.87.39,1.61,1.61,0,0,1,.31,1,1.85,1.85,0,0,1-.36,1.19,1.15,1.15,0,0,1-.95.45A1,1,0,0,1,121.43,72Zm0-1.09v.37a1.11,1.11,0,0,0,.28.76.93.93,0,0,0,.73.32.86.86,0,0,0,.73-.38,1.68,1.68,0,0,0,.28-1,1.36,1.36,0,0,0-.26-.87.83.83,0,0,0-.69-.32,1,1,0,0,0-.79.34A1.23,1.23,0,0,0,121.41,71Z"/><path class="b" d="M125.82,69.91a.52.52,0,0,0-.31-.1.68.68,0,0,0-.58.36,1.86,1.86,0,0,0-.23,1v1.38h-.26V69.63h.26v.65h0a1.06,1.06,0,0,1,.32-.52.75.75,0,0,1,.5-.19.77.77,0,0,1,.29.05Z"/><path class="b" d="M126.32,71.11a1.45,1.45,0,0,0,.28.95.94.94,0,0,0,.77.34,1.56,1.56,0,0,0,1-.36v.28a1.71,1.71,0,0,1-1,.32,1.15,1.15,0,0,1-.92-.41,1.71,1.71,0,0,1-.35-1.15,1.63,1.63,0,0,1,.37-1.08,1.17,1.17,0,0,1,.95-.44,1,1,0,0,1,.84.38,1.69,1.69,0,0,1,.29,1v.12Zm1.9-.24a1.31,1.31,0,0,0-.24-.79.76.76,0,0,0-.62-.28.92.92,0,0,0-.68.28,1.34,1.34,0,0,0-.33.79Z"/><path class="b" d="M129.06,72.44v-.32a1.09,1.09,0,0,0,.36.2,1.12,1.12,0,0,0,.37.07q.69,0,.69-.56a.44.44,0,0,0-.15-.33,1.78,1.78,0,0,0-.49-.28,1.69,1.69,0,0,1-.59-.38.7.7,0,0,1-.17-.48.71.71,0,0,1,.27-.58,1,1,0,0,1,.68-.22,1.28,1.28,0,0,1,.65.15V70a1.22,1.22,0,0,0-.68-.21.7.7,0,0,0-.47.15.49.49,0,0,0-.18.39.5.5,0,0,0,.11.34,1.5,1.5,0,0,0,.49.3,2.15,2.15,0,0,1,.63.38.64.64,0,0,1,.17.47.73.73,0,0,1-.26.58,1.06,1.06,0,0,1-.72.23A1.19,1.19,0,0,1,129.06,72.44Z"/><path class="b" d="M131.34,72.44v-.32a1.09,1.09,0,0,0,.36.2,1.12,1.12,0,0,0,.37.07q.69,0,.69-.56a.44.44,0,0,0-.15-.33,1.78,1.78,0,0,0-.49-.28,1.69,1.69,0,0,1-.59-.38.7.7,0,0,1-.17-.48.71.71,0,0,1,.27-.58,1,1,0,0,1,.68-.22,1.28,1.28,0,0,1,.65.15V70a1.22,1.22,0,0,0-.68-.21.7.7,0,0,0-.47.15.49.49,0,0,0-.18.39.5.5,0,0,0,.11.34,1.5,1.5,0,0,0,.49.3,2.15,2.15,0,0,1,.63.38.64.64,0,0,1,.17.47.73.73,0,0,1-.26.58,1.06,1.06,0,0,1-.72.23A1.19,1.19,0,0,1,131.34,72.44Z"/><path class="b" d="M137.38,68.19l.28-.09q.13.35.23.64h2.28V69h-5.09v-.25h2.49C137.5,68.51,137.44,68.33,137.38,68.19Zm-1.06,1,.24-.14c.19.24.35.46.48.64l-.25.15h1.28q.27-.37.54-.8l.26.14c-.14.21-.3.43-.48.67h1.34v2.73q0,.58-.58.57h-.64a1.53,1.53,0,0,0-.07-.29l.32,0h.31a.42.42,0,0,0,.3-.07.34.34,0,0,0,.08-.27V70.06h-3.7v3.16h-.28V69.81h1.3A7.06,7.06,0,0,0,136.32,69.15Zm.75,1.06.21.19q-.61.47-1.16.82a1.28,1.28,0,0,0-.19-.22A7.84,7.84,0,0,0,137.07,70.21Zm1.55,2.23h-2V71.07h2Zm-1.74-1.12v.87h1.47v-.87Zm1.07-.91.17-.19q.53.32,1.16.75l-.18.22Q138.6,70.81,137.94,70.41Z"/><path class="b" d="M143.31,73.15H143V71.46h-1.67a3.5,3.5,0,0,1-.62,1.78l-.27-.2a3.18,3.18,0,0,0,.52-1.11,7.12,7.12,0,0,0,.12-1.62V68.43h4.2V72.5q0,.65-.67.66H144a2.64,2.64,0,0,0-.05-.31l.63,0c.3,0,.44-.12.43-.39v-1h-1.69Zm-1.92-2.83q0,.38,0,.88H143V70.08h-1.63Zm0-1.62v1.12H143V68.7Zm3.62,0h-1.69v1.12H145Zm-1.69,1.38V71.2H145V70.08Z"/><path class="b" d="M146.16,69.08h4.61v.28h-2.15v1.41h2V71h-2v1.59H151v.28h-5.06v-.28h2.38V71h-2v-.28h2V69.36h-2.17Zm2-.86.27-.1q.25.48.38.78l-.29.11A6.92,6.92,0,0,0,148.15,68.22Z"/><path class="b" d="M151.35,70.63h2.33v.24h-.89v.68h.83v.23h-.83v.86a3.18,3.18,0,0,0,.89.13l1.31,0,1.48,0a2.21,2.21,0,0,0-.11.29h-.69q-1.46,0-2,0a1.77,1.77,0,0,1-1.75-.83,3,3,0,0,1-.39,1,1.4,1.4,0,0,0-.21-.19,3.15,3.15,0,0,0,.43-1.77H152c0,.21,0,.4,0,.57a1.67,1.67,0,0,0,.58.72V70.87h-1.18Zm.34-2.28h1.74v1.8h-1.74Zm.27.23v.55h1.2v-.55Zm0,.78v.55h1.2v-.55Zm4.12,3.14q-.48-.43-1.06-.91a2,2,0,0,1-1.19,1l-.16-.23a2.19,2.19,0,0,0,1-.68,1.86,1.86,0,0,0,.25-1.11V69.9h.27v.68a3.2,3.2,0,0,1-.08.76l1.17.94Zm-2.26-4.12h2.52v.24h-1.19l-.13.71h1.06v2.13h-.27v-1.9h-1.54v1.9H154V69.33h.73l.13-.71h-1.05Z"/><path class="b" d="M158.75,72.57V68.46h1.08a1.1,1.1,0,0,1,.77.26.89.89,0,0,1,.29.69,1,1,0,0,1-.72,1h0a1,1,0,0,1,.67.3,1,1,0,0,1,.25.67,1.13,1.13,0,0,1-.33.85,1.23,1.23,0,0,1-.89.33Zm.28-3.84v1.59h.57a1.07,1.07,0,0,0,.71-.23.78.78,0,0,0,.27-.62q0-.74-.87-.74Zm0,1.84v1.74h.76a1.07,1.07,0,0,0,.74-.23.84.84,0,0,0,.26-.66q0-.85-1.15-.85Z"/><path class="b" d="M161.69,72.57v-.19a1.85,1.85,0,0,1,0-.35,1.12,1.12,0,0,1,.1-.28,1.26,1.26,0,0,1,.16-.24,2.13,2.13,0,0,1,.22-.23l.29-.23.35-.26.35-.26a1.89,1.89,0,0,0,.28-.28,1.24,1.24,0,0,0,.19-.33,1.15,1.15,0,0,0,.07-.42.78.78,0,0,0-.86-.86,1.23,1.23,0,0,0-.53.12,2.19,2.19,0,0,0-.5.33v-.31a2,2,0,0,1,.51-.28,1.58,1.58,0,0,1,.57-.1,1.25,1.25,0,0,1,.45.08,1,1,0,0,1,.34.21.92.92,0,0,1,.22.33,1.17,1.17,0,0,1,.08.44,1.42,1.42,0,0,1-.08.5,1.45,1.45,0,0,1-.22.4,2.08,2.08,0,0,1-.33.33l-.4.3-.47.35a2.1,2.1,0,0,0-.31.3,1,1,0,0,0-.17.3,1.1,1.1,0,0,0-.05.36v0h2v.24Z"/><path class="b" d="M167.21,71.25l.28.06q-.05.24-.11.45a1.58,1.58,0,0,0,1.31.94V71h-2.43v-.25h5V71H169v.68h1.9V72H169v.75h.08l.93,0h1.31a1.39,1.39,0,0,0-.09.29l-2.16,0a1.87,1.87,0,0,1-1.79-.95,2.65,2.65,0,0,1-.93,1.19l-.2-.21A2.49,2.49,0,0,0,167.21,71.25Zm-.2-2.88h3.48v1.86H167Zm.29.24v.56h2.91v-.56Zm0,.8V70h2.91v-.57Z"/><path class="b" d="M171.6,70.36h5.15v.32H171.6Z"/><path class="b" d="M177.25,72.66a1.12,1.12,0,0,0-.22-.13,9.88,9.88,0,0,0,.56-.93l.22.11Q177.56,72.19,177.25,72.66Zm1-4.56h.28v.57h1.14v.25H178.5v.6h.9v.24h-2.17v-.24h1v-.6h-1.16v-.25h1.16Zm-1.15,3h2.58v.25h-1.13v1.21q0,.55-.51.55h-.46a2.28,2.28,0,0,0,0-.29l.41,0a.36.36,0,0,0,.26-.06.29.29,0,0,0,.07-.23v-1.2h-1.16Zm.28-.79h2v.24h-2Zm1.51,1.42.21-.12c.16.23.31.47.46.71l-.23.13C179.13,72.16,179,71.92,178.85,71.74Zm1.77-2.18h.28c0,.26,0,.52,0,.78a3.76,3.76,0,0,0,1.29,2.6l-.21.23a3.51,3.51,0,0,1-1.2-2.27,3.58,3.58,0,0,1-1.36,2.33,1.76,1.76,0,0,0-.22-.22,3.45,3.45,0,0,0,1.4-2.53Q180.63,70.06,180.63,69.56Zm-.76.64-.26-.12a9,9,0,0,0,.69-2l.28,0q-.12.45-.22.78H182v.3l-.31.92-.26-.09.32-.87h-1.51Q180.08,69.72,179.87,70.2Z"/><path class="b" d="M182.55,71.71l-.12-.31a7.28,7.28,0,0,0,.77-1.93v0h-.67V69.2h.67V68.14h.28V69.2H184v.25h-.58v.87l.14-.12q.33.31.61.61L184,71l-.54-.6v2.83h-.28V70.1A6,6,0,0,1,182.55,71.71Zm1.41.09h1.57a2.54,2.54,0,0,0,.07-.54h-1.22V69.53h2.76v1.73h-1.27a3.44,3.44,0,0,1-.06.54h1.68V72h-1.56a2.08,2.08,0,0,0,1.63.85,1.8,1.8,0,0,0-.14.28,2.29,2.29,0,0,1-1.72-1q-.3.75-1.7,1.11a1.56,1.56,0,0,0-.17-.27q1.38-.3,1.61-.93H184Zm.08-3.17H185v-.51h.27v.51h1v-.51h.27v.51h1v.24h-1v.43h-.27v-.43h-1v.43H185v-.43H184Zm.62,1.13v.51h2.2v-.51Zm0,.74V71h2.2v-.51Z"/><path class="b" d="M188,72.34l-.08-.31.77-.19V69.72h-.71v-.26h.71V68.15h.28v1.31h.68v.26h-.68v2l.42-.12.32-.09a2.12,2.12,0,0,0,0,.29Q188.75,72.1,188,72.34Zm1.58-1.58h1.23a12.33,12.33,0,0,0,.06-1.42h-1v-.26h1c0-.1,0-.23,0-.37v-.56h.29v.56c0,.14,0,.26,0,.37h1.32v1.68H193V71h-1.77A3.14,3.14,0,0,0,193,72.87a2.93,2.93,0,0,0-.2.28,3.36,3.36,0,0,1-1.79-2,3.42,3.42,0,0,1-1.57,2.12,2.4,2.4,0,0,0-.23-.24,3.1,3.1,0,0,0,1.56-2h-1.19Zm2.62-1.42h-1q0,.88-.06,1.42h1.09Z"/><path class="b" d="M193.5,71.06a2.62,2.62,0,0,0-.2-.29,8.61,8.61,0,0,0,1.5-2.59l.3.09q-.28.66-.65,1.34v3.61h-.29V70.11A10.21,10.21,0,0,1,193.5,71.06Zm1.47.59a2.39,2.39,0,0,0-.19-.27,10.17,10.17,0,0,0,1.3-.74V68.22h.3v2.2a7.75,7.75,0,0,0,1.55-1.57l.27.16a9.39,9.39,0,0,1-1.82,1.76v1.48a.48.48,0,0,0,.11.38.56.56,0,0,0,.4.11h.59q.49,0,.56-.36a8.31,8.31,0,0,0,.13-.93l.29.1q-.06.56-.12.92-.1.58-.84.57h-.69q-.76,0-.73-.75V71A10.92,10.92,0,0,1,195,71.64Z"/><path class="b" d="M108.38,74.61l.28.06a4.18,4.18,0,0,1-.24.43H110v.24h-1.75a4,4,0,0,1-.65.68l-.21-.2A3.31,3.31,0,0,0,108.38,74.61Zm1.35,1.21.25-.1,0,.06.19.41h2.12v.73H112v-.49h-4.15v.49h-.28v-.74h2.3Zm-1.51,1.09h3.45v1H108.5v.47h3.29v1.31h-.28v-.21h-3v.22h-.28Zm.28.24v.56h2.89v-.56Zm3,1.51h-3v.63h3ZM109,76c-.16-.18-.31-.34-.45-.48l.19-.15a6.22,6.22,0,0,1,.46.46Zm1.72-1.4.28.05a4.27,4.27,0,0,1-.22.44h1.72v.24h-1.86a4.18,4.18,0,0,1-.37.48l-.23-.17A3,3,0,0,0,110.75,74.61Zm.88,1.24-.19.16c-.14-.16-.29-.32-.45-.48l.18-.15C111.33,75.55,111.49,75.7,111.63,75.85Z"/><path class="b" d="M112.9,76.89h.67V75.36h-.72v-.25h1.71v.25h-.71v1.53h.67v.25h-.67v1.59l.71-.17a2.32,2.32,0,0,0,0,.29q-.88.18-1.69.38l-.07-.29.76-.16V77.14h-.67Zm1.87,1.26h1.35v-.74h-1.23V74.92h2.75v2.49H116.4v.74h1.35v.25H116.4v.88H118v.25h-3.51v-.25h1.65V78.4h-1.35Zm.39-3V76h1v-.87Zm0,1.12v.87h1v-.87Zm2.19-1.12h-1V76h1Zm-1,1.12v.87h1v-.87Z"/><path class="b" d="M118.47,75.51H119q.16-.49.25-.87l.29.06-.11.33-.15.47h1.08v4.12h-.28v-.43h-1.35v.47h-.28Zm.28.26v1.44h1.35V75.78Zm0,1.69v1.47h1.35V77.47Zm2.1-.8-.25-.16a7.83,7.83,0,0,0,.81-1.87l.29.07q-.14.42-.29.78h1.75q0,1.86-.1,3.23a.79.79,0,0,1-.91.89h-.85a2.73,2.73,0,0,0-.07-.3l.87,0a.57.57,0,0,0,.67-.64q0-.86.09-2.93H121.3A6.76,6.76,0,0,1,120.86,76.67Zm.23.24.22-.15q.37.45.86,1.11l-.24.18Q121.49,77.42,121.09,76.91Z"/><path class="b" d="M123.93,75.59h4.61v.28h-2.15v1.41h2v.28h-2v1.59h2.38v.28h-5.06v-.28h2.38V77.56h-2v-.28h2V75.87h-2.17Zm2-.86.27-.1q.25.48.38.78l-.29.11A6.92,6.92,0,0,0,125.93,74.73Z"/><path class="b" d="M129.13,77.14h2.33v.24h-.89v.68h.83v.23h-.83v.86a3.18,3.18,0,0,0,.89.13l1.31,0,1.48,0a2.21,2.21,0,0,0-.11.29h-.69q-1.46,0-2,0a1.77,1.77,0,0,1-1.75-.83,3,3,0,0,1-.39,1,1.4,1.4,0,0,0-.21-.19,3.15,3.15,0,0,0,.43-1.77h.26c0,.21,0,.4,0,.57a1.67,1.67,0,0,0,.58.72V77.38h-1.18Zm.34-2.28h1.74v1.8h-1.74Zm.27.23v.55h1.2v-.55Zm0,.78v.55h1.2v-.55ZM133.85,79q-.48-.43-1.06-.91a2,2,0,0,1-1.19,1l-.16-.23a2.19,2.19,0,0,0,1-.68,1.86,1.86,0,0,0,.25-1.11v-.67H133v.68a3.2,3.2,0,0,1-.08.76l1.17.94Zm-2.26-4.12h2.52v.24h-1.19l-.13.71h1.06V78h-.27v-1.9h-1.54V78h-.26V75.84h.73l.13-.71h-1.05Z"/><rect class="a" x="106" y="86" width="16" height="5"/><rect class="a" x="169" y="86" width="14" height="5"/><rect class="a" x="187" y="86" width="14" height="5"/><rect class="a" x="209" width="96" height="64"/><path class="b" d="M214.86,72.57h-.24l-.91-3.09a1.86,1.86,0,0,1-.08-.39h0a1.92,1.92,0,0,1-.09.38l-1,3.09h-.24l-1.22-4.11h.32l.94,3.29c0,.15.07.27.09.36h0a2.64,2.64,0,0,1,.1-.36l1-3.29h.14l.93,3.29c0,.15.07.27.09.36h0a1.54,1.54,0,0,1,0-.18l1-3.47h.31Z"/><path class="b" d="M217.65,72.64a1.28,1.28,0,0,1-1-.42,1.83,1.83,0,0,1,0-2.24,1.35,1.35,0,0,1,1-.41,1.26,1.26,0,0,1,1,.41,1.65,1.65,0,0,1,.36,1.13,1.62,1.62,0,0,1-.37,1.11A1.28,1.28,0,0,1,217.65,72.64Zm0-2.83a1,1,0,0,0-.83.35,1.42,1.42,0,0,0-.31,1,1.36,1.36,0,0,0,.3.92,1,1,0,0,0,.82.35,1,1,0,0,0,.82-.34,1.75,1.75,0,0,0,0-1.91A1,1,0,0,0,217.67,69.8Z"/><path class="b" d="M221.14,69.91a.52.52,0,0,0-.31-.1.68.68,0,0,0-.58.36,1.86,1.86,0,0,0-.23,1v1.38h-.26V69.63H220v.65h0a1.06,1.06,0,0,1,.32-.52.75.75,0,0,1,.5-.19.77.77,0,0,1,.29.05Z"/><path class="b" d="M223.66,72.57V72h0a1.07,1.07,0,0,1-.42.44,1.23,1.23,0,0,1-.63.16,1.12,1.12,0,0,1-.88-.39,1.62,1.62,0,0,1-.34-1.09,1.71,1.71,0,0,1,.37-1.15,1.21,1.21,0,0,1,1-.44,1,1,0,0,1,.94.54h0V68.23h.26v4.34Zm0-1.78a1,1,0,0,0-.26-.69.89.89,0,0,0-.7-.29,1,1,0,0,0-.76.35,1.74,1.74,0,0,0,0,1.91.86.86,0,0,0,.7.33,1,1,0,0,0,.78-.31,1.11,1.11,0,0,0,.27-.76Z"/><path class="b" d="M225.14,72h0v1.87h-.26V69.63h.26v.6h0a1.14,1.14,0,0,1,.45-.5,1.23,1.23,0,0,1,.64-.18,1.07,1.07,0,0,1,.87.39,1.61,1.61,0,0,1,.31,1,1.85,1.85,0,0,1-.36,1.19,1.15,1.15,0,0,1-.95.45A1,1,0,0,1,225.14,72Zm0-1.09v.37a1.11,1.11,0,0,0,.28.76.93.93,0,0,0,.73.32.86.86,0,0,0,.73-.38,1.68,1.68,0,0,0,.28-1,1.36,1.36,0,0,0-.26-.87.83.83,0,0,0-.69-.32,1,1,0,0,0-.79.34A1.23,1.23,0,0,0,225.13,71Z"/><path class="b" d="M229.53,69.91a.52.52,0,0,0-.31-.1.68.68,0,0,0-.58.36,1.86,1.86,0,0,0-.23,1v1.38h-.26V69.63h.26v.65h0a1.06,1.06,0,0,1,.32-.52.75.75,0,0,1,.5-.19.77.77,0,0,1,.29.05Z"/><path class="b" d="M230,71.11a1.45,1.45,0,0,0,.28.95.94.94,0,0,0,.77.34,1.56,1.56,0,0,0,1-.36v.28a1.71,1.71,0,0,1-1,.32,1.15,1.15,0,0,1-.92-.41,1.71,1.71,0,0,1-.35-1.15,1.63,1.63,0,0,1,.37-1.08,1.17,1.17,0,0,1,.95-.44,1,1,0,0,1,.84.38,1.69,1.69,0,0,1,.29,1v.12Zm1.9-.24a1.31,1.31,0,0,0-.24-.79.76.76,0,0,0-.62-.28.92.92,0,0,0-.68.28,1.34,1.34,0,0,0-.33.79Z"/><path class="b" d="M232.78,72.44v-.32a1.09,1.09,0,0,0,.36.2,1.12,1.12,0,0,0,.37.07q.69,0,.69-.56a.44.44,0,0,0-.15-.33,1.78,1.78,0,0,0-.49-.28,1.69,1.69,0,0,1-.59-.38.7.7,0,0,1-.17-.48.71.71,0,0,1,.27-.58,1,1,0,0,1,.68-.22,1.28,1.28,0,0,1,.65.15V70a1.22,1.22,0,0,0-.68-.21.7.7,0,0,0-.47.15.49.49,0,0,0-.18.39.5.5,0,0,0,.11.34,1.5,1.5,0,0,0,.49.3,2.15,2.15,0,0,1,.63.38.64.64,0,0,1,.17.47.73.73,0,0,1-.26.58,1.06,1.06,0,0,1-.72.23A1.19,1.19,0,0,1,232.78,72.44Z"/><path class="b" d="M235.05,72.44v-.32a1.09,1.09,0,0,0,.36.2,1.12,1.12,0,0,0,.37.07q.69,0,.69-.56a.44.44,0,0,0-.15-.33,1.78,1.78,0,0,0-.49-.28,1.69,1.69,0,0,1-.59-.38.7.7,0,0,1-.17-.48.71.71,0,0,1,.27-.58,1,1,0,0,1,.68-.22,1.28,1.28,0,0,1,.65.15V70a1.22,1.22,0,0,0-.68-.21.7.7,0,0,0-.47.15.49.49,0,0,0-.18.39.5.5,0,0,0,.11.34,1.5,1.5,0,0,0,.49.3,2.15,2.15,0,0,1,.63.38.64.64,0,0,1,.17.47.73.73,0,0,1-.26.58,1.06,1.06,0,0,1-.72.23A1.19,1.19,0,0,1,235.05,72.44Z"/><path class="b" d="M241.09,68.19l.28-.09q.13.35.23.64h2.28V69h-5.09v-.25h2.49C241.21,68.51,241.15,68.33,241.09,68.19Zm-1.06,1,.24-.14c.19.24.35.46.48.64l-.25.15h1.28q.27-.37.54-.8l.26.14c-.14.21-.3.43-.48.67h1.34v2.73q0,.58-.58.57h-.64a1.53,1.53,0,0,0-.07-.29l.32,0h.31a.42.42,0,0,0,.3-.07.34.34,0,0,0,.08-.27V70.06h-3.7v3.16h-.28V69.81h1.3A7.06,7.06,0,0,0,240,69.15Zm.75,1.06.21.19q-.61.47-1.16.82a1.28,1.28,0,0,0-.19-.22A7.84,7.84,0,0,0,240.78,70.21Zm1.55,2.23h-2V71.07h2Zm-1.74-1.12v.87h1.47v-.87Zm1.07-.91.17-.19q.53.32,1.16.75l-.18.22Q242.31,70.81,241.66,70.41Z"/><path class="b" d="M247,73.15h-.29V71.46h-1.67a3.5,3.5,0,0,1-.62,1.78l-.27-.2a3.18,3.18,0,0,0,.52-1.11,7.12,7.12,0,0,0,.12-1.62V68.43H249V72.5q0,.65-.67.66h-.63a2.64,2.64,0,0,0-.05-.31l.63,0c.3,0,.44-.12.43-.39v-1H247Zm-1.92-2.83q0,.38,0,.88h1.65V70.08H245.1Zm0-1.62v1.12h1.63V68.7Zm3.62,0H247v1.12h1.69ZM247,70.08V71.2h1.69V70.08Z"/><path class="b" d="M249.87,69.08h4.61v.28h-2.15v1.41h2V71h-2v1.59h2.38v.28h-5.06v-.28H252V71h-2v-.28h2V69.36h-2.17Zm2-.86.27-.1q.25.48.38.78l-.29.11A6.92,6.92,0,0,0,251.87,68.22Z"/><path class="b" d="M255.07,70.63h2.33v.24h-.89v.68h.83v.23h-.83v.86a3.18,3.18,0,0,0,.89.13l1.31,0,1.48,0a2.21,2.21,0,0,0-.11.29h-.69q-1.46,0-2,0a1.77,1.77,0,0,1-1.75-.83,3,3,0,0,1-.39,1A1.4,1.4,0,0,0,255,73a3.15,3.15,0,0,0,.43-1.77h.26c0,.21,0,.4,0,.57a1.67,1.67,0,0,0,.58.72V70.87h-1.18Zm.34-2.28h1.74v1.8h-1.74Zm.27.23v.55h1.2v-.55Zm0,.78v.55h1.2v-.55Zm4.12,3.14q-.48-.43-1.06-.91a2,2,0,0,1-1.19,1l-.16-.23a2.19,2.19,0,0,0,1-.68,1.86,1.86,0,0,0,.25-1.11V69.9h.27v.68a3.2,3.2,0,0,1-.08.76l1.17.94Zm-2.26-4.12h2.52v.24h-1.19l-.13.71h1.06v2.13h-.27v-1.9H258v1.9h-.26V69.33h.73l.13-.71h-1.05Z"/><path class="b" d="M262.46,72.57V68.46h1.08a1.1,1.1,0,0,1,.77.26.89.89,0,0,1,.29.69,1,1,0,0,1-.72,1h0a1,1,0,0,1,.67.3,1,1,0,0,1,.25.67,1.13,1.13,0,0,1-.33.85,1.23,1.23,0,0,1-.89.33Zm.28-3.84v1.59h.57a1.07,1.07,0,0,0,.71-.23.78.78,0,0,0,.27-.62q0-.74-.87-.74Zm0,1.84v1.74h.76a1.07,1.07,0,0,0,.74-.23.84.84,0,0,0,.26-.66q0-.85-1.15-.85Z"/><path class="b" d="M265.4,72.57v-.19a1.85,1.85,0,0,1,0-.35,1.12,1.12,0,0,1,.1-.28,1.26,1.26,0,0,1,.16-.24,2.13,2.13,0,0,1,.22-.23l.29-.23.35-.26.35-.26a1.89,1.89,0,0,0,.28-.28,1.24,1.24,0,0,0,.19-.33,1.15,1.15,0,0,0,.07-.42.78.78,0,0,0-.86-.86,1.23,1.23,0,0,0-.53.12,2.19,2.19,0,0,0-.5.33v-.31a2,2,0,0,1,.51-.28,1.58,1.58,0,0,1,.57-.1,1.25,1.25,0,0,1,.45.08,1,1,0,0,1,.34.21.92.92,0,0,1,.22.33,1.17,1.17,0,0,1,.08.44,1.42,1.42,0,0,1-.08.5,1.45,1.45,0,0,1-.22.4,2.08,2.08,0,0,1-.33.33l-.4.3-.47.35a2.1,2.1,0,0,0-.31.3,1,1,0,0,0-.17.3,1.1,1.1,0,0,0-.05.36v0h2v.24Z"/><path class="b" d="M270.93,71.25l.28.06q-.05.24-.11.45a1.58,1.58,0,0,0,1.31.94V71H270v-.25h5V71H272.7v.68h1.9V72h-1.9v.75h.08l.93,0H275a1.39,1.39,0,0,0-.09.29l-2.16,0A1.87,1.87,0,0,1,271,72a2.65,2.65,0,0,1-.93,1.19l-.2-.21A2.49,2.49,0,0,0,270.93,71.25Zm-.2-2.88h3.48v1.86h-3.48Zm.29.24v.56h2.91v-.56Zm0,.8V70h2.91v-.57Z"/><path class="b" d="M275.32,70.36h5.15v.32h-5.15Z"/><path class="b" d="M281,72.66a1.12,1.12,0,0,0-.22-.13,9.88,9.88,0,0,0,.56-.93l.22.11Q281.27,72.19,281,72.66Zm1-4.56h.28v.57h1.14v.25h-1.14v.6h.9v.24h-2.17v-.24h1v-.6h-1.16v-.25h1.16Zm-1.15,3h2.58v.25h-1.13v1.21q0,.55-.51.55h-.46a2.28,2.28,0,0,0,0-.29l.41,0a.36.36,0,0,0,.26-.06.29.29,0,0,0,.07-.23v-1.2h-1.16Zm.28-.79h2v.24h-2Zm1.51,1.42.21-.12c.16.23.31.47.46.71l-.23.13C282.84,72.16,282.69,71.92,282.57,71.74Zm1.77-2.18h.28c0,.26,0,.52,0,.78a3.76,3.76,0,0,0,1.29,2.6l-.21.23a3.51,3.51,0,0,1-1.2-2.27,3.58,3.58,0,0,1-1.36,2.33,1.76,1.76,0,0,0-.22-.22,3.45,3.45,0,0,0,1.4-2.53Q284.34,70.06,284.34,69.56Zm-.76.64-.26-.12a9,9,0,0,0,.69-2l.28,0q-.12.45-.22.78h1.67v.3l-.31.92-.26-.09.32-.87H284Q283.8,69.72,283.58,70.2Z"/><path class="b" d="M286.27,71.71l-.12-.31a7.28,7.28,0,0,0,.77-1.93v0h-.67V69.2h.67V68.14h.28V69.2h.58v.25h-.58v.87l.14-.12q.33.31.61.61l-.21.19-.54-.6v2.83h-.28V70.1A6,6,0,0,1,286.27,71.71Zm1.41.09h1.57a2.54,2.54,0,0,0,.07-.54h-1.22V69.53h2.76v1.73h-1.27a3.44,3.44,0,0,1-.06.54h1.68V72h-1.56a2.08,2.08,0,0,0,1.63.85,1.8,1.8,0,0,0-.14.28,2.29,2.29,0,0,1-1.72-1q-.3.75-1.7,1.11a1.56,1.56,0,0,0-.17-.27q1.38-.3,1.61-.93h-1.49Zm.08-3.17h.92v-.51H289v.51h1v-.51h.27v.51h1v.24h-1v.43H290v-.43h-1v.43h-.27v-.43h-.92Zm.62,1.13v.51h2.2v-.51Zm0,.74V71h2.2v-.51Z"/><path class="b" d="M291.68,72.34,291.6,72l.77-.19V69.72h-.71v-.26h.71V68.15h.28v1.31h.68v.26h-.68v2l.42-.12.32-.09a2.12,2.12,0,0,0,0,.29Q292.47,72.1,291.68,72.34Zm1.58-1.58h1.23a12.33,12.33,0,0,0,.06-1.42h-1v-.26h1c0-.1,0-.23,0-.37v-.56h.29v.56c0,.14,0,.26,0,.37h1.32v1.68h.52V71h-1.77a3.14,3.14,0,0,0,1.77,1.85,2.93,2.93,0,0,0-.2.28,3.36,3.36,0,0,1-1.79-2,3.42,3.42,0,0,1-1.57,2.12,2.4,2.4,0,0,0-.23-.24,3.1,3.1,0,0,0,1.56-2h-1.19Zm2.62-1.42h-1q0,.88-.06,1.42h1.09Z"/><path class="b" d="M297.21,71.06a2.62,2.62,0,0,0-.2-.29,8.61,8.61,0,0,0,1.5-2.59l.3.09q-.28.66-.65,1.34v3.61h-.29V70.11A10.21,10.21,0,0,1,297.21,71.06Zm1.47.59a2.39,2.39,0,0,0-.19-.27,10.17,10.17,0,0,0,1.3-.74V68.22h.3v2.2a7.75,7.75,0,0,0,1.55-1.57l.27.16a9.39,9.39,0,0,1-1.82,1.76v1.48a.48.48,0,0,0,.11.38.56.56,0,0,0,.4.11h.59q.49,0,.56-.36a8.31,8.31,0,0,0,.13-.93l.29.1q-.06.56-.12.92-.1.58-.84.57h-.69q-.76,0-.73-.75V71A10.92,10.92,0,0,1,298.68,71.64Z"/><path class="b" d="M212.09,74.61l.28.06a4.18,4.18,0,0,1-.24.43h1.59v.24H212a4,4,0,0,1-.65.68l-.21-.2A3.31,3.31,0,0,0,212.09,74.61Zm1.35,1.21.25-.1,0,.06.19.41H216v.73h-.28v-.49H211.6v.49h-.28v-.74h2.3Zm-1.51,1.09h3.45v1h-3.17v.47h3.29v1.31h-.28v-.21h-3v.22h-.28Zm.28.24v.56h2.89v-.56Zm3,1.51h-3v.63h3ZM212.74,76c-.16-.18-.31-.34-.45-.48l.19-.15a6.22,6.22,0,0,1,.46.46Zm1.72-1.4.28.05a4.27,4.27,0,0,1-.22.44h1.72v.24h-1.86a4.18,4.18,0,0,1-.37.48l-.23-.17A3,3,0,0,0,214.46,74.61Zm.88,1.24-.19.16c-.14-.16-.29-.32-.45-.48l.18-.15C215,75.55,215.2,75.7,215.34,75.85Z"/><path class="b" d="M216.61,76.89h.67V75.36h-.72v-.25h1.71v.25h-.71v1.53h.67v.25h-.67v1.59l.71-.17a2.32,2.32,0,0,0,0,.29q-.88.18-1.69.38l-.07-.29.76-.16V77.14h-.67Zm1.87,1.26h1.35v-.74H218.6V74.92h2.75v2.49h-1.23v.74h1.35v.25h-1.35v.88h1.57v.25h-3.51v-.25h1.65V78.4h-1.35Zm.39-3V76h1v-.87Zm0,1.12v.87h1v-.87Zm2.19-1.12h-1V76h1Zm-1,1.12v.87h1v-.87Z"/><path class="b" d="M222.18,75.51h.55q.16-.49.25-.87l.29.06-.11.33-.15.47h1.08v4.12h-.28v-.43h-1.35v.47h-.28Zm.28.26v1.44h1.35V75.78Zm0,1.69v1.47h1.35V77.47Zm2.1-.8-.25-.16a7.83,7.83,0,0,0,.81-1.87l.29.07q-.14.42-.29.78h1.75q0,1.86-.1,3.23a.79.79,0,0,1-.91.89H225a2.73,2.73,0,0,0-.07-.3l.87,0a.57.57,0,0,0,.67-.64q0-.86.09-2.93H225A6.76,6.76,0,0,1,224.57,76.67Zm.23.24.22-.15q.37.45.86,1.11l-.24.18Q225.2,77.42,224.8,76.91Z"/><path class="b" d="M227.65,75.59h4.61v.28h-2.15v1.41h2v.28h-2v1.59h2.38v.28h-5.06v-.28h2.38V77.56h-2v-.28h2V75.87h-2.17Zm2-.86.27-.1q.25.48.38.78l-.29.11A6.92,6.92,0,0,0,229.64,74.73Z"/><path class="b" d="M232.84,77.14h2.33v.24h-.89v.68h.83v.23h-.83v.86a3.18,3.18,0,0,0,.89.13l1.31,0,1.48,0a2.21,2.21,0,0,0-.11.29h-.69q-1.46,0-2,0a1.77,1.77,0,0,1-1.75-.83,3,3,0,0,1-.39,1,1.4,1.4,0,0,0-.21-.19,3.15,3.15,0,0,0,.43-1.77h.26c0,.21,0,.4,0,.57A1.67,1.67,0,0,0,234,79V77.38h-1.18Zm.34-2.28h1.74v1.8h-1.74Zm.27.23v.55h1.2v-.55Zm0,.78v.55h1.2v-.55ZM237.57,79q-.48-.43-1.06-.91a2,2,0,0,1-1.19,1l-.16-.23a2.19,2.19,0,0,0,1-.68,1.86,1.86,0,0,0,.25-1.11v-.67h.27v.68a3.2,3.2,0,0,1-.08.76l1.17.94Zm-2.26-4.12h2.52v.24h-1.19l-.13.71h1.06V78h-.27v-1.9h-1.54V78h-.26V75.84h.73l.13-.71h-1.05Z"/><rect class="a" x="210" y="86" width="16" height="5"/><rect class="a" x="272" y="86" width="14" height="5"/><rect class="a" x="291" y="86" width="14" height="5"/><rect class="a" x="315" width="96" height="64"/><path class="b" d="M320.66,72.57h-.24l-.91-3.09a1.86,1.86,0,0,1-.08-.39h0a1.92,1.92,0,0,1-.09.38l-1,3.09h-.24l-1.22-4.11h.32l.94,3.29c0,.15.07.27.09.36h0a2.64,2.64,0,0,1,.1-.36l1-3.29h.14l.93,3.29c0,.15.07.27.09.36h0a1.54,1.54,0,0,1,0-.18l1-3.47h.31Z"/><path class="b" d="M323.45,72.64a1.28,1.28,0,0,1-1-.42,1.83,1.83,0,0,1,0-2.24,1.35,1.35,0,0,1,1-.41,1.26,1.26,0,0,1,1,.41,1.65,1.65,0,0,1,.36,1.13,1.62,1.62,0,0,1-.37,1.11A1.28,1.28,0,0,1,323.45,72.64Zm0-2.83a1,1,0,0,0-.83.35,1.42,1.42,0,0,0-.31,1,1.36,1.36,0,0,0,.3.92,1,1,0,0,0,.82.35,1,1,0,0,0,.82-.34,1.75,1.75,0,0,0,0-1.91A1,1,0,0,0,323.47,69.8Z"/><path class="b" d="M326.94,69.91a.52.52,0,0,0-.31-.1.68.68,0,0,0-.58.36,1.86,1.86,0,0,0-.23,1v1.38h-.26V69.63h.26v.65h0a1.06,1.06,0,0,1,.32-.52.75.75,0,0,1,.5-.19.77.77,0,0,1,.29.05Z"/><path class="b" d="M329.46,72.57V72h0a1.07,1.07,0,0,1-.42.44,1.23,1.23,0,0,1-.63.16,1.12,1.12,0,0,1-.88-.39,1.62,1.62,0,0,1-.34-1.09,1.71,1.71,0,0,1,.37-1.15,1.21,1.21,0,0,1,1-.44,1,1,0,0,1,.94.54h0V68.23h.26v4.34Zm0-1.78a1,1,0,0,0-.26-.69.89.89,0,0,0-.7-.29,1,1,0,0,0-.76.35,1.74,1.74,0,0,0,0,1.91.86.86,0,0,0,.7.33,1,1,0,0,0,.78-.31,1.11,1.11,0,0,0,.27-.76Z"/><path class="b" d="M330.94,72h0v1.87h-.26V69.63h.26v.6h0a1.14,1.14,0,0,1,.45-.5,1.23,1.23,0,0,1,.64-.18,1.07,1.07,0,0,1,.87.39,1.61,1.61,0,0,1,.31,1,1.85,1.85,0,0,1-.36,1.19,1.15,1.15,0,0,1-.95.45A1,1,0,0,1,330.94,72Zm0-1.09v.37a1.11,1.11,0,0,0,.28.76.93.93,0,0,0,.73.32.86.86,0,0,0,.73-.38,1.68,1.68,0,0,0,.28-1,1.36,1.36,0,0,0-.26-.87.83.83,0,0,0-.69-.32,1,1,0,0,0-.79.34A1.23,1.23,0,0,0,330.93,71Z"/><path class="b" d="M335.33,69.91a.52.52,0,0,0-.31-.1.68.68,0,0,0-.58.36,1.86,1.86,0,0,0-.23,1v1.38h-.26V69.63h.26v.65h0a1.06,1.06,0,0,1,.32-.52.75.75,0,0,1,.5-.19.77.77,0,0,1,.29.05Z"/><path class="b" d="M335.83,71.11a1.45,1.45,0,0,0,.28.95.94.94,0,0,0,.77.34,1.56,1.56,0,0,0,1-.36v.28a1.71,1.71,0,0,1-1,.32,1.15,1.15,0,0,1-.92-.41,1.71,1.71,0,0,1-.35-1.15,1.63,1.63,0,0,1,.37-1.08,1.17,1.17,0,0,1,.95-.44,1,1,0,0,1,.84.38,1.69,1.69,0,0,1,.29,1v.12Zm1.9-.24a1.31,1.31,0,0,0-.24-.79.76.76,0,0,0-.62-.28.92.92,0,0,0-.68.28,1.34,1.34,0,0,0-.33.79Z"/><path class="b" d="M338.58,72.44v-.32a1.09,1.09,0,0,0,.36.2,1.12,1.12,0,0,0,.37.07q.69,0,.69-.56a.44.44,0,0,0-.15-.33,1.78,1.78,0,0,0-.49-.28,1.69,1.69,0,0,1-.59-.38.7.7,0,0,1-.17-.48.71.71,0,0,1,.27-.58,1,1,0,0,1,.68-.22,1.28,1.28,0,0,1,.65.15V70a1.22,1.22,0,0,0-.68-.21A.7.7,0,0,0,339,70a.49.49,0,0,0-.18.39.5.5,0,0,0,.11.34,1.5,1.5,0,0,0,.49.3,2.15,2.15,0,0,1,.63.38.64.64,0,0,1,.17.47.73.73,0,0,1-.26.58,1.06,1.06,0,0,1-.72.23A1.19,1.19,0,0,1,338.58,72.44Z"/><path class="b" d="M340.85,72.44v-.32a1.09,1.09,0,0,0,.36.2,1.12,1.12,0,0,0,.37.07q.69,0,.69-.56a.44.44,0,0,0-.15-.33,1.78,1.78,0,0,0-.49-.28,1.69,1.69,0,0,1-.59-.38.7.7,0,0,1-.17-.48.71.71,0,0,1,.27-.58,1,1,0,0,1,.68-.22,1.28,1.28,0,0,1,.65.15V70a1.22,1.22,0,0,0-.68-.21.7.7,0,0,0-.47.15.49.49,0,0,0-.18.39.5.5,0,0,0,.11.34,1.5,1.5,0,0,0,.49.3,2.15,2.15,0,0,1,.63.38.64.64,0,0,1,.17.47.73.73,0,0,1-.26.58,1.06,1.06,0,0,1-.72.23A1.19,1.19,0,0,1,340.85,72.44Z"/><path class="b" d="M346.89,68.19l.28-.09q.13.35.23.64h2.28V69h-5.09v-.25h2.49C347,68.51,347,68.33,346.89,68.19Zm-1.06,1,.24-.14c.19.24.35.46.48.64l-.25.15h1.28q.27-.37.54-.8l.26.14c-.14.21-.3.43-.48.67h1.34v2.73q0,.58-.58.57H348a1.53,1.53,0,0,0-.07-.29l.32,0h.31a.42.42,0,0,0,.3-.07.34.34,0,0,0,.08-.27V70.06h-3.7v3.16H345V69.81h1.3A7.06,7.06,0,0,0,345.84,69.15Zm.75,1.06.21.19q-.61.47-1.16.82a1.28,1.28,0,0,0-.19-.22A7.84,7.84,0,0,0,346.58,70.21Zm1.55,2.23h-2V71.07h2Zm-1.74-1.12v.87h1.47v-.87Zm1.07-.91.17-.19q.53.32,1.16.75l-.18.22Q348.11,70.81,347.46,70.41Z"/><path class="b" d="M352.82,73.15h-.29V71.46h-1.67a3.5,3.5,0,0,1-.62,1.78L350,73a3.18,3.18,0,0,0,.52-1.11,7.12,7.12,0,0,0,.12-1.62V68.43h4.2V72.5q0,.65-.67.66h-.63a2.64,2.64,0,0,0-.05-.31l.63,0c.3,0,.44-.12.43-.39v-1h-1.69Zm-1.92-2.83q0,.38,0,.88h1.65V70.08H350.9Zm0-1.62v1.12h1.63V68.7Zm3.62,0h-1.69v1.12h1.69Zm-1.69,1.38V71.2h1.69V70.08Z"/><path class="b" d="M355.67,69.08h4.61v.28h-2.15v1.41h2V71h-2v1.59h2.38v.28h-5.06v-.28h2.38V71h-2v-.28h2V69.36h-2.17Zm2-.86.27-.1q.25.48.38.78L358,69A6.92,6.92,0,0,0,357.67,68.22Z"/><path class="b" d="M360.87,70.63h2.33v.24h-.89v.68h.83v.23h-.83v.86a3.18,3.18,0,0,0,.89.13l1.31,0,1.48,0a2.21,2.21,0,0,0-.11.29h-.69q-1.46,0-2,0a1.77,1.77,0,0,1-1.75-.83,3,3,0,0,1-.39,1,1.4,1.4,0,0,0-.21-.19,3.15,3.15,0,0,0,.43-1.77h.26c0,.21,0,.4,0,.57a1.67,1.67,0,0,0,.58.72V70.87h-1.18Zm.34-2.28h1.74v1.8h-1.74Zm.27.23v.55h1.2v-.55Zm0,.78v.55h1.2v-.55Zm4.12,3.14q-.48-.43-1.06-.91a2,2,0,0,1-1.19,1l-.16-.23a2.19,2.19,0,0,0,1-.68,1.86,1.86,0,0,0,.25-1.11V69.9h.27v.68a3.2,3.2,0,0,1-.08.76l1.17.94Zm-2.26-4.12h2.52v.24h-1.19l-.13.71h1.06v2.13h-.27v-1.9h-1.54v1.9h-.26V69.33h.73l.13-.71h-1.05Z"/><path class="b" d="M368.26,72.57V68.46h1.08a1.1,1.1,0,0,1,.77.26.89.89,0,0,1,.29.69,1,1,0,0,1-.72,1h0a1,1,0,0,1,.67.3,1,1,0,0,1,.25.67,1.13,1.13,0,0,1-.33.85,1.23,1.23,0,0,1-.89.33Zm.28-3.84v1.59h.57a1.07,1.07,0,0,0,.71-.23.78.78,0,0,0,.27-.62q0-.74-.87-.74Zm0,1.84v1.74h.76a1.07,1.07,0,0,0,.74-.23.84.84,0,0,0,.26-.66q0-.85-1.15-.85Z"/><path class="b" d="M371.2,72.57v-.19a1.85,1.85,0,0,1,0-.35,1.12,1.12,0,0,1,.1-.28,1.26,1.26,0,0,1,.16-.24,2.13,2.13,0,0,1,.22-.23L372,71l.35-.26.35-.26a1.89,1.89,0,0,0,.28-.28,1.24,1.24,0,0,0,.19-.33,1.15,1.15,0,0,0,.07-.42.78.78,0,0,0-.86-.86,1.23,1.23,0,0,0-.53.12,2.19,2.19,0,0,0-.5.33v-.31a2,2,0,0,1,.51-.28,1.58,1.58,0,0,1,.57-.1,1.25,1.25,0,0,1,.45.08,1,1,0,0,1,.34.21.92.92,0,0,1,.22.33,1.17,1.17,0,0,1,.08.44,1.42,1.42,0,0,1-.08.5,1.45,1.45,0,0,1-.22.4,2.08,2.08,0,0,1-.33.33l-.4.3-.47.35a2.1,2.1,0,0,0-.31.3,1,1,0,0,0-.17.3,1.1,1.1,0,0,0-.05.36v0h2v.24Z"/><path class="b" d="M376.73,71.25l.28.06q-.05.24-.11.45a1.58,1.58,0,0,0,1.31.94V71h-2.43v-.25h5V71H378.5v.68h1.9V72h-1.9v.75h.08l.93,0h1.31a1.39,1.39,0,0,0-.09.29l-2.16,0A1.87,1.87,0,0,1,376.8,72a2.65,2.65,0,0,1-.93,1.19l-.2-.21A2.49,2.49,0,0,0,376.73,71.25Zm-.2-2.88H380v1.86h-3.48Zm.29.24v.56h2.91v-.56Zm0,.8V70h2.91v-.57Z"/><path class="b" d="M381.12,70.36h5.15v.32h-5.15Z"/><path class="b" d="M386.76,72.66a1.12,1.12,0,0,0-.22-.13,9.88,9.88,0,0,0,.56-.93l.22.11Q387.07,72.19,386.76,72.66Zm1-4.56H388v.57h1.14v.25H388v.6h.9v.24h-2.17v-.24h1v-.6h-1.16v-.25h1.16Zm-1.15,3h2.58v.25H388v1.21q0,.55-.51.55h-.46a2.28,2.28,0,0,0,0-.29l.41,0a.36.36,0,0,0,.26-.06.29.29,0,0,0,.07-.23v-1.2h-1.16Zm.28-.79h2v.24h-2Zm1.51,1.42.21-.12c.16.23.31.47.46.71l-.23.13C388.64,72.16,388.49,71.92,388.37,71.74Zm1.77-2.18h.28c0,.26,0,.52,0,.78a3.76,3.76,0,0,0,1.29,2.6l-.21.23a3.51,3.51,0,0,1-1.2-2.27,3.58,3.58,0,0,1-1.36,2.33,1.76,1.76,0,0,0-.22-.22,3.45,3.45,0,0,0,1.4-2.53Q390.14,70.06,390.14,69.56Zm-.76.64-.26-.12a9,9,0,0,0,.69-2l.28,0q-.12.45-.22.78h1.67v.3l-.31.92-.26-.09.32-.87h-1.51Q389.6,69.72,389.38,70.2Z"/><path class="b" d="M392.07,71.71l-.12-.31a7.28,7.28,0,0,0,.77-1.93v0H392V69.2h.67V68.14H393V69.2h.58v.25H393v.87l.14-.12q.33.31.61.61l-.21.19-.54-.6v2.83h-.28V70.1A6,6,0,0,1,392.07,71.71Zm1.41.09H395a2.54,2.54,0,0,0,.07-.54h-1.22V69.53h2.76v1.73h-1.27a3.44,3.44,0,0,1-.06.54H397V72h-1.56a2.08,2.08,0,0,0,1.63.85,1.8,1.8,0,0,0-.14.28,2.29,2.29,0,0,1-1.72-1q-.3.75-1.7,1.11a1.56,1.56,0,0,0-.17-.27q1.38-.3,1.61-.93h-1.49Zm.08-3.17h.92v-.51h.27v.51h1v-.51H396v.51h1v.24h-1v.43h-.27v-.43h-1v.43h-.27v-.43h-.92Zm.62,1.13v.51h2.2v-.51Zm0,.74V71h2.2v-.51Z"/><path class="b" d="M397.48,72.34,397.4,72l.77-.19V69.72h-.71v-.26h.71V68.15h.28v1.31h.68v.26h-.68v2l.42-.12.32-.09a2.12,2.12,0,0,0,0,.29Q398.26,72.1,397.48,72.34Zm1.58-1.58h1.23a12.33,12.33,0,0,0,.06-1.42h-1v-.26h1c0-.1,0-.23,0-.37v-.56h.29v.56c0,.14,0,.26,0,.37H402v1.68h.52V71h-1.77a3.14,3.14,0,0,0,1.77,1.85,2.93,2.93,0,0,0-.2.28,3.36,3.36,0,0,1-1.79-2,3.42,3.42,0,0,1-1.57,2.12,2.4,2.4,0,0,0-.23-.24,3.1,3.1,0,0,0,1.56-2h-1.19Zm2.62-1.42h-1q0,.88-.06,1.42h1.09Z"/><path class="b" d="M403,71.06a2.62,2.62,0,0,0-.2-.29,8.61,8.61,0,0,0,1.5-2.59l.3.09q-.28.66-.65,1.34v3.61h-.29V70.11A10.21,10.21,0,0,1,403,71.06Zm1.47.59a2.39,2.39,0,0,0-.19-.27,10.17,10.17,0,0,0,1.3-.74V68.22h.3v2.2a7.75,7.75,0,0,0,1.55-1.57l.27.16a9.39,9.39,0,0,1-1.82,1.76v1.48a.48.48,0,0,0,.11.38.56.56,0,0,0,.4.11H407q.49,0,.56-.36a8.31,8.31,0,0,0,.13-.93l.29.1q-.06.56-.12.92-.1.58-.84.57h-.69q-.76,0-.73-.75V71A10.92,10.92,0,0,1,404.48,71.64Z"/><path class="b" d="M317.89,74.61l.28.06a4.18,4.18,0,0,1-.24.43h1.59v.24h-1.75a4,4,0,0,1-.65.68l-.21-.2A3.31,3.31,0,0,0,317.89,74.61Zm1.35,1.21.25-.1,0,.06.19.41h2.12v.73h-.28v-.49H317.4v.49h-.28v-.74h2.3Zm-1.51,1.09h3.45v1H318v.47h3.29v1.31H321v-.21h-3v.22h-.28Zm.28.24v.56h2.89v-.56Zm3,1.51h-3v.63h3ZM318.54,76c-.16-.18-.31-.34-.45-.48l.19-.15a6.22,6.22,0,0,1,.46.46Zm1.72-1.4.28.05a4.27,4.27,0,0,1-.22.44H322v.24h-1.86a4.18,4.18,0,0,1-.37.48l-.23-.17A3,3,0,0,0,320.26,74.61Zm.88,1.24-.19.16c-.14-.16-.29-.32-.45-.48l.18-.15C320.85,75.55,321,75.7,321.14,75.85Z"/><path class="b" d="M322.41,76.89h.67V75.36h-.72v-.25h1.71v.25h-.71v1.53H324v.25h-.67v1.59l.71-.17a2.32,2.32,0,0,0,0,.29q-.88.18-1.69.38l-.07-.29.76-.16V77.14h-.67Zm1.87,1.26h1.35v-.74h-1.23V74.92h2.75v2.49h-1.23v.74h1.35v.25h-1.35v.88h1.57v.25H324v-.25h1.65V78.4h-1.35Zm.39-3V76h1v-.87Zm0,1.12v.87h1v-.87Zm2.19-1.12h-1V76h1Zm-1,1.12v.87h1v-.87Z"/><path class="b" d="M328,75.51h.55q.16-.49.25-.87l.29.06L329,75l-.15.47h1.08v4.12h-.28v-.43h-1.35v.47H328Zm.28.26v1.44h1.35V75.78Zm0,1.69v1.47h1.35V77.47Zm2.1-.8-.25-.16a7.83,7.83,0,0,0,.81-1.87l.29.07q-.14.42-.29.78h1.75q0,1.86-.1,3.23a.79.79,0,0,1-.91.89h-.85a2.73,2.73,0,0,0-.07-.3l.87,0a.57.57,0,0,0,.67-.64q0-.86.09-2.93h-1.57A6.76,6.76,0,0,1,330.37,76.67Zm.23.24.22-.15q.37.45.86,1.11l-.24.18Q331,77.42,330.6,76.91Z"/><path class="b" d="M333.45,75.59h4.61v.28h-2.15v1.41h2v.28h-2v1.59h2.38v.28h-5.06v-.28h2.38V77.56h-2v-.28h2V75.87h-2.17Zm2-.86.27-.1q.25.48.38.78l-.29.11A6.92,6.92,0,0,0,335.44,74.73Z"/><path class="b" d="M338.64,77.14H341v.24h-.89v.68h.83v.23h-.83v.86a3.18,3.18,0,0,0,.89.13l1.31,0,1.48,0a2.21,2.21,0,0,0-.11.29H343q-1.46,0-2,0a1.77,1.77,0,0,1-1.75-.83,3,3,0,0,1-.39,1,1.4,1.4,0,0,0-.21-.19,3.15,3.15,0,0,0,.43-1.77h.26c0,.21,0,.4,0,.57a1.67,1.67,0,0,0,.58.72V77.38h-1.18Zm.34-2.28h1.74v1.8H339Zm.27.23v.55h1.2v-.55Zm0,.78v.55h1.2v-.55ZM343.37,79q-.48-.43-1.06-.91a2,2,0,0,1-1.19,1l-.16-.23a2.19,2.19,0,0,0,1-.68,1.86,1.86,0,0,0,.25-1.11v-.67h.27v.68a3.2,3.2,0,0,1-.08.76l1.17.94Zm-2.26-4.12h2.52v.24h-1.19l-.13.71h1.06V78h-.27v-1.9h-1.54V78h-.26V75.84H342l.13-.71h-1.05Z"/><rect class="a" x="315" y="86" width="16" height="5"/><rect class="a" x="378" y="86" width="14" height="5"/><rect class="a" x="397" y="86" width="14" height="5"/><rect class="a" y="106" width="96" height="64"/><path class="b" d="M5.9,178.57H5.66l-.91-3.09a1.86,1.86,0,0,1-.08-.39h0a1.92,1.92,0,0,1-.09.38l-1,3.09H3.37l-1.22-4.11h.32l.94,3.29c0,.15.07.27.09.36h0a2.64,2.64,0,0,1,.1-.36l1-3.29h.14l.93,3.29c0,.15.07.27.09.36h0a1.54,1.54,0,0,1,0-.18l1-3.47H7.1Z"/><path class="b" d="M8.68,178.65a1.28,1.28,0,0,1-1-.42,1.83,1.83,0,0,1,0-2.24,1.35,1.35,0,0,1,1-.41,1.26,1.26,0,0,1,1,.41,1.65,1.65,0,0,1,.36,1.13,1.62,1.62,0,0,1-.37,1.11A1.28,1.28,0,0,1,8.68,178.65Zm0-2.83a1,1,0,0,0-.83.35,1.42,1.42,0,0,0-.31,1,1.36,1.36,0,0,0,.3.92,1,1,0,0,0,.82.35,1,1,0,0,0,.82-.34,1.75,1.75,0,0,0,0-1.91A1,1,0,0,0,8.7,175.81Z"/><path class="b" d="M12.18,175.92a.52.52,0,0,0-.31-.1.68.68,0,0,0-.58.36,1.86,1.86,0,0,0-.23,1v1.38h-.26v-2.93h.26v.65h0a1.06,1.06,0,0,1,.32-.52.75.75,0,0,1,.5-.19.77.77,0,0,1,.29.05Z"/><path class="b" d="M14.7,178.57V178h0a1.07,1.07,0,0,1-.42.44,1.23,1.23,0,0,1-.63.16,1.12,1.12,0,0,1-.88-.39,1.62,1.62,0,0,1-.34-1.09,1.71,1.71,0,0,1,.37-1.15,1.21,1.21,0,0,1,1-.44,1,1,0,0,1,.94.54h0v-1.88H15v4.34Zm0-1.78a1,1,0,0,0-.26-.69.89.89,0,0,0-.7-.29,1,1,0,0,0-.76.35,1.74,1.74,0,0,0,0,1.91.86.86,0,0,0,.7.33,1,1,0,0,0,.78-.31,1.11,1.11,0,0,0,.27-.76Z"/><path class="b" d="M16.17,178.05h0v1.87H15.9v-4.28h.26v.6h0a1.14,1.14,0,0,1,.45-.5,1.23,1.23,0,0,1,.64-.18,1.07,1.07,0,0,1,.87.39,1.61,1.61,0,0,1,.31,1,1.85,1.85,0,0,1-.36,1.19,1.15,1.15,0,0,1-.95.45A1,1,0,0,1,16.17,178.05Zm0-1.09v.37a1.11,1.11,0,0,0,.28.76.93.93,0,0,0,.73.32.86.86,0,0,0,.73-.38,1.68,1.68,0,0,0,.28-1,1.36,1.36,0,0,0-.26-.87.83.83,0,0,0-.69-.32,1,1,0,0,0-.79.34A1.23,1.23,0,0,0,16.16,177Z"/><path class="b" d="M20.57,175.92a.52.52,0,0,0-.31-.1.68.68,0,0,0-.58.36,1.86,1.86,0,0,0-.23,1v1.38h-.26v-2.93h.26v.65h0a1.06,1.06,0,0,1,.32-.52.75.75,0,0,1,.5-.19.77.77,0,0,1,.29.05Z"/><path class="b" d="M21.07,177.12a1.45,1.45,0,0,0,.28.95.94.94,0,0,0,.77.34,1.56,1.56,0,0,0,1-.36v.28a1.71,1.71,0,0,1-1,.32,1.15,1.15,0,0,1-.92-.41,1.71,1.71,0,0,1-.35-1.15,1.63,1.63,0,0,1,.37-1.08,1.17,1.17,0,0,1,.95-.44,1,1,0,0,1,.84.38,1.69,1.69,0,0,1,.29,1v.12Zm1.9-.24a1.31,1.31,0,0,0-.24-.79.76.76,0,0,0-.62-.28.92.92,0,0,0-.68.28,1.34,1.34,0,0,0-.33.79Z"/><path class="b" d="M23.81,178.44v-.32a1.09,1.09,0,0,0,.36.2,1.12,1.12,0,0,0,.37.07q.69,0,.69-.56a.44.44,0,0,0-.15-.33,1.78,1.78,0,0,0-.49-.28,1.69,1.69,0,0,1-.59-.38.7.7,0,0,1-.17-.48.71.71,0,0,1,.27-.58,1,1,0,0,1,.68-.22,1.28,1.28,0,0,1,.65.15v.3a1.22,1.22,0,0,0-.68-.21.7.7,0,0,0-.47.15.49.49,0,0,0-.18.39.5.5,0,0,0,.11.34,1.5,1.5,0,0,0,.49.3,2.15,2.15,0,0,1,.63.38.64.64,0,0,1,.17.47.73.73,0,0,1-.26.58,1.06,1.06,0,0,1-.72.23A1.19,1.19,0,0,1,23.81,178.44Z"/><path class="b" d="M26.09,178.44v-.32a1.09,1.09,0,0,0,.36.2,1.12,1.12,0,0,0,.37.07q.69,0,.69-.56a.44.44,0,0,0-.15-.33,1.78,1.78,0,0,0-.49-.28,1.69,1.69,0,0,1-.59-.38.7.7,0,0,1-.17-.48.71.71,0,0,1,.27-.58,1,1,0,0,1,.68-.22,1.28,1.28,0,0,1,.65.15v.3a1.22,1.22,0,0,0-.68-.21.7.7,0,0,0-.47.15.49.49,0,0,0-.18.39.5.5,0,0,0,.11.34,1.5,1.5,0,0,0,.49.3,2.15,2.15,0,0,1,.63.38.64.64,0,0,1,.17.47.73.73,0,0,1-.26.58,1.06,1.06,0,0,1-.72.23A1.19,1.19,0,0,1,26.09,178.44Z"/><path class="b" d="M32.13,174.19l.28-.09q.13.35.23.64h2.28V175H29.83v-.25h2.49C32.25,174.52,32.19,174.34,32.13,174.19Zm-1.06,1,.24-.14c.19.24.35.46.48.64l-.25.15h1.28q.27-.37.54-.8l.26.14c-.14.21-.3.43-.48.67h1.34v2.73q0,.58-.58.57h-.64a1.53,1.53,0,0,0-.07-.29l.32,0h.31a.42.42,0,0,0,.3-.07.34.34,0,0,0,.08-.27v-2.44H30.5v3.16h-.28v-3.42h1.3A7.06,7.06,0,0,0,31.07,175.16Zm.75,1.06.21.19q-.61.47-1.16.82a1.28,1.28,0,0,0-.19-.22A7.84,7.84,0,0,0,31.82,176.22Zm1.55,2.23h-2v-1.37h2Zm-1.74-1.12v.87H33.1v-.87Zm1.07-.91.17-.19q.53.32,1.16.75l-.18.22Q33.34,176.82,32.69,176.41Z"/><path class="b" d="M38.06,179.16h-.29v-1.69H36.1a3.5,3.5,0,0,1-.62,1.78l-.27-.2a3.18,3.18,0,0,0,.52-1.11,7.12,7.12,0,0,0,.12-1.62v-1.88H40v4.07q0,.65-.67.66h-.63a2.64,2.64,0,0,0-.05-.31l.63,0c.3,0,.44-.12.43-.39v-1H38.06Zm-1.92-2.83q0,.38,0,.88h1.65v-1.12H36.14Zm0-1.62v1.12h1.63v-1.12Zm3.62,0H38.06v1.12h1.69Zm-1.69,1.38v1.12h1.69v-1.12Z"/><path class="b" d="M40.91,175.09h4.61v.28H43.37v1.41h2v.28h-2v1.59h2.38v.28H40.69v-.28h2.38v-1.59h-2v-.28h2v-1.41H40.91Zm2-.86.27-.1q.25.48.38.78l-.29.11A6.92,6.92,0,0,0,42.9,174.23Z"/><path class="b" d="M46.1,176.64h2.33v.24h-.89v.68h.83v.23h-.83v.86a3.18,3.18,0,0,0,.89.13l1.31,0,1.48,0a2.21,2.21,0,0,0-.11.29h-.69q-1.46,0-2,0a1.77,1.77,0,0,1-1.75-.83,3,3,0,0,1-.39,1A1.4,1.4,0,0,0,46,179a3.15,3.15,0,0,0,.43-1.77h.26c0,.21,0,.4,0,.57a1.67,1.67,0,0,0,.58.72v-1.66H46.1Zm.34-2.28h1.74v1.8H46.44Zm.27.23v.55h1.2v-.55Zm0,.78v.55h1.2v-.55Zm4.12,3.14q-.48-.43-1.06-.91a2,2,0,0,1-1.19,1l-.16-.23a2.19,2.19,0,0,0,1-.68,1.86,1.86,0,0,0,.25-1.11v-.67h.27v.68a3.2,3.2,0,0,1-.08.76l1.17.94Zm-2.26-4.12h2.52v.24H49.9l-.13.71h1.06v2.13h-.27v-1.9H49v1.9h-.26v-2.13h.73l.13-.71H48.57Z"/><path class="b" d="M53.5,178.57v-4.11h1.08a1.1,1.1,0,0,1,.77.26.89.89,0,0,1,.29.69,1,1,0,0,1-.72,1h0a1,1,0,0,1,.67.3,1,1,0,0,1,.25.67,1.13,1.13,0,0,1-.33.85,1.23,1.23,0,0,1-.89.33Zm.28-3.84v1.59h.57a1.07,1.07,0,0,0,.71-.23.78.78,0,0,0,.27-.62q0-.74-.87-.74Zm0,1.84v1.74h.76a1.07,1.07,0,0,0,.74-.23.84.84,0,0,0,.26-.66q0-.85-1.15-.85Z"/><path class="b" d="M56.43,178.57v-.19a1.85,1.85,0,0,1,0-.35,1.12,1.12,0,0,1,.1-.28,1.26,1.26,0,0,1,.16-.24,2.13,2.13,0,0,1,.22-.23l.29-.23.35-.26.35-.26a1.89,1.89,0,0,0,.28-.28,1.24,1.24,0,0,0,.19-.33,1.15,1.15,0,0,0,.07-.42.78.78,0,0,0-.86-.86,1.23,1.23,0,0,0-.53.12,2.19,2.19,0,0,0-.5.33v-.31a2,2,0,0,1,.51-.28,1.58,1.58,0,0,1,.57-.1,1.25,1.25,0,0,1,.45.08,1,1,0,0,1,.34.21.92.92,0,0,1,.22.33,1.17,1.17,0,0,1,.08.44,1.42,1.42,0,0,1-.08.5,1.45,1.45,0,0,1-.22.4,2.08,2.08,0,0,1-.33.33l-.4.3-.47.35a2.1,2.1,0,0,0-.31.3,1,1,0,0,0-.17.3,1.1,1.1,0,0,0-.05.36v0h2v.24Z"/><path class="b" d="M62,177.25l.28.06q-.05.24-.11.45a1.58,1.58,0,0,0,1.31.94V177H61v-.25h5V177H63.74v.68h1.9V178h-1.9v.75h.08l.93,0h1.31A1.39,1.39,0,0,0,66,179l-2.16,0a1.87,1.87,0,0,1-1.79-.95,2.65,2.65,0,0,1-.93,1.19l-.2-.21A2.49,2.49,0,0,0,62,177.25Zm-.2-2.88h3.48v1.86H61.76Zm.29.24v.56h2.91v-.56Zm0,.8V176h2.91v-.57Z"/><path class="b" d="M66.35,176.36H71.5v.32H66.35Z"/><path class="b" d="M72,178.67a1.12,1.12,0,0,0-.22-.13,9.88,9.88,0,0,0,.56-.93l.22.11Q72.31,178.2,72,178.67Zm1-4.56h.28v.57h1.14v.25H73.25v.6h.9v.24H72v-.24h1v-.6H71.8v-.25H73Zm-1.15,3h2.58v.25H73.26v1.21q0,.55-.51.55h-.46a2.28,2.28,0,0,0,0-.29l.41,0a.36.36,0,0,0,.26-.06.29.29,0,0,0,.07-.23v-1.2H71.81Zm.28-.79h2v.24h-2Zm1.51,1.42.21-.12c.16.23.31.47.46.71l-.23.13C73.88,178.17,73.73,177.93,73.6,177.75Zm1.77-2.18h.28c0,.26,0,.52,0,.78a3.76,3.76,0,0,0,1.29,2.6l-.21.23a3.51,3.51,0,0,1-1.2-2.27,3.58,3.58,0,0,1-1.36,2.33A1.76,1.76,0,0,0,74,179a3.45,3.45,0,0,0,1.4-2.53Q75.37,176.06,75.37,175.57Zm-.76.64-.26-.12a9,9,0,0,0,.69-2l.28,0q-.12.45-.22.78h1.67v.3l-.31.92-.26-.09.32-.87H75Q74.83,175.73,74.62,176.21Z"/><path class="b" d="M77.3,177.72l-.12-.31a7.28,7.28,0,0,0,.77-1.93v0h-.67v-.25h.67v-1.06h.28v1.06h.58v.25h-.58v.87l.14-.12q.33.31.61.61l-.21.19-.54-.6v2.83h-.28V176.1A6,6,0,0,1,77.3,177.72Zm1.41.09h1.57a2.54,2.54,0,0,0,.07-.54H79.13v-1.73h2.76v1.73H80.63a3.44,3.44,0,0,1-.06.54h1.68v.25H80.69a2.08,2.08,0,0,0,1.63.85,1.8,1.8,0,0,0-.14.28,2.29,2.29,0,0,1-1.72-1q-.3.75-1.7,1.11a1.56,1.56,0,0,0-.17-.27q1.38-.3,1.61-.93H78.71Zm.08-3.17h.92v-.51H80v.51h1v-.51h.27v.51h1v.24h-1v.43H81v-.43H80v.43h-.27v-.43H78.8Zm.62,1.13v.51h2.2v-.51Zm0,.74V177h2.2v-.51Z"/><path class="b" d="M82.72,178.35l-.08-.31.77-.19v-2.12h-.71v-.26h.71v-1.31h.28v1.31h.68v.26h-.68v2l.42-.12.32-.09a2.12,2.12,0,0,0,0,.29Q83.5,178.11,82.72,178.35Zm1.58-1.58h1.23a12.33,12.33,0,0,0,.06-1.42h-1v-.26h1c0-.1,0-.23,0-.37v-.56h.29v.56c0,.14,0,.26,0,.37H87.2v1.68h.52V177H86a3.14,3.14,0,0,0,1.77,1.85,2.93,2.93,0,0,0-.2.28,3.36,3.36,0,0,1-1.79-2,3.42,3.42,0,0,1-1.57,2.12,2.4,2.4,0,0,0-.23-.24,3.1,3.1,0,0,0,1.56-2H84.3Zm2.62-1.42h-1q0,.88-.06,1.42h1.09Z"/><path class="b" d="M88.25,177.07a2.62,2.62,0,0,0-.2-.29,8.61,8.61,0,0,0,1.5-2.59l.3.09q-.28.66-.65,1.34v3.61h-.29v-3.11A10.21,10.21,0,0,1,88.25,177.07Zm1.47.59a2.39,2.39,0,0,0-.19-.27,10.17,10.17,0,0,0,1.3-.74v-2.42h.3v2.2a7.75,7.75,0,0,0,1.55-1.57l.27.16a9.39,9.39,0,0,1-1.82,1.76v1.48a.48.48,0,0,0,.11.38.56.56,0,0,0,.4.11h.59q.49,0,.56-.36a8.31,8.31,0,0,0,.13-.93l.29.1q-.06.56-.12.92-.1.58-.84.57h-.69q-.76,0-.73-.75V177A10.92,10.92,0,0,1,89.71,177.65Z"/><path class="b" d="M3.13,180.61l.28.06a4.18,4.18,0,0,1-.24.43H4.76v.24H3a4,4,0,0,1-.65.68l-.21-.2A3.31,3.31,0,0,0,3.13,180.61Zm1.35,1.21.25-.1,0,.06.19.41H7.06v.73H6.78v-.49H2.64v.49H2.36v-.74h2.3ZM3,182.92H6.42v1H3.25v.47H6.54v1.31H6.27v-.21h-3v.22H3Zm.28.24v.56H6.14v-.56Zm3,1.51h-3v.63h3ZM3.78,182c-.16-.18-.31-.34-.45-.48l.19-.15a6.22,6.22,0,0,1,.46.46Zm1.72-1.4.28.05a4.27,4.27,0,0,1-.22.44H7.28v.24H5.42a4.18,4.18,0,0,1-.37.48l-.23-.17A3,3,0,0,0,5.5,180.62Zm.88,1.24-.19.16c-.14-.16-.29-.32-.45-.48l.18-.15C6.08,181.55,6.24,181.71,6.38,181.86Z"/><path class="b" d="M7.65,182.9h.67v-1.53H7.59v-.25H9.3v.25H8.59v1.53h.67v.25H8.59v1.59l.71-.17a2.32,2.32,0,0,0,0,.29q-.88.18-1.69.38L7.56,185l.76-.16v-1.65H7.65Zm1.87,1.26h1.35v-.74H9.63v-2.49h2.75v2.49H11.15v.74h1.35v.25H11.15v.88h1.57v.25H9.21v-.25h1.65v-.88H9.52Zm.39-3V182h1v-.87Zm0,1.12v.87h1v-.87Zm2.19-1.12h-1V182h1Zm-1,1.12v.87h1v-.87Z"/><path class="b" d="M13.22,181.52h.55q.16-.49.25-.87l.29.06-.11.33-.15.47h1.08v4.12h-.28v-.43H13.5v.47h-.28Zm.28.26v1.44h1.35v-1.44Zm0,1.69v1.47h1.35v-1.47Zm2.1-.8-.25-.16a7.83,7.83,0,0,0,.81-1.87l.29.07q-.14.42-.29.78h1.75q0,1.86-.1,3.23a.79.79,0,0,1-.91.89h-.85a2.73,2.73,0,0,0-.07-.3l.87,0a.57.57,0,0,0,.67-.64q0-.86.09-2.93H16.05A6.76,6.76,0,0,1,15.61,182.68Zm.23.24.22-.15q.37.45.86,1.11l-.24.18Q16.23,183.43,15.83,182.92Z"/><path class="b" d="M18.68,181.6h4.61v.28H21.14v1.41h2v.28h-2v1.59h2.38v.28H18.46v-.28h2.38v-1.59h-2v-.28h2v-1.41H18.68Zm2-.86.27-.1q.25.48.38.78l-.29.11A6.92,6.92,0,0,0,20.68,180.74Z"/><path class="b" d="M23.88,183.15h2.33v.24h-.89v.68h.83v.23h-.83v.86a3.18,3.18,0,0,0,.89.13l1.31,0,1.48,0a2.21,2.21,0,0,0-.11.29h-.69q-1.46,0-2,0a1.77,1.77,0,0,1-1.75-.83,3,3,0,0,1-.39,1,1.4,1.4,0,0,0-.21-.19,3.15,3.15,0,0,0,.43-1.77h.26c0,.21,0,.4,0,.57a1.67,1.67,0,0,0,.58.72v-1.66H23.88Zm.34-2.28H26v1.8H24.21Zm.27.23v.55h1.2v-.55Zm0,.78v.55h1.2v-.55ZM28.6,185q-.48-.43-1.06-.91a2,2,0,0,1-1.19,1l-.16-.23a2.19,2.19,0,0,0,1-.68,1.86,1.86,0,0,0,.25-1.11v-.67h.27v.68a3.2,3.2,0,0,1-.08.76l1.17.94Zm-2.26-4.12h2.52v.24H27.67l-.13.71h1.06V184h-.27v-1.9H26.8V184h-.26v-2.13h.73l.13-.71H26.34Z"/><rect class="a" x="1" y="192" width="16" height="5"/><rect class="a" x="64" y="192" width="14" height="5"/><rect class="a" x="82" y="192" width="14" height="5"/><rect class="a" x="105" y="106" width="96" height="64"/><path class="b" d="M110.15,178.57h-.24l-.91-3.09a1.86,1.86,0,0,1-.08-.39h0a1.92,1.92,0,0,1-.09.38l-1,3.09h-.24l-1.22-4.11h.32l.94,3.29c0,.15.07.27.09.36h0a2.64,2.64,0,0,1,.1-.36l1-3.29H109l.93,3.29c0,.15.07.27.09.36h0a1.54,1.54,0,0,1,0-.18l1-3.47h.31Z"/><path class="b" d="M112.93,178.65a1.28,1.28,0,0,1-1-.42,1.83,1.83,0,0,1,0-2.24,1.35,1.35,0,0,1,1-.41,1.26,1.26,0,0,1,1,.41,1.65,1.65,0,0,1,.36,1.13,1.62,1.62,0,0,1-.37,1.11A1.28,1.28,0,0,1,112.93,178.65Zm0-2.83a1,1,0,0,0-.83.35,1.42,1.42,0,0,0-.31,1,1.36,1.36,0,0,0,.3.92,1,1,0,0,0,.82.35,1,1,0,0,0,.82-.34,1.75,1.75,0,0,0,0-1.91A1,1,0,0,0,113,175.81Z"/><path class="b" d="M116.43,175.92a.52.52,0,0,0-.31-.1.68.68,0,0,0-.58.36,1.86,1.86,0,0,0-.23,1v1.38H115v-2.93h.26v.65h0a1.06,1.06,0,0,1,.32-.52.75.75,0,0,1,.5-.19.77.77,0,0,1,.29.05Z"/><path class="b" d="M118.95,178.57V178h0a1.07,1.07,0,0,1-.42.44,1.23,1.23,0,0,1-.63.16,1.12,1.12,0,0,1-.88-.39,1.62,1.62,0,0,1-.34-1.09A1.71,1.71,0,0,1,117,176a1.21,1.21,0,0,1,1-.44,1,1,0,0,1,.94.54h0v-1.88h.26v4.34Zm0-1.78a1,1,0,0,0-.26-.69.89.89,0,0,0-.7-.29,1,1,0,0,0-.76.35,1.74,1.74,0,0,0,0,1.91.86.86,0,0,0,.7.33,1,1,0,0,0,.78-.31,1.11,1.11,0,0,0,.27-.76Z"/><path class="b" d="M120.43,178.05h0v1.87h-.26v-4.28h.26v.6h0a1.14,1.14,0,0,1,.45-.5,1.23,1.23,0,0,1,.64-.18,1.07,1.07,0,0,1,.87.39,1.61,1.61,0,0,1,.31,1,1.85,1.85,0,0,1-.36,1.19,1.15,1.15,0,0,1-.95.45A1,1,0,0,1,120.43,178.05Zm0-1.09v.37a1.11,1.11,0,0,0,.28.76.93.93,0,0,0,.73.32.86.86,0,0,0,.73-.38,1.68,1.68,0,0,0,.28-1,1.36,1.36,0,0,0-.26-.87.83.83,0,0,0-.69-.32,1,1,0,0,0-.79.34A1.23,1.23,0,0,0,120.41,177Z"/><path class="b" d="M124.82,175.92a.52.52,0,0,0-.31-.1.68.68,0,0,0-.58.36,1.86,1.86,0,0,0-.23,1v1.38h-.26v-2.93h.26v.65h0a1.06,1.06,0,0,1,.32-.52.75.75,0,0,1,.5-.19.77.77,0,0,1,.29.05Z"/><path class="b" d="M125.32,177.12a1.45,1.45,0,0,0,.28.95.94.94,0,0,0,.77.34,1.56,1.56,0,0,0,1-.36v.28a1.71,1.71,0,0,1-1,.32,1.15,1.15,0,0,1-.92-.41,1.71,1.71,0,0,1-.35-1.15,1.63,1.63,0,0,1,.37-1.08,1.17,1.17,0,0,1,.95-.44,1,1,0,0,1,.84.38,1.69,1.69,0,0,1,.29,1v.12Zm1.9-.24a1.31,1.31,0,0,0-.24-.79.76.76,0,0,0-.62-.28.92.92,0,0,0-.68.28,1.34,1.34,0,0,0-.33.79Z"/><path class="b" d="M128.06,178.44v-.32a1.09,1.09,0,0,0,.36.2,1.12,1.12,0,0,0,.37.07q.69,0,.69-.56a.44.44,0,0,0-.15-.33,1.78,1.78,0,0,0-.49-.28,1.69,1.69,0,0,1-.59-.38.7.7,0,0,1-.17-.48.71.71,0,0,1,.27-.58,1,1,0,0,1,.68-.22,1.28,1.28,0,0,1,.65.15v.3a1.22,1.22,0,0,0-.68-.21.7.7,0,0,0-.47.15.49.49,0,0,0-.18.39.5.5,0,0,0,.11.34,1.5,1.5,0,0,0,.49.3,2.15,2.15,0,0,1,.63.38.64.64,0,0,1,.17.47.73.73,0,0,1-.26.58,1.06,1.06,0,0,1-.72.23A1.19,1.19,0,0,1,128.06,178.44Z"/><path class="b" d="M130.34,178.44v-.32a1.09,1.09,0,0,0,.36.2,1.12,1.12,0,0,0,.37.07q.69,0,.69-.56a.44.44,0,0,0-.15-.33,1.78,1.78,0,0,0-.49-.28,1.69,1.69,0,0,1-.59-.38.7.7,0,0,1-.17-.48.71.71,0,0,1,.27-.58,1,1,0,0,1,.68-.22,1.28,1.28,0,0,1,.65.15v.3a1.22,1.22,0,0,0-.68-.21.7.7,0,0,0-.47.15.49.49,0,0,0-.18.39.5.5,0,0,0,.11.34,1.5,1.5,0,0,0,.49.3,2.15,2.15,0,0,1,.63.38.64.64,0,0,1,.17.47.73.73,0,0,1-.26.58,1.06,1.06,0,0,1-.72.23A1.19,1.19,0,0,1,130.34,178.44Z"/><path class="b" d="M136.38,174.19l.28-.09q.13.35.23.64h2.28V175h-5.09v-.25h2.49C136.5,174.52,136.44,174.34,136.38,174.19Zm-1.06,1,.24-.14c.19.24.35.46.48.64l-.25.15h1.28q.27-.37.54-.8l.26.14c-.14.21-.3.43-.48.67h1.34v2.73q0,.58-.58.57h-.64a1.53,1.53,0,0,0-.07-.29l.32,0h.31a.42.42,0,0,0,.3-.07.34.34,0,0,0,.08-.27v-2.44h-3.7v3.16h-.28v-3.42h1.3A7.06,7.06,0,0,0,135.32,175.16Zm.75,1.06.21.19q-.61.47-1.16.82a1.28,1.28,0,0,0-.19-.22A7.84,7.84,0,0,0,136.07,176.22Zm1.55,2.23h-2v-1.37h2Zm-1.74-1.12v.87h1.47v-.87Zm1.07-.91.17-.19q.53.32,1.16.75l-.18.22Q137.6,176.82,136.94,176.41Z"/><path class="b" d="M142.31,179.16H142v-1.69h-1.67a3.5,3.5,0,0,1-.62,1.78l-.27-.2a3.18,3.18,0,0,0,.52-1.11,7.12,7.12,0,0,0,.12-1.62v-1.88h4.2v4.07q0,.65-.67.66H143a2.64,2.64,0,0,0-.05-.31l.63,0c.3,0,.44-.12.43-.39v-1h-1.69Zm-1.92-2.83q0,.38,0,.88H142v-1.12h-1.63Zm0-1.62v1.12H142v-1.12Zm3.62,0h-1.69v1.12H144Zm-1.69,1.38v1.12H144v-1.12Z"/><path class="b" d="M145.16,175.09h4.61v.28h-2.15v1.41h2v.28h-2v1.59H150v.28h-5.06v-.28h2.38v-1.59h-2v-.28h2v-1.41h-2.17Zm2-.86.27-.1q.25.48.38.78l-.29.11A6.92,6.92,0,0,0,147.15,174.23Z"/><path class="b" d="M150.35,176.64h2.33v.24h-.89v.68h.83v.23h-.83v.86a3.18,3.18,0,0,0,.89.13l1.31,0,1.48,0a2.21,2.21,0,0,0-.11.29h-.69q-1.46,0-2,0a1.77,1.77,0,0,1-1.75-.83,3,3,0,0,1-.39,1,1.4,1.4,0,0,0-.21-.19,3.15,3.15,0,0,0,.43-1.77H151c0,.21,0,.4,0,.57a1.67,1.67,0,0,0,.58.72v-1.66h-1.18Zm.34-2.28h1.74v1.8h-1.74Zm.27.23v.55h1.2v-.55Zm0,.78v.55h1.2v-.55Zm4.12,3.14q-.48-.43-1.06-.91a2,2,0,0,1-1.19,1l-.16-.23a2.19,2.19,0,0,0,1-.68,1.86,1.86,0,0,0,.25-1.11v-.67h.27v.68a3.2,3.2,0,0,1-.08.76l1.17.94Zm-2.26-4.12h2.52v.24h-1.19l-.13.71h1.06v2.13h-.27v-1.9h-1.54v1.9H153v-2.13h.73l.13-.71h-1.05Z"/><path class="b" d="M157.75,178.57v-4.11h1.08a1.1,1.1,0,0,1,.77.26.89.89,0,0,1,.29.69,1,1,0,0,1-.72,1h0a1,1,0,0,1,.67.3,1,1,0,0,1,.25.67,1.13,1.13,0,0,1-.33.85,1.23,1.23,0,0,1-.89.33Zm.28-3.84v1.59h.57a1.07,1.07,0,0,0,.71-.23.78.78,0,0,0,.27-.62q0-.74-.87-.74Zm0,1.84v1.74h.76a1.07,1.07,0,0,0,.74-.23.84.84,0,0,0,.26-.66q0-.85-1.15-.85Z"/><path class="b" d="M160.69,178.57v-.19a1.85,1.85,0,0,1,0-.35,1.12,1.12,0,0,1,.1-.28,1.26,1.26,0,0,1,.16-.24,2.13,2.13,0,0,1,.22-.23l.29-.23.35-.26.35-.26a1.89,1.89,0,0,0,.28-.28,1.24,1.24,0,0,0,.19-.33,1.15,1.15,0,0,0,.07-.42.78.78,0,0,0-.86-.86,1.23,1.23,0,0,0-.53.12,2.19,2.19,0,0,0-.5.33v-.31a2,2,0,0,1,.51-.28,1.58,1.58,0,0,1,.57-.1,1.25,1.25,0,0,1,.45.08,1,1,0,0,1,.34.21.92.92,0,0,1,.22.33,1.17,1.17,0,0,1,.08.44,1.42,1.42,0,0,1-.08.5,1.45,1.45,0,0,1-.22.4,2.08,2.08,0,0,1-.33.33l-.4.3-.47.35a2.1,2.1,0,0,0-.31.3,1,1,0,0,0-.17.3,1.1,1.1,0,0,0-.05.36v0h2v.24Z"/><path class="b" d="M166.21,177.25l.28.06q-.05.24-.11.45a1.58,1.58,0,0,0,1.31.94V177h-2.43v-.25h5V177H168v.68h1.9V178H168v.75h.08l.93,0h1.31a1.39,1.39,0,0,0-.09.29l-2.16,0a1.87,1.87,0,0,1-1.79-.95,2.65,2.65,0,0,1-.93,1.19l-.2-.21A2.49,2.49,0,0,0,166.21,177.25Zm-.2-2.88h3.48v1.86H166Zm.29.24v.56h2.91v-.56Zm0,.8V176h2.91v-.57Z"/><path class="b" d="M170.6,176.36h5.15v.32H170.6Z"/><path class="b" d="M176.25,178.67a1.12,1.12,0,0,0-.22-.13,9.88,9.88,0,0,0,.56-.93l.22.11Q176.56,178.2,176.25,178.67Zm1-4.56h.28v.57h1.14v.25H177.5v.6h.9v.24h-2.17v-.24h1v-.6h-1.16v-.25h1.16Zm-1.15,3h2.58v.25h-1.13v1.21q0,.55-.51.55h-.46a2.28,2.28,0,0,0,0-.29l.41,0a.36.36,0,0,0,.26-.06.29.29,0,0,0,.07-.23v-1.2h-1.16Zm.28-.79h2v.24h-2Zm1.51,1.42.21-.12c.16.23.31.47.46.71l-.23.13C178.13,178.17,178,177.93,177.85,177.75Zm1.77-2.18h.28c0,.26,0,.52,0,.78a3.76,3.76,0,0,0,1.29,2.6l-.21.23a3.51,3.51,0,0,1-1.2-2.27,3.58,3.58,0,0,1-1.36,2.33,1.76,1.76,0,0,0-.22-.22,3.45,3.45,0,0,0,1.4-2.53Q179.63,176.06,179.63,175.57Zm-.76.64-.26-.12a9,9,0,0,0,.69-2l.28,0q-.12.45-.22.78H181v.3l-.31.92-.26-.09.32-.87h-1.51Q179.08,175.73,178.87,176.21Z"/><path class="b" d="M181.55,177.72l-.12-.31a7.28,7.28,0,0,0,.77-1.93v0h-.67v-.25h.67v-1.06h.28v1.06H183v.25h-.58v.87l.14-.12q.33.31.61.61L183,177l-.54-.6v2.83h-.28V176.1A6,6,0,0,1,181.55,177.72Zm1.41.09h1.57a2.54,2.54,0,0,0,.07-.54h-1.22v-1.73h2.76v1.73h-1.27a3.44,3.44,0,0,1-.06.54h1.68v.25h-1.56a2.08,2.08,0,0,0,1.63.85,1.8,1.8,0,0,0-.14.28,2.29,2.29,0,0,1-1.72-1q-.3.75-1.7,1.11a1.56,1.56,0,0,0-.17-.27q1.38-.3,1.61-.93H183Zm.08-3.17H184v-.51h.27v.51h1v-.51h.27v.51h1v.24h-1v.43h-.27v-.43h-1v.43H184v-.43H183Zm.62,1.13v.51h2.2v-.51Zm0,.74V177h2.2v-.51Z"/><path class="b" d="M187,178.35l-.08-.31.77-.19v-2.12h-.71v-.26h.71v-1.31h.28v1.31h.68v.26h-.68v2l.42-.12.32-.09a2.12,2.12,0,0,0,0,.29Q187.75,178.11,187,178.35Zm1.58-1.58h1.23a12.33,12.33,0,0,0,.06-1.42h-1v-.26h1c0-.1,0-.23,0-.37v-.56h.29v.56c0,.14,0,.26,0,.37h1.32v1.68H192V177h-1.77a3.14,3.14,0,0,0,1.77,1.85,2.93,2.93,0,0,0-.2.28,3.36,3.36,0,0,1-1.79-2,3.42,3.42,0,0,1-1.57,2.12,2.4,2.4,0,0,0-.23-.24,3.1,3.1,0,0,0,1.56-2h-1.19Zm2.62-1.42h-1q0,.88-.06,1.42h1.09Z"/><path class="b" d="M192.5,177.07a2.62,2.62,0,0,0-.2-.29,8.61,8.61,0,0,0,1.5-2.59l.3.09q-.28.66-.65,1.34v3.61h-.29v-3.11A10.21,10.21,0,0,1,192.5,177.07Zm1.47.59a2.39,2.39,0,0,0-.19-.27,10.17,10.17,0,0,0,1.3-.74v-2.42h.3v2.2a7.75,7.75,0,0,0,1.55-1.57l.27.16a9.39,9.39,0,0,1-1.82,1.76v1.48a.48.48,0,0,0,.11.38.56.56,0,0,0,.4.11h.59q.49,0,.56-.36a8.31,8.31,0,0,0,.13-.93l.29.1q-.06.56-.12.92-.1.58-.84.57h-.69q-.76,0-.73-.75V177A10.92,10.92,0,0,1,194,177.65Z"/><path class="b" d="M107.38,180.61l.28.06a4.18,4.18,0,0,1-.24.43H109v.24h-1.75a4,4,0,0,1-.65.68l-.21-.2A3.31,3.31,0,0,0,107.38,180.61Zm1.35,1.21.25-.1,0,.06.19.41h2.12v.73H111v-.49h-4.15v.49h-.28v-.74h2.3Zm-1.51,1.09h3.45v1H107.5v.47h3.29v1.31h-.28v-.21h-3v.22h-.28Zm.28.24v.56h2.89v-.56Zm3,1.51h-3v.63h3ZM108,182c-.16-.18-.31-.34-.45-.48l.19-.15a6.22,6.22,0,0,1,.46.46Zm1.72-1.4.28.05a4.27,4.27,0,0,1-.22.44h1.72v.24h-1.86a4.18,4.18,0,0,1-.37.48l-.23-.17A3,3,0,0,0,109.75,180.62Zm.88,1.24-.19.16c-.14-.16-.29-.32-.45-.48l.18-.15C110.33,181.55,110.49,181.71,110.63,181.86Z"/><path class="b" d="M111.9,182.9h.67v-1.53h-.72v-.25h1.71v.25h-.71v1.53h.67v.25h-.67v1.59l.71-.17a2.32,2.32,0,0,0,0,.29q-.88.18-1.69.38l-.07-.29.76-.16v-1.65h-.67Zm1.87,1.26h1.35v-.74h-1.23v-2.49h2.75v2.49H115.4v.74h1.35v.25H115.4v.88H117v.25h-3.51v-.25h1.65v-.88h-1.35Zm.39-3V182h1v-.87Zm0,1.12v.87h1v-.87Zm2.19-1.12h-1V182h1Zm-1,1.12v.87h1v-.87Z"/><path class="b" d="M117.47,181.52H118q.16-.49.25-.87l.29.06-.11.33-.15.47h1.08v4.12h-.28v-.43h-1.35v.47h-.28Zm.28.26v1.44h1.35v-1.44Zm0,1.69v1.47h1.35v-1.47Zm2.1-.8-.25-.16a7.83,7.83,0,0,0,.81-1.87l.29.07q-.14.42-.29.78h1.75q0,1.86-.1,3.23a.79.79,0,0,1-.91.89h-.85a2.73,2.73,0,0,0-.07-.3l.87,0a.57.57,0,0,0,.67-.64q0-.86.09-2.93H120.3A6.76,6.76,0,0,1,119.86,182.68Zm.23.24.22-.15q.37.45.86,1.11l-.24.18Q120.49,183.43,120.09,182.92Z"/><path class="b" d="M122.93,181.6h4.61v.28h-2.15v1.41h2v.28h-2v1.59h2.38v.28h-5.06v-.28h2.38v-1.59h-2v-.28h2v-1.41h-2.17Zm2-.86.27-.1q.25.48.38.78l-.29.11A6.92,6.92,0,0,0,124.93,180.74Z"/><path class="b" d="M128.13,183.15h2.33v.24h-.89v.68h.83v.23h-.83v.86a3.18,3.18,0,0,0,.89.13l1.31,0,1.48,0a2.21,2.21,0,0,0-.11.29h-.69q-1.46,0-2,0a1.77,1.77,0,0,1-1.75-.83,3,3,0,0,1-.39,1,1.4,1.4,0,0,0-.21-.19,3.15,3.15,0,0,0,.43-1.77h.26c0,.21,0,.4,0,.57a1.67,1.67,0,0,0,.58.72v-1.66h-1.18Zm.34-2.28h1.74v1.8h-1.74Zm.27.23v.55h1.2v-.55Zm0,.78v.55h1.2v-.55Zm4.12,3.14q-.48-.43-1.06-.91a2,2,0,0,1-1.19,1l-.16-.23a2.19,2.19,0,0,0,1-.68,1.86,1.86,0,0,0,.25-1.11v-.67H132v.68a3.2,3.2,0,0,1-.08.76l1.17.94Zm-2.26-4.12h2.52v.24h-1.19l-.13.71h1.06V184h-.27v-1.9h-1.54V184h-.26v-2.13h.73l.13-.71h-1.05Z"/><rect class="a" x="105" y="192" width="16" height="5"/><rect class="a" x="168" y="192" width="14" height="5"/><rect class="a" x="186" y="192" width="14" height="5"/><rect class="a" x="208" y="106" width="96" height="64"/><path class="b" d="M213.86,178.57h-.24l-.91-3.09a1.86,1.86,0,0,1-.08-.39h0a1.92,1.92,0,0,1-.09.38l-1,3.09h-.24l-1.22-4.11h.32l.94,3.29c0,.15.07.27.09.36h0a2.64,2.64,0,0,1,.1-.36l1-3.29h.14l.93,3.29c0,.15.07.27.09.36h0a1.54,1.54,0,0,1,0-.18l1-3.47h.31Z"/><path class="b" d="M216.65,178.65a1.28,1.28,0,0,1-1-.42,1.83,1.83,0,0,1,0-2.24,1.35,1.35,0,0,1,1-.41,1.26,1.26,0,0,1,1,.41,1.65,1.65,0,0,1,.36,1.13,1.62,1.62,0,0,1-.37,1.11A1.28,1.28,0,0,1,216.65,178.65Zm0-2.83a1,1,0,0,0-.83.35,1.42,1.42,0,0,0-.31,1,1.36,1.36,0,0,0,.3.92,1,1,0,0,0,.82.35,1,1,0,0,0,.82-.34,1.75,1.75,0,0,0,0-1.91A1,1,0,0,0,216.67,175.81Z"/><path class="b" d="M220.14,175.92a.52.52,0,0,0-.31-.1.68.68,0,0,0-.58.36,1.86,1.86,0,0,0-.23,1v1.38h-.26v-2.93H219v.65h0a1.06,1.06,0,0,1,.32-.52.75.75,0,0,1,.5-.19.77.77,0,0,1,.29.05Z"/><path class="b" d="M222.66,178.57V178h0a1.07,1.07,0,0,1-.42.44,1.23,1.23,0,0,1-.63.16,1.12,1.12,0,0,1-.88-.39,1.62,1.62,0,0,1-.34-1.09,1.71,1.71,0,0,1,.37-1.15,1.21,1.21,0,0,1,1-.44,1,1,0,0,1,.94.54h0v-1.88h.26v4.34Zm0-1.78a1,1,0,0,0-.26-.69.89.89,0,0,0-.7-.29,1,1,0,0,0-.76.35,1.74,1.74,0,0,0,0,1.91.86.86,0,0,0,.7.33,1,1,0,0,0,.78-.31,1.11,1.11,0,0,0,.27-.76Z"/><path class="b" d="M224.14,178.05h0v1.87h-.26v-4.28h.26v.6h0a1.14,1.14,0,0,1,.45-.5,1.23,1.23,0,0,1,.64-.18,1.07,1.07,0,0,1,.87.39,1.61,1.61,0,0,1,.31,1,1.85,1.85,0,0,1-.36,1.19,1.15,1.15,0,0,1-.95.45A1,1,0,0,1,224.14,178.05Zm0-1.09v.37a1.11,1.11,0,0,0,.28.76.93.93,0,0,0,.73.32.86.86,0,0,0,.73-.38,1.68,1.68,0,0,0,.28-1,1.36,1.36,0,0,0-.26-.87.83.83,0,0,0-.69-.32,1,1,0,0,0-.79.34A1.23,1.23,0,0,0,224.13,177Z"/><path class="b" d="M228.53,175.92a.52.52,0,0,0-.31-.1.68.68,0,0,0-.58.36,1.86,1.86,0,0,0-.23,1v1.38h-.26v-2.93h.26v.65h0a1.06,1.06,0,0,1,.32-.52.75.75,0,0,1,.5-.19.77.77,0,0,1,.29.05Z"/><path class="b" d="M229,177.12a1.45,1.45,0,0,0,.28.95.94.94,0,0,0,.77.34,1.56,1.56,0,0,0,1-.36v.28a1.71,1.71,0,0,1-1,.32,1.15,1.15,0,0,1-.92-.41,1.71,1.71,0,0,1-.35-1.15,1.63,1.63,0,0,1,.37-1.08,1.17,1.17,0,0,1,.95-.44,1,1,0,0,1,.84.38,1.69,1.69,0,0,1,.29,1v.12Zm1.9-.24a1.31,1.31,0,0,0-.24-.79.76.76,0,0,0-.62-.28.92.92,0,0,0-.68.28,1.34,1.34,0,0,0-.33.79Z"/><path class="b" d="M231.78,178.44v-.32a1.09,1.09,0,0,0,.36.2,1.12,1.12,0,0,0,.37.07q.69,0,.69-.56a.44.44,0,0,0-.15-.33,1.78,1.78,0,0,0-.49-.28,1.69,1.69,0,0,1-.59-.38.7.7,0,0,1-.17-.48.71.71,0,0,1,.27-.58,1,1,0,0,1,.68-.22,1.28,1.28,0,0,1,.65.15v.3a1.22,1.22,0,0,0-.68-.21.7.7,0,0,0-.47.15.49.49,0,0,0-.18.39.5.5,0,0,0,.11.34,1.5,1.5,0,0,0,.49.3,2.15,2.15,0,0,1,.63.38.64.64,0,0,1,.17.47.73.73,0,0,1-.26.58,1.06,1.06,0,0,1-.72.23A1.19,1.19,0,0,1,231.78,178.44Z"/><path class="b" d="M234.05,178.44v-.32a1.09,1.09,0,0,0,.36.2,1.12,1.12,0,0,0,.37.07q.69,0,.69-.56a.44.44,0,0,0-.15-.33,1.78,1.78,0,0,0-.49-.28,1.69,1.69,0,0,1-.59-.38.7.7,0,0,1-.17-.48.71.71,0,0,1,.27-.58,1,1,0,0,1,.68-.22,1.28,1.28,0,0,1,.65.15v.3a1.22,1.22,0,0,0-.68-.21.7.7,0,0,0-.47.15.49.49,0,0,0-.18.39.5.5,0,0,0,.11.34,1.5,1.5,0,0,0,.49.3,2.15,2.15,0,0,1,.63.38.64.64,0,0,1,.17.47.73.73,0,0,1-.26.58,1.06,1.06,0,0,1-.72.23A1.19,1.19,0,0,1,234.05,178.44Z"/><path class="b" d="M240.09,174.19l.28-.09q.13.35.23.64h2.28V175h-5.09v-.25h2.49C240.21,174.52,240.15,174.34,240.09,174.19Zm-1.06,1,.24-.14c.19.24.35.46.48.64l-.25.15h1.28q.27-.37.54-.8l.26.14c-.14.21-.3.43-.48.67h1.34v2.73q0,.58-.58.57h-.64a1.53,1.53,0,0,0-.07-.29l.32,0h.31a.42.42,0,0,0,.3-.07.34.34,0,0,0,.08-.27v-2.44h-3.7v3.16h-.28v-3.42h1.3A7.06,7.06,0,0,0,239,175.16Zm.75,1.06.21.19q-.61.47-1.16.82a1.28,1.28,0,0,0-.19-.22A7.84,7.84,0,0,0,239.78,176.22Zm1.55,2.23h-2v-1.37h2Zm-1.74-1.12v.87h1.47v-.87Zm1.07-.91.17-.19q.53.32,1.16.75l-.18.22Q241.31,176.82,240.66,176.41Z"/><path class="b" d="M246,179.16h-.29v-1.69h-1.67a3.5,3.5,0,0,1-.62,1.78l-.27-.2a3.18,3.18,0,0,0,.52-1.11,7.12,7.12,0,0,0,.12-1.62v-1.88H248v4.07q0,.65-.67.66h-.63a2.64,2.64,0,0,0-.05-.31l.63,0c.3,0,.44-.12.43-.39v-1H246Zm-1.92-2.83q0,.38,0,.88h1.65v-1.12H244.1Zm0-1.62v1.12h1.63v-1.12Zm3.62,0H246v1.12h1.69ZM246,176.09v1.12h1.69v-1.12Z"/><path class="b" d="M248.87,175.09h4.61v.28h-2.15v1.41h2v.28h-2v1.59h2.38v.28h-5.06v-.28H251v-1.59h-2v-.28h2v-1.41h-2.17Zm2-.86.27-.1q.25.48.38.78l-.29.11A6.92,6.92,0,0,0,250.87,174.23Z"/><path class="b" d="M254.07,176.64h2.33v.24h-.89v.68h.83v.23h-.83v.86a3.18,3.18,0,0,0,.89.13l1.31,0,1.48,0a2.21,2.21,0,0,0-.11.29h-.69q-1.46,0-2,0a1.77,1.77,0,0,1-1.75-.83,3,3,0,0,1-.39,1A1.4,1.4,0,0,0,254,179a3.15,3.15,0,0,0,.43-1.77h.26c0,.21,0,.4,0,.57a1.67,1.67,0,0,0,.58.72v-1.66h-1.18Zm.34-2.28h1.74v1.8h-1.74Zm.27.23v.55h1.2v-.55Zm0,.78v.55h1.2v-.55Zm4.12,3.14q-.48-.43-1.06-.91a2,2,0,0,1-1.19,1l-.16-.23a2.19,2.19,0,0,0,1-.68,1.86,1.86,0,0,0,.25-1.11v-.67h.27v.68a3.2,3.2,0,0,1-.08.76l1.17.94Zm-2.26-4.12h2.52v.24h-1.19l-.13.71h1.06v2.13h-.27v-1.9H257v1.9h-.26v-2.13h.73l.13-.71h-1.05Z"/><path class="b" d="M261.46,178.57v-4.11h1.08a1.1,1.1,0,0,1,.77.26.89.89,0,0,1,.29.69,1,1,0,0,1-.72,1h0a1,1,0,0,1,.67.3,1,1,0,0,1,.25.67,1.13,1.13,0,0,1-.33.85,1.23,1.23,0,0,1-.89.33Zm.28-3.84v1.59h.57a1.07,1.07,0,0,0,.71-.23.78.78,0,0,0,.27-.62q0-.74-.87-.74Zm0,1.84v1.74h.76a1.07,1.07,0,0,0,.74-.23.84.84,0,0,0,.26-.66q0-.85-1.15-.85Z"/><path class="b" d="M264.4,178.57v-.19a1.85,1.85,0,0,1,0-.35,1.12,1.12,0,0,1,.1-.28,1.26,1.26,0,0,1,.16-.24,2.13,2.13,0,0,1,.22-.23l.29-.23.35-.26.35-.26a1.89,1.89,0,0,0,.28-.28,1.24,1.24,0,0,0,.19-.33,1.15,1.15,0,0,0,.07-.42.78.78,0,0,0-.86-.86,1.23,1.23,0,0,0-.53.12,2.19,2.19,0,0,0-.5.33v-.31a2,2,0,0,1,.51-.28,1.58,1.58,0,0,1,.57-.1,1.25,1.25,0,0,1,.45.08,1,1,0,0,1,.34.21.92.92,0,0,1,.22.33,1.17,1.17,0,0,1,.08.44,1.42,1.42,0,0,1-.08.5,1.45,1.45,0,0,1-.22.4,2.08,2.08,0,0,1-.33.33l-.4.3-.47.35a2.1,2.1,0,0,0-.31.3,1,1,0,0,0-.17.3,1.1,1.1,0,0,0-.05.36v0h2v.24Z"/><path class="b" d="M269.93,177.25l.28.06q-.05.24-.11.45a1.58,1.58,0,0,0,1.31.94V177H269v-.25h5V177H271.7v.68h1.9V178h-1.9v.75h.08l.93,0H274a1.39,1.39,0,0,0-.09.29l-2.16,0a1.87,1.87,0,0,1-1.79-.95,2.65,2.65,0,0,1-.93,1.19l-.2-.21A2.49,2.49,0,0,0,269.93,177.25Zm-.2-2.88h3.48v1.86h-3.48Zm.29.24v.56h2.91v-.56Zm0,.8V176h2.91v-.57Z"/><path class="b" d="M274.32,176.36h5.15v.32h-5.15Z"/><path class="b" d="M280,178.67a1.12,1.12,0,0,0-.22-.13,9.88,9.88,0,0,0,.56-.93l.22.11Q280.27,178.2,280,178.67Zm1-4.56h.28v.57h1.14v.25h-1.14v.6h.9v.24h-2.17v-.24h1v-.6h-1.16v-.25h1.16Zm-1.15,3h2.58v.25h-1.13v1.21q0,.55-.51.55h-.46a2.28,2.28,0,0,0,0-.29l.41,0a.36.36,0,0,0,.26-.06.29.29,0,0,0,.07-.23v-1.2h-1.16Zm.28-.79h2v.24h-2Zm1.51,1.42.21-.12c.16.23.31.47.46.71l-.23.13C281.84,178.17,281.69,177.93,281.57,177.75Zm1.77-2.18h.28c0,.26,0,.52,0,.78a3.76,3.76,0,0,0,1.29,2.6l-.21.23a3.51,3.51,0,0,1-1.2-2.27,3.58,3.58,0,0,1-1.36,2.33,1.76,1.76,0,0,0-.22-.22,3.45,3.45,0,0,0,1.4-2.53Q283.34,176.06,283.34,175.57Zm-.76.64-.26-.12a9,9,0,0,0,.69-2l.28,0q-.12.45-.22.78h1.67v.3l-.31.92-.26-.09.32-.87H283Q282.8,175.73,282.58,176.21Z"/><path class="b" d="M285.27,177.72l-.12-.31a7.28,7.28,0,0,0,.77-1.93v0h-.67v-.25h.67v-1.06h.28v1.06h.58v.25h-.58v.87l.14-.12q.33.31.61.61l-.21.19-.54-.6v2.83h-.28V176.1A6,6,0,0,1,285.27,177.72Zm1.41.09h1.57a2.54,2.54,0,0,0,.07-.54h-1.22v-1.73h2.76v1.73h-1.27a3.44,3.44,0,0,1-.06.54h1.68v.25h-1.56a2.08,2.08,0,0,0,1.63.85,1.8,1.8,0,0,0-.14.28,2.29,2.29,0,0,1-1.72-1q-.3.75-1.7,1.11a1.56,1.56,0,0,0-.17-.27q1.38-.3,1.61-.93h-1.49Zm.08-3.17h.92v-.51H288v.51h1v-.51h.27v.51h1v.24h-1v.43H289v-.43h-1v.43h-.27v-.43h-.92Zm.62,1.13v.51h2.2v-.51Zm0,.74V177h2.2v-.51Z"/><path class="b" d="M290.68,178.35l-.08-.31.77-.19v-2.12h-.71v-.26h.71v-1.31h.28v1.31h.68v.26h-.68v2l.42-.12.32-.09a2.12,2.12,0,0,0,0,.29Q291.47,178.11,290.68,178.35Zm1.58-1.58h1.23a12.33,12.33,0,0,0,.06-1.42h-1v-.26h1c0-.1,0-.23,0-.37v-.56h.29v.56c0,.14,0,.26,0,.37h1.32v1.68h.52V177h-1.77a3.14,3.14,0,0,0,1.77,1.85,2.93,2.93,0,0,0-.2.28,3.36,3.36,0,0,1-1.79-2,3.42,3.42,0,0,1-1.57,2.12,2.4,2.4,0,0,0-.23-.24,3.1,3.1,0,0,0,1.56-2h-1.19Zm2.62-1.42h-1q0,.88-.06,1.42h1.09Z"/><path class="b" d="M296.21,177.07a2.62,2.62,0,0,0-.2-.29,8.61,8.61,0,0,0,1.5-2.59l.3.09q-.28.66-.65,1.34v3.61h-.29v-3.11A10.21,10.21,0,0,1,296.21,177.07Zm1.47.59a2.39,2.39,0,0,0-.19-.27,10.17,10.17,0,0,0,1.3-.74v-2.42h.3v2.2a7.75,7.75,0,0,0,1.55-1.57l.27.16a9.39,9.39,0,0,1-1.82,1.76v1.48a.48.48,0,0,0,.11.38.56.56,0,0,0,.4.11h.59q.49,0,.56-.36a8.31,8.31,0,0,0,.13-.93l.29.1q-.06.56-.12.92-.1.58-.84.57h-.69q-.76,0-.73-.75V177A10.92,10.92,0,0,1,297.68,177.65Z"/><path class="b" d="M211.09,180.61l.28.06a4.18,4.18,0,0,1-.24.43h1.59v.24H211a4,4,0,0,1-.65.68l-.21-.2A3.31,3.31,0,0,0,211.09,180.61Zm1.35,1.21.25-.1,0,.06.19.41H215v.73h-.28v-.49H210.6v.49h-.28v-.74h2.3Zm-1.51,1.09h3.45v1h-3.17v.47h3.29v1.31h-.28v-.21h-3v.22h-.28Zm.28.24v.56h2.89v-.56Zm3,1.51h-3v.63h3ZM211.74,182c-.16-.18-.31-.34-.45-.48l.19-.15a6.22,6.22,0,0,1,.46.46Zm1.72-1.4.28.05a4.27,4.27,0,0,1-.22.44h1.72v.24h-1.86a4.18,4.18,0,0,1-.37.48l-.23-.17A3,3,0,0,0,213.46,180.62Zm.88,1.24-.19.16c-.14-.16-.29-.32-.45-.48l.18-.15C214,181.55,214.2,181.71,214.34,181.86Z"/><path class="b" d="M215.61,182.9h.67v-1.53h-.72v-.25h1.71v.25h-.71v1.53h.67v.25h-.67v1.59l.71-.17a2.32,2.32,0,0,0,0,.29q-.88.18-1.69.38l-.07-.29.76-.16v-1.65h-.67Zm1.87,1.26h1.35v-.74H217.6v-2.49h2.75v2.49h-1.23v.74h1.35v.25h-1.35v.88h1.57v.25h-3.51v-.25h1.65v-.88h-1.35Zm.39-3V182h1v-.87Zm0,1.12v.87h1v-.87Zm2.19-1.12h-1V182h1Zm-1,1.12v.87h1v-.87Z"/><path class="b" d="M221.18,181.52h.55q.16-.49.25-.87l.29.06-.11.33-.15.47h1.08v4.12h-.28v-.43h-1.35v.47h-.28Zm.28.26v1.44h1.35v-1.44Zm0,1.69v1.47h1.35v-1.47Zm2.1-.8-.25-.16a7.83,7.83,0,0,0,.81-1.87l.29.07q-.14.42-.29.78h1.75q0,1.86-.1,3.23a.79.79,0,0,1-.91.89H224a2.73,2.73,0,0,0-.07-.3l.87,0a.57.57,0,0,0,.67-.64q0-.86.09-2.93H224A6.76,6.76,0,0,1,223.57,182.68Zm.23.24.22-.15q.37.45.86,1.11l-.24.18Q224.2,183.43,223.8,182.92Z"/><path class="b" d="M226.65,181.6h4.61v.28h-2.15v1.41h2v.28h-2v1.59h2.38v.28h-5.06v-.28h2.38v-1.59h-2v-.28h2v-1.41h-2.17Zm2-.86.27-.1q.25.48.38.78l-.29.11A6.92,6.92,0,0,0,228.64,180.74Z"/><path class="b" d="M231.84,183.15h2.33v.24h-.89v.68h.83v.23h-.83v.86a3.18,3.18,0,0,0,.89.13l1.31,0,1.48,0a2.21,2.21,0,0,0-.11.29h-.69q-1.46,0-2,0a1.77,1.77,0,0,1-1.75-.83,3,3,0,0,1-.39,1,1.4,1.4,0,0,0-.21-.19,3.15,3.15,0,0,0,.43-1.77h.26c0,.21,0,.4,0,.57a1.67,1.67,0,0,0,.58.72v-1.66h-1.18Zm.34-2.28h1.74v1.8h-1.74Zm.27.23v.55h1.2v-.55Zm0,.78v.55h1.2v-.55Zm4.12,3.14q-.48-.43-1.06-.91a2,2,0,0,1-1.19,1l-.16-.23a2.19,2.19,0,0,0,1-.68,1.86,1.86,0,0,0,.25-1.11v-.67h.27v.68a3.2,3.2,0,0,1-.08.76l1.17.94Zm-2.26-4.12h2.52v.24h-1.19l-.13.71h1.06V184h-.27v-1.9h-1.54V184h-.26v-2.13h.73l.13-.71h-1.05Z"/><rect class="a" x="209" y="192" width="16" height="5"/><rect class="a" x="271" y="192" width="14" height="5"/><rect class="a" x="290" y="192" width="14" height="5"/><rect class="a" x="314" y="106" width="96" height="64"/><path class="b" d="M319.66,178.57h-.24l-.91-3.09a1.86,1.86,0,0,1-.08-.39h0a1.92,1.92,0,0,1-.09.38l-1,3.09h-.24l-1.22-4.11h.32l.94,3.29c0,.15.07.27.09.36h0a2.64,2.64,0,0,1,.1-.36l1-3.29h.14l.93,3.29c0,.15.07.27.09.36h0a1.54,1.54,0,0,1,0-.18l1-3.47h.31Z"/><path class="b" d="M322.45,178.65a1.28,1.28,0,0,1-1-.42,1.83,1.83,0,0,1,0-2.24,1.35,1.35,0,0,1,1-.41,1.26,1.26,0,0,1,1,.41,1.65,1.65,0,0,1,.36,1.13,1.62,1.62,0,0,1-.37,1.11A1.28,1.28,0,0,1,322.45,178.65Zm0-2.83a1,1,0,0,0-.83.35,1.42,1.42,0,0,0-.31,1,1.36,1.36,0,0,0,.3.92,1,1,0,0,0,.82.35,1,1,0,0,0,.82-.34,1.75,1.75,0,0,0,0-1.91A1,1,0,0,0,322.47,175.81Z"/><path class="b" d="M325.94,175.92a.52.52,0,0,0-.31-.1.68.68,0,0,0-.58.36,1.86,1.86,0,0,0-.23,1v1.38h-.26v-2.93h.26v.65h0a1.06,1.06,0,0,1,.32-.52.75.75,0,0,1,.5-.19.77.77,0,0,1,.29.05Z"/><path class="b" d="M328.46,178.57V178h0a1.07,1.07,0,0,1-.42.44,1.23,1.23,0,0,1-.63.16,1.12,1.12,0,0,1-.88-.39,1.62,1.62,0,0,1-.34-1.09,1.71,1.71,0,0,1,.37-1.15,1.21,1.21,0,0,1,1-.44,1,1,0,0,1,.94.54h0v-1.88h.26v4.34Zm0-1.78a1,1,0,0,0-.26-.69.89.89,0,0,0-.7-.29,1,1,0,0,0-.76.35,1.74,1.74,0,0,0,0,1.91.86.86,0,0,0,.7.33,1,1,0,0,0,.78-.31,1.11,1.11,0,0,0,.27-.76Z"/><path class="b" d="M329.94,178.05h0v1.87h-.26v-4.28h.26v.6h0a1.14,1.14,0,0,1,.45-.5,1.23,1.23,0,0,1,.64-.18,1.07,1.07,0,0,1,.87.39,1.61,1.61,0,0,1,.31,1,1.85,1.85,0,0,1-.36,1.19,1.15,1.15,0,0,1-.95.45A1,1,0,0,1,329.94,178.05Zm0-1.09v.37a1.11,1.11,0,0,0,.28.76.93.93,0,0,0,.73.32.86.86,0,0,0,.73-.38,1.68,1.68,0,0,0,.28-1,1.36,1.36,0,0,0-.26-.87.83.83,0,0,0-.69-.32,1,1,0,0,0-.79.34A1.23,1.23,0,0,0,329.93,177Z"/><path class="b" d="M334.33,175.92a.52.52,0,0,0-.31-.1.68.68,0,0,0-.58.36,1.86,1.86,0,0,0-.23,1v1.38h-.26v-2.93h.26v.65h0a1.06,1.06,0,0,1,.32-.52.75.75,0,0,1,.5-.19.77.77,0,0,1,.29.05Z"/><path class="b" d="M334.83,177.12a1.45,1.45,0,0,0,.28.95.94.94,0,0,0,.77.34,1.56,1.56,0,0,0,1-.36v.28a1.71,1.71,0,0,1-1,.32,1.15,1.15,0,0,1-.92-.41,1.71,1.71,0,0,1-.35-1.15,1.63,1.63,0,0,1,.37-1.08,1.17,1.17,0,0,1,.95-.44,1,1,0,0,1,.84.38,1.69,1.69,0,0,1,.29,1v.12Zm1.9-.24a1.31,1.31,0,0,0-.24-.79.76.76,0,0,0-.62-.28.92.92,0,0,0-.68.28,1.34,1.34,0,0,0-.33.79Z"/><path class="b" d="M337.58,178.44v-.32a1.09,1.09,0,0,0,.36.2,1.12,1.12,0,0,0,.37.07q.69,0,.69-.56a.44.44,0,0,0-.15-.33,1.78,1.78,0,0,0-.49-.28,1.69,1.69,0,0,1-.59-.38.7.7,0,0,1-.17-.48.71.71,0,0,1,.27-.58,1,1,0,0,1,.68-.22,1.28,1.28,0,0,1,.65.15v.3a1.22,1.22,0,0,0-.68-.21.7.7,0,0,0-.47.15.49.49,0,0,0-.18.39.5.5,0,0,0,.11.34,1.5,1.5,0,0,0,.49.3,2.15,2.15,0,0,1,.63.38.64.64,0,0,1,.17.47.73.73,0,0,1-.26.58,1.06,1.06,0,0,1-.72.23A1.19,1.19,0,0,1,337.58,178.44Z"/><path class="b" d="M339.85,178.44v-.32a1.09,1.09,0,0,0,.36.2,1.12,1.12,0,0,0,.37.07q.69,0,.69-.56a.44.44,0,0,0-.15-.33,1.78,1.78,0,0,0-.49-.28,1.69,1.69,0,0,1-.59-.38.7.7,0,0,1-.17-.48.71.71,0,0,1,.27-.58,1,1,0,0,1,.68-.22,1.28,1.28,0,0,1,.65.15v.3a1.22,1.22,0,0,0-.68-.21.7.7,0,0,0-.47.15.49.49,0,0,0-.18.39.5.5,0,0,0,.11.34,1.5,1.5,0,0,0,.49.3,2.15,2.15,0,0,1,.63.38.64.64,0,0,1,.17.47.73.73,0,0,1-.26.58,1.06,1.06,0,0,1-.72.23A1.19,1.19,0,0,1,339.85,178.44Z"/><path class="b" d="M345.89,174.19l.28-.09q.13.35.23.64h2.28V175h-5.09v-.25h2.49C346,174.52,346,174.34,345.89,174.19Zm-1.06,1,.24-.14c.19.24.35.46.48.64l-.25.15h1.28q.27-.37.54-.8l.26.14c-.14.21-.3.43-.48.67h1.34v2.73q0,.58-.58.57H347a1.53,1.53,0,0,0-.07-.29l.32,0h.31a.42.42,0,0,0,.3-.07.34.34,0,0,0,.08-.27v-2.44h-3.7v3.16H344v-3.42h1.3A7.06,7.06,0,0,0,344.84,175.16Zm.75,1.06.21.19q-.61.47-1.16.82a1.28,1.28,0,0,0-.19-.22A7.84,7.84,0,0,0,345.58,176.22Zm1.55,2.23h-2v-1.37h2Zm-1.74-1.12v.87h1.47v-.87Zm1.07-.91.17-.19q.53.32,1.16.75l-.18.22Q347.11,176.82,346.46,176.41Z"/><path class="b" d="M351.82,179.16h-.29v-1.69h-1.67a3.5,3.5,0,0,1-.62,1.78L349,179a3.18,3.18,0,0,0,.52-1.11,7.12,7.12,0,0,0,.12-1.62v-1.88h4.2v4.07q0,.65-.67.66h-.63a2.64,2.64,0,0,0-.05-.31l.63,0c.3,0,.44-.12.43-.39v-1h-1.69Zm-1.92-2.83q0,.38,0,.88h1.65v-1.12H349.9Zm0-1.62v1.12h1.63v-1.12Zm3.62,0h-1.69v1.12h1.69Zm-1.69,1.38v1.12h1.69v-1.12Z"/><path class="b" d="M354.67,175.09h4.61v.28h-2.15v1.41h2v.28h-2v1.59h2.38v.28h-5.06v-.28h2.38v-1.59h-2v-.28h2v-1.41h-2.17Zm2-.86.27-.1q.25.48.38.78L357,175A6.92,6.92,0,0,0,356.67,174.23Z"/><path class="b" d="M359.87,176.64h2.33v.24h-.89v.68h.83v.23h-.83v.86a3.18,3.18,0,0,0,.89.13l1.31,0,1.48,0a2.21,2.21,0,0,0-.11.29h-.69q-1.46,0-2,0a1.77,1.77,0,0,1-1.75-.83,3,3,0,0,1-.39,1,1.4,1.4,0,0,0-.21-.19,3.15,3.15,0,0,0,.43-1.77h.26c0,.21,0,.4,0,.57a1.67,1.67,0,0,0,.58.72v-1.66h-1.18Zm.34-2.28h1.74v1.8h-1.74Zm.27.23v.55h1.2v-.55Zm0,.78v.55h1.2v-.55Zm4.12,3.14q-.48-.43-1.06-.91a2,2,0,0,1-1.19,1l-.16-.23a2.19,2.19,0,0,0,1-.68,1.86,1.86,0,0,0,.25-1.11v-.67h.27v.68a3.2,3.2,0,0,1-.08.76l1.17.94Zm-2.26-4.12h2.52v.24h-1.19l-.13.71h1.06v2.13h-.27v-1.9h-1.54v1.9h-.26v-2.13h.73l.13-.71h-1.05Z"/><path class="b" d="M367.26,178.57v-4.11h1.08a1.1,1.1,0,0,1,.77.26.89.89,0,0,1,.29.69,1,1,0,0,1-.72,1h0a1,1,0,0,1,.67.3,1,1,0,0,1,.25.67,1.13,1.13,0,0,1-.33.85,1.23,1.23,0,0,1-.89.33Zm.28-3.84v1.59h.57a1.07,1.07,0,0,0,.71-.23.78.78,0,0,0,.27-.62q0-.74-.87-.74Zm0,1.84v1.74h.76a1.07,1.07,0,0,0,.74-.23.84.84,0,0,0,.26-.66q0-.85-1.15-.85Z"/><path class="b" d="M370.2,178.57v-.19a1.85,1.85,0,0,1,0-.35,1.12,1.12,0,0,1,.1-.28,1.26,1.26,0,0,1,.16-.24,2.13,2.13,0,0,1,.22-.23l.29-.23.35-.26.35-.26a1.89,1.89,0,0,0,.28-.28,1.24,1.24,0,0,0,.19-.33,1.15,1.15,0,0,0,.07-.42.78.78,0,0,0-.86-.86,1.23,1.23,0,0,0-.53.12,2.19,2.19,0,0,0-.5.33v-.31a2,2,0,0,1,.51-.28,1.58,1.58,0,0,1,.57-.1,1.25,1.25,0,0,1,.45.08,1,1,0,0,1,.34.21.92.92,0,0,1,.22.33,1.17,1.17,0,0,1,.08.44,1.42,1.42,0,0,1-.08.5,1.45,1.45,0,0,1-.22.4,2.08,2.08,0,0,1-.33.33l-.4.3-.47.35a2.1,2.1,0,0,0-.31.3,1,1,0,0,0-.17.3,1.1,1.1,0,0,0-.05.36v0h2v.24Z"/><path class="b" d="M375.73,177.25l.28.06q-.05.24-.11.45a1.58,1.58,0,0,0,1.31.94V177h-2.43v-.25h5V177H377.5v.68h1.9V178h-1.9v.75h.08l.93,0h1.31a1.39,1.39,0,0,0-.09.29l-2.16,0a1.87,1.87,0,0,1-1.79-.95,2.65,2.65,0,0,1-.93,1.19l-.2-.21A2.49,2.49,0,0,0,375.73,177.25Zm-.2-2.88H379v1.86h-3.48Zm.29.24v.56h2.91v-.56Zm0,.8V176h2.91v-.57Z"/><path class="b" d="M380.12,176.36h5.15v.32h-5.15Z"/><path class="b" d="M385.76,178.67a1.12,1.12,0,0,0-.22-.13,9.88,9.88,0,0,0,.56-.93l.22.11Q386.07,178.2,385.76,178.67Zm1-4.56H387v.57h1.14v.25H387v.6h.9v.24h-2.17v-.24h1v-.6h-1.16v-.25h1.16Zm-1.15,3h2.58v.25H387v1.21q0,.55-.51.55h-.46a2.28,2.28,0,0,0,0-.29l.41,0a.36.36,0,0,0,.26-.06.29.29,0,0,0,.07-.23v-1.2h-1.16Zm.28-.79h2v.24h-2Zm1.51,1.42.21-.12c.16.23.31.47.46.71l-.23.13C387.64,178.17,387.49,177.93,387.37,177.75Zm1.77-2.18h.28c0,.26,0,.52,0,.78a3.76,3.76,0,0,0,1.29,2.6l-.21.23a3.51,3.51,0,0,1-1.2-2.27,3.58,3.58,0,0,1-1.36,2.33,1.76,1.76,0,0,0-.22-.22,3.45,3.45,0,0,0,1.4-2.53Q389.14,176.06,389.14,175.57Zm-.76.64-.26-.12a9,9,0,0,0,.69-2l.28,0q-.12.45-.22.78h1.67v.3l-.31.92-.26-.09.32-.87h-1.51Q388.6,175.73,388.38,176.21Z"/><path class="b" d="M391.07,177.72l-.12-.31a7.28,7.28,0,0,0,.77-1.93v0H391v-.25h.67v-1.06H392v1.06h.58v.25H392v.87l.14-.12q.33.31.61.61l-.21.19-.54-.6v2.83h-.28V176.1A6,6,0,0,1,391.07,177.72Zm1.41.09H394a2.54,2.54,0,0,0,.07-.54h-1.22v-1.73h2.76v1.73h-1.27a3.44,3.44,0,0,1-.06.54H396v.25h-1.56a2.08,2.08,0,0,0,1.63.85,1.8,1.8,0,0,0-.14.28,2.29,2.29,0,0,1-1.72-1q-.3.75-1.7,1.11a1.56,1.56,0,0,0-.17-.27q1.38-.3,1.61-.93h-1.49Zm.08-3.17h.92v-.51h.27v.51h1v-.51H395v.51h1v.24h-1v.43h-.27v-.43h-1v.43h-.27v-.43h-.92Zm.62,1.13v.51h2.2v-.51Zm0,.74V177h2.2v-.51Z"/><path class="b" d="M396.48,178.35l-.08-.31.77-.19v-2.12h-.71v-.26h.71v-1.31h.28v1.31h.68v.26h-.68v2l.42-.12.32-.09a2.12,2.12,0,0,0,0,.29Q397.26,178.11,396.48,178.35Zm1.58-1.58h1.23a12.33,12.33,0,0,0,.06-1.42h-1v-.26h1c0-.1,0-.23,0-.37v-.56h.29v.56c0,.14,0,.26,0,.37H401v1.68h.52V177h-1.77a3.14,3.14,0,0,0,1.77,1.85,2.93,2.93,0,0,0-.2.28,3.36,3.36,0,0,1-1.79-2,3.42,3.42,0,0,1-1.57,2.12,2.4,2.4,0,0,0-.23-.24,3.1,3.1,0,0,0,1.56-2h-1.19Zm2.62-1.42h-1q0,.88-.06,1.42h1.09Z"/><path class="b" d="M402,177.07a2.62,2.62,0,0,0-.2-.29,8.61,8.61,0,0,0,1.5-2.59l.3.09q-.28.66-.65,1.34v3.61h-.29v-3.11A10.21,10.21,0,0,1,402,177.07Zm1.47.59a2.39,2.39,0,0,0-.19-.27,10.17,10.17,0,0,0,1.3-.74v-2.42h.3v2.2a7.75,7.75,0,0,0,1.55-1.57l.27.16a9.39,9.39,0,0,1-1.82,1.76v1.48a.48.48,0,0,0,.11.38.56.56,0,0,0,.4.11H406q.49,0,.56-.36a8.31,8.31,0,0,0,.13-.93l.29.1q-.06.56-.12.92-.1.58-.84.57h-.69q-.76,0-.73-.75V177A10.92,10.92,0,0,1,403.48,177.65Z"/><path class="b" d="M316.89,180.61l.28.06a4.18,4.18,0,0,1-.24.43h1.59v.24h-1.75a4,4,0,0,1-.65.68l-.21-.2A3.31,3.31,0,0,0,316.89,180.61Zm1.35,1.21.25-.1,0,.06.19.41h2.12v.73h-.28v-.49H316.4v.49h-.28v-.74h2.3Zm-1.51,1.09h3.45v1H317v.47h3.29v1.31H320v-.21h-3v.22h-.28Zm.28.24v.56h2.89v-.56Zm3,1.51h-3v.63h3ZM317.54,182c-.16-.18-.31-.34-.45-.48l.19-.15a6.22,6.22,0,0,1,.46.46Zm1.72-1.4.28.05a4.27,4.27,0,0,1-.22.44H321v.24h-1.86a4.18,4.18,0,0,1-.37.48l-.23-.17A3,3,0,0,0,319.26,180.62Zm.88,1.24-.19.16c-.14-.16-.29-.32-.45-.48l.18-.15C319.85,181.55,320,181.71,320.14,181.86Z"/><path class="b" d="M321.41,182.9h.67v-1.53h-.72v-.25h1.71v.25h-.71v1.53H323v.25h-.67v1.59l.71-.17a2.32,2.32,0,0,0,0,.29q-.88.18-1.69.38l-.07-.29.76-.16v-1.65h-.67Zm1.87,1.26h1.35v-.74h-1.23v-2.49h2.75v2.49h-1.23v.74h1.35v.25h-1.35v.88h1.57v.25H323v-.25h1.65v-.88h-1.35Zm.39-3V182h1v-.87Zm0,1.12v.87h1v-.87Zm2.19-1.12h-1V182h1Zm-1,1.12v.87h1v-.87Z"/><path class="b" d="M327,181.52h.55q.16-.49.25-.87l.29.06-.11.33-.15.47h1.08v4.12h-.28v-.43h-1.35v.47H327Zm.28.26v1.44h1.35v-1.44Zm0,1.69v1.47h1.35v-1.47Zm2.1-.8-.25-.16a7.83,7.83,0,0,0,.81-1.87l.29.07q-.14.42-.29.78h1.75q0,1.86-.1,3.23a.79.79,0,0,1-.91.89h-.85a2.73,2.73,0,0,0-.07-.3l.87,0a.57.57,0,0,0,.67-.64q0-.86.09-2.93h-1.57A6.76,6.76,0,0,1,329.37,182.68Zm.23.24.22-.15q.37.45.86,1.11l-.24.18Q330,183.43,329.6,182.92Z"/><path class="b" d="M332.45,181.6h4.61v.28h-2.15v1.41h2v.28h-2v1.59h2.38v.28h-5.06v-.28h2.38v-1.59h-2v-.28h2v-1.41h-2.17Zm2-.86.27-.1q.25.48.38.78l-.29.11A6.92,6.92,0,0,0,334.44,180.74Z"/><path class="b" d="M337.64,183.15H340v.24h-.89v.68h.83v.23h-.83v.86a3.18,3.18,0,0,0,.89.13l1.31,0,1.48,0a2.21,2.21,0,0,0-.11.29H342q-1.46,0-2,0a1.77,1.77,0,0,1-1.75-.83,3,3,0,0,1-.39,1,1.4,1.4,0,0,0-.21-.19,3.15,3.15,0,0,0,.43-1.77h.26c0,.21,0,.4,0,.57a1.67,1.67,0,0,0,.58.72v-1.66h-1.18Zm.34-2.28h1.74v1.8H338Zm.27.23v.55h1.2v-.55Zm0,.78v.55h1.2v-.55Zm4.12,3.14q-.48-.43-1.06-.91a2,2,0,0,1-1.19,1l-.16-.23a2.19,2.19,0,0,0,1-.68,1.86,1.86,0,0,0,.25-1.11v-.67h.27v.68a3.2,3.2,0,0,1-.08.76l1.17.94Zm-2.26-4.12h2.52v.24h-1.19l-.13.71h1.06V184h-.27v-1.9h-1.54V184h-.26v-2.13H341l.13-.71h-1.05Z"/><rect class="a" x="314" y="192" width="16" height="5"/><rect class="a" x="377" y="192" width="14" height="5"/><rect class="a" x="396" y="192" width="14" height="5"/></svg>