<svg xmlns="http://www.w3.org/2000/svg" viewBox="0 0 166.56 226.09"><defs><style>.a{fill:#f0f0f0;}.b{fill:#ebc9c9;}.c{fill:#231815;}.d{fill:#c9c7e4;}.e{fill:#e8bdf2;}</style></defs><title>资源 52</title><rect class="a" y="61.87" width="120.84" height="164.22"/><rect class="b" x="0.11" width="120.84" height="57.47"/><path class="c" d="M51.47,31.89v-1l-.9,1-1-1.06v5.6h-1.8V31.61q-.53.6-1.14,1.2-.26-1.11-.57-2.14a14.24,14.24,0,0,0,2.58-3.45H46.19V25.39h2.34q-.6-.91-1.53-2l1.54-1q.76.83,1.7,2.07l-1.5,1h2v1.64a12,12,0,0,1-1,1.89q.91.73,1.68,1.42V23h7.8v8.82H57.33v-7H53.41v7.1Zm6.86.38q1.17.53,1.88.8-.32,2.37-.8,2.76a1.77,1.77,0,0,1-1.15.39h-1.4q-1.71,0-1.71-1.55V33a8.1,8.1,0,0,1-3.76,3.54q-.54-.71-1.37-1.62a6.72,6.72,0,0,0,3.46-2.8q.9-1.7.87-6.41h2a28,28,0,0,1-.46,5.09H57V34q0,.56.48.56h.21a.46.46,0,0,0,.46-.3,9.6,9.6,0,0,0,.23-2Z"/><path class="c" d="M61.83,29.58l1.51.51A26.3,26.3,0,0,1,62,33.34a12,12,0,0,0-1.47-.71A19.38,19.38,0,0,0,61.83,29.58Zm4.52.27,1.33.83V25.81h1.94l.23-1.14H67.32V23h7.46v1.71H71.67l-.26,1.14h2.92v7.1H72.65V27.52H69.36v5.39H67.68V31.05a11.83,11.83,0,0,1-6,5.49q-.39-.68-1.11-1.71a9.63,9.63,0,0,0,3.82-2.15h-.76V28.94h1.74v2.55Q65.82,30.79,66.35,29.85ZM60.62,27.2h.64V23.68H63V27.2h.85V22.41h1.74v1.93h1.5v1.54h-1.5v1.31h1.74v1.55H60.62Zm9.56.94h1.67v.53a14.83,14.83,0,0,1-.41,3.89,38.83,38.83,0,0,1,3.45,2.55l-1.21,1.38a35.05,35.05,0,0,0-2.94-2.41,9.28,9.28,0,0,1-2.94,2.49q-.68-.84-1.33-1.5a6,6,0,0,0,3.12-2.45,9.69,9.69,0,0,0,.58-4Z"/><rect class="d" x="125.84" y="61.87" width="40.72" height="68.61"/><rect class="d" x="125.84" y="134.48" width="40.72" height="68.61"/><rect class="e" x="125.84" y="0.35" width="40.72" height="57.12"/></svg>