<svg xmlns="http://www.w3.org/2000/svg" viewBox="0 0 353 161.14"><defs><style>.a{fill:#efefef;}.b{fill:#595757;}</style></defs><title>资源 92</title><rect class="a" width="353" height="161.14"/><path class="b" d="M325.51,80.55a.66.66,0,0,1-.2.47l-7.85,7.82a.65.65,0,0,1-.92-.91l7.39-7.36-7.39-7.36a.65.65,0,0,1,.92-.91l7.85,7.82A.59.59,0,0,1,325.51,80.55Z"/><path class="b" d="M17.82,80.12l7.85-7.82a.65.65,0,0,1,.92.91L19.2,80.57l7.39,7.36a.65.65,0,0,1-.92.91L17.82,81a.66.66,0,0,1-.19-.47A.59.59,0,0,1,17.82,80.12Z"/></svg>