<svg xmlns="http://www.w3.org/2000/svg" viewBox="0 0 329.08 55.25"><defs><style>.cls-1{fill:#fbfbfb;}.cls-2{fill:#efefef;}.cls-3{fill:#999899;}.cls-4{fill:none;stroke:#999899;stroke-miterlimit:10;stroke-width:0.25px;}</style></defs><title>11资源 2bg9004</title><g id="图层_2" data-name="图层 2"><g id="图层_1-2" data-name="图层 1"><rect class="cls-1" width="329.07" height="55.25"/><rect class="cls-2" x="5.46" y="8.05" width="52.94" height="16.77"/><path class="cls-3" d="M16.82,12.76h.85v6.6h3.84v.7H16.82Z"/><path class="cls-3" d="M22.21,16.42a4.07,4.07,0,1,1,4.36,3.76h-.31a3.79,3.79,0,0,1-4-3.52A2.09,2.09,0,0,1,22.21,16.42Zm7.28,0a3.22,3.22,0,0,0-6.43,0,3.22,3.22,0,0,0,6.43,0Z"/><path class="cls-3" d="M38.3,19.69a7.74,7.74,0,0,1-2.73.48c-2.4,0-4.4-1.24-4.4-3.77,0-2.29,1.63-3.77,4.69-3.77a5.41,5.41,0,0,1,2.21.4l-.26.68a5,5,0,0,0-2-.4c-2.57,0-3.85,1.2-3.85,3.08s1.33,3.08,3.69,3.08a5.38,5.38,0,0,0,1.82-.29V16.37h.8Z"/><path class="cls-3" d="M39.51,16.42a4.07,4.07,0,1,1,4.36,3.76h-.31a3.79,3.79,0,0,1-4-3.52A2.09,2.09,0,0,1,39.51,16.42Zm7.28,0a3.22,3.22,0,0,0-6.43,0,3.22,3.22,0,0,0,6.43,0Z"/><path class="cls-3" d="M10.59,43.86l-2.35-3H9.1l2,2.47,2-2.47h.85l-2.37,3L14,47h-.86L11,44.34,9,47H8.1Z"/><path class="cls-3" d="M16.74,43.86l-2.35-3h.86l1.95,2.47,2-2.47h.85l-2.37,3L20.16,47H19.3l-2.11-2.66L15.1,47h-.85Z"/><path class="cls-3" d="M22.89,43.86l-2.35-3h.86l2,2.47,2-2.47h.85l-2.37,3L26.31,47h-.86l-2.11-2.66L21.25,47H20.4Z"/><path class="cls-3" d="M31.68,43.86l-2.35-3h.86l1.95,2.47,2-2.47H35l-2.37,3L35.1,47h-.86l-2.11-2.66L30,47h-.85Z"/><path class="cls-3" d="M37.83,43.86l-2.35-3h.86l1.95,2.47,2-2.47h.85l-2.37,3L41.25,47h-.86l-2.11-2.66L36.19,47h-.85Z"/><path class="cls-3" d="M44,43.86l-2.35-3h.87l2,2.47,2-2.47h.85l-2.37,3L47.4,47h-.9l-2.11-2.66-2,2.66H41.5Z"/><path class="cls-3" d="M52.77,43.86l-2.35-3h.86l1.95,2.47,2-2.47h.85l-2.37,3L56.19,47h-.86l-2.11-2.66L51.13,47h-.85Z"/><path class="cls-3" d="M58.92,43.86l-2.35-3h.86l2,2.47,2-2.47h.85l-2.37,3L62.34,47H61.5l-2.11-2.66L57.27,47h-.85Z"/><path class="cls-3" d="M65.07,43.86l-2.35-3h.86l1.92,2.48,2-2.47h.85l-2.37,3L68.5,47h-.86L65.5,44.38,63.43,47h-.85Z"/><rect class="cls-2" x="282.24" y="13.4" width="17.25" height="6.68"/><rect class="cls-2" x="301.99" y="13.4" width="17.25" height="6.68"/><line class="cls-4" y1="31.5" x2="329.08" y2="31.75"/><rect class="cls-2" x="301.99" y="40.86" width="17.25" height="6.68"/></g></g></svg>