<svg xmlns="http://www.w3.org/2000/svg" viewBox="0 0 329.08 55.25"><defs><style>.a{fill:#fbfbfb;}.b{fill:#efefef;}.c,.d{fill:#999899;}.d{stroke:#999899;stroke-miterlimit:10;stroke-width:0.25px;}</style></defs><title>资源 52</title><rect class="a" width="329.07" height="55.25"/><rect class="b" x="138.07" y="8.36" width="52.94" height="16.77"/><path class="c" d="M149.43,13.07h.85v6.6h3.84v.7h-4.69Z"/><path class="c" d="M154.82,16.73a4.07,4.07,0,1,1,4.05,3.77A3.79,3.79,0,0,1,154.82,16.73Zm7.28,0a3.22,3.22,0,0,0-6.43,0,3.22,3.22,0,0,0,6.43,0Z"/><path class="c" d="M170.91,20a7.72,7.72,0,0,1-2.73.48c-2.4,0-4.4-1.24-4.4-3.77,0-2.29,1.63-3.77,4.69-3.77a5.46,5.46,0,0,1,2.21.4l-.26.68a5,5,0,0,0-2-.4c-2.57,0-3.85,1.2-3.85,3.08s1.33,3.08,3.69,3.08a5.36,5.36,0,0,0,1.82-.29V16.68h.8Z"/><path class="c" d="M172.12,16.73a4.07,4.07,0,1,1,4.05,3.77A3.79,3.79,0,0,1,172.12,16.73Zm7.28,0a3.22,3.22,0,0,0-6.43,0,3.22,3.22,0,0,0,6.43,0Z"/><path class="c" d="M139.09,43.86l-2.35-3h.86l1.95,2.47,2-2.47h.85l-2.37,3L142.51,47h-.86l-2.11-2.66L137.45,47h-.85Z"/><path class="c" d="M145.24,43.86l-2.35-3h.86l1.95,2.47,2-2.47h.85l-2.37,3L148.66,47h-.86l-2.11-2.66L143.6,47h-.85Z"/><path class="c" d="M151.39,43.86l-2.35-3h.86l1.95,2.47,2-2.47h.85l-2.37,3L154.81,47h-.86l-2.11-2.66L149.75,47h-.85Z"/><path class="c" d="M160.18,43.86l-2.35-3h.86l1.95,2.47,2-2.47h.85l-2.37,3L163.6,47h-.86l-2.11-2.66L158.54,47h-.85Z"/><path class="c" d="M166.33,43.86l-2.35-3h.86l1.95,2.47,2-2.47h.85l-2.37,3L169.75,47h-.86l-2.11-2.66L164.69,47h-.85Z"/><path class="c" d="M172.48,43.86l-2.35-3H171l1.95,2.47,2-2.47h.85l-2.37,3L175.9,47H175l-2.11-2.66L170.84,47H170Z"/><path class="c" d="M181.27,43.86l-2.35-3h.86l1.95,2.47,2-2.47h.85l-2.37,3L184.69,47h-.86l-2.11-2.66L179.63,47h-.85Z"/><path class="c" d="M187.42,43.86l-2.35-3h.86l1.95,2.47,2-2.47h.85l-2.37,3L190.84,47H190l-2.11-2.66L185.77,47h-.85Z"/><path class="c" d="M193.57,43.86l-2.35-3h.86L194,43.34l2-2.47h.85l-2.37,3L197,47h-.86L194,44.38,191.93,47h-.85Z"/><rect class="b" x="282.24" y="13.4" width="17.25" height="6.68"/><rect class="b" x="301.99" y="13.4" width="17.25" height="6.68"/><line class="d" y1="31.5" x2="329.08" y2="31.75"/></svg>