<svg xmlns="http://www.w3.org/2000/svg" viewBox="0 0 329.07 32.93"><defs><style>.a{fill:#fbfbfb;}.b{fill:#efefef;}.c{fill:#999899;}</style></defs><title>资源 42</title><rect class="a" width="329.07" height="32.93"/><rect class="b" x="5.84" y="7.62" width="52.94" height="16.77"/><path class="c" d="M17.21,12.33h.85v6.6H21.9v.7H17.21Z"/><path class="c" d="M22.59,16a3.79,3.79,0,0,1,4.07-3.78,3.78,3.78,0,1,1,0,7.54A3.79,3.79,0,0,1,22.59,16Zm7.28,0a3,3,0,0,0-3.23-3.09A3,3,0,0,0,23.45,16a3,3,0,0,0,3.2,3.07A3,3,0,0,0,29.87,16Z"/><path class="c" d="M38.68,19.27a7.72,7.72,0,0,1-2.73.48c-2.4,0-4.4-1.24-4.4-3.77,0-2.29,1.63-3.77,4.69-3.77a5.46,5.46,0,0,1,2.21.4l-.26.68a5,5,0,0,0-2-.4c-2.57,0-3.85,1.2-3.85,3.08s1.33,3.08,3.69,3.08a5.36,5.36,0,0,0,1.82-.29V15.94h.8Z"/><path class="c" d="M39.89,16A3.79,3.79,0,0,1,44,12.21a3.78,3.78,0,1,1,0,7.54A3.79,3.79,0,0,1,39.89,16Zm7.28,0a3.22,3.22,0,0,0-6.43,0,3.22,3.22,0,0,0,6.43,0Z"/><path class="c" d="M136.83,16.12l-2.35-3h.86l1.95,2.47,2-2.47h.85l-2.37,3,2.53,3.18h-.86l-2.11-2.66-2.09,2.66h-.85Z"/><path class="c" d="M143,16.12l-2.35-3h.86l1.95,2.47,2-2.47h.85l-2.37,3,2.53,3.18h-.86l-2.11-2.66-2.09,2.66h-.85Z"/><path class="c" d="M149.13,16.12l-2.35-3h.86l1.95,2.47,2-2.47h.85l-2.37,3,2.53,3.18h-.86l-2.11-2.66-2.09,2.66h-.85Z"/><path class="c" d="M157.92,16.12l-2.35-3h.86l1.95,2.47,2-2.47h.85l-2.37,3,2.53,3.18h-.86l-2.11-2.66-2.09,2.66h-.85Z"/><path class="c" d="M164.07,16.12l-2.35-3h.86l1.95,2.47,2-2.47h.85l-2.37,3,2.53,3.18h-.86l-2.11-2.66-2.09,2.66h-.85Z"/><path class="c" d="M170.22,16.12l-2.35-3h.86l1.95,2.47,2-2.47h.85l-2.37,3,2.53,3.18h-.86l-2.11-2.66-2.09,2.66h-.85Z"/><path class="c" d="M179,16.12l-2.35-3h.86l1.95,2.47,2-2.47h.85l-2.37,3,2.53,3.18h-.86l-2.11-2.66-2.09,2.66h-.85Z"/><path class="c" d="M185.16,16.12l-2.35-3h.86l1.95,2.47,2-2.47h.85l-2.37,3,2.53,3.18h-.86l-2.11-2.66-2.09,2.66h-.85Z"/><path class="c" d="M191.31,16.12l-2.35-3h.86l1.95,2.47,2-2.47h.85l-2.37,3,2.53,3.18h-.86l-2.11-2.66-2.09,2.66h-.85Z"/><rect class="b" x="287.03" y="13.12" width="17.25" height="6.68"/><rect class="b" x="306.78" y="13.12" width="17.25" height="6.68"/></svg>