<svg xmlns="http://www.w3.org/2000/svg" viewBox="0 0 329.07 32.93"><defs><style>.a{fill:#fbfbfb;}.b{fill:#efefef;}.c{fill:#999899;}</style></defs><title>资源 22</title><rect class="a" width="329.07" height="32.93"/><rect class="b" x="144.92" y="8.08" width="52.94" height="16.77"/><path class="c" d="M156.29,12.79h.85v6.6H161v.7h-4.69Z"/><path class="c" d="M161.68,16.45a4.07,4.07,0,1,1,4.05,3.77A3.79,3.79,0,0,1,161.68,16.45Zm7.28,0a3.22,3.22,0,0,0-6.43,0,3.22,3.22,0,0,0,6.43,0Z"/><path class="c" d="M177.77,19.74a7.72,7.72,0,0,1-2.73.48c-2.4,0-4.4-1.24-4.4-3.77,0-2.29,1.63-3.77,4.69-3.77a5.46,5.46,0,0,1,2.21.4l-.26.68a5,5,0,0,0-2-.4c-2.57,0-3.85,1.2-3.85,3.08s1.33,3.08,3.69,3.08a5.36,5.36,0,0,0,1.82-.29V16.4h.8Z"/><path class="c" d="M179,16.45A4.07,4.07,0,1,1,183,20.22,3.79,3.79,0,0,1,179,16.45Zm7.28,0a3.22,3.22,0,0,0-6.43,0,3.22,3.22,0,0,0,6.43,0Z"/><path class="c" d="M9.33,16.33,6.55,12.81h1l2.3,2.92,2.31-2.92h1l-2.81,3.53,3,3.75h-1L9.86,16.94,7.38,20.09h-1Z"/><path class="c" d="M16.6,16.33l-2.78-3.53h1l2.3,2.92,2.31-2.92h1l-2.81,3.53,3,3.75h-1l-2.49-3.14-2.47,3.14h-1Z"/><path class="c" d="M23.87,16.33l-2.78-3.53h1l2.3,2.92,2.31-2.92h1l-2.81,3.53,3,3.75h-1L24.4,16.94l-2.47,3.14h-1Z"/><path class="c" d="M34.26,16.33l-2.78-3.53h1l2.3,2.92,2.31-2.92h1l-2.81,3.53,3,3.75h-1l-2.49-3.14-2.47,3.14h-1Z"/><path class="c" d="M41.54,16.33l-2.78-3.53h1l2.3,2.92,2.31-2.92h1l-2.81,3.53,3,3.75h-1l-2.49-3.14-2.47,3.14h-1Z"/><path class="c" d="M48.81,16.33,46,12.81h1l2.3,2.92,2.31-2.92h1l-2.81,3.53,3,3.75h-1l-2.49-3.14-2.47,3.14h-1Z"/><path class="c" d="M59.2,16.33l-2.78-3.53h1l2.3,2.92,2.31-2.92h1l-2.81,3.53,3,3.75h-1l-2.49-3.14-2.47,3.14h-1Z"/><path class="c" d="M66.47,16.33l-2.78-3.53h1L67,15.72l2.31-2.92h1l-2.81,3.53,3,3.75h-1L67,16.94l-2.47,3.14h-1Z"/><path class="c" d="M73.74,16.33,71,12.81h1l2.3,2.92,2.31-2.92h1L74.8,16.33l3,3.75h-1l-2.49-3.14L71.8,20.09h-1Z"/><rect class="b" x="286.18" y="13.12" width="17.25" height="6.68"/><rect class="b" x="305.93" y="13.12" width="17.25" height="6.68"/></svg>