<svg xmlns="http://www.w3.org/2000/svg" viewBox="0 0 8.79 8.79"><defs><style>.a{fill:#d9265e;}</style></defs><title>资源 22</title><path class="a" d="M0,0,8.79,8.79V0ZM4.7,3.63,2.9,1.83l.16-.16.19.19L4,1.07l.53.53.07-.07L4,.85,4.12.68l.69.69.06-.06L4.22.66,4.65.23,6.29,1.87l-.19.19a.28.28,0,0,1-.46,0l-.42-.42-.06.06.7.7-.17.17L5,1.88l-.07.07.54.54-.79.79.19.19ZM5,4l-.15-.15.19-.19.07.07h.21L6.51,2.56l-.19-.19.21-.21.63.63L7,3l-.12-.12L5.65,4Q5.37,4.35,5,4Zm1.6,1.66a1.16,1.16,0,0,1-.28-.88,1.15,1.15,0,0,1-.9-.3l.19-.19a.75.75,0,0,0,1-.08l.31-.31.3.3-.31.31a.72.72,0,0,0-.09,1ZM8.12,4.15l-.44-.44-.09.05-.1.05.43.43-.9.9-.28-.28.69-.69-.51-.51-.69.69L6,4.09l.9-.9.32.32.18-.12L7,3l.22-.22L8.33,3.93Z"/><polygon class="a" points="5.56 1.67 5.68 1.79 5.78 1.79 5.82 1.75 5.65 1.58 5.56 1.67"/><rect class="a" x="5.18" y="1.15" width="0.13" height="0.23" transform="translate(0.64 4.08) rotate(-45)"/><rect class="a" x="4.74" y="0.71" width="0.13" height="0.23" transform="translate(0.83 3.64) rotate(-45)"/><rect class="a" x="4.52" y="1.42" width="0.1" height="1.08" transform="translate(-0.05 3.8) rotate(-45)"/><rect class="a" x="4.32" y="1.61" width="0.1" height="1.08" transform="translate(-0.24 3.72) rotate(-45)"/><rect class="a" x="3.94" y="1.99" width="0.1" height="1.08" transform="translate(-0.62 3.57) rotate(-45)"/><rect class="a" x="4.14" y="1.8" width="0.09" height="1.08" transform="translate(-0.43 3.64) rotate(-45)"/></svg>