<svg xmlns="http://www.w3.org/2000/svg" viewBox="0 0 378.27 376.79"><defs><style>.cls-1{opacity:0.28;}.cls-2{fill:#386c9b;}.cls-3{fill:#396c9b;}.cls-4{fill:#386c9a;}.cls-5{fill:#3a6c9b;}.cls-6{fill:#3b6c9b;}.cls-7{fill:#42719f;}.cls-8{fill:#396d9b;}.cls-9{fill:#3a6d9c;}.cls-10{fill:#3a6c9c;}.cls-11{fill:#3c6e9d;}.cls-12{fill:#3b6d9c;}.cls-13{fill:#3a6d9b;}.cls-14{fill:#3b6e9c;}.cls-15{fill:#3b6d9b;}.cls-16{fill:#3c6e9c;}.cls-17{fill:#3e6f9c;}.cls-18{fill:#3e6e9c;}.cls-19{fill:#396c9a;}.cls-20{fill:#3c6d9c;}.cls-21{fill:#3b6e9b;}.cls-22{fill:#3f6e9b;}</style></defs><title>11资源 3bg9003</title><g id="图层_2" data-name="图层 2"><g id="图层_1-2" data-name="图层 1"><g class="cls-1"><path class="cls-2" d="M378.27,32.14l-.8,2.78c-7.16-1.75-12.51,1.1-15,7.95a24.66,24.66,0,0,0-1.35,6.41c-.08.92-.18,1.81-1.28,2s-1.49-.67-1.9-1.47A15.89,15.89,0,0,0,355,45.69a9.82,9.82,0,0,0-15,.62c-3.17,3.82-4.19,8.45-4.75,13.23-.09.83.26,1,.93,1h39.27c.56,0,1.12-.06,1.68-.1v3c-3,0-6,.08-9,.08H334.67c-2.32,0-2.7-.35-2.56-2.58a31.2,31.2,0,0,1,3.81-14c4.05-6.92,11.81-9.36,18.17-5.75a18.11,18.11,0,0,1,4.52,4c1.49-5.32,3.69-9.95,8.81-12.37A14.53,14.53,0,0,1,378.27,32.14Z"/><path class="cls-3" d="M32.91,0l2.91.54c.1,4.59,2.37,8.22,5.42,11.37,5.81,6,13.19,8.68,21.32,9.41A37.16,37.16,0,0,0,79,19.3a2.91,2.91,0,0,1,2.64.33c4.7,2.57,9.87,3.4,15.15,4.06-.06-.94-.74-1.37-1.14-2A18.33,18.33,0,0,1,92.36,14a7,7,0,0,1,1.1-5.34A14.18,14.18,0,0,0,96.34.33h3a15.47,15.47,0,0,1-2.89,9.16c-1.66,2.37-1.33,4.57-.37,6.89a22.47,22.47,0,0,0,5.46,7.56c.67.65,1.25,1.27.83,2.27s-1.24.91-2.08.86c-6.72-.43-13.32-1.39-19.44-4.42a3.05,3.05,0,0,0-2.48,0c-10.94,3.07-21.58,2.42-31.68-3C39.86,16,34.82,10.75,33,2.93A5,5,0,0,1,32.91,0Z"/><path class="cls-3" d="M377.36,277.28l.05,3c-1.4.06-2.82-.05-4.19.14-3.88.54-6.43,2.86-8.07,6.3a21.3,21.3,0,0,0-1.84,7.23c-.09.91-.09,1.84-1.19,2.07s-1.56-.66-2-1.52c-1.6-2.93-3.64-5.43-7-6.34A9.35,9.35,0,0,0,343,292c-2.44,3.35-3.28,7.26-3.82,11.26-.21,1.56.92,1.15,1.69,1.15q16.17,0,32.33,0c1.31,0,2.63-.06,3.94-.09v3l-32.48.08c-2.19,0-4.38,0-6.57,0-1.41,0-2.08-.49-2-2A29.4,29.4,0,0,1,339.49,292c4.33-7.92,14.43-9.76,20.57-2.75.2.23.27.58.56.76.75-1.78,1.23-3.38,2-4.88,2.73-5.3,7-7.94,13-7.79C376.22,277.34,376.79,277.29,377.36,277.28Z"/><path class="cls-3" d="M81.52,352a39.92,39.92,0,0,0-31.42.22c-10.57,4.47-17.55,11.81-17.66,24.07h3c-.77-1-.5-2.15-.34-3.25,1.1-7.78,5.74-13,12.27-16.79a35.31,35.31,0,0,1,18.32-4.79c9.94.09,19,2.81,26.11,10.37a20.41,20.41,0,0,1,5.38,12.52,2.38,2.38,0,0,1-.46,1.94h3C99.55,363.83,92.34,356.43,81.52,352Z"/><path class="cls-4" d="M1.14,60.4l26.43.1c.5,0,.94,0,1.11-.68,1-4.3-2.6-10.61-6.91-11.9a16,16,0,0,0-8.33-.34c-2.2.51-2.41.35-3-1.78-1.31-5.18-3.82-9.37-9.34-11v-3C7.22,33,10.54,37.15,12.6,42.57c.49,1.31.86,2,2.53,1.76a16.56,16.56,0,0,1,6.52.46c5.69,1.34,9.34,6,9.93,12.64.54,6.07.54,6.08-5.47,6.07l-25-.09Z"/><path class="cls-3" d="M1.14,304.35c8.5,0,17,0,25.5.11,1.5,0,1.2-1,1.12-1.77-.76-7.94-4.87-11.52-14-10.09a2.7,2.7,0,0,1-3-2c-1.17-4.35-3.25-8-7.77-9.63a3.24,3.24,0,0,0-1.81-.33v-3c3.62.13,6.35,2,8.68,4.55A9.53,9.53,0,0,1,12.21,286c.7,2.83,2.22,3.46,5.12,3.44,9.14-.06,15,7.28,13.4,16.34-.19,1.07-.68,1.69-1.85,1.68l-27.74-.08Z"/><path class="cls-5" d="M315.2,376.79l-2.51-1.54c.19-.35.37-.71.53-1.08,1.28-3.11.52-5.49-2-6.41-3.44-1.24-6.69.06-7.68,3.14-.28.9-.55,1.7-1.66,1.72s-1.36-.86-1.65-1.72a5.72,5.72,0,0,0-8.92-2.36,3.71,3.71,0,0,0-1.17,3.93c.35,1.31.87,2.58,1.31,3.86h-3.38c-.31-1.2-.67-2.38-.9-3.6a6.57,6.57,0,0,1,4.08-7.59c3.53-1.27,7-1.27,10,1.51.55.51.77.49,1.31,0,2.78-2.55,6.08-2.73,9.49-1.75a6.66,6.66,0,0,1,4.72,7.73A10.09,10.09,0,0,1,315.2,376.79Z"/><path class="cls-5" d="M19.31,135.94c-1.07-.75-2.12-1.54-3.18-2.32C14,132.09,14,132.1,15.62,130c1.28-1.7,1.05-2.56-.93-3.11-3.85-1.06-7.73-2-11.57-3.11a2.53,2.53,0,0,0-1.61,0l-.72,2.31c2,2.72,3.41,5.81,5.1,8.72,2.43,4.2,2.44,4.25,5.43.56.69-.86,1.11-.83,1.9-.2,1.4,1.14,2.91,2.15,4.36,3.24.83.63,1.74,1,2.47,0S20.23,136.59,19.31,135.94Zm-10.8-2.08-3.6-6.44,7,1.84A37.81,37.81,0,0,1,8.51,133.86Z"/><path class="cls-5" d="M162.36.23l2.08,2.2c-1.31,3.71-3,7.29-4.37,11-.87,2.27-1.83,4.51-2.73,6.77a1.58,1.58,0,0,1-1.55,1.14,1.55,1.55,0,0,1-1.53-1.16q-3-8.86-6.09-17.76L150.32.26c.94.4,1.12,1.28,1.38,2.09,1.3,3.9,2.81,7.74,4.19,12.16.93-2.51,1.85-4.55,2.69-6.63.78-1.91,1.53-3.83,2.3-5.74C161.19,1.38,161.43.56,162.36.23Z"/><path class="cls-3" d="M161,361.11a10.56,10.56,0,0,0-11.55,1.62A10.4,10.4,0,0,0,146.49,374a4.62,4.62,0,0,1,.6,2.32h3.38c.58-1.34-.44-2.37-.74-3.53a7.19,7.19,0,0,1,3.06-8.17,7.33,7.33,0,0,1,8.1.53,7.21,7.21,0,0,1,1.92,8.16c-.36.95-1.09,1.85-.7,3l3.44-.25c.34-1.68,1.36-3.15,1.42-4.92A10.67,10.67,0,0,0,161,361.11Z"/><path class="cls-5" d="M291.8.33c2.43,4.33,6,7.68,9.5,11.07.61.59,1,.24,1.39-.16A50,50,0,0,0,312.1.33h3.39c-2.94,5.91-7.61,10.32-12.47,14.58a1.65,1.65,0,0,1-2.2,0C296,10.63,291.27,6.28,288.42.33Z"/><path class="cls-6" d="M1.67,119.1,0,116.51c1.24-.9,2.41-1.88,3.65-2.78a1.38,1.38,0,0,1,2.13.25,1.36,1.36,0,0,1-.25,2A42.78,42.78,0,0,1,1.67,119.1Z"/><path class="cls-7" d="M377.14,119.79c-.94.32-1.86.49-2.4-.61s.15-1.65.87-2.19c.49-.35.82-1,1.53-1Z"/><path class="cls-3" d="M182.27,56.21a30.9,30.9,0,1,0-.19,61.79c17.37,0,31.46-13.82,31.41-30.89A31.09,31.09,0,0,0,182.27,56.21Zm-1.86,42.63c0,.83-.36,1-1.11,1.09a34.85,34.85,0,0,0-9.66,2.15c-.78.3-1.19.22-1.55-.64a40.84,40.84,0,0,1-2.92-11.38c-.12-1.06.18-1.46,1.29-1.43,2.12.07,4.25,0,6.37,0s4.13,0,6.19,0c.88,0,1.42.13,1.4,1.2Q180.35,94.34,180.41,98.84Zm0-14.42c0,1-.4,1.27-1.34,1.25-2.13,0-4.26,0-6.39,0s-4.13,0-6.19,0c-1.05,0-1.46-.26-1.33-1.37a41.77,41.77,0,0,1,3.12-11.93c.33-.78.69-1,1.54-.69a30.39,30.39,0,0,0,9.32,1.94c1,0,1.28.47,1.26,1.4Q180.35,79.72,180.42,84.42Zm-3.93-24.76c3.11-1,3.65-.62,3.65,2.57V65c0,1.07,0,2.13,0,3.19,0,2.9.46,2.58-2.65,2.28a38.18,38.18,0,0,1-6.38-1.44c-1.88-.53-.74-1.38.43-3.32a31.24,31.24,0,0,1,4.15-5.55A1.83,1.83,0,0,1,176.49,59.66Zm-10.92,5a23.25,23.25,0,0,1,5.55-3.1C170,63.38,169,65,168,66.62c-.24.4-.51.77-1,.46-.79-.46-1.87-.61-2.29-1.48C164.42,65.15,165.21,64.89,165.57,64.62ZM154.7,81.48a29.27,29.27,0,0,1,6-12.35c.83-1,1.44-1.38,2.72-.52,2.47,1.67,2.54,1.57,1.41,4.44a36.9,36.9,0,0,0-2.66,10.88c-.1,1.38-.45,1.93-1.84,1.74a18.76,18.76,0,0,0-2.25,0C153.81,85.66,153.77,85.65,154.7,81.48Zm4.38,21.2a28.63,28.63,0,0,1-4.76-12.08c-.34-2.21-.3-2.26,2-2.27h1.87c4.37,0,3.66,0,4.61,5.69a29.91,29.91,0,0,0,2.52,7.82c.52,1.11.48,1.58-.58,2.17C161.32,105.91,161.35,106,159.08,102.68Zm4.9,5.63c3.1-2.15,3.09-2.15,4.89.75.71,1.14,1.45,2.26,2.37,3.69A24.77,24.77,0,0,1,164,108.31Zm16.44-3.66c-.07,1.56,0,3.12,0,4.68h0c0,1.57-.05,3.13,0,4.69.05,1.06-.4,1.27-1.34,1.18a5.18,5.18,0,0,1-4.14-2.08c-1.52-2.14-3.06-4.26-4.45-6.48-.56-.89-.54-1.34.61-1.69a56,56,0,0,1,7.86-1.72C180.18,103,180.48,103.52,180.42,104.65Zm25-33.34a29.08,29.08,0,0,1,4.85,12.45c.21,1.41-.08,2.13-1.68,1.92a19.21,19.21,0,0,0-2.63,0c-3.83,0-3.83,0-4.48-3.84a37.93,37.93,0,0,0-3.15-10.16c-.5-1-.29-1.43.71-1.94C202.89,67.71,202.86,67.67,205.39,71.31Zm-22,18.53c0-1.08.51-1.21,1.39-1.2,2.13,0,4.26,0,6.38,0s4.26,0,6.39,0c.87,0,1.2.19,1.12,1.17a35.13,35.13,0,0,1-3.32,11.66c-.3.67-.69.73-1.34.49a36.86,36.86,0,0,0-9.69-2c-.76-.05-.92-.42-.92-1.08C183.45,95.85,183.47,92.84,183.42,89.84ZM200,65.42a1.41,1.41,0,0,1-.13.24c-3,2.32-3.18,2.29-5.17-.78-.78-1.2-1.6-2.37-2.65-3.9A26.45,26.45,0,0,1,200,65.42Zm-16.09-6.05a3.24,3.24,0,0,1,3.33.71,51.05,51.05,0,0,1,5.5,7.78c.45.75.26,1-.55,1.3a35.56,35.56,0,0,1-7.51,1.49c-1.05.08-1.28-.35-1.25-1.28,0-1.5,0-3,0-4.5,0-1.12-.06-2.25,0-3.37C183.51,60.76,183,59.61,183.91,59.37Zm-.27,23.8a19.8,19.8,0,0,0,0-6.91c-.31-1.92-.14-2.57,1.15-2.62a32.35,32.35,0,0,0,9-1.75c.74-.24,1.14-.2,1.47.54A41.12,41.12,0,0,1,198.73,84c.17,1.37-.3,1.73-1.6,1.67-2-.1-4,0-6,0h0c-2.06,0-4.13,0-6.19,0C183.72,85.7,183.22,85.42,183.64,83.17Zm.38,31.74c-.66,0-.57-.56-.57-1,0-3.32,0-6.63,0-9.94,0-1.16.59-1.19,1.3-1.06a36.4,36.4,0,0,1,7.62,1.56c1,.32,1.12.69.59,1.57a66.14,66.14,0,0,1-5.47,7.83C186.51,115.07,185.24,114.88,184,114.91Zm8.34-1.72c1.48-2.42,2.75-4.48,4-6.55.26-.42.57-.36.94-.14a14.17,14.17,0,0,1,3.08,1.9A27.2,27.2,0,0,1,192.36,113.19Zm11-7.77c-1.6,1.64-2.8-1.17-4.38-1.44-.91-.15-.85-.77-.52-1.56A38.49,38.49,0,0,0,201.7,90c.08-1.06.54-1.35,1.55-1.32,1.87.07,3.75.08,5.63,0,1.15,0,1.67.31,1.45,1.15C209.58,96,207.47,101.22,203.4,105.42Z"/><path class="cls-3" d="M302.48,271.19c0-1.39-.57-2.13-2-2.07-.53,0-1-.06-1.13-.71a5.82,5.82,0,0,0-4-4,1.44,1.44,0,0,1-1.05-1.68,29.56,29.56,0,0,0-.21-6.37c-1.63-10.29-7.18-17.7-16.72-21.72s-19-2.87-27.33,3.42c-7.86,5.91-11.47,14-10.91,23.87.08,1.39-.18,2.18-1.59,2.59a5.37,5.37,0,0,0-2.84,2.08c-.85,1.2-1.43,2.23-3.14,2.89-2,.77-.68,3.46-.94,5.3-.12.85-.12,2.2.85,2.21,2.08,0,2.13,1.51,2.69,2.8a5.21,5.21,0,0,0,3,2.73c2,.82,4.24,1.24,5,3.77.11.38.72.68,1.16.91,2.81,1.43,5.86-.58,5.91-4,.07-5.58,0-11.15,0-16.73,0-4.93-2.51-6.6-7-4.64-1.38-8.2,3.65-18,11.73-22.91a24.76,24.76,0,0,1,27.55,1.41c7.55,5.62,10.88,15.62,9.54,21.93a4,4,0,0,0-4.84-.86c-1.89.92-2.32,2.6-2.31,4.56.05,5.76,0,11.52,0,17.28a4.08,4.08,0,0,0,8,1.55c.23-.55.29-1.12,1.14-1.26a10.45,10.45,0,0,0,5.07-2.45,4.28,4.28,0,0,1,.08.65,3.67,3.67,0,0,1-.11.74,16,16,0,0,1-7.81,10.34A27.3,27.3,0,0,1,277.66,296c-1.21.05-2.31.06-3.07-1.21a2.88,2.88,0,0,0-2.45-1.22,65.44,65.44,0,0,0-6.57,0,4.06,4.06,0,0,0,.3,8.12c1.94.06,3.89,0,5.83,0,.91,0,2-.1,2.41-.81,1.29-2.25,3.41-1.81,5.38-2a36.79,36.79,0,0,0,4.46-.61c7.85-1.66,14-5.52,16.52-13.56A42.23,42.23,0,0,0,302.48,271.19Zm-62.75,9c-2.41-.78-3.14-1.67-3.14-4.14,0-1.94,0-3.87,0-5.81a4.06,4.06,0,0,1,3.73-3.71c.83,0,.7.5.7,1,0,1.93,0,3.87,0,5.8h0c0,2,0,4,0,6C241.08,280.44,240.72,280.54,239.73,280.22Zm4.3-5.82c0-2.87,0-5.74,0-8.62,0-.77,0-1.64,1-1.68s1.22.86,1.22,1.72c0,5.75,0,11.49,0,17.24,0,.83-.21,1.62-1.15,1.6S244,283.85,244,283C244,280.15,244,277.28,244,274.4Zm44,10.25c-1.07,0-1.07-1-1.07-1.84,0-5.62,0-11.24,0-16.86,0-.81-.1-1.81,1.05-1.83,1.31,0,1.16,1,1.16,1.91q0,4.22,0,8.43v8.25C289.16,283.59,289.23,284.66,288,284.65Zm8.58-7.67a4.11,4.11,0,0,1-3.84,3.63c-.87,0-.59-.65-.59-1.06,0-2,0-4,0-6s0-3.86,0-5.79c0-1,.36-1.14,1.23-.89,2.38.68,3.23,1.76,3.24,4.31C296.6,273.12,296.63,275.05,296.59,277Zm-23.78,20.74a1,1,0,0,1-1.13,1h-3c-.94,0-1.88,0-2.81,0a1,1,0,0,1-1.09-1.05,1.05,1.05,0,0,1,1.06-1.11q3-.07,6,0A1,1,0,0,1,272.81,297.72Z"/><path class="cls-3" d="M144.76,152c-.28-4.07-2.62-5.94-6.7-5.94H115.9c-3.41,0-3.41,0-3.48-3.41-.12-6.79-4.09-10.71-10.84-10.72H82.05c-6.83,0-13.65,0-20.48,0a6.64,6.64,0,0,0-5.93,3.32,11.35,11.35,0,0,0-1.71,6.08c-.08,7.13-.14,14.27,0,21.41.11,5.45,3.44,8.51,8.87,8.51,7.89,0,15.78,0,23.67,0A2.78,2.78,0,0,1,89,172.38c1.07,1.46,2.25,2.85,3.38,4.26.55.68,1,1.55,2.08,1.33s1.19-1.33,1.39-2.23c.27-1.15.47-2.33.7-3.49.11-.57.22-1.08,1-1.06,1.88,0,3.76,0,5.64,0a1.06,1.06,0,0,1,1,.68c1.28,2.39,3.28,3.23,5.93,3,1.29-.12,2.78-.48,3.86.21.84.53.57,1.95.91,2.94.48,1.4,1.54,1.63,2.55.54a16.59,16.59,0,0,0,2.08-2.66,3.52,3.52,0,0,1,3.56-1.78c5.13.11,10.27.07,15.41,0,3.73,0,6.11-1.87,6.29-5.31A137.94,137.94,0,0,0,144.76,152Zm-41.25,1.83c-.09,4.26-.07,8.52,0,12.78,0,1.29-.32,1.77-1.66,1.68-1.69-.11-3.39.07-5.07-.05s-2.7.5-2.92,2.31a3.8,3.8,0,0,1-.69,2.27c-.84-1-1.73-2-2.45-3a3.38,3.38,0,0,0-3.16-1.55c-8.2.07-16.4,0-24.61,0-4,0-6-1.9-6.07-6-.07-6.82,0-13.65,0-20.47a11,11,0,0,1,.66-3.68c.89-2.45,2-3.24,4.61-3.24h39.07c5.63,0,8.2,2.6,8.22,8.31,0,.62,0,1.25,0,1.87.06.81-.24,1.19-1,1.47C105,147.71,103.59,150.38,103.51,153.78ZM142,167.12c0,3.15-.93,4-4,4-5.25,0-10.51.07-15.77,0-1.8,0-3.18.3-4.07,2a9.18,9.18,0,0,1-1,1.13c0-2.23-1.21-2.37-2.65-2.31s-2.88,0-4.32,0c-2.85,0-3.59-.69-3.63-3.62,0-4,0-8,0-12,0-1.13-.06-2.26,0-3.38.23-2.5,1.67-3.88,4.16-3.89,9.45,0,18.91,0,28.36,0a2.31,2.31,0,0,1,2.39,1.67,9.14,9.14,0,0,1,.52,3.51C142,158.48,142,162.8,142,167.12Z"/><path class="cls-3" d="M317.12,84.44c0-2.33-.26-2.59-2.59-2.59H276c-2.26,0-2.59.32-2.59,2.61q0,19.25,0,38.5c0,2.31.25,2.55,2.63,2.55h38.5c2.36,0,2.56-.2,2.56-2.58Q317.14,103.7,317.12,84.44Zm-30,37.89c-3.13,0-6.26,0-9.38,0-.93,0-1.35-.22-1.34-1.25.05-3.38,0-6.76,0-10.14a2.17,2.17,0,0,1,.39-1.4c2.92-4.13,5.82-8.29,9-12.77l12.89,25.54Zm25.07.25c-1.43-.12-2.87,0-4.31,0-4.66,1.36-7.06-1-8.47-5.09-.57-1.7-2.22-3.34-2.06-4.88s2-2.73,3.13-4.07c1.41-1.68,2.87-3.31,4.24-5,.6-.75,1-.72,1.54,0,2.45,3.32,4.94,6.61,7.44,9.9a2.87,2.87,0,0,1,.47,1.95,48.38,48.38,0,0,0,0,5.25C314.35,122.29,313.71,122.7,312.19,122.58Zm2-13.07c-2.51-3.47-4.67-6.46-6.83-9.43-1.33-1.83-2-1.88-3.49-.19-2.72,3.18-5.43,6.37-8.31,9.76-.76-1.46-1.46-2.75-2.13-4.06-1.81-3.57-3.6-7.14-5.4-10.71-1.54-3.06-2.29-3.09-4.29-.23l-7,10c-.58-.59-.31-1.18-.31-1.69,0-5.51,0-11,0-16.52,0-1.17.21-1.64,1.51-1.63q17.37.08,34.74,0c1.31,0,1.57.44,1.57,1.6C314.18,93.93,314.2,101.43,314.2,109.51Z"/><path class="cls-5" d="M168.14,316.9c1.76-1.94,1.91-3.53.51-5.76a1.09,1.09,0,0,1,0-1.43c1.42-2.31,1.26-4.12-.64-6.09-.75-.77-.7-1.11,0-1.88a3.9,3.9,0,0,0-1.25-6.28,10.58,10.58,0,0,0-2.65-.88,37.9,37.9,0,0,0-10.41-.46,1.17,1.17,0,0,1-.07-.32c.07-.36.15-.73.24-1.09,1.3-4.87.2-9.3-2.54-13.38a4.83,4.83,0,0,0-5.14-2.37c-2.22.44-2.5,2.37-2.76,4.21,0,.31,0,.62-.09.93-.69,4.22-1.63,8.36-4,12-.63,1-1.13,2.55-2.71.93-.13-.14-.48-.08-.73-.08H120.25c-1.28,0-1.81.68-1.73,1.91,0,.62.08,1.25.14,1.87.69,7,1.4,14.07,2.08,21.1.62,6.47-.08,5.42,5.87,5.51,1.69,0,3.38.05,5.07,0s3.7.67,5-.29c2.2-1.66,2.71,1.49,4.29,1.08a3.14,3.14,0,0,1,.75,0c6.32,0,12.64,0,19,0a10.43,10.43,0,0,0,5.68-1.69c2.32-1.51,2.88-3.49,1.59-6A1.1,1.1,0,0,1,168.14,316.9Zm-34.91,5.46c-2.63-.09-5.27-.08-7.89,0-1.2,0-1.46-.47-1.55-1.53-.64-7.17-1.31-14.33-2.05-21.49-.11-1.06,0-1.46,1.18-1.44q5.25.08,10.52,0c1.05,0,1.24.42,1.23,1.34,0,3.63,0,7.26,0,10.89s0,7.14,0,10.71C134.69,322,134.43,322.4,133.23,322.36Zm31.32-10.49c.95.34,2,.72,2,1.94s-1.06,1.41-1.93,1.79c-1.63.69-1.8,1.54-.61,2.78.3.32.65.6.93.93,1.05,1.24.91,2-.55,2.82a8,8,0,0,1-4,1H142.58a5.24,5.24,0,0,1-4.94-4.9c0-5.38,0-10.76,0-16.14a3.61,3.61,0,0,1,1.31-3.05c4.37-3.93,6-9.25,7-14.78.22-1.11.33-2.23.48-3.34s.81-1.31,1.66-.67a4.71,4.71,0,0,1,1.1,1.25c2.55,4.19,3.11,8.49.79,13-1,1.93-.37,2.81,1.82,2.67a54.89,54.89,0,0,1,9.93,0c.74.08,1.48.22,2.22.35s1.84.39,2.1,1.34-.72,1.35-1.32,1.83c-2.19,1.79-2.16,2.42.22,4.16.81.59,1.71,1.22,1.58,2.37s-1.05,1.43-2,1.7a1.47,1.47,0,0,0-1.22,1.46A1.56,1.56,0,0,0,164.55,311.87Z"/><path class="cls-5" d="M240.21,338.38c0-1.4-.47-1.71-1.73-1.7-6.14,0-12.27,0-18.41,0H202.42c-2.64,0-3,.37-3,3v18.6c0,2.7.15,2.86,2.88,2.86h35.3c2.51,0,2.59-.15,2.58-2.67C240.11,351.78,240.11,345.08,240.21,338.38Zm-6,.95L220.6,349.7a.83.83,0,0,1-1.16,0c-4.46-3.4-8.93-6.79-13.68-10.39Zm1.2,18.8q-14,0-28,0c-1.66,0-3.86.74-4.82-.36-.82-.95-.3-3.09-.3-4.71,0-3.86,0-7.73,0-11.94,1.1.79,2,1.4,2.88,2.06,4.25,3.19,8.53,6.34,12.73,9.6a2.61,2.61,0,0,0,3.79,0c5-3.89,10-7.66,15.41-11.76,0,5.65,0,10.89,0,16.12C237.19,358.54,236.17,358.13,235.46,358.13Z"/><path class="cls-3" d="M92.38,225.92c0-1.7-.68-2.31-2.36-2.31q-18.78.06-37.56,0c-1.69,0-2.33.67-2.33,2.36,0,12,0,23.91,0,35.87,0,2.23.37,2.58,2.64,2.58H71.2c6.26,0,12.52,0,18.78,0,1.64,0,2.41-.52,2.4-2.28Q92.32,244.05,92.38,225.92Zm-2.91,34c0,1.26-.41,1.56-1.62,1.56q-16.53-.08-33.07,0c-1.32,0-1.68-.37-1.67-1.68q.07-15.78,0-31.56c0-1.33.39-1.68,1.7-1.66,5.51.07,11,0,16.53,0s11,0,16.53,0c1.25,0,1.61.37,1.6,1.59Q89.43,244,89.47,259.92Z"/><path class="cls-3" d="M310,164.77a24.67,24.67,0,0,0-16.46-6.83c-7.89-.43-15,1.58-20.73,7.39-4.85,4.95-5.88,11.87-2.5,17.61a5.3,5.3,0,0,1-.06,5.79,16.11,16.11,0,0,1-3,3.85c-.6.57-1.22,1.14-.81,2.1s1.28,1.07,2.2,1c3.31-.28,6.67-.52,9.74-1.8a11,11,0,0,1,8.07-.52,13.62,13.62,0,0,0,5,.49c6.65-.07,12.74-1.81,17.84-6.27C316.61,181.2,316.91,171.51,310,164.77Zm-2.11,20c-7,6.45-15.36,7.24-24.21,4.82a4.17,4.17,0,0,0-3.35.27,23.68,23.68,0,0,1-8.61,2.3c1.3-2.25,2.55-4.28,2.54-6.76a5.36,5.36,0,0,0-.81-3c-3.31-5.24-2.69-10.95,1.82-15.36,5.12-5,11.52-6.59,18.46-6.12a21.79,21.79,0,0,1,14.22,6C313.38,172.21,313.48,179.65,307.88,184.8Z"/><path class="cls-3" d="M199.07,217.53c-2.38-.06-3.44-.76-4.46-2.93-1.92-4.09-5.46-6-10.06-5.85-4.44.16-7.3,2.54-9.1,6.43-.28.62-.51,1.26-.85,2.12-.36-.27-.55-.4-.73-.55-4.72-4-10.82-3.23-14.29,1.88a19.42,19.42,0,0,0-3.07,9.72c-.2,2.85,0,3,2.82,3h46.36a8.16,8.16,0,0,0,1.31,0,1.55,1.55,0,0,0,1.36-1.34C209.8,223.69,205.51,217.71,199.07,217.53Zm6.36,9.92c-.07,1.31-.93.93-1.58.93q-10.69,0-21.39,0c-7.07,0-14.14,0-21.21,0-1.4,0-1.87-.2-1.5-1.76a19.21,19.21,0,0,1,2.22-6.12c2.79-4.34,7.78-4.54,10.89-.42a19.76,19.76,0,0,1,1.27,2.07,1.5,1.5,0,0,0,2.89-.61,14.55,14.55,0,0,1,1-4.75c1.19-3,3.16-4.92,6.53-5.09a7.55,7.55,0,0,1,7.53,4.25,12.45,12.45,0,0,1,1.19,3.34c.25,1.21.9,1.73,2.15,1.36a10.63,10.63,0,0,1,4.09-.2A6.51,6.51,0,0,1,205.43,227.45Z"/><path class="cls-3" d="M224.35,141.22A18.85,18.85,0,1,0,243.28,160,18.9,18.9,0,0,0,224.35,141.22Zm0,34.71a15.86,15.86,0,1,1,15.91-15.63A15.89,15.89,0,0,1,224.37,175.93Z"/><path class="cls-3" d="M258.42,47.69a29.52,29.52,0,0,1-2.15-2.59,4.28,4.28,0,0,1-.3-5c2.43-4.43,1.93-8.87-1.17-12.82-4-5.11-9.65-6.85-15.43-7.1a22.5,22.5,0,0,0-13,3.78c-8,5.55-8.13,15.57-.14,21.18,5.67,4,12,4.72,18.62,3.09a4,4,0,0,1,2.69.18,28,28,0,0,0,9.7,1.89,1.55,1.55,0,0,0,1.68-.93C259.21,48.68,258.84,48.19,258.42,47.69Zm-5.91-3.56a24.45,24.45,0,0,0,1.16,2.77,11.92,11.92,0,0,1-5.06-1.26,5.44,5.44,0,0,0-4.4-.35,18.73,18.73,0,0,1-16-2.35c-6.6-4.39-6.6-12-.11-16.59,6.22-4.38,16.06-4.17,22,.41,4.15,3.19,5.81,8.36,2.59,13C251.78,41.18,252.1,42.68,252.51,44.13Z"/><path class="cls-3" d="M119,73.1c-3.57-1.35-7.12-1.33-10.21,1.37-.49.43-.76.68-1.32.06-1.66-1.79-3.84-2.24-6.17-2.2C94.92,72.32,91.69,77,94,83a13.07,13.07,0,0,0,.6,1.38c3,5.7,7.51,10.13,12.29,14.3a1.84,1.84,0,0,0,2.69-.11A59,59,0,0,0,120.3,86.79a16.65,16.65,0,0,0,2.58-5.8C123.6,77.57,122.12,74.27,119,73.1Zm.94,7.33a12.45,12.45,0,0,1-1.87,4.27,55.73,55.73,0,0,1-9.13,10.39c-.53.5-.9.68-1.53.09-3.64-3.44-7.16-7-9.71-11.35a13.16,13.16,0,0,1-.84-1.68c-1.73-4.08.1-6.85,4.5-6.83,3,0,4.15.77,5.11,3.63.29.85.66,1.56,1.61,1.57s1.31-.72,1.6-1.56a5.87,5.87,0,0,1,8.72-2.84A3.89,3.89,0,0,1,119.94,80.43Z"/><path class="cls-8" d="M347.85,177.93h25a7.73,7.73,0,0,1,1.67.1,1.29,1.29,0,0,1,1.05,1.18,1.3,1.3,0,0,1-.91,1.48,6.27,6.27,0,0,1-1.84.22q-25,0-49.94,0a8.43,8.43,0,0,1-1.67-.13,1.32,1.32,0,0,1-1.13-1.5,1.35,1.35,0,0,1,1.33-1.32c.5-.05,1,0,1.5,0Z"/><path class="cls-5" d="M150.5,246.89H131.16c-1.11,0-2.34,0-2.35-1.47s1.15-1.54,2.31-1.54q19.53,0,39,0c1.16,0,2.29.16,2.25,1.59s-1.13,1.42-2.21,1.42Z"/><path class="cls-3" d="M346.92,228.51c-5.51.25-9.8,2.47-12,7.91-.41,1-1,1.89-2.19,1.4s-1-1.57-.59-2.55a15.69,15.69,0,0,1,16-9.71c5.88.51,10.26,3.26,13,8.52.51,1,1,2.09-.31,2.76s-1.84-.37-2.35-1.38C356.16,230.7,352.16,228.64,346.92,228.51Z"/><path class="cls-9" d="M50.44,82.09c-4.76,0-9.52,0-14.28,0a6.33,6.33,0,0,1-1.85-.2,1.25,1.25,0,0,1-1-1.43,1.32,1.32,0,0,1,1.16-1.29A12.46,12.46,0,0,1,36,79.1H65.7c.94,0,1.63.42,1.66,1.4s-.72,1.54-1.71,1.57c-1.56,0-3.13,0-4.69,0Z"/><path class="cls-9" d="M327.46,323.33h14.65c1.09,0,2.32-.05,2.31,1.48s-1.26,1.51-2.34,1.51h-29.3c-1.11,0-2.31-.06-2.31-1.53s1.25-1.46,2.34-1.46Z"/><path class="cls-5" d="M242,201.8a6.28,6.28,0,0,0-6.2,6.07,6.21,6.21,0,0,0,12.41.35A6.24,6.24,0,0,0,242,201.8Zm.06,9.28a3,3,0,0,1-3-2.93,2.94,2.94,0,0,1,3-3.07,3,3,0,0,1,3,3A3.16,3.16,0,0,1,242.05,211.08Z"/><path class="cls-9" d="M170.93,236.55H185c1,0,2.18,0,2.24,1.36s-1.09,1.57-2.22,1.58l-28.31,0c-1,0-2-.31-2-1.5s.91-1.48,2-1.48Z"/><path class="cls-3" d="M78.32,300.24c4.2.14,8.3,2.52,10.86,7.39.45.86.9,1.82-.24,2.44s-1.61-.35-2-1.21c-2.26-4.37-6-6.24-10.76-6-4.64.24-8.06,2.39-9.86,6.8-.36.89-.78,1.73-1.87,1.31s-.88-1.45-.53-2.38C65.8,303.42,70.89,300.19,78.32,300.24Z"/><path class="cls-5" d="M335.62,240.15a10.87,10.87,0,0,1,6.2-6.86,12.09,12.09,0,0,1,15.12,4.19,11.12,11.12,0,0,1,.72,1.31c.44,1,.5,1.9-.61,2.38s-1.59-.12-2.09-1c-2.42-4.25-6.09-5.8-10.73-4.57a8.06,8.06,0,0,0-5.68,5.26,1.47,1.47,0,0,1-1.89,1.08C335.79,241.7,335.56,241,335.62,240.15Z"/><path class="cls-5" d="M33.75,191.36a5.78,5.78,0,1,0,.07,11.55A5.72,5.72,0,0,0,39.56,197,5.81,5.81,0,0,0,33.75,191.36Zm.17,8.55A2.79,2.79,0,0,1,31,197.2a2.8,2.8,0,1,1,5.6-.09A2.77,2.77,0,0,1,33.92,199.91Z"/><path class="cls-10" d="M329.22,189.75c-3.81,0-7.62,0-11.43,0-1.09,0-2.18-.12-2.19-1.43s1.11-1.58,2.27-1.58c7.62,0,15.24,0,22.87,0,1.07,0,2.14.13,2.17,1.46,0,1.51-1.14,1.54-2.25,1.54Z"/><path class="cls-5" d="M120.83,345.65a5.74,5.74,0,1,0,5.65,5.78A5.66,5.66,0,0,0,120.83,345.65Zm-.09,8.55a2.86,2.86,0,0,1-2.8-2.93,2.78,2.78,0,0,1,2.87-2.63,2.7,2.7,0,0,1,2.67,2.79A2.8,2.8,0,0,1,120.74,354.2Z"/><path class="cls-11" d="M330.53,170.52c-3.44,0-6.88,0-10.33,0-1.11,0-2.33,0-2.37-1.44s1.11-1.56,2.26-1.55q10.32,0,20.65,0c1.08,0,2.14.08,2.17,1.44s-1.1,1.55-2.25,1.55C337.28,170.51,333.91,170.52,330.53,170.52Z"/><path class="cls-9" d="M362.21,326.33H351.9c-.84,0-1.68,0-2.1-.92-.55-1.15.28-2.06,2-2.06,4.75,0,9.5,0,14.25,0,2.25,0,4.5,0,6.75,0,1,0,2,.22,2,1.42s-1,1.58-2.1,1.58Z"/><path class="cls-10" d="M15.65,79.1c3.43,0,6.87,0,10.3,0,1.09,0,2.16.12,2.16,1.45s-1,1.55-2.13,1.55H5c-1.05,0-1.93-.28-1.95-1.5S3.91,79.09,5,79.09C8.52,79.11,12.08,79.1,15.65,79.1Z"/><path class="cls-12" d="M340.39,317.11h-9.95c-1.06,0-2.15-.06-2.19-1.43s1.11-1.57,2.24-1.57h19.89c1.08,0,2.17.11,2.21,1.43s-1.09,1.59-2.25,1.58C347,317.09,343.71,317.11,340.39,317.11Z"/><path class="cls-13" d="M37.29,73.16c-3.31,0-6.63,0-9.94,0-1.1,0-2.12-.16-2.09-1.53s1.07-1.47,2.15-1.47q9.94,0,19.89,0c1.15,0,2.32.1,2.29,1.53s-1.22,1.48-2.36,1.47C43.92,73.14,40.6,73.16,37.29,73.16Z"/><path class="cls-5" d="M53.19,101.71a5.07,5.07,0,0,0-5.19,5,5.14,5.14,0,0,0,5.15,5.1,5,5,0,0,0,5-5.06A5,5,0,0,0,53.19,101.71ZM53,108.82a1.91,1.91,0,0,1-2-2,2,2,0,0,1,2.22-2.08,2.07,2.07,0,0,1-.26,4.13Z"/><path class="cls-5" d="M179,153.3a5,5,0,0,0-4.93,5.28,5,5,0,0,0,5.14,4.85,5.1,5.1,0,0,0,5-5.06A5.18,5.18,0,0,0,179,153.3Zm0,7.15a2.06,2.06,0,1,1,2.18-2.09C181.19,159.65,180.4,160.38,179,160.45Z"/><path class="cls-5" d="M19.57,334.78a5,5,0,0,0-4.94,5,5,5,0,1,0,10,0A4.94,4.94,0,0,0,19.57,334.78Zm.14,7.11a1.93,1.93,0,0,1-2.1-2.1,2.05,2.05,0,1,1,4.1.08A1.89,1.89,0,0,1,19.71,341.89Z"/><path class="cls-3" d="M301.59,43.64a5,5,0,0,0-5,5.16,5,5,0,0,0,10.06,0A5,5,0,0,0,301.59,43.64Zm0,7.1a2,2,0,1,1,2-2A1.91,1.91,0,0,1,301.62,50.74Z"/><path class="cls-13" d="M80.51,51.38a1.65,1.65,0,0,1-1.79,1.53c-2.61.17-2.61.2-2.64,2.86a8.39,8.39,0,0,1,0,1.12,1.37,1.37,0,0,1-1.38,1.28,1.42,1.42,0,0,1-1.55-1.31,3.46,3.46,0,0,1,0-.56c0-1,.26-2.32-.23-3.1S71,53,70,52.87a1.41,1.41,0,0,1-1.31-1.55c0-.87.61-1.29,1.46-1.42s2.21.5,2.75-.42c.42-.7.14-1.82.14-2.76,0-1.1.2-2.11,1.55-2.07s1.48,1.09,1.45,2.16c0,.25,0,.5,0,.75-.29,1.78.23,2.7,2.24,2.36A1.67,1.67,0,0,1,80.51,51.38Z"/><path class="cls-13" d="M358,375a1.5,1.5,0,0,1-1.44-1.28,6,6,0,0,1,0-1.12c0-2.67,0-2.69-2.62-2.89-1-.08-1.77-.47-1.75-1.53s.74-1.51,1.78-1.46c.5,0,1,0,1.5,0,.81.07,1.14-.24,1.09-1.06s0-1.75,0-2.62.47-1.58,1.46-1.6,1.45.6,1.51,1.55c0,.12,0,.25,0,.37,0,1-.29,2.18.15,2.95s1.82.27,2.77.41,1.45.54,1.47,1.4-.55,1.45-1.5,1.58-2.25-.5-2.76.43-.13,2-.12,3S359.15,374.93,358,375Z"/><path class="cls-13" d="M193,26.9a1.48,1.48,0,0,1-1.45-1.25A4.81,4.81,0,0,1,191.5,24c.24-1.76-.22-2.71-2.26-2.38-1.06.17-2.12-.21-2.09-1.53s1.1-1.59,2.17-1.42c1.89.3,2.47-.52,2.18-2.26a4.92,4.92,0,0,1,0-.94c0-1.1.2-2.11,1.55-2.09s1.47,1.09,1.45,2.16a9.55,9.55,0,0,1,0,1.31c-.26,1.54.44,2,1.87,1.81a4.92,4.92,0,0,1,.94,0,1.42,1.42,0,0,1,1.59,1.46c0,.88-.61,1.28-1.41,1.5-1,.27-2.33-.61-2.88.55-.38.83-.1,2-.1,3A1.57,1.57,0,0,1,193,26.9Z"/><path class="cls-14" d="M118.87,203.63a1.45,1.45,0,0,1,1.45,1.24,4.38,4.38,0,0,1,0,1.49c-.29,1.91.19,3,2.41,2.59,1-.18,2,.28,2,1.47s-.86,1.65-1.92,1.47c-2.16-.37-2.76.59-2.45,2.56a4.48,4.48,0,0,1-.07,1.67,1.35,1.35,0,0,1-1.54,1.08,1.39,1.39,0,0,1-1.3-1.15,2.09,2.09,0,0,1,0-.56c0-1.06.29-2.3-.16-3.14-.54-1-1.92-.25-2.92-.45a1.43,1.43,0,0,1-1.33-1.53c0-.86.62-1.3,1.45-1.44s2.27.49,2.79-.4.18-1.94.15-2.94S117.71,203.77,118.87,203.63Z"/><path class="cls-5" d="M78.41,306.1c2.42,0,5.56,1.7,7.53,5.34.46.85.85,1.82-.31,2.43s-1.54-.28-2-1.09a7.23,7.23,0,0,0-7.21-4.06,7.19,7.19,0,0,0-6.91,4.56c-.38.88-.84,1.63-1.93,1.19s-.83-1.38-.52-2.23C68.42,308.57,72.27,306.12,78.41,306.1Z"/><path class="cls-15" d="M302.2,225.29c-.68-.15-1.26-.39-1.4-1.11a6,6,0,0,1-.07-1.12c-.06-2.86-.06-2.88-2.81-3.15-.93-.09-1.61-.42-1.6-1.44s.65-1.41,1.59-1.46a3,3,0,0,1,.74,0c1.87.35,2.29-.61,2.09-2.21a10.6,10.6,0,0,1,0-1.69,1.39,1.39,0,0,1,1.42-1.45c.87,0,1.35.54,1.52,1.37a6.17,6.17,0,0,1,0,.75c.08,1-.38,2.17.22,2.92s1.78.19,2.69.31a1.37,1.37,0,0,1,1.4,1.45c0,.88-.54,1.3-1.41,1.44s-2.21-.54-2.74.47c-.4.74-.16,1.83-.15,2.76C303.74,224.27,303.42,225.11,302.2,225.29Z"/><path class="cls-5" d="M346.85,239a8,8,0,0,1,7.18,4.12c.55.94.81,2-.37,2.57-1,.53-1.72,0-2.22-1a4.57,4.57,0,0,0-4.59-2.63,4.63,4.63,0,0,0-4.41,2.93c-.41,1-1,1.7-2.12,1.2s-1-1.6-.56-2.55A7.91,7.91,0,0,1,346.85,239Z"/><path class="cls-12" d="M365.82,317.11h-6.76c-1.05,0-1.93-.27-1.93-1.51s.89-1.49,1.94-1.49h13.69c1,0,2,.21,2,1.41s-.91,1.6-2,1.59C370.45,317.09,368.13,317.11,365.82,317.11Z"/><path class="cls-16" d="M12,70.17c2.25,0,4.51,0,6.76,0,1.05,0,2,.25,2,1.44s-.94,1.57-2.07,1.56q-6.75,0-13.51,0C4,73.17,3,73,3.05,71.63s1.06-1.47,2.15-1.46C7.45,70.19,9.7,70.17,12,70.17Z"/><path class="cls-15" d="M242.71,108.83a2,2,0,0,1-1.47-.81c-1.25-1.47-2.49-3-3.76-4.43a1.68,1.68,0,0,1,.09-2.5c1.23-1.42,2.43-2.86,3.64-4.29.71-.82,1.55-1.17,2.43-.35s.46,1.57-.15,2.32c-1,1.2-2.73,2.4-2.73,3.61s1.73,2.43,2.72,3.63a1.78,1.78,0,0,1,.5,1.88A1.59,1.59,0,0,1,242.71,108.83Z"/><path class="cls-5" d="M294.37,338.12a1.57,1.57,0,0,1-.87,1.29,1.32,1.32,0,0,1-1.57-.18c-1.07-.87-2.15-1.73-3.15-2.68-.65-.62-1.07-.58-1.7,0-.95.91-2,1.73-3,2.57a1.39,1.39,0,0,1-2.15-.09,1.41,1.41,0,0,1,.2-2.16c1.56-1.36,3.14-2.69,4.72-4a1.49,1.49,0,0,1,2.06-.07c1.64,1.35,3.26,2.74,4.88,4.12A1.53,1.53,0,0,1,294.37,338.12Z"/><path class="cls-6" d="M13.93,239.37a2,2,0,0,1,1.41.82c1.22,1.43,2.42,2.87,3.65,4.28a1.74,1.74,0,0,1,0,2.64c-1.25,1.4-2.43,2.86-3.65,4.28-.7.81-1.53,1.19-2.41.36s-.45-1.56.14-2.32c.95-1.22,2.73-2.23,2.72-3.64s-1.76-2.43-2.74-3.64a1.77,1.77,0,0,1-.44-1.89A1.47,1.47,0,0,1,13.93,239.37Z"/><path class="cls-5" d="M250,108.83c-1.13-.06-5.8-5.72-5.57-6.73a2.51,2.51,0,0,1,.52-1c1.2-1.44,2.43-2.86,3.64-4.29.7-.83,1.52-1.2,2.42-.41s.53,1.53-.09,2.31c-1,1.25-2.89,2.34-2.76,3.76s1.81,2.43,2.8,3.63a1.52,1.52,0,0,1,.36,1.88A1.58,1.58,0,0,1,250,108.83Z"/><path class="cls-5" d="M23.49,245.82c-.23-.32-.43-.63-.67-.91-.83-1-1.71-2-2.52-3a1.41,1.41,0,0,1,.14-2.16,1.4,1.4,0,0,1,2.14.27c1.36,1.54,2.68,3.12,4,4.7a1.55,1.55,0,0,1,0,2.2c-1.28,1.53-2.58,3.05-3.88,4.57a1.47,1.47,0,0,1-2.28.31c-.82-.73-.54-1.57.08-2.32.75-.91,1.53-1.81,2.29-2.72C23,246.47,23.21,246.17,23.49,245.82Z"/><path class="cls-5" d="M294.37,345.45a1.46,1.46,0,0,1-.7,1.25,1.53,1.53,0,0,1-1.9-.19,37.16,37.16,0,0,1-2.84-2.44c-.76-.77-1.3-.67-2,0a36.57,36.57,0,0,1-2.86,2.42,1.41,1.41,0,0,1-2.16-.11,1.44,1.44,0,0,1,.27-2.16c1.55-1.35,3.13-2.68,4.71-4a1.49,1.49,0,0,1,2.05-.07c1.64,1.36,3.25,2.75,4.85,4.14A1.56,1.56,0,0,1,294.37,345.45Z"/><path class="cls-13" d="M83.31,316.52c-.06.76-.28,1.26-.94,1.4s-1.23-.27-1.65-.9c-1.46-2.21-3.22-2.88-5.37-2.18a3.92,3.92,0,0,0-2.54,2.32c-.39,1-1,1.49-2,1s-.75-1.34-.38-2.12a6.72,6.72,0,0,1,6.25-4,6.54,6.54,0,0,1,6.2,3.47A7,7,0,0,1,83.31,316.52Z"/><path class="cls-11" d="M355.28,170.52c-1.74,0-3.49,0-5.23,0-1.08,0-1.9-.35-1.85-1.56s.83-1.42,1.82-1.42q5.14,0,10.28,0c1.08,0,1.9.36,1.85,1.57s-.82,1.42-1.82,1.41C358.65,170.51,357,170.52,355.28,170.52Z"/><path class="cls-12" d="M142.14,240.22h-4.31c-1,0-1.79-.25-1.86-1.38s.72-1.57,1.68-1.58c3.1,0,6.2,0,9.3.05a1.54,1.54,0,0,1,1.55,1.54,1.37,1.37,0,0,1-1.5,1.35c-1.62,0-3.24,0-4.86,0Z"/><path class="cls-12" d="M363.14,120.86c1.05,0,2.11,0,3.16,0a1.52,1.52,0,0,1,1.48,1.32,1.36,1.36,0,0,1-1.34,1.59c-2.12.09-4.25.09-6.37,0a1.33,1.33,0,0,1-1.26-1.58,1.38,1.38,0,0,1,1.52-1.33c.93,0,1.87,0,2.81,0Z"/><path class="cls-16" d="M373,113.33c0,1,0,2,0,3a1.38,1.38,0,0,1-1.44,1.41,1.36,1.36,0,0,1-1.49-1.37q-.09-3,0-5.94a1.45,1.45,0,0,1,1.27-1.43,1.41,1.41,0,0,1,1.67,1.54c0,.94,0,1.87,0,2.8Z"/><path class="cls-15" d="M369.23,125.84c0,.1,0,.34-.13.46a23.2,23.2,0,0,1-5.64,4.56c-.58.33-1.22-.14-1.55-.73a1.31,1.31,0,0,1,.26-1.72c1.57-1.34,3.13-2.7,4.81-3.9A1.44,1.44,0,0,1,369.23,125.84Z"/><path class="cls-12" d="M373,130.53c0,1,.05,2,0,3a1.46,1.46,0,0,1-2.9,0c-.09-2-.07-4,0-6a1.36,1.36,0,0,1,1.47-1.4,1.34,1.34,0,0,1,1.46,1.38C373.05,128.53,373,129.53,373,130.53Z"/><path class="cls-6" d="M363.13,113.44a1.94,1.94,0,0,1,1.34.58c1.29,1,2.56,2,3.84,3,.83.64,1.34,1.43.56,2.38s-1.54.65-2.32,0c-1.43-1.11-2.85-2.22-4.27-3.36a1.38,1.38,0,0,1-.44-1.68A1.47,1.47,0,0,1,363.13,113.44Z"/><path class="cls-15" d="M204.2,304.75a2.84,2.84,0,1,0,0,5.67,2.84,2.84,0,0,0,2.89-2.82A2.87,2.87,0,0,0,204.2,304.75Zm.05,3.61a.71.71,0,0,1-.78-.83.65.65,0,0,1,.77-.63.67.67,0,0,1,.71.72A.73.73,0,0,1,204.25,308.36Z"/><path class="cls-15" d="M213.12,299.73a2.81,2.81,0,0,0-2.87,2.81,2.84,2.84,0,1,0,5.68,0A2.75,2.75,0,0,0,213.12,299.73Zm.11,3.53a.64.64,0,0,1-.81-.56.71.71,0,0,1,.69-.89c.42,0,.64.3.77.69A.73.73,0,0,1,213.23,303.26Z"/><path class="cls-15" d="M204.19,284.41a2.85,2.85,0,1,0,2.89,2.84A2.88,2.88,0,0,0,204.19,284.41Zm0,3.62a.73.73,0,0,1-.7-.74.72.72,0,0,1,.81-.8.76.76,0,0,1,.72.74C204.92,287.72,204.67,288.07,204.15,288Z"/><path class="cls-15" d="M194.93,299.73a2.76,2.76,0,0,0-2.81,2.87,2.83,2.83,0,0,0,2.87,2.84,2.9,2.9,0,0,0,2.82-2.9A2.79,2.79,0,0,0,194.93,299.73Zm.77,2.95a.68.68,0,0,1-.79.61c-.49-.09-.8-.38-.71-.88a.76.76,0,1,1,1.5.27Z"/><path class="cls-15" d="M213.08,290.11a2.86,2.86,0,0,0-2.83,2.88,2.85,2.85,0,0,0,5.69,0A2.89,2.89,0,0,0,213.08,290.11Zm0,3.67a.72.72,0,0,1-.7-.73c-.05-.54.28-.79.79-.79s.65.29.74.71C213.81,293.43,213.57,293.79,213.06,293.78Z"/><path class="cls-13" d="M194.89,290.41a2.76,2.76,0,0,0-2.76,2.91,2.79,2.79,0,0,0,2.9,2.77,2.86,2.86,0,0,0,2.79-2.92A2.82,2.82,0,0,0,194.89,290.41ZM195,294a.77.77,0,0,1-.83-.78c0-.47.32-.75.79-.82.47.12.77.39.73.89A.7.7,0,0,1,195,294Z"/><path class="cls-17" d="M347,245.72a2.12,2.12,0,0,0-2.12,2.09A2,2,0,0,0,347,250a2,2,0,0,0,2.22-2C349.21,246.69,348.42,245.92,347,245.72Zm.14,3a.77.77,0,0,1-.85-.78.66.66,0,0,1,.66-.72.69.69,0,0,1,.82.55A.81.81,0,0,1,347.15,248.68Z"/><path class="cls-18" d="M76.71,317.93A1.67,1.67,0,0,0,75,319.74a1.7,1.7,0,0,0,1.86,1.88,1.85,1.85,0,1,0-.12-3.69Zm.77,1.94a.67.67,0,0,1-1.33-.09c0-.43.3-.65.71-.7C77.29,319.18,77.54,319.44,77.48,319.87Z"/><path class="cls-15" d="M55.28,4.92A3.32,3.32,0,0,1,51.93,8.2a3.23,3.23,0,0,1-3.36-3.43A3.37,3.37,0,0,1,52,1.53,3.43,3.43,0,0,1,55.28,4.92Z"/><path class="cls-13" d="M68.84,4.87a3.34,3.34,0,0,1-3.29,3.35A3.27,3.27,0,0,1,62.14,5,3.35,3.35,0,0,1,65.5,1.53,3.41,3.41,0,0,1,68.84,4.87Z"/><path class="cls-15" d="M79.18,1.52a3.36,3.36,0,0,1,3.25,3.41,3.27,3.27,0,0,1-3.52,3.28,3.36,3.36,0,0,1-3.19-3.27A3.47,3.47,0,0,1,79.18,1.52Z"/><path class="cls-5" d="M156.52,365.18a4.68,4.68,0,0,0-5,4.68,4.86,4.86,0,0,0,4.87,5.07,5,5,0,0,0,4.87-4.75A4.85,4.85,0,0,0,156.52,365.18Zm-.24,6.43c-1-.08-1.78-.5-1.77-1.56a1.88,1.88,0,0,1,2.09-1.92,1.58,1.58,0,0,1,1.64,1.69C158.24,371,157.39,371.52,156.28,371.61Z"/><path class="cls-13" d="M92.5,147.49H66.19c-1.08,0-2.33-.1-2.33,1.45s1.19,1.5,2.31,1.49c4.32,0,8.65,0,13,0v0H92.48c1.09,0,2.32,0,2.33-1.49S93.59,147.49,92.5,147.49Z"/><path class="cls-12" d="M100,140.05c-3,0-6,0-9,0s-5.89,0-8.84,0c-1.13,0-2.29,0-2.25,1.55,0,1.34,1.12,1.45,2.19,1.45H99.89c1.11,0,2.11-.21,2.07-1.56S101,140,100,140.05Z"/><path class="cls-12" d="M74.53,154.84q-4.68-.06-9.36,0a1.42,1.42,0,0,0-1.6,1.47c0,1.11.68,1.51,1.7,1.51h9.18c1,0,1.58-.42,1.61-1.42A1.41,1.41,0,0,0,74.53,154.84Z"/><path class="cls-12" d="M73.26,140.05H65c-1,0-1.75.36-1.73,1.49,0,1.5,1.39,1.66,2.91,1.36a13.74,13.74,0,0,1,5.85,0c1.55.37,3,.18,3-1.36C75,140.42,74.27,140.05,73.26,140.05Z"/><path class="cls-14" d="M136.81,160q-8.52,0-17,0c-1.09,0-2.16.16-2.18,1.46s1.13,1.54,2.28,1.53c2.81,0,5.62,0,8.43,0s5.61,0,8.42,0c1.15,0,2.3-.11,2.27-1.54S137.9,160,136.81,160Z"/><path class="cls-15" d="M124.39,153.34h-12.2c-1,0-2,.23-2,1.49s1,1.51,2.09,1.5c2,0,4,0,6,0s4,0,6,0c1.1,0,2.1-.16,2.07-1.53S125.4,153.34,124.39,153.34Z"/><path class="cls-16" d="M137.42,153.37q-3.57-.08-7.13,0a1.43,1.43,0,0,0-1.59,1.49c0,1.11.77,1.47,1.77,1.47h3.38c1.17,0,2.33,0,3.49,0A1.57,1.57,0,0,0,139,155,1.43,1.43,0,0,0,137.42,153.37Z"/><path class="cls-19" d="M306.09,87.16a4.78,4.78,0,1,0,4.8,4.77A4.89,4.89,0,0,0,306.09,87.16Zm0,6.58c-1-.14-1.76-.69-1.76-1.77a1.76,1.76,0,1,1,3.52-.06C307.89,93,307.17,93.56,306.1,93.74Z"/><path class="cls-5" d="M128.83,313.75a3.65,3.65,0,0,0-3.53,3.85,3.72,3.72,0,0,0,3.71,3.51,3.77,3.77,0,0,0,3.65-3.78A3.72,3.72,0,0,0,128.83,313.75Zm.1,4.38a.72.72,0,0,1-.64-.8.61.61,0,0,1,.63-.57.64.64,0,0,1,.72.67C129.65,317.86,129.34,318.09,128.93,318.13Z"/><path class="cls-3" d="M80.78,241.16q-8.7-4.8-17.42-9.57c-1.87-1-2.77-.46-2.78,1.74,0,3.19,0,6.38,0,9.58s0,6.25,0,9.38c0,2.58.83,3.11,3,1.9q8.64-4.73,17.25-9.48c.72-.4,1.53-.71,1.55-1.7S81.54,241.58,80.78,241.16Zm-16.64,9.57V235.2L78.28,243Z"/><path class="cls-5" d="M234.47,162.36c-1.34-.57-1.82.44-2.26,1.52a8.24,8.24,0,0,1-15.54-.11c-.39-1-.76-2-2.06-1.61s-1.13,1.58-.78,2.64a11.28,11.28,0,0,0,21.15.29C235.37,164.09,235.84,162.93,234.47,162.36Z"/><path class="cls-20" d="M218.12,152.55a2.7,2.7,0,0,0-2.62,2.63,2.64,2.64,0,1,0,5.28-.05A2.68,2.68,0,0,0,218.12,152.55Z"/><path class="cls-16" d="M231,152.55a2.69,2.69,0,0,0-2.65,2.6,2.63,2.63,0,0,0,2.73,2.67,2.56,2.56,0,0,0,2.54-2.66A2.65,2.65,0,0,0,231,152.55Z"/><path class="cls-21" d="M238.24,26a1.46,1.46,0,0,0-1.41,1.67c0,1.56,0,3.12,0,4.68h0c0,1.54,0,3.08,0,4.61a1.57,1.57,0,0,0,1.66,1.61,1.51,1.51,0,0,0,1.32-1.66q.06-4.68,0-9.37A1.43,1.43,0,0,0,238.24,26Z"/><path class="cls-22" d="M238.4,39.71a1.57,1.57,0,0,0-1.88,1.61A1.55,1.55,0,0,0,238,43.1,1.66,1.66,0,0,0,240,41.5,1.64,1.64,0,0,0,238.4,39.71Z"/><path class="cls-15" d="M136.29,48.74a2.84,2.84,0,1,0,2.88,2.85A2.88,2.88,0,0,0,136.29,48.74Zm.05,3.61a.72.72,0,0,1-.78-.84.64.64,0,0,1,.77-.62.67.67,0,0,1,.7.72A.72.72,0,0,1,136.34,52.35Z"/><path class="cls-15" d="M145.21,43.72a2.81,2.81,0,0,0-2.87,2.81,2.84,2.84,0,1,0,5.68,0A2.76,2.76,0,0,0,145.21,43.72Zm.11,3.53a.64.64,0,0,1-.81-.56.71.71,0,0,1,.69-.89c.42,0,.64.3.76.69A.72.72,0,0,1,145.32,47.25Z"/><path class="cls-15" d="M136.28,28.4a2.85,2.85,0,1,0,2.89,2.84A2.89,2.89,0,0,0,136.28,28.4Zm0,3.62a.77.77,0,0,1,.11-1.54.76.76,0,0,1,.72.73C137,31.7,136.76,32.06,136.24,32Z"/><path class="cls-15" d="M127,43.72a2.76,2.76,0,0,0-2.81,2.87,2.83,2.83,0,0,0,2.87,2.84,2.9,2.9,0,0,0,2.82-2.91A2.78,2.78,0,0,0,127,43.72Zm.77,3a.68.68,0,0,1-.79.61c-.49-.09-.8-.38-.71-.89a.75.75,0,0,1,.79-.63A.76.76,0,0,1,127.79,46.67Z"/><path class="cls-15" d="M145.17,34.1A2.86,2.86,0,0,0,142.34,37,2.85,2.85,0,0,0,148,37,2.89,2.89,0,0,0,145.17,34.1Zm0,3.67a.72.72,0,0,1-.7-.73c0-.55.28-.79.79-.79s.65.29.74.71C145.9,37.42,145.66,37.78,145.15,37.77Z"/><path class="cls-13" d="M127,34.4a2.76,2.76,0,0,0-2.75,2.91,2.79,2.79,0,0,0,2.9,2.77,2.84,2.84,0,0,0,2.78-2.92A2.8,2.8,0,0,0,127,34.4ZM127.1,38a.78.78,0,0,1-.84-.78c0-.48.33-.75.8-.82.47.12.77.39.73.89A.7.7,0,0,1,127.1,38Z"/></g></g></g></svg>