<svg xmlns="http://www.w3.org/2000/svg" viewBox="0 0 302.11 66.01"><defs><style>.a{fill:#323333;}.b{fill:#fff;}</style></defs><title>资源 12</title><path class="a" d="M111.87,41.9c-11,.15-23.08,1.07-30.77,2.44l-1.52-5.48c8.91-.91,32.29-1.6,32.29-1.6V29.5h4.87l-.15,7.77c12.26.08,24.52.61,32.75,1.29l-3.5,6c-6.85-1.67-15.61-2.59-30-2.67V60.5h-4ZM84.68,52.64a69.88,69.88,0,0,0,19.5-8l2.28,2.86A89.56,89.56,0,0,1,89,57.89Zm1.37-35.79,15.38,1.6-.15,3.81-15.46.3Zm1.6,11.5,15.84-2.89,1.14,3.81L89.48,34.13Zm2.44-16.22,1.45-5.48,13.33,4.42-1,3.5Zm15,4.34c4.26-.46,9.29-.84,14.55-1.22l.23-9.75h3V15c8.34-.46,16-.84,22.51-.91l-.69,5c-5.64,0-20.82.84-20.82.84v6.85s12.52.15,17.39.46l-1.75,5.18c-5.33-.84-9.82-1.14-20.41-1.14a91.85,91.85,0,0,1,.77-9.21V20.12c-5.11.38-9.6.84-13.49,1.29Zm17.29,31,2.21-2.82a70.82,70.82,0,0,0,19.5,8l-4.42,5.25a92.38,92.38,0,0,1-17.29-10.4Z"/><path class="a" d="M161.46,54.75c3.17-2.06,3.42-3,3.42-5.79V8.69h5v15.9c3.08-.15,6.75-.23,10.25-.23,4,0,8.67,0,12,.08l-.92,5.33c-3.08,0-7.92-.08-11.33,0-4.33,0-7.58.08-10,.23V50.63c4.83-1.52,16.5-4.8,22.83-6.32l.25,5.94c-6.25,1.37-16.92,4.19-20.17,5.33a23.46,23.46,0,0,0-7.17,3.73Zm45.37.51c-3.86-.69-9.85-1.52-13-1.75l.5-46.82h3.55V27.62l21.38-9.29L221.7,24l-22.82,8.61.12,16.2c2.27.23,6.06.69,10.08,1.14,6.67.76,10.3.61,16.14-2l-5.15,10.43A89.33,89.33,0,0,0,206.83,55.26Z"/><path class="a" d="M233.33,56.51C250.64,52.4,255.18,48.36,256.1,40c-4.31.08-8.39.23-11.23.53v9.55h-4V43.72a72,72,0,0,0-.23-7.77c4.35-.23,11.46-.61,16.65-.61,5.73,0,12.53.3,16.88.61a57.89,57.89,0,0,0-.31,7.77v6.34h-4V40.22c-2.38-.08-5.62-.15-9.85-.23a31.37,31.37,0,0,1-1.15,5.25,61.4,61.4,0,0,0,21.08,11l-6,4.34a122.58,122.58,0,0,1-16.62-11.8c-2.69,4.65-7.85,8-17.62,11.8Zm44-37.83c-3.12-.08-6.55-.08-10.13-.08-9.6,0-21.86.3-31.6,1l-1.07-4.8C243.9,14.19,256,14,267.12,14c3.2,0,6.55.08,9.9.08-.23-2.59-.38-5.41-.53-8.38l4.27-.38c.15,3.12.3,6.09.53,8.83l10.21.23-7.39-4.11,3-3.81,7.69,5.79L293,14.5l6.47.23-1.6,4.72c-4.49-.3-9.82-.53-16.3-.69,2.36,23.08,7.77,31.07,20.49,38.08l-7.84,3.81c-10.43-10.36-14.92-21-17-42Zm-37.58,3.38c5.18-.38,12.57-.61,17.52-.61,6.17,0,12.87.08,17.06.3l-.84,4.11c-4.34-.23-10.51-.38-16.15-.38-5,0-12.11.23-16.91.69Zm0,6.85c5.18-.46,12.57-.69,17.52-.69,6.17,0,12.87.08,17.06.38l-.84,4c-4.19-.3-10.28-.38-16.15-.38-5,0-12.11.23-16.91.61Z"/><circle class="a" cx="33" cy="33" r="33"/><path class="b" d="M23,37.53c3.49-.22,8.13,2.48,9.49,5.52a2.6,2.6,0,0,1,.06,1.48c-.68,3.25-1.38,6.5-2.15,9.73A2.7,2.7,0,0,1,29.33,56a7.77,7.77,0,0,1-5.83.77c-1.65-.48-2.18-1.9-.95-3,2-1.84,1.73-4,1.46-6.29s-.67-4.36-.95-6.56A30.13,30.13,0,0,1,23,37.53Z"/><path class="b" d="M48.49,35.26c-.82,1.37-1.35,3-3.42,3.48.65,3.56,1.35,7.26,2,11a29.16,29.16,0,0,1,.38,3.95A4.74,4.74,0,0,1,43,58.72h-.5A14.35,14.35,0,0,1,38.22,58c-1.65-.56-2-1.83-.83-3.09A2.85,2.85,0,0,0,38,51.57c-1.24-3.13-2.18-6.44-3.9-9.3-2.91-4.84-7.79-6.18-13-5.4a56.81,56.81,0,0,0-9.92,3,5.18,5.18,0,0,1-5.31-.63C5,38.62,4.74,38,5.42,37.1S6.47,35.57,7,34.81c.73-1.05,1.53-2,1.31-3.5a2.36,2.36,0,0,1,.61-1.75c1.31-1.34,2.75-2.55,4.16-3.79a1.46,1.46,0,0,1,.81-.33c5.95-.41,10.67-3.24,14.85-7.3,3.1-3,6.57-5.51,11-6.2,6.37-1,12.47,2.3,13.41,9.89A27.51,27.51,0,0,1,52.51,30a30.66,30.66,0,0,0-.26,11.69,5,5,0,0,1-1.39,4.48,1.34,1.34,0,0,1-2.49-.59c-.59-1.9-1.18-3.79-1.67-5.69a2.07,2.07,0,0,1,.39-1.23c.56-1,1.17-2.06,1.76-3.08ZM11.77,31.39a.59.59,0,1,0,.59.59h0a.59.59,0,0,0-.59-.59Z"/></svg>