<svg xmlns="http://www.w3.org/2000/svg" viewBox="0 0 215.78 50.72"><defs><style>.a{fill:#fff;}</style></defs><title>资源 12</title><path class="a" d="M25.36,0A25.36,25.36,0,1,0,50.72,25.36,25.36,25.36,0,0,0,25.36,0ZM25,34.22c-.52,2.5-1.06,5-1.65,7.48a2.07,2.07,0,0,1-.77,1.3,6,6,0,0,1-4.48.59c-1.27-.37-1.68-1.46-.73-2.31,1.54-1.41,1.33-3.07,1.12-4.83s-.51-3.35-.73-5a23.14,23.14,0,0,1-.05-2.61c2.68-.17,6.25,1.91,7.29,4.24A2,2,0,0,1,25,34.22ZM40.35,23.07a23.56,23.56,0,0,0-.2,9,3.84,3.84,0,0,1-1.07,3.44A1,1,0,0,1,37.17,35c-.45-1.46-.91-2.91-1.28-4.37a1.59,1.59,0,0,1,.3-1c.43-.77.9-1.58,1.35-2.37l-.28-.21c-.63,1.05-1,2.31-2.63,2.67.5,2.74,1,5.58,1.54,8.45a22.41,22.41,0,0,1,.29,3,3.64,3.64,0,0,1-3.41,3.86h-.4a11,11,0,0,1-3.29-.55c-1.27-.43-1.54-1.41-.64-2.37a2.19,2.19,0,0,0,.47-2.57,47.7,47.7,0,0,0-3-7.15c-2.24-3.72-6-4.75-10-4.15A43.66,43.66,0,0,0,8.57,30.6a4,4,0,0,1-4.08-.48c-.67-.48-.87-1-.35-1.64a19.13,19.13,0,0,0,1.24-1.73,3.57,3.57,0,0,0,1-2.69,1.81,1.81,0,0,1,.47-1.34c1-1,2.11-2,3.2-2.91a1.12,1.12,0,0,1,.62-.25c4.57-.32,8.2-2.49,11.41-5.61,2.38-2.31,5-4.23,8.45-4.76,4.9-.77,9.58,1.77,10.31,7.6A21.14,21.14,0,0,1,40.35,23.07Z"/><circle class="a" cx="9" cy="24.57" r="0.45"/><path class="a" d="M85.85,31.25A146.78,146.78,0,0,0,64.6,32.92l-1-3.75c6.1-.62,14.85-1,22.24-1.09l-.05-5.37H89l-.1,5.37c8.39,0,16.77.42,22.4.89l-2.4,4.12c-4.69-1.15-10.68-1.77-20-1.82l-.16,12.92H86ZM67,38.59a47.78,47.78,0,0,0,13.34-5.47L81.94,35A61.29,61.29,0,0,1,70,42.19Zm1-24.48L78.5,15.2l-.1,2.6L67.82,18ZM69.07,22l10.84-2,.78,2.6L70.32,25.93Zm1.67-11.1,1-3.75,9.12,3-.68,2.4ZM81,13.9c2.92-.31,6.35-.57,9.95-.83l.16-6.62h2.66l.05,6.41c5.05-.31,10.26-.57,14.74-.62l-.47,3.39c-3.85,0-9.06.21-14.22.57l.05,4.69c4.43,0,8.49.1,11.83.31l-1.2,3.54c-3.65-.57-6.72-.78-14-.78.1-1.93.21-4.38.26-6.3V16.35c-3.23.26-6.3.57-9,.89ZM92.83,35l1.51-1.93a48.42,48.42,0,0,0,13.34,5.47l-3,3.59A63.19,63.19,0,0,1,92.83,35Z"/><path class="a" d="M119.92,39.84c2-1.41,2.14-2.08,2.14-4V8.32h3.13V19.21c1.93-.1,4.22-.16,6.41-.16,2.5,0,5.42,0,7.5,0l-.57,3.65c-1.93,0-4.95,0-7.08,0-2.71,0-4.74,0-6.25.16V37c3-1,10.31-3.28,14.27-4.32l.16,4.06c-3.91.94-10.57,2.87-12.61,3.65a14.26,14.26,0,0,0-4.5,2.61Zm30.68.63c-2.66-.47-6.77-1-8.91-1.2l.31-32h3l.1,14.12,14-6.36,1.67,3.85-15.63,5.89.1,11.3c1.56.16,4.17.47,6.93.78,4.58.52,7.08.42,11.1-1.35l-3.54,7.14A61.6,61.6,0,0,0,150.6,40.47Z"/><path class="a" d="M168.58,41.25C180.3,38.44,183.37,35.68,184,30c-2.92,0-5.68.16-7.61.36v6.51h-2.76V32.5a49.37,49.37,0,0,0-.16-5.31c3-.16,7.81-.42,11.36-.42,3.91,0,8.54.21,11.51.42a39.75,39.75,0,0,0-.21,5.31v4.32h-2.81V30.1c-1.62,0-3.8-.1-6.67-.16a21.63,21.63,0,0,1-.78,3.59A41.44,41.44,0,0,0,200.14,41l-4.06,3a83.07,83.07,0,0,1-11.25-8.07C183,39.11,179.52,41.4,172.9,44Zm30.21-25.63c-2.14-.05-4.48-.05-6.93-.05-6.56,0-15,.21-21.62.68L169.51,13c6.41-.42,14.69-.52,22.3-.52,2.19,0,4.48.05,6.77.05-.16-1.77-.26-3.7-.36-5.73l2.92-.26c.1,2.14.21,4.17.36,6l7,.16-5.05-2.81,2.08-2.6,5.26,4-1.2,1.51L214,13l-1.09,3.23c-3.07-.21-6.72-.36-11.15-.47,1.61,15.78,5.31,21.25,14,26l-5.37,2.6c-7.14-7.08-10.21-14.38-11.62-28.7ZM173.11,18c3.54-.26,8.6-.42,12-.42,4.22,0,8.8,0,11.67.21l-.57,2.81c-3-.16-7.19-.26-11-.26-3.44,0-8.28.16-11.56.47Zm0,4.69c3.54-.31,8.6-.47,12-.47,4.22,0,8.8,0,11.67.26l-.57,2.76c-2.87-.21-7-.26-11-.26-3.44,0-8.28.16-11.56.42Z"/></svg>