<?xml version="1.0" standalone="no"?><!DOCTYPE svg PUBLIC "-//W3C//DTD SVG 1.1//EN" "http://www.w3.org/Graphics/SVG/1.1/DTD/svg11.dtd"><svg t="1572536647557" class="icon" viewBox="0 0 1024 1024" version="1.1" xmlns="http://www.w3.org/2000/svg" p-id="4083" xmlns:xlink="http://www.w3.org/1999/xlink" width="200" height="200"><defs><style type="text/css"></style></defs><path d="M512.6 873.3c-98.2-19-210.5-14.6-384.6 0l-0.3-653.7c81.7-31.5 385 0 385 0m383.7 0.1s-303.3-31.5-385 0l0.3 653.7c174.1-14.6 286.4-19 384.6 0" fill="#BBDEFB" p-id="4084"></path><path d="M508.4 224h7.1v643.1h-7.1z" fill="#FFFFFF" p-id="4085"></path><path d="M466 405.3v22.6c-80.5-8.6-169.5-8.6-256 0v-22.6c84.1-9.1 172.3-9.1 256 0z m-257.2 64.4v22.6c86.6-8.6 175.6-8.6 256 0v-22.6c-83.7-9.1-171.9-9.1-256 0z m1.2 63.9v22.6c86.6-8.6 175.6-8.6 256 0v-22.6c-83.7-9.1-171.9-9.1-256 0z m0 63.9v22.6c57.9-8.6 117.4-8.6 171.2 0v-22.6c-56-9.1-115-9.1-171.2 0z m0 64v22.6c72-8.6 146.1-8.6 213.1 0v-22.6c-69.7-9.2-143.1-9.1-213.1 0zM576.5 254.9c0-5.5 3.6-12.7 8.1-15.9l111.9-82.4c4.4-3.3 11.7-3.3 16.1 0l113.3 82.5c4.4 3.2 8.1 10.4 8.1 15.9l-0.1 358.6c0 5.5-4.5 10-10 10l-237.4-0.1c-5.5 0-10-4.5-10-10V254.9z" fill="#1E88E5" p-id="4086"></path><path d="M703.4 287.2m-32.2 0a32.2 32.2 0 1 0 64.4 0 32.2 32.2 0 1 0-64.4 0Z" fill="#FFFFFF" p-id="4087"></path><path d="M724.3 469.9c-5.5-0.1-10-4.6-9.9-10.1l0.5-47.8c0.1-5.5 4.6-10 10.1-9.9l47.8 0.5c5.5 0.1 10 4.6 9.9 10.1l-0.5 47.8c-0.1 5.5-4.6 10-10.1 9.9l-47.8-0.5z m46.5 82.1c5.5 0.1 10-4.4 10.1-9.9l0.5-47.8c0.1-5.5-4.4-10-9.9-10.1l-47.8-0.5c-5.5-0.1-10 4.4-10.1 9.9l-0.5 47.8c-0.1 5.5 4.4 10 9.9 10.1l47.8 0.5z m-81.8 0.9c5.5 0.1 10-4.4 10.1-9.9l0.5-47.8c0.1-5.5-4.4-10-9.9-10.1l-47.8-0.5c-5.5-0.1-10 4.4-10.1 9.9l-0.5 47.8c-0.1 5.5 4.4 10 9.9 10.1l47.8 0.5z m1.1-83.4c5.5 0.1 10-4.4 10.1-9.9l0.5-47.8c0.1-5.5-4.4-10-9.9-10.1l-47.8-0.5c-5.5-0.1-10 4.4-10.1 9.9l-0.5 47.8c-0.1 5.5 4.4 10 9.9 10.1l47.8 0.5z" fill="#FFFFFF" p-id="4088"></path></svg>