<?xml version="1.0" standalone="no"?><!DOCTYPE svg PUBLIC "-//W3C//DTD SVG 1.1//EN" "http://www.w3.org/Graphics/SVG/1.1/DTD/svg11.dtd"><svg t="1572542163218" class="icon" viewBox="0 0 1024 1024" version="1.1" xmlns="http://www.w3.org/2000/svg" p-id="63551" xmlns:xlink="http://www.w3.org/1999/xlink" width="200" height="200"><defs><style type="text/css"></style></defs><path d="M206.29 416.69m24.82 0l641.36 0q24.82 0 24.82 24.82l0 362.36q0 24.82-24.82 24.82l-641.36 0q-24.82 0-24.82-24.82l0-362.36q0-24.82 24.82-24.82Z" fill="#BAD4FF" p-id="63552"></path><path d="M257.27 361.63a14.35 14.35 0 0 1-9.61-25l235.93-212.45a42.89 42.89 0 0 1 57.82 0.11l233.65 212.35a14.37 14.37 0 0 1-19.33 21.26L522.08 145.56a14.24 14.24 0 0 0-19.28 0L266.88 357.93a14.21 14.21 0 0 1-9.61 3.7z" fill="#3585F9" p-id="63553"></path><path d="M322.8 587.61m-28.73 0a28.73 28.73 0 1 0 57.46 0 28.73 28.73 0 1 0-57.46 0Z" fill="#3585F9" p-id="63554"></path><path d="M448.49 587.61m-28.73 0a28.73 28.73 0 1 0 57.46 0 28.73 28.73 0 1 0-57.46 0Z" fill="#3585F9" p-id="63555"></path><path d="M574.18 587.61m-28.73 0a28.73 28.73 0 1 0 57.46 0 28.73 28.73 0 1 0-57.46 0Z" fill="#3585F9" p-id="63556"></path><path d="M699.86 587.61m-28.73 0a28.73 28.73 0 1 0 57.46 0 28.73 28.73 0 1 0-57.46 0Z" fill="#3585F9" p-id="63557"></path><path d="M867.83 332.65h-713a43.14 43.14 0 0 0-43.09 43.1v270h0.07a14.3 14.3 0 0 0 28.59 0h0.07v-270a14.38 14.38 0 0 1 14.36-14.37h713a14.38 14.38 0 0 1 14.36 14.37v423.74a14.38 14.38 0 0 1-14.36 14.36h-713a14.37 14.37 0 0 1-14.36-14.36v-38.92h-0.14a14.24 14.24 0 0 0-28.45 0h-0.14v38.92a43.14 43.14 0 0 0 43.09 43.09h713a43.14 43.14 0 0 0 43.09-43.09V375.75a43.14 43.14 0 0 0-43.09-43.1z" fill="#3585F9" p-id="63558"></path></svg>