<?xml version="1.0" standalone="no"?><!DOCTYPE svg PUBLIC "-//W3C//DTD SVG 1.1//EN" "http://www.w3.org/Graphics/SVG/1.1/DTD/svg11.dtd"><svg t="1572536768642" class="icon" viewBox="0 0 1024 1024" version="1.1" xmlns="http://www.w3.org/2000/svg" p-id="19538" xmlns:xlink="http://www.w3.org/1999/xlink" width="200" height="200"><defs><style type="text/css"></style></defs><path d="M914.618182 474.996364L599.272727 159.650909a46.545455 46.545455 0 0 0-65.861818 0l-128 128 138.472727 138.472727a93.090909 93.090909 0 0 1 27.229091 65.861819v179.2a43.52 43.52 0 0 1-43.52 43.52H190.603636v119.621818a43.52 43.52 0 0 0 43.752728 43.52H898.327273a43.52 43.52 0 0 0 43.52-43.52V540.858182a93.090909 93.090909 0 0 0-27.229091-65.861818z" fill="#73B4FF" p-id="19539"></path><path d="M218.065455 474.996364l187.345454-186.181819-62.603636-63.767272a46.545455 46.545455 0 0 0-65.861818 0l-201.076364 201.076363a93.090909 93.090909 0 0 0-27.229091 65.861819v179.2A43.52 43.52 0 0 0 93.090909 714.705455h97.512727v-173.847273a93.090909 93.090909 0 0 1 27.461819-65.861818z" fill="#87D3FF" p-id="19540"></path><path d="M571.112727 671.185455v-179.2a93.090909 93.090909 0 0 0-27.229091-65.861819l-138.472727-138.472727-187.345454 187.345455a93.090909 93.090909 0 0 0-27.461819 65.861818v173.847273h336.989091a43.52 43.52 0 0 0 43.52-43.52z" fill="#73B4FF" p-id="19541"></path><path d="M571.112727 671.185455v-179.2a93.090909 93.090909 0 0 0-27.229091-65.861819l-138.472727-138.472727-187.345454 187.345455a93.090909 93.090909 0 0 0-27.461819 65.861818v173.847273h336.989091a43.52 43.52 0 0 0 43.52-43.52z" fill="#1474E4" p-id="19542"></path></svg>