<?xml version="1.0" standalone="no"?><!DOCTYPE svg PUBLIC "-//W3C//DTD SVG 1.1//EN" "http://www.w3.org/Graphics/SVG/1.1/DTD/svg11.dtd"><svg t="1572840726230" class="icon" viewBox="0 0 1024 1024" version="1.1" xmlns="http://www.w3.org/2000/svg" p-id="25613" xmlns:xlink="http://www.w3.org/1999/xlink" width="128" height="128"><defs><style type="text/css"></style></defs><path d="M859.194 876.957c0.067-0.584 0.121-1.172 0.17-1.761l0.002-0.022a58.73 58.73 0 0 0 0.217-4.842c0-14.082-5.03-26.986-13.386-37.023l-52.363-89.175c-15.992-27.232-51.407-36.563-79.104-20.841-27.697 15.724-37.186 50.546-21.196 77.778l6.667 11.354H323.322l69.897-120.253c36.603 15.285 76.771 23.74 118.917 23.74 170.568 0 308.842-138.274 308.842-308.842 0-170.569-138.274-308.842-308.842-308.842-170.569 0-308.842 138.272-308.842 308.842 0 86.74 35.774 165.112 93.354 221.212L175.66 836.434a57.583 57.583 0 0 0-10.822 29.952l-0.001 0.018a59.27 59.27 0 0 0-0.096 1.894c-0.025 0.61-0.04 1.219-0.046 1.828 0 0.069-0.005 0.136-0.005 0.204 0 0.06 0.004 0.118 0.005 0.178-0.055 19.931 10.318 39.337 28.942 50.017a58.71 58.71 0 0 0 6.344 3.128l0.199 0.083c0.775 0.324 1.553 0.632 2.335 0.921 0.154 0.057 0.31 0.111 0.465 0.167a57.07 57.07 0 0 0 2.159 0.73c0.218 0.069 0.438 0.133 0.658 0.2 0.678 0.205 1.357 0.4 2.039 0.579 0.261 0.069 0.525 0.132 0.788 0.197 0.655 0.162 1.311 0.316 1.969 0.455 0.29 0.061 0.582 0.117 0.874 0.174 0.644 0.125 1.287 0.242 1.933 0.345 0.309 0.049 0.62 0.093 0.931 0.138a53.166 53.166 0 0 0 2.897 0.34 58.915 58.915 0 0 0 2.941 0.195c0.59 0.024 1.179 0.039 1.768 0.045 0.222 0.003 0.441 0.017 0.664 0.017h579.078a57.626 57.626 0 0 0 28.654-7.593c0.072-0.04 0.145-0.076 0.217-0.116 0.112-0.064 0.218-0.134 0.329-0.198 0.463-0.271 0.923-0.545 1.377-0.828 15.716-9.639 25.176-25.584 26.938-42.547zM512.136 214.043c106.604 0 193.026 86.42 193.026 193.026 0 106.604-86.422 193.026-193.026 193.026S319.11 513.674 319.11 407.069c0-106.606 86.422-193.026 193.026-193.026z" fill="#5E9DF3" p-id="25614"></path><path d="M801.602 812.352c-31.982 0-57.91 25.925-57.91 57.908 0 31.981 25.927 57.908 57.91 57.908 31.981 0 57.908-25.927 57.908-57.908 0-31.983-25.927-57.908-57.908-57.908z m-579.078 0c-31.983 0-57.908 25.925-57.908 57.908 0 31.981 25.925 57.908 57.908 57.908 31.981 0 57.908-25.927 57.908-57.908 0-31.983-25.928-57.908-57.908-57.908z m154.421-250.934c-31.982 0-57.908 25.925-57.908 57.908 0 31.981 25.925 57.908 57.908 57.908 31.981 0 57.906-25.927 57.906-57.908 0-31.983-25.926-57.908-57.906-57.908z" fill="#3080EE" p-id="25615"></path></svg>