<?xml version="1.0" standalone="no"?><!DOCTYPE svg PUBLIC "-//W3C//DTD SVG 1.1//EN" "http://www.w3.org/Graphics/SVG/1.1/DTD/svg11.dtd"><svg t="1572839106853" class="icon" viewBox="0 0 1024 1024" version="1.1" xmlns="http://www.w3.org/2000/svg" p-id="22953" xmlns:xlink="http://www.w3.org/1999/xlink" width="128" height="128"><defs><style type="text/css"></style></defs><path d="M597.82 201.84m15.43 0l239.14 0q15.43 0 15.43 15.43l0 237.29q0 15.43-15.43 15.43l-239.14 0q-15.43 0-15.43-15.43l0-237.29q0-15.43 15.43-15.43Z" fill="#BAD4FF" p-id="22954"></path><path d="M838.62 484.75h-260.1A40.77 40.77 0 0 1 537.81 444V183.92a40.77 40.77 0 0 1 40.71-40.73h260.1a40.78 40.78 0 0 1 40.72 40.73V444a40.78 40.78 0 0 1-40.72 40.75z m-260.1-314a13.17 13.17 0 0 0-13.15 13.17V444a13.16 13.16 0 0 0 13.15 13.16h260.1A13.16 13.16 0 0 0 851.77 444V183.92a13.16 13.16 0 0 0-13.15-13.17zM838.62 880.44h-260.1a40.74 40.74 0 0 1-40.71-40.7v-260.1a40.77 40.77 0 0 1 40.71-40.73h260.1a40.78 40.78 0 0 1 40.72 40.73v260.1a40.75 40.75 0 0 1-40.72 40.7z m-260.1-314a13.16 13.16 0 0 0-13.15 13.16v260.1a13.16 13.16 0 0 0 13.15 13.14h260.1a13.16 13.16 0 0 0 13.15-13.14V579.64a13.16 13.16 0 0 0-13.15-13.16zM444.08 880.44H184a40.74 40.74 0 0 1-40.71-40.7v-260.1A40.77 40.77 0 0 1 184 538.91h260.1a40.78 40.78 0 0 1 40.72 40.73v260.1a40.75 40.75 0 0 1-40.74 40.7zM184 566.48a13.16 13.16 0 0 0-13.15 13.16v260.1A13.16 13.16 0 0 0 184 852.88h260.1a13.16 13.16 0 0 0 13.15-13.14v-260.1a13.16 13.16 0 0 0-13.15-13.16zM313.8 144.67c-71.87 0-133.37 45.17-157.64 108.6a14.36 14.36 0 0 0 13.45 19.42 14.36 14.36 0 0 0 13.39-9.21 140.2 140.2 0 0 1 130.3-90.08c76.73-0.25 139.84 62.13 140.44 138.86 0.6 77.68-62.41 141.1-140 141.1-60.12 0-111.51-38.12-131.29-91.45a14.27 14.27 0 0 0-13.41-9.22A14.36 14.36 0 0 0 155.61 372c23.87 64.21 85.77 110.08 158.19 110.08 93 0 168.69-75.69 168.69-168.72S406.81 144.67 313.8 144.67z" fill="#3585F9" p-id="22955"></path></svg>