<?xml version="1.0" standalone="no"?><!DOCTYPE svg PUBLIC "-//W3C//DTD SVG 1.1//EN" "http://www.w3.org/Graphics/SVG/1.1/DTD/svg11.dtd"><svg t="1572541460452" class="icon" viewBox="0 0 1024 1024" version="1.1" xmlns="http://www.w3.org/2000/svg" p-id="29464" xmlns:xlink="http://www.w3.org/1999/xlink" width="200" height="200"><defs><style type="text/css"></style></defs><path d="M552.17 84.43c-71.66 0-328.34 65.55-328.34 65.55v540.5s196.01 249.09 328.34 249.09 329.66-249.09 329.66-249.09V145.06s-258-60.63-329.66-60.63z" fill="#99D1FF" p-id="29465"></path><path d="M490.52 959.57c-60.18 0-136.75-43.75-227.57-130.05-65.83-62.55-114.45-124.09-116.49-126.68a20.03 20.03 0 0 1-4.28-12.37v-540.5c0-9.14 6.2-17.12 15.05-19.38 10.58-2.7 259.96-66.17 333.29-66.17 73.14 0 323.61 58.67 334.23 61.16 9.04 2.12 15.42 10.19 15.42 19.47v545.41c0 4.51-1.52 8.88-4.32 12.42-2.05 2.59-50.98 64.12-117.14 126.66-91.25 86.29-168.03 130.03-228.19 130.03zM182.17 683.43c13.23 16.25 55.72 67.17 108.66 117.41 81.82 77.67 150.87 118.73 199.69 118.73 48.9 0 118.31-41.18 200.72-119.08 53.11-50.21 95.66-100.87 108.94-117.1V160.97c-56.4-12.93-250.99-56.54-309.66-56.54-58.62 0-252.65 47.27-308.34 61.15v517.85z" fill="#0072F0" p-id="29466"></path><path d="M432.58 601.59h-0.09a20 20 0 0 1-14.12-5.92L314.42 490.78c-7.78-7.84-7.72-20.51 0.13-28.28s20.51-7.72 28.28 0.13l89.88 90.68L639.65 348.2c7.85-7.78 20.51-7.72 28.28 0.13 7.78 7.84 7.72 20.51-0.13 28.28L446.66 595.8a20.021 20.021 0 0 1-14.08 5.79z" fill="#0072F0" p-id="29467"></path></svg>